<svg width="65" height="12" viewBox="0 0 65 12" fill="none" xmlns="http://www.w3.org/2000/svg">
<g id="socials">
<path id="Vector" d="M3.51503 0.0420083C2.87663 0.0721082 2.44068 0.174008 2.05953 0.323707C1.66514 0.477457 1.33079 0.683706 0.998138 1.01756C0.665539 1.3514 0.460639 1.68595 0.30804 2.08105C0.16034 2.46295 0.0602406 2.8993 0.0320407 3.53805C0.00384078 4.1768 -0.0024092 4.38215 0.000740792 6.01154C0.00384078 7.64084 0.0110408 7.84509 0.0419907 8.48518C0.0724906 9.12343 0.17399 9.55928 0.32374 9.94053C0.477739 10.335 0.683739 10.6692 1.01774 11.0019C1.35169 11.3347 1.68599 11.5391 2.08198 11.6919C2.46358 11.8394 2.90003 11.94 3.53868 11.9679C4.17733 11.9959 4.38288 12.0024 6.01177 11.9993C7.64067 11.9962 7.84577 11.9889 8.48567 11.9586C9.12566 11.9282 9.55916 11.826 9.94056 11.6769C10.335 11.5226 10.6695 11.3169 11.002 10.9829C11.3345 10.6488 11.5392 10.314 11.6917 9.91868C11.8396 9.53708 11.94 9.10068 11.9677 8.46248C11.9957 7.82204 12.0023 7.61759 11.9992 5.98849C11.9961 4.35935 11.9887 4.1551 11.9584 3.51525C11.928 2.8754 11.8264 2.4409 11.6767 2.0594C11.5225 1.66495 11.3167 1.331 10.9829 0.998006C10.6491 0.665007 10.314 0.460407 9.91886 0.308258C9.53696 0.160508 9.10081 0.0598582 8.46217 0.0322583C7.82352 0.00465838 7.61797 -0.0024916 5.98847 0.000708393C4.35898 0.00380838 4.15498 0.0108084 3.51503 0.0420083ZM3.58513 10.8885C3.00013 10.8631 2.68248 10.7659 2.47078 10.6845C2.19048 10.5765 1.99079 10.446 1.77984 10.237C1.56884 10.0281 1.43929 9.82773 1.32984 9.54803C1.24764 9.33633 1.14864 9.01903 1.12129 8.43403C1.09154 7.80179 1.08529 7.61194 1.08179 6.01004C1.07829 4.4082 1.08444 4.21855 1.11214 3.58605C1.13714 3.00155 1.23494 2.68355 1.31614 2.47195C1.42414 2.1913 1.55424 1.99195 1.76364 1.78115C1.97304 1.5703 2.17283 1.44045 2.45278 1.331C2.66428 1.24845 2.98153 1.15031 3.56628 1.12246C4.19903 1.09246 4.38863 1.08646 5.99027 1.08296C7.59192 1.07946 7.78202 1.08546 8.41502 1.11336C8.99951 1.13876 9.31766 1.2356 9.52901 1.31735C9.80941 1.42535 10.009 1.55505 10.2198 1.76485C10.4307 1.97455 10.5606 2.17365 10.6701 2.4542C10.7527 2.66505 10.8509 2.9822 10.8785 3.56735C10.9086 4.2001 10.9155 4.38985 10.9183 5.99134C10.9212 7.59284 10.9156 7.78304 10.8878 8.41533C10.8623 9.00033 10.7653 9.31808 10.6838 9.53003C10.5758 9.81023 10.4457 10.01 10.2361 10.2207C10.0266 10.4315 9.82706 10.5613 9.54696 10.6707C9.33576 10.7532 9.01811 10.8516 8.43387 10.8794C7.80107 10.9092 7.61147 10.9154 6.00922 10.9189C4.40698 10.9224 4.21788 10.9159 3.58513 10.8885ZM8.47647 2.7932C8.4767 2.93562 8.51917 3.07476 8.5985 3.19304C8.67782 3.31132 8.79044 3.40341 8.92211 3.45768C9.05378 3.51194 9.19859 3.52594 9.33822 3.4979C9.47784 3.46987 9.60602 3.40105 9.70653 3.30016C9.80705 3.19927 9.87538 3.07083 9.9029 2.9311C9.93041 2.79137 9.91587 2.64662 9.86111 2.51515C9.80635 2.38369 9.71383 2.27141 9.59526 2.19253C9.47668 2.11365 9.33738 2.07171 9.19496 2.072C9.00406 2.0724 8.82113 2.1486 8.68639 2.28384C8.55166 2.41908 8.47615 2.6023 8.47647 2.7932ZM2.91923 6.00599C2.92258 7.70759 4.30453 9.08383 6.00572 9.08063C7.70702 9.07738 9.08421 7.69559 9.08101 5.99399C9.07776 4.2924 7.69552 2.91575 5.99402 2.9191C4.29253 2.92245 2.91603 4.3046 2.91923 6.00599ZM3.99998 6.00384C3.9992 5.60828 4.11573 5.22138 4.33484 4.89205C4.55395 4.56272 4.8658 4.30576 5.23095 4.15366C5.5961 4.00156 5.99815 3.96116 6.38626 4.03756C6.77437 4.11396 7.13111 4.30373 7.41137 4.58288C7.69162 4.86202 7.88281 5.21801 7.96075 5.60581C8.0387 5.99361 7.99989 6.39582 7.84925 6.76157C7.6986 7.12732 7.44288 7.44019 7.11443 7.66061C6.78597 7.88102 6.39953 7.99909 6.00397 7.99989C5.74132 8.00044 5.48113 7.94924 5.23826 7.84923C4.99539 7.74921 4.77461 7.60233 4.58852 7.41697C4.40242 7.23162 4.25466 7.01142 4.15368 6.76895C4.0527 6.52648 4.00047 6.2665 3.99998 6.00384Z" fill="#0033B3"/>
<path id="Vector_2" d="M40.8863 2.58667C40.8863 2.58667 40.7197 1.41333 40.2065 0.893333C39.5601 0.213333 38.8337 0.213333 38.4939 0.173333C36.1152 0 32.5365 0 32.5365 0H32.5299C32.5299 0 28.9513 0 26.5589 0.173333C26.2257 0.213333 25.4993 0.213333 24.8462 0.893333C24.3397 1.41333 24.1731 2.58667 24.1731 2.58667C24.1731 2.58667 23.9999 3.97333 23.9999 5.35333V6.64667C23.9999 8.02667 24.1731 9.40667 24.1731 9.40667C24.1731 9.40667 24.3397 10.58 24.8529 11.1C25.4993 11.78 26.3523 11.76 26.7321 11.8267C28.0983 11.96 32.5299 12 32.5299 12C32.5299 12 36.1151 11.9933 38.5009 11.82C38.8341 11.78 39.5605 11.78 40.2135 11.1C40.7267 10.58 40.8933 9.40667 40.8933 9.40667C40.8933 9.40667 41.0659 8.02667 41.0659 6.64667V5.35333C41.0593 3.97333 40.886 2.58667 40.886 2.58667H40.8863ZM30.7703 8.21333V3.42L35.3817 5.82667L30.7703 8.21333Z" fill="#0033B3"/>
<path id="Vector_3" d="M60.0541 5.08104L64.4252 0H63.3893L59.594 4.41192L56.5625 0H53.066L57.65 6.67152L53.066 12H54.1018L58.1098 7.34064L61.3114 12H64.808L60.0536 5.08104H60.0541ZM58.6352 6.73032L58.1708 6.066L54.475 0.77976H56.0662L59.0487 5.04576L59.5131 5.71008L63.3898 11.2555H61.7986L58.6352 6.73032Z" fill="#0033B3"/>
</g>
</svg>
