<svg width="113" height="24" viewBox="0 0 113 24" fill="none" xmlns="http://www.w3.org/2000/svg">
<g id="Button" clip-path="url(#clip0_40002888_7165)">
<path id="Vector" d="M38.9706 0.0508305C44.0108 0.0423579 47.5836 0.0370625 49.6888 0.0349444C50.412 0.0349444 51.1344 0.0333558 51.8576 0.0333558C51.9478 0.0333558 52.0388 0.0333558 52.1322 0.0333558C53.5936 0.0317671 55.0551 0.0293842 56.5173 0.026207C58.0175 0.0230298 59.5185 0.0214411 61.0187 0.0206468C61.9445 0.0206468 62.8694 0.0190582 63.7952 0.015881C64.4306 0.0142924 65.0652 0.0134981 65.7005 0.0142924C66.0669 0.0142924 66.4324 0.0142924 66.7988 0.0127038C67.1343 0.0111152 67.4706 0.0111152 67.806 0.0127038C67.9271 0.0127038 68.0482 0.0127038 68.1684 0.0111152C69.6465 -0.000799463 70.9426 0.410652 72.0234 1.45755C72.0827 1.51792 72.1421 1.57749 72.203 1.63945C72.2584 1.6924 72.314 1.74562 72.37 1.7991C73.4967 2.95244 73.7966 4.52358 73.7982 6.07883C73.7982 6.15985 73.7982 6.24087 73.799 6.32427C73.799 6.49505 73.799 6.66503 73.799 6.83581C73.799 7.09316 73.8005 7.35131 73.8021 7.60867C73.8061 9.06066 73.7546 10.3689 72.9389 11.6231C72.8539 11.7613 72.793 11.9019 72.7561 12.0449C72.8297 12.276 72.9397 12.4333 73.0829 12.6287C73.2435 12.8575 73.3456 13.0759 73.4484 13.3356C73.4793 13.4111 73.5094 13.4873 73.541 13.5652C73.848 14.5557 73.8092 15.6105 73.8053 16.6352C73.8045 16.8894 73.8053 17.1435 73.8061 17.3977C73.8077 19.2898 73.5711 21.011 72.1967 22.4304C71.2828 23.3344 70.05 23.9698 68.7524 23.969C68.7009 23.969 68.6495 23.969 68.5957 23.969C68.4224 23.969 68.2491 23.969 68.0759 23.969C67.9508 23.969 67.825 23.969 67.7 23.969C67.355 23.969 67.0108 23.969 66.6659 23.969C66.294 23.969 65.9229 23.969 65.551 23.969C64.9069 23.969 64.2636 23.969 63.6195 23.969C62.689 23.969 61.7577 23.9682 60.8272 23.9682C59.3167 23.9682 57.807 23.9682 56.2965 23.9666C54.8296 23.9666 53.3626 23.965 51.8948 23.965C51.8038 23.965 51.712 23.965 51.6179 23.965C50.9034 23.965 50.1889 23.965 49.4752 23.965C45.9731 23.965 42.4711 23.9627 38.969 23.9611V0.0508305H38.9706ZM43.4016 4.41952V9.82081C46.3688 9.82637 49.3367 9.83035 52.3039 9.83273C52.6544 9.83273 53.0049 9.83273 53.3555 9.83352C53.4251 9.83352 53.4947 9.83352 53.5667 9.83352C54.6958 9.83432 55.825 9.8367 56.9541 9.83829C58.1132 9.84067 59.2724 9.84147 60.4316 9.84226C61.1461 9.84226 61.8614 9.84385 62.5759 9.84544C63.0665 9.84703 63.557 9.84703 64.0476 9.84703C64.3301 9.84703 64.6134 9.84703 64.8958 9.84861C65.2028 9.8502 65.5106 9.84941 65.8176 9.84861C65.9063 9.84914 65.9954 9.84994 66.0851 9.851C67.0607 9.84544 67.8947 9.6556 68.6202 8.97567C69.1322 8.42363 69.383 7.7302 69.3688 6.97878C69.2968 6.21148 68.9375 5.54903 68.3781 5.02876C67.8456 4.60142 67.2379 4.4084 66.5614 4.4084C66.4783 4.4084 66.3952 4.4084 66.3098 4.4084C66.2196 4.4084 66.1286 4.4084 66.0352 4.4084C65.9387 4.4084 65.8411 4.4084 65.7425 4.4084C65.4742 4.4084 65.2068 4.4084 64.9386 4.4084C64.6498 4.4084 64.3602 4.4084 64.0713 4.4084C63.5705 4.4084 63.0696 4.4084 62.5696 4.4084C61.8456 4.4084 61.1216 4.4092 60.3976 4.4092C59.2234 4.4092 58.0484 4.4092 56.8742 4.41078C55.7332 4.41078 54.5922 4.41237 53.4512 4.41237C53.3811 4.41237 53.3101 4.41237 53.2384 4.41237C52.8855 4.41237 52.5326 4.41237 52.1797 4.41237C49.2529 4.41317 46.326 4.41476 43.3992 4.41635L43.4016 4.41952ZM43.4016 14.1895V19.5908C46.3917 19.5964 49.3826 19.6003 52.3727 19.6027C52.7256 19.6027 53.0793 19.6027 53.4322 19.6035C53.5026 19.6035 53.5731 19.6035 53.6451 19.6035C54.7829 19.6043 55.9207 19.6067 57.0585 19.6083C58.2264 19.6107 59.3943 19.6115 60.5622 19.6122C61.283 19.6122 62.003 19.6138 62.7239 19.6154C63.2184 19.617 63.7121 19.617 64.2067 19.617C64.4915 19.617 64.7764 19.617 65.062 19.6186C65.3714 19.6202 65.6807 19.6194 65.9901 19.6186C66.0795 19.6186 66.1689 19.6202 66.2615 19.621C67.1881 19.6154 67.9366 19.3859 68.6226 18.7457C69.1338 18.192 69.3854 17.501 69.3711 16.7488C69.3039 16.0299 68.9945 15.3992 68.4754 14.902C67.6802 14.2451 66.874 14.176 65.8762 14.1784C65.7804 14.1784 65.6839 14.1784 65.585 14.1784C65.3191 14.1784 65.0533 14.1784 64.7874 14.1784C64.5002 14.1784 64.213 14.1784 63.9265 14.1784C63.4296 14.1784 62.932 14.1784 62.435 14.1784C61.7166 14.1784 60.9973 14.1792 60.2789 14.1792C59.1126 14.1792 57.9463 14.1792 56.7808 14.1808C55.6477 14.1808 54.5154 14.1824 53.3824 14.1824C53.3127 14.1824 53.2423 14.1824 53.1711 14.1824C52.8206 14.1824 52.4701 14.1824 52.1203 14.1824C49.2141 14.1832 46.3086 14.1847 43.4024 14.1863L43.4016 14.1895Z" fill="#EB212E"/>
<path id="Vector_2" d="M5.72785 0.0222594C5.85366 0.0222594 5.97947 0.0222594 6.10528 0.0222594C6.44868 0.0222594 6.79208 0.0222594 7.13627 0.023848C7.50737 0.0246423 7.87846 0.023848 8.25035 0.023848C8.89284 0.023848 9.53534 0.023848 10.1778 0.0254367C11.1068 0.0270253 12.0357 0.0278196 12.9646 0.0286139C14.4719 0.0286139 15.9793 0.0309968 17.4866 0.0325854C18.9504 0.0349683 20.4142 0.036557 21.878 0.0373513C21.9682 0.0373513 22.0584 0.0373513 22.1518 0.0373513C22.6044 0.0373513 23.0578 0.0373513 23.5104 0.0381456C27.2664 0.0405285 31.0217 0.0445 34.7777 0.0500602V4.41875C34.4288 4.41875 34.0791 4.41955 33.7198 4.42034C30.5177 4.42511 27.3155 4.43067 24.1133 4.43702C23.6939 4.43781 23.2738 4.43861 22.8544 4.4394C22.7711 4.4394 22.6867 4.4394 22.6012 4.4394C21.2482 4.44258 19.8959 4.44417 18.5429 4.44576C17.1551 4.44735 15.7664 4.44973 14.3786 4.4537C13.5216 4.45608 12.6655 4.45688 11.8086 4.45767C11.2215 4.45767 10.6336 4.45926 10.0465 4.46164C9.70783 4.46244 9.36838 4.46323 9.02973 4.46323C8.71956 4.46323 8.4086 4.46323 8.09843 4.46562C7.98607 4.46562 7.87451 4.46562 7.76215 4.46562C6.80949 4.46244 6.00874 4.57761 5.26497 5.21306C4.0868 6.48316 4.44049 8.12896 4.3946 9.82004H30.4267V14.1887H4.39301C4.31125 15.8398 4.59162 17.3707 5.23411 18.7814C5.80539 19.3104 6.48745 19.5193 7.25259 19.5209C7.3507 19.5209 7.45013 19.5215 7.55089 19.5225C7.66008 19.5225 7.76848 19.5225 7.87767 19.5225C7.99319 19.5225 8.10951 19.5225 8.22503 19.5233C8.54311 19.5241 8.86199 19.5249 9.18007 19.5257C9.52347 19.5257 9.86687 19.5273 10.2103 19.5281C10.8053 19.5297 11.4003 19.5312 11.9953 19.5328C12.8554 19.5344 13.7155 19.5368 14.5764 19.5392C15.9721 19.5432 17.3679 19.5463 18.7637 19.5495C20.1199 19.5527 21.4753 19.5559 22.8315 19.559C22.9153 19.559 22.9984 19.559 23.0847 19.559C23.504 19.5598 23.9234 19.5614 24.342 19.5622C27.8203 19.571 31.2986 19.5797 34.777 19.5876V23.9563C30.9354 23.9635 27.0931 23.969 23.2516 23.9722C22.7975 23.9722 22.3441 23.973 21.8899 23.9738C21.7997 23.9738 21.7084 23.9738 21.6161 23.9738C20.1539 23.9754 18.6925 23.9778 17.2302 23.981C15.73 23.9841 14.229 23.9857 12.7288 23.9865C11.8031 23.9865 10.8781 23.9881 9.95233 23.9913C9.31695 23.9929 8.68237 23.9937 8.047 23.9929C7.68065 23.9929 7.31509 23.9929 6.94875 23.9945C6.61326 23.996 6.27698 23.996 5.94149 23.9945C5.82043 23.9945 5.69937 23.9945 5.5791 23.996C4.10104 24.008 2.80498 23.5965 1.72413 22.5496C1.66479 22.4892 1.60545 22.4297 1.54452 22.3677C1.48913 22.3148 1.43348 22.2615 1.37757 22.2081C1.03021 21.8522 0.793625 21.4678 0.570493 21.0277C0.544381 20.9769 0.519062 20.9268 0.492159 20.8744C0.0474775 19.9538 0.00633253 19.0586 0.00949753 18.0522C0.00949753 17.9061 0.00870628 17.7599 0.00791503 17.6138C0.00633253 17.219 0.00633253 16.8235 0.00712378 16.4287C0.00712378 16.0982 0.00712378 15.767 0.00712378 15.4366C0.00633253 14.6558 0.00633253 13.875 0.00712378 13.0934C0.00791503 12.2903 0.00712378 11.4865 0.00475004 10.6835C0.00316754 9.99161 0.00237629 9.29977 0.00316754 8.60793C0.00316754 8.19568 0.00316754 7.78344 0.00158504 7.37119C2.54484e-06 6.98357 0.000793793 6.59515 0.00158504 6.20753C0.00158504 6.06615 0.00158504 5.92476 0.00158504 5.78258C-0.00711869 4.23209 0.340239 2.8905 1.44324 1.74114C1.50337 1.68157 1.56272 1.62199 1.62444 1.56083C1.67719 1.50523 1.7302 1.44937 1.78348 1.39323C2.13796 1.04453 2.52092 0.807035 2.95927 0.583041C3.00991 0.556828 3.05976 0.531411 3.11198 0.504404C3.96574 0.0889813 4.79101 0.0166993 5.72785 0.0222594Z" fill="#EB212E"/>
<path id="Vector_3" d="M83.5653 0.0198245C83.6713 0.0198245 83.7782 0.0190302 83.8842 0.0182359C84.1738 0.0166473 84.4634 0.0174416 84.753 0.0182359C85.0663 0.0182359 85.3797 0.0174416 85.693 0.0166473C86.3062 0.0150586 86.9194 0.0142643 87.5318 0.0150586C88.0303 0.0150586 88.5288 0.0150586 89.0281 0.0150586C89.1721 0.0150586 89.3161 0.0150586 89.4601 0.0150586C89.5319 0.0150586 89.6041 0.0150586 89.6769 0.0150586C91.0307 0.01347 92.3846 0.01347 93.7376 0.0142643C94.9735 0.0142643 96.2103 0.0126757 97.4462 0.0102928C98.7177 0.00790988 99.9893 0.00632127 101.261 0.00711557C101.974 0.00711557 102.687 0.00711557 103.4 0.00473265C104.006 0.00314403 104.614 0.00314403 105.221 0.00473265C105.53 0.00473265 105.84 0.00552696 106.149 0.00393834C108.006 -0.00559335 109.612 0.102432 111.026 1.45832C111.087 1.51948 111.148 1.58064 111.212 1.64339C111.267 1.69661 111.322 1.74903 111.379 1.80384C111.726 2.15969 111.962 2.54413 112.186 2.98418C112.212 3.03502 112.237 3.08506 112.264 3.13748C112.607 3.85077 112.751 4.5585 112.743 5.34724C112.743 5.42747 112.743 5.50769 112.743 5.5903C112.743 5.8564 112.743 6.12249 112.741 6.38858C112.741 6.5808 112.741 6.77223 112.741 6.96446C112.741 7.37591 112.741 7.78815 112.739 8.1996C112.738 8.79454 112.737 9.39027 112.736 9.98521C112.736 10.9511 112.734 11.917 112.732 12.8836C112.73 13.8217 112.728 14.7598 112.728 15.6971C112.728 15.7551 112.728 15.813 112.728 15.8726C112.728 16.1633 112.728 16.4533 112.727 16.744C112.724 19.1507 112.72 21.5567 112.715 23.9634H108.363V17.4501H82.4101V23.9634H77.9791C77.9736 21.5884 77.9696 19.2127 77.9672 16.8377C77.9672 16.5565 77.9672 16.2753 77.9664 15.9949C77.9664 15.9393 77.9664 15.8829 77.9664 15.8258C77.9657 14.9226 77.9633 14.0187 77.9617 13.1156C77.9593 12.187 77.9585 11.2585 77.9577 10.3307C77.9577 9.80966 77.9569 9.28939 77.9554 8.76833C77.9538 8.27745 77.953 7.78577 77.9538 7.29489C77.9538 7.11537 77.9538 6.93586 77.9522 6.75635C77.9427 4.83889 78.1556 3.10968 79.4967 1.62353C80.6504 0.522621 81.9939 0.0166473 83.5661 0.023796L83.5653 0.0198245ZM83.0186 5.39808C81.4788 7.3346 82.4101 11.9344 82.4101 13.0782H108.363C108.692 10.5349 108.432 7.91233 107.583 5.21062C107.026 4.68797 106.375 4.41076 105.611 4.40996C105.537 4.40996 105.463 4.40996 105.386 4.40917C105.306 4.40917 105.224 4.40917 105.141 4.40917C105.058 4.40917 104.971 4.40917 104.879 4.40917C104.59 4.40917 104.299 4.40837 104.01 4.40837C103.802 4.40837 103.594 4.40837 103.387 4.40679C102.822 4.40599 102.258 4.4052 101.693 4.4052C101.34 4.4052 100.987 4.4052 100.634 4.4044C99.6569 4.40361 98.6797 4.40281 97.7026 4.40202C97.6398 4.40202 97.5767 4.40202 97.5134 4.40202C97.4509 4.40202 97.3884 4.40202 97.3235 4.40202C97.1969 4.40202 97.0695 4.40202 96.9429 4.40202C96.8797 4.40202 96.8171 4.40202 96.7523 4.40202C95.7323 4.40202 94.7116 4.40043 93.6917 4.39884C92.6433 4.39725 91.5957 4.39566 90.5473 4.39566C89.9594 4.39566 89.3707 4.39566 88.7828 4.39408C88.282 4.39249 87.7811 4.39249 87.2802 4.39328C87.0247 4.39328 86.7699 4.39328 86.5143 4.39249C86.2366 4.39169 85.9596 4.39249 85.6819 4.39249C85.602 4.39249 85.5221 4.3909 85.4398 4.3909C84.4863 4.39725 83.6753 4.68797 83.0194 5.39967L83.0186 5.39808Z" fill="#EB212E"/>
</g>
<defs>
<clipPath id="clip0_40002888_7165">
<rect width="112.744" height="24" fill="white"/>
</clipPath>
</defs>
</svg>
