<svg width="1876" height="385" viewBox="0 0 1876 385" fill="none" xmlns="http://www.w3.org/2000/svg">
<g id="Group">
<path id="Vector" style="mix-blend-mode:screen" d="M373.137 384.498C579.215 384.498 746.274 298.426 746.274 192.249C746.274 86.0729 579.215 0 373.137 0C167.059 0 0 86.0729 0 192.249C0 298.426 167.059 384.498 373.137 384.498Z" fill="url(#paint0_radial_40002888_10989)"/>
<path id="Vector_2" style="mix-blend-mode:screen" d="M1502.86 384.499C1708.94 384.499 1876 298.426 1876 192.249C1876 86.0732 1708.94 0.000244172 1502.86 0.000244172C1296.78 0.000244172 1129.73 86.0732 1129.73 192.249C1129.73 298.426 1296.78 384.499 1502.86 384.499Z" fill="url(#paint1_radial_40002888_10989)"/>
</g>
<defs>
<radialGradient id="paint0_radial_40002888_10989" cx="0" cy="0" r="1" gradientUnits="userSpaceOnUse" gradientTransform="translate(372.125 192.26) scale(371.473 192.257)">
<stop stop-color="#0F3561"/>
<stop offset="0.19" stop-color="#0B2749"/>
<stop offset="0.54" stop-color="#051221"/>
<stop offset="0.83" stop-color="#010409"/>
<stop offset="1"/>
</radialGradient>
<radialGradient id="paint1_radial_40002888_10989" cx="0" cy="0" r="1" gradientUnits="userSpaceOnUse" gradientTransform="translate(1503.88 47.4262) rotate(180) scale(371.473 192.257)">
<stop stop-color="#0F3561"/>
<stop offset="0.19" stop-color="#0B2749"/>
<stop offset="0.54" stop-color="#051221"/>
<stop offset="0.83" stop-color="#010409"/>
<stop offset="1"/>
</radialGradient>
</defs>
</svg>
