<svg width="24" height="24" viewBox="0 0 24 24" fill="none" xmlns="http://www.w3.org/2000/svg">
<g id="Rating">
<g id="Vector (Stroke)">
<path d="M11.5108 1.71166C11.8804 1.5841 12.2875 1.6061 12.6445 1.77611L12.6455 1.77514C12.9983 1.94331 13.1928 2.23579 13.291 2.39623C13.3977 2.57041 13.5079 2.79497 13.6143 3.01049L15.7539 7.34545L20.542 8.04662L20.8985 8.10033C21.0147 8.11941 21.1264 8.13996 21.2256 8.16381C21.3856 8.20231 21.664 8.28017 21.9111 8.48901L22.0147 8.58666L22.124 8.71557C22.3595 9.02809 22.4647 9.42247 22.4131 9.8142C22.3618 10.2015 22.1437 10.478 22.0215 10.6208C21.9551 10.6984 21.8769 10.7803 21.794 10.864L21.5371 11.1169L18.0742 14.489L18.8916 19.2527L18.9512 19.6091C18.9691 19.7256 18.9832 19.8384 18.9912 19.9402C19.0042 20.1042 19.0176 20.3933 18.8955 20.6931L18.834 20.822C18.6452 21.1695 18.3278 21.4266 17.9531 21.5408L17.7891 21.5808C17.4045 21.652 17.075 21.5298 16.9014 21.4578C16.8072 21.4186 16.7048 21.3701 16.5996 21.3171L16.2793 21.1501L12 18.8992L7.72072 21.1501C7.50805 21.262 7.28722 21.3795 7.09865 21.4578C6.94687 21.5208 6.67552 21.6226 6.35256 21.5994L6.21095 21.5808C5.82177 21.5086 5.47906 21.2861 5.2549 20.9656L5.16603 20.822C4.9794 20.4785 4.99398 20.1276 5.00881 19.9402C5.02493 19.7365 5.06777 19.4897 5.10842 19.2527L5.92482 14.489L2.46291 11.1169C2.29086 10.9494 2.11128 10.7759 1.97853 10.6208C1.85638 10.4781 1.63822 10.2026 1.58693 9.81518L1.57424 9.64623C1.56693 9.25513 1.71322 8.87391 1.98537 8.58666L2.08888 8.48901C2.33601 8.28017 2.6144 8.20231 2.77443 8.16381C2.97287 8.11609 3.22036 8.08136 3.45802 8.04662L8.24513 7.34545L10.3858 3.01049L10.5469 2.68822C10.601 2.58333 10.6556 2.48341 10.709 2.39623C10.8072 2.23581 11.0019 1.9443 11.3545 1.77611L11.5108 1.71166ZM9.9922 8.32494L9.99318 8.32592C9.96242 8.38824 9.89647 8.53264 9.79299 8.67943L9.67677 8.82397C9.57778 8.93049 9.46377 9.02191 9.33888 9.09545L9.20998 9.16381C9.09522 9.21711 8.97553 9.25056 8.87306 9.27221L8.63869 9.31029L4.14748 9.96654L7.3965 13.1296L7.56349 13.2986C7.59877 13.3376 7.63593 13.3814 7.67189 13.4294L7.77345 13.5847L7.83791 13.7156C7.8766 13.8044 7.90689 13.8966 7.92775 13.991L7.95217 14.1345L7.96095 14.3201C7.9601 14.3798 7.95579 14.4369 7.95021 14.489L7.91408 14.7234L7.14845 19.1912L11.1621 17.0808L11.374 16.9744C11.4698 16.9314 11.5864 16.8875 11.711 16.863L11.8545 16.8415C11.9513 16.8321 12.0488 16.8321 12.1455 16.8415L12.2891 16.863L12.4678 16.9119C12.6379 16.9698 12.7763 17.0484 12.8379 17.0808L16.8506 19.1912L16.086 14.7234C16.0702 14.6318 16.0174 14.3862 16.0479 14.1345L16.0723 13.991C16.1036 13.8493 16.1555 13.7123 16.2266 13.5847L16.3281 13.4294C16.4358 13.2857 16.5536 13.1793 16.6035 13.1306L19.8516 9.96654L15.3613 9.31029C15.2693 9.29685 15.0198 9.27049 14.7901 9.16381L14.7891 9.16283C14.6136 9.08109 14.4559 8.96629 14.3242 8.82494L14.3233 8.82397C14.1507 8.63816 14.0478 8.40902 14.0069 8.32592L12 4.25951L9.9922 8.32494Z" fill="#FFCD39"/>
<path d="M9.9922 8.32494L9.99318 8.32592C9.96242 8.38824 9.89647 8.53264 9.79299 8.67943L9.67677 8.82397C9.57778 8.93049 9.46377 9.02191 9.33888 9.09545L9.20998 9.16381C9.09522 9.21711 8.97553 9.25056 8.87306 9.27221L8.63869 9.31029L4.14748 9.96654L7.3965 13.1296L7.56349 13.2986C7.59877 13.3376 7.63593 13.3814 7.67189 13.4294L7.77345 13.5847L7.83791 13.7156C7.8766 13.8044 7.90689 13.8966 7.92775 13.991L7.95217 14.1345L7.96095 14.3201C7.9601 14.3798 7.95579 14.4369 7.95021 14.489L7.91408 14.7234L7.14845 19.1912L11.1621 17.0808L11.374 16.9744C11.4698 16.9314 11.5864 16.8875 11.711 16.863L11.8545 16.8415C11.9513 16.8321 12.0488 16.8321 12.1455 16.8415L12.2891 16.863L12.4678 16.9119C12.6379 16.9698 12.7763 17.0484 12.8379 17.0808L16.8506 19.1912L16.086 14.7234C16.0702 14.6318 16.0174 14.3862 16.0479 14.1345L16.0723 13.991C16.1036 13.8493 16.1555 13.7123 16.2266 13.5847L16.3281 13.4294C16.4358 13.2857 16.5536 13.1793 16.6035 13.1306L19.8516 9.96654L15.3613 9.31029C15.2693 9.29685 15.0198 9.27049 14.7901 9.16381L14.7891 9.16283C14.6136 9.08109 14.4559 8.96629 14.3242 8.82494L14.3233 8.82397C14.1507 8.63816 14.0478 8.40902 14.0069 8.32592L12 4.25951L9.9922 8.32494Z" fill="#FFCD39"/>
</g>
</g>
</svg>
