<svg width="24" height="24" viewBox="0 0 24 24" fill="none" xmlns="http://www.w3.org/2000/svg">
<g id="Rating">
<g id="Vector">
<path d="M11.5108 2.09539C11.8804 1.96783 12.2875 1.98983 12.6445 2.15984L12.6455 2.15887C12.9983 2.32704 13.1928 2.61952 13.291 2.77996C13.3977 2.95414 13.5079 3.1787 13.6143 3.39422L15.7539 7.72918L20.542 8.43035L20.8985 8.48406C21.0147 8.50314 21.1264 8.52369 21.2256 8.54754C21.3856 8.58604 21.664 8.6639 21.9111 8.87273L22.0147 8.97039L22.124 9.0993C22.3595 9.41182 22.4647 9.8062 22.4131 10.1979C22.3618 10.5852 22.1437 10.8617 22.0215 11.0046C21.9551 11.0821 21.8769 11.1641 21.794 11.2477L21.5371 11.5007L18.0742 14.8727L18.8916 19.6364L18.9512 19.9929C18.9691 20.1094 18.9832 20.2221 18.9912 20.3239C19.0042 20.4879 19.0176 20.7771 18.8955 21.0768L18.834 21.2057C18.6452 21.5533 18.3278 21.8104 17.9531 21.9245L17.7891 21.9645C17.4045 22.0357 17.075 21.9135 16.9014 21.8415C16.8072 21.8024 16.7048 21.7538 16.5996 21.7009L16.2793 21.5339L12 19.2829L7.72072 21.5339C7.50805 21.6457 7.28722 21.7632 7.09865 21.8415C6.94687 21.9045 6.67552 22.0064 6.35256 21.9831L6.21095 21.9645C5.82177 21.8924 5.47906 21.6698 5.2549 21.3493L5.16603 21.2057C4.9794 20.8622 4.99398 20.5114 5.00881 20.3239C5.02493 20.1203 5.06777 19.8734 5.10842 19.6364L5.92482 14.8727L2.46291 11.5007C2.29086 11.3331 2.11128 11.1597 1.97853 11.0046C1.85638 10.8618 1.63822 10.5863 1.58693 10.1989L1.57424 10.03C1.56693 9.63886 1.71322 9.25763 1.98537 8.97039L2.08888 8.87273C2.33601 8.66389 2.6144 8.58604 2.77443 8.54754C2.97287 8.49982 3.22036 8.46508 3.45802 8.43035L8.24513 7.72918L10.3858 3.39422L10.5469 3.07195C10.601 2.96706 10.6556 2.86714 10.709 2.77996C10.8072 2.61954 11.0019 2.32803 11.3545 2.15984L11.5108 2.09539ZM9.9922 8.70867L9.99318 8.70965C9.96242 8.77197 9.89647 8.91637 9.79299 9.06316L9.67677 9.20769C9.57778 9.31422 9.46377 9.40563 9.33888 9.47918L9.20998 9.54754C9.09522 9.60084 8.97553 9.63429 8.87306 9.65594L8.63869 9.69402L4.14748 10.3503L7.3965 13.5134L7.56349 13.6823C7.59877 13.7213 7.63593 13.7651 7.67189 13.8132L7.77345 13.9684L7.83791 14.0993C7.8766 14.1881 7.90689 14.2803 7.92775 14.3747L7.95217 14.5182L7.96095 14.7038C7.9601 14.7636 7.95579 14.8206 7.95021 14.8727L7.91408 15.1071L7.14845 19.5749L11.1621 17.4645L11.374 17.3581C11.4698 17.3152 11.5864 17.2712 11.711 17.2468L11.8545 17.2253C11.9513 17.2158 12.0488 17.2158 12.1455 17.2253L12.2891 17.2468L12.4678 17.2956C12.6379 17.3535 12.7763 17.4322 12.8379 17.4645L16.8506 19.5749L16.086 15.1071C16.0702 15.0155 16.0174 14.7699 16.0479 14.5182L16.0723 14.3747C16.1036 14.233 16.1555 14.0961 16.2266 13.9684L16.3281 13.8132C16.4358 13.6694 16.5536 13.563 16.6035 13.5143L19.8516 10.3503L15.3613 9.69402C15.2693 9.68057 15.0198 9.65422 14.7901 9.54754L14.7891 9.54656C14.6136 9.46482 14.4559 9.35002 14.3242 9.20867L14.3233 9.20769C14.1507 9.02189 14.0478 8.79275 14.0069 8.70965L12 4.64324L9.9922 8.70867Z" fill="#FFCD39"/>
<path d="M9.9922 8.70867L9.99318 8.70965C9.96242 8.77197 9.89647 8.91637 9.79299 9.06316L9.67677 9.20769C9.57778 9.31422 9.46377 9.40563 9.33888 9.47918L9.20998 9.54754C9.09522 9.60084 8.97553 9.63429 8.87306 9.65594L8.63869 9.69402L4.14748 10.3503L7.3965 13.5134L7.56349 13.6823C7.59877 13.7213 7.63593 13.7651 7.67189 13.8132L7.77345 13.9684L7.83791 14.0993C7.8766 14.1881 7.90689 14.2803 7.92775 14.3747L7.95217 14.5182L7.96095 14.7038C7.9601 14.7636 7.95579 14.8206 7.95021 14.8727L7.91408 15.1071L7.14845 19.5749L11.1621 17.4645L11.374 17.3581C11.4698 17.3152 11.5864 17.2712 11.711 17.2468L11.8545 17.2253C11.9513 17.2158 12.0488 17.2158 12.1455 17.2253L12.2891 17.2468L12.4678 17.2956C12.6379 17.3535 12.7763 17.4322 12.8379 17.4645L16.8506 19.5749L16.086 15.1071C16.0702 15.0155 16.0174 14.7699 16.0479 14.5182L16.0723 14.3747C16.1036 14.233 16.1555 14.0961 16.2266 13.9684L16.3281 13.8132C16.4358 13.6694 16.5536 13.563 16.6035 13.5143L19.8516 10.3503L15.3613 9.69402C15.2693 9.68057 15.0198 9.65422 14.7901 9.54754L14.7891 9.54656C14.6136 9.46482 14.4559 9.35002 14.3242 9.20867L14.3233 9.20769C14.1507 9.02189 14.0478 8.79275 14.0069 8.70965L12 4.64324L9.9922 8.70867Z" fill="white"/>
<path d="M12 17.2188C11.9514 17.2188 11.9029 17.2206 11.8545 17.2253L11.711 17.2468C11.5864 17.2712 11.4698 17.3152 11.374 17.3581L11.1621 17.4645L7.14845 19.5749L7.91408 15.1071L7.95021 14.8727C7.95579 14.8206 7.9601 14.7636 7.96095 14.7038L7.95217 14.5182L7.92775 14.3747C7.90689 14.2803 7.8766 14.1881 7.83791 14.0993L7.77345 13.9684L7.67189 13.8132C7.63593 13.7651 7.59877 13.7213 7.56349 13.6823L7.3965 13.5134L4.14748 10.3503L8.63869 9.69402L8.87306 9.65594C8.97553 9.63429 9.09522 9.60084 9.20998 9.54754L9.33888 9.47918C9.46377 9.40563 9.57778 9.31422 9.67677 9.20769L9.79299 9.06316C9.89647 8.91637 9.96242 8.77197 9.99318 8.70965L9.9922 8.70867L12 4.64324L12 17.2188Z" fill="#FFCD39"/>
</g>
</g>
</svg>
