<svg width="130" height="46" viewBox="0 0 130 46" fill="none" xmlns="http://www.w3.org/2000/svg">
<g id="Switch">
<path id="Vector" d="M7.03006 11.084C5.75326 11.1442 4.88137 11.348 4.11907 11.6474C3.33027 11.9549 2.66157 12.3674 1.99628 13.0351C1.33108 13.7028 0.921279 14.3719 0.61608 15.1621C0.320681 15.9259 0.120481 16.7986 0.0640814 18.0761C0.00768156 19.3536 -0.0048184 19.7643 0.00148158 23.0231C0.00768157 26.2817 0.0220815 26.6902 0.0839814 27.9704C0.144981 29.2469 0.347981 30.1186 0.64748 30.8811C0.955479 31.67 1.36748 32.3384 2.03548 33.0039C2.70337 33.6694 3.37197 34.0782 4.16397 34.3839C4.92717 34.6788 5.80007 34.8799 7.07736 34.9358C8.35466 34.9918 8.76576 35.0048 12.0235 34.9985C15.2813 34.9923 15.6915 34.9778 16.9713 34.9171C18.2513 34.8564 19.1183 34.652 19.8811 34.3539C20.67 34.0453 21.3389 33.6339 22.0039 32.9658C22.6689 32.2976 23.0784 31.628 23.3834 30.8374C23.6791 30.0742 23.88 29.2014 23.9354 27.925C23.9914 26.6441 24.0046 26.2352 23.9984 22.977C23.9921 19.7187 23.9774 19.3102 23.9167 18.0305C23.856 16.7508 23.6527 15.8818 23.3534 15.1188C23.045 14.3299 22.6334 13.662 21.9658 12.996C21.2981 12.33 20.6279 11.9208 19.8377 11.6165C19.0739 11.321 18.2016 11.1197 16.9243 11.0645C15.647 11.0093 15.2359 10.995 11.9769 11.0014C8.71796 11.0076 8.30996 11.0216 7.03006 11.084ZM7.17026 32.7771C6.00026 32.7262 5.36497 32.5318 4.94157 32.3691C4.38097 32.1531 3.98157 31.892 3.55967 31.4741C3.13767 31.0563 2.87857 30.6555 2.65967 30.0961C2.49527 29.6727 2.29728 29.0381 2.24258 27.8681C2.18308 26.6036 2.17058 26.2239 2.16358 23.0201C2.15658 19.8164 2.16888 19.4371 2.22428 18.1721C2.27428 17.0031 2.46987 16.3671 2.63227 15.9439C2.84827 15.3826 3.10847 14.9839 3.52727 14.5623C3.94607 14.1406 4.34567 13.8809 4.90557 13.662C5.32857 13.4969 5.96306 13.3006 7.13256 13.2449C8.39806 13.1849 8.77726 13.1729 11.9805 13.1659C15.1838 13.1589 15.564 13.1709 16.83 13.2267C17.999 13.2775 18.6353 13.4712 19.058 13.6347C19.6188 13.8507 20.018 14.1101 20.4396 14.5297C20.8613 14.9491 21.1212 15.3473 21.3401 15.9084C21.5054 16.3301 21.7018 16.9644 21.757 18.1347C21.8172 19.4002 21.8309 19.7797 21.8366 22.9827C21.8424 26.1857 21.8311 26.5661 21.7756 27.8307C21.7246 29.0007 21.5306 29.6362 21.3676 30.0601C21.1516 30.6205 20.8913 31.0201 20.4722 31.4415C20.0532 31.863 19.6541 32.1226 19.0939 32.3415C18.6715 32.5064 18.0362 32.7032 16.8677 32.7589C15.6021 32.8184 15.2229 32.8309 12.0184 32.8379C8.81396 32.8449 8.43576 32.8319 7.17026 32.7771ZM16.9529 16.5864C16.9534 16.8712 17.0383 17.1495 17.197 17.3861C17.3556 17.6226 17.5809 17.8068 17.8442 17.9154C18.1076 18.0239 18.3972 18.0519 18.6764 17.9958C18.9557 17.9397 19.212 17.8021 19.4131 17.6003C19.6141 17.3985 19.7508 17.1417 19.8058 16.8622C19.8608 16.5827 19.8317 16.2932 19.7222 16.0303C19.6127 15.7674 19.4277 15.5428 19.1905 15.3851C18.9534 15.2273 18.6748 15.1434 18.3899 15.144C18.0081 15.1448 17.6423 15.2972 17.3728 15.5677C17.1033 15.8382 16.9523 16.2046 16.9529 16.5864ZM5.83846 23.012C5.84516 26.4152 8.60906 29.1677 12.0114 29.1613C15.414 29.1548 18.1684 26.3912 18.162 22.988C18.1555 19.5848 15.391 16.8315 11.988 16.8382C8.58506 16.8449 5.83206 19.6092 5.83846 23.012ZM7.99996 23.0077C7.9984 22.2166 8.23146 21.4428 8.66968 20.7841C9.10791 20.1254 9.7316 19.6115 10.4619 19.3073C11.1922 19.0031 11.9963 18.9223 12.7725 19.0751C13.5487 19.2279 14.2622 19.6075 14.8227 20.1658C15.3832 20.724 15.7656 21.436 15.9215 22.2116C16.0774 22.9872 15.9998 23.7916 15.6985 24.5231C15.3972 25.2546 14.8858 25.8804 14.2289 26.3212C13.5719 26.762 12.7991 26.9982 12.0079 26.9998C11.4826 27.0009 10.9623 26.8985 10.4765 26.6985C9.99079 26.4984 9.54922 26.2047 9.17703 25.8339C8.80484 25.4632 8.50933 25.0228 8.30736 24.5379C8.1054 24.053 8.00094 23.533 7.99996 23.0077Z" fill="#DFE6F5"/>
<path id="Vector_2" d="M61.9759 21.1621L70.7182 11H68.6465L61.0558 19.8238L54.9929 11H47.9998L57.1678 24.343L47.9998 35H50.0714L58.0874 25.6813L64.4906 35H71.4838L61.975 21.1621H61.9759ZM59.1382 24.4606L58.2094 23.132L50.8178 12.5595H54.0002L59.9652 21.0915L60.894 22.4202L68.6474 33.511H65.465L59.1382 24.4606Z" fill="#DFE6F5"/>
<path id="Vector_3" d="M129.257 16.1733C129.257 16.1733 128.923 13.8267 127.897 12.7867C126.604 11.4267 125.152 11.4267 124.472 11.3467C119.715 11 112.557 11 112.557 11H112.544C112.544 11 105.387 11 100.602 11.3467C99.9355 11.4267 98.4827 11.4267 97.1766 12.7867C96.1636 13.8267 95.8304 16.1733 95.8304 16.1733C95.8304 16.1733 95.4839 18.9467 95.4839 21.7067V24.2933C95.4839 27.0533 95.8304 29.8133 95.8304 29.8133C95.8304 29.8133 96.1636 32.16 97.1899 33.2C98.4827 34.56 100.189 34.52 100.948 34.6533C103.681 34.92 112.544 35 112.544 35C112.544 35 119.714 34.9867 124.486 34.64C125.152 34.56 126.605 34.56 127.911 33.2C128.937 32.16 129.271 29.8133 129.271 29.8133C129.271 29.8133 129.616 27.0533 129.616 24.2933V21.7067C129.603 18.9467 129.256 16.1733 129.256 16.1733H129.257ZM109.025 27.4267V17.84L118.248 22.6533L109.025 27.4267Z" fill="#DFE6F5"/>
</g>
</svg>
