<svg width="32" height="24" viewBox="0 0 32 24" fill="none" xmlns="http://www.w3.org/2000/svg">
<g id="Button" clip-path="url(#clip0_40002888_7171)">
<path id="Vector" fill-rule="evenodd" clip-rule="evenodd" d="M25.3532 2.38454e-05V0.0207224C28.2794 0.183724 30.6235 1.04271 31.2497 3.49808C31.6041 4.88748 31.2135 6.3312 30.7219 7.38165C30.1992 8.4942 29.5938 9.36354 28.8719 10.207C27.4437 11.8784 25.718 13.2445 23.8085 14.5175C21.925 15.7723 19.8318 16.8435 17.6274 17.6895C16.5744 18.0958 15.3583 18.4942 14.0285 18.7866C12.7762 19.0608 11.2264 19.273 9.86028 18.9703C8.57956 18.6857 7.58862 18.0337 7.39974 16.7322C7.19793 15.3325 7.89133 14.1682 8.51746 13.2549C9.79819 11.392 11.5731 10.044 13.5809 8.9444C15.5886 7.84478 17.9301 6.92628 21.0013 7.05306C18.4942 7.32732 16.7788 8.07506 15.1048 9.16691C13.6507 10.1165 11.9146 11.5395 11.3842 13.436C11.0116 14.7659 11.63 15.6533 12.5433 16.0802C13.467 16.5097 14.8797 16.5382 16.0595 16.4269C18.4347 16.2018 20.445 15.3506 22.0776 14.4554C24.608 13.066 26.8331 11.1798 28.3389 8.70119C28.8461 7.86548 29.304 6.91852 29.5188 5.89394C30.1009 3.10222 28.7167 1.54724 26.7322 0.934047C24.7089 0.307915 21.7464 0.628743 19.6766 1.17726C15.4955 2.28722 12.1656 4.30791 9.20569 6.70636C7.77232 7.86807 6.43208 9.21865 5.22122 10.7115C4.01552 12.1992 2.93661 13.8267 2.23286 15.7128C1.84994 16.7348 1.5705 17.8888 1.72574 19.1281C2.13972 22.445 5.62225 23.436 9.53428 23.2161C14.4994 22.934 18.2458 21.2212 21.6533 19.3532C18.564 21.2704 14.8254 23.0453 10.4502 23.7439C5.54463 24.5278 0.333765 23.63 0 19.0479V18.2355C0.336352 15.1436 1.80336 12.8745 3.29366 10.9573C4.88486 8.91076 6.68305 7.30145 8.68046 5.79304C10.6805 4.28463 12.934 2.99097 15.4101 1.96898C17.9198 0.934047 20.74 0.15785 23.9897 -0.00256348H25.3532" fill="#EB212E"/>
<path id="Vector_2" fill-rule="evenodd" clip-rule="evenodd" d="M26.6339 5.73096C26.3907 6.3131 26.0078 6.93406 25.718 7.53949C26.4942 7.63781 27.3687 7.63781 28.1785 7.7025C27.1695 8.05437 26.1397 8.38814 25.1074 8.71931C24.7659 9.37391 24.4243 10.0285 24.0906 10.6909C23.7646 10.2769 23.5214 9.7827 23.1954 9.36873C22.1915 9.67921 21.2238 10.0259 20.2277 10.3442C21.0401 9.74648 21.8681 9.16692 22.6882 8.57701C22.4399 8.14752 22.1397 7.76977 21.8939 7.33768C22.4735 7.38167 23.0427 7.40237 23.6223 7.43859C23.8111 7.44894 24.0311 7.50845 24.1915 7.47999C24.3571 7.44894 24.6391 7.18244 24.8228 7.05308C25.4334 6.61582 26.0492 6.1501 26.6313 5.73096" fill="#EB212E"/>
</g>
<defs>
<clipPath id="clip0_40002888_7171">
<rect width="31.3868" height="24" fill="white"/>
</clipPath>
</defs>
</svg>
