<svg width="119" height="93" viewBox="0 0 119 93" fill="none" xmlns="http://www.w3.org/2000/svg">
<g id="Button" filter="url(#filter0_di_40002888_7127)">
<rect x="4.01075" y="4.01075" width="110.979" height="84.8401" rx="12" fill="#2450BE"/>
<g id="Vector">
<path d="M87.9846 28.0753H87.3575C85.7337 28.0753 84.4174 29.3916 84.4174 31.0154C84.4174 32.6391 85.7337 33.9554 87.3575 33.9554H87.9846C89.6084 33.9554 90.9247 32.6391 90.9247 31.0154C90.9247 29.3916 89.6084 28.0753 87.9846 28.0753Z" fill="white"/>
<path d="M88.0381 61.668C83.1747 62.8013 73.045 64.7929 59.5153 64.7863C46.0473 64.7797 35.9661 62.7991 31.1048 61.668V56.305C35.3917 57.4449 45.605 59.815 59.6364 59.8084C73.593 59.8018 83.749 57.4471 88.0381 56.305V61.668Z" fill="white"/>
<path d="M28.0753 36.1613V54.3013L34.1227 54.3057L34.1315 46.6144L35.705 49.7922C36.1253 50.6438 36.9924 51.183 37.9408 51.1896C38.9025 51.1962 39.7806 50.6526 40.2075 49.79L41.7744 46.621L41.7964 54.3057H47.8394V36.1965L42.0429 36.2141L40.6058 39.1652C39.5407 41.3526 36.4268 41.3636 35.3463 39.1828L33.8674 36.1921C31.9374 36.1811 30.0074 36.1701 28.0775 36.1591L28.0753 36.1613Z" fill="white"/>
<path d="M50.0907 36.1701V54.3058H64.1903V50.9806C64.1903 50.3468 63.6776 49.834 63.0438 49.834H57.2824C56.6487 49.8362 56.1337 49.3213 56.1337 48.6875C56.1337 48.0559 56.6465 47.5431 57.278 47.5431L60.0091 47.5233C60.7485 47.5189 61.4439 47.1294 61.807 46.4846C61.8268 46.4472 61.8466 46.4098 61.8664 46.3724C61.9126 46.2822 62.4188 45.2148 61.8664 44.1035C61.8488 44.0683 61.8312 44.0331 61.8114 44.0001C61.4461 43.3443 60.7331 42.9548 59.9827 42.9614L57.2758 42.9812C56.642 42.9812 56.1293 42.4684 56.1293 41.8346V41.7884C56.1293 41.1546 56.642 40.6419 57.2758 40.6419H63.0438C63.6776 40.6419 64.1903 40.1269 64.1903 39.4953V36.1943L50.0885 36.1723L50.0907 36.1701Z" fill="white"/>
<path d="M81.9277 46.61C81.3225 45.6439 80.4114 45.2434 80.0461 45.107C80.4598 44.7857 81.142 44.2531 81.4743 43.3508C82.0773 41.707 82.0729 39.1982 80.5193 37.6291C78.8644 35.9588 76.6175 36.1591 76.3072 36.1921H65.744V54.3035L76.5845 54.3057C76.7781 54.3101 80.1738 54.33 81.6944 51.8652C82.4096 50.7055 82.4536 49.4137 82.4602 49.0748C82.4757 48.4168 82.4955 47.5189 81.9277 46.6122V46.61ZM74.5577 50.1751H73.0392C72.181 50.1751 71.4833 49.4775 71.4833 48.6192C71.4833 47.761 72.181 47.0634 73.0392 47.0634H74.5577C75.4159 47.0634 76.1135 47.761 76.1135 48.6192C76.1135 49.4775 75.4159 50.1751 74.5577 50.1751ZM76.1135 41.8192C76.1135 42.629 75.4577 43.287 74.6457 43.287H72.949C72.1391 43.287 71.4811 42.6312 71.4811 41.8192C71.4811 41.0093 72.1369 40.3513 72.949 40.3513H74.6457C75.4555 40.3513 76.1135 41.0071 76.1135 41.8192Z" fill="white"/>
<path d="M86.0297 35.9544H88.9082C90.0173 35.9544 91.0208 36.8589 90.9174 37.9636C90.409 43.3905 90.1537 48.9119 89.8523 54.3058C87.9861 54.3058 86.8506 54.3058 84.9844 54.3058C84.6763 48.7953 84.377 43.4169 84.0227 37.9636C83.9501 36.8567 84.9228 35.9544 86.0319 35.9544H86.0297Z" fill="white"/>
</g>
</g>
<defs>
<filter id="filter0_di_40002888_7127" x="0" y="0" width="119" height="92.8616" filterUnits="userSpaceOnUse" color-interpolation-filters="sRGB">
<feFlood flood-opacity="0" result="BackgroundImageFix"/>
<feColorMatrix in="SourceAlpha" type="matrix" values="0 0 0 0 0 0 0 0 0 0 0 0 0 0 0 0 0 0 127 0" result="hardAlpha"/>
<feMorphology radius="4" operator="dilate" in="SourceAlpha" result="effect1_dropShadow_40002888_7127"/>
<feOffset/>
<feComposite in2="hardAlpha" operator="out"/>
<feColorMatrix type="matrix" values="0 0 0 0 0 0 0 0 0 0.2 0 0 0 0 0.701961 0 0 0 0.16 0"/>
<feBlend mode="normal" in2="BackgroundImageFix" result="effect1_dropShadow_40002888_7127"/>
<feBlend mode="normal" in="SourceGraphic" in2="effect1_dropShadow_40002888_7127" result="shape"/>
<feColorMatrix in="SourceAlpha" type="matrix" values="0 0 0 0 0 0 0 0 0 0 0 0 0 0 0 0 0 0 127 0" result="hardAlpha"/>
<feMorphology radius="5" operator="erode" in="SourceAlpha" result="effect2_innerShadow_40002888_7127"/>
<feOffset/>
<feGaussianBlur stdDeviation="12"/>
<feComposite in2="hardAlpha" operator="arithmetic" k2="-1" k3="1"/>
<feColorMatrix type="matrix" values="0 0 0 0 0.713726 0 0 0 0 0.772549 0 0 0 0 0.913725 0 0 0 1 0"/>
<feBlend mode="normal" in2="shape" result="effect2_innerShadow_40002888_7127"/>
</filter>
</defs>
</svg>
