<svg width="24" height="25" viewBox="0 0 24 25" fill="none" xmlns="http://www.w3.org/2000/svg">
<g id="Vertical container">
<path id="Vector" d="M20.3651 20.3444H19.9351C19.8524 20.3444 19.816 20.233 19.881 20.1779L20.0045 20.0709C20.1093 19.9805 20.2405 19.9309 20.3761 19.9309H20.8062C20.8889 19.9309 20.9253 20.0422 20.8613 20.0985L20.7378 20.2054C20.6331 20.2958 20.5019 20.3455 20.3662 20.3455" fill="#DC0811"/>
<path id="Vector_2" d="M20.9264 19.7412L20.4974 19.771C20.4158 19.7765 20.3717 19.6684 20.4313 19.6089L20.547 19.4942C20.6452 19.396 20.772 19.3376 20.9076 19.3288L21.3366 19.299C21.4193 19.2935 21.4634 19.4016 21.4027 19.4611L21.2869 19.5758C21.1888 19.6739 21.0609 19.7324 20.9264 19.7423" fill="#DC0811"/>
<path id="Vector_3" d="M21.4458 19.0993L21.0201 19.16C20.9385 19.171 20.8867 19.0663 20.9429 19.0023L21.0499 18.8799C21.1414 18.7751 21.2638 18.7079 21.3984 18.6891L21.824 18.6285C21.9056 18.6175 21.9574 18.7222 21.9012 18.7862L21.7942 18.9097C21.7027 19.0144 21.5803 19.0817 21.4458 19.1004" fill="#DC0811"/>
<path id="Vector_4" d="M21.9177 18.4245L21.4965 18.5128C21.416 18.5304 21.3576 18.4289 21.4083 18.3617L21.5064 18.2316C21.5902 18.1213 21.7082 18.0452 21.8405 18.0165L22.2607 17.9272C22.3412 17.9096 22.3996 18.011 22.3489 18.0794L22.2496 18.2095C22.1658 18.3198 22.0478 18.3959 21.9166 18.4245" fill="#DC0811"/>
<path id="Vector_5" d="M22.3411 17.7166L21.9287 17.8346C21.8493 17.8567 21.7832 17.7607 21.8295 17.6891L21.9188 17.5523C21.9949 17.4355 22.1074 17.3528 22.2364 17.3153L22.6499 17.1973C22.7293 17.1741 22.7954 17.2712 22.7491 17.3428L22.6598 17.4796C22.5837 17.5953 22.4713 17.6791 22.3411 17.7166Z" fill="#DC0811"/>
<path id="Vector_6" d="M22.715 16.981L22.3114 17.1277C22.2342 17.1564 22.1614 17.0637 22.2033 16.9899L22.2827 16.8476C22.3511 16.7263 22.4569 16.6348 22.5837 16.5885L22.9873 16.4418C23.0656 16.4132 23.1373 16.5058 23.0965 16.5797L23.0171 16.7219C22.9498 16.8432 22.8429 16.9347 22.7161 16.9799" fill="#DC0811"/>
<path id="Vector_7" d="M23.037 16.2213L22.6444 16.3966C22.5694 16.4297 22.4911 16.3437 22.5264 16.2665L22.5959 16.1198C22.6543 15.993 22.7547 15.8949 22.8782 15.8398L23.2707 15.6644C23.3457 15.6314 23.4251 15.7185 23.3887 15.7946L23.3193 15.9423C23.2597 16.068 23.1605 16.1662 23.0381 16.2213" fill="#DC0811"/>
<path id="Vector_8" d="M23.3049 15.4429L22.9244 15.6447C22.8517 15.6833 22.7668 15.6017 22.7987 15.5234L22.8572 15.3712C22.9079 15.2411 22.9994 15.1363 23.1196 15.0724L23.4989 14.8706C23.5706 14.832 23.6566 14.9125 23.6247 14.9919L23.5662 15.1441C23.5155 15.2742 23.424 15.38 23.3038 15.4429" fill="#DC0811"/>
<path id="Vector_9" d="M23.5177 14.6455L23.1527 14.8738C23.0833 14.9168 22.9939 14.8418 23.0182 14.7613L23.0667 14.6058C23.1075 14.4724 23.1924 14.361 23.3071 14.2894L23.671 14.0622C23.7416 14.0181 23.8309 14.0931 23.8055 14.1747L23.7581 14.3302C23.7173 14.4636 23.6324 14.575 23.5177 14.6466" fill="#DC0811"/>
<path id="Vector_10" d="M23.6732 13.8362L23.3258 14.0887C23.2597 14.1372 23.1648 14.0689 23.1836 13.9873L23.2211 13.8285C23.2531 13.6928 23.3291 13.576 23.4394 13.4966L23.7868 13.244C23.8529 13.1955 23.9478 13.2639 23.929 13.3466L23.8915 13.5054C23.8606 13.641 23.7824 13.7579 23.6743 13.8362" fill="#DC0811"/>
<path id="Vector_11" d="M23.7736 13.018L23.445 13.2936C23.381 13.3466 23.2818 13.2848 23.295 13.201L23.3204 13.04C23.3424 12.9022 23.4108 12.7809 23.5144 12.6938L23.8441 12.4181C23.9081 12.3652 24.0073 12.4269 23.993 12.5107L23.9676 12.6717C23.9456 12.8096 23.8772 12.9308 23.7736 13.018Z" fill="#DC0811"/>
<path id="Vector_12" d="M23.8154 12.1942L23.5067 12.4931C23.4471 12.5504 23.3435 12.4964 23.3512 12.4115L23.3655 12.2494C23.3777 12.1104 23.4372 11.9836 23.5354 11.8899L23.8441 11.5911C23.9037 11.5337 24.0073 11.5889 23.9996 11.6738L23.9853 11.8359C23.9731 11.9737 23.9136 12.1005 23.8165 12.1942" fill="#DC0811"/>
<path id="Vector_13" d="M23.8011 11.3695L23.5133 11.6881C23.4581 11.7499 23.3512 11.7025 23.3534 11.6176L23.3556 11.4544C23.3589 11.3154 23.4096 11.1853 23.5001 11.0839L23.7879 10.7652C23.843 10.7045 23.9511 10.7509 23.9488 10.8369L23.9455 11.0001C23.9433 11.139 23.8915 11.2691 23.8022 11.3695" fill="#DC0811"/>
<path id="Vector_14" d="M23.7283 10.549L23.4637 10.8864C23.413 10.9526 23.3027 10.9129 23.2983 10.828L23.2895 10.6648C23.2828 10.527 23.3248 10.3924 23.4075 10.2855L23.6721 9.94695C23.7228 9.88189 23.832 9.92159 23.8375 10.0054L23.8452 10.1686C23.8518 10.3075 23.8099 10.441 23.7272 10.5479" fill="#DC0811"/>
<path id="Vector_15" d="M23.5982 9.73416L23.3578 10.0903C23.3115 10.1587 23.199 10.1267 23.188 10.0429L23.1682 9.88082C23.1516 9.74188 23.1836 9.60625 23.2586 9.49488L23.499 9.13871C23.5453 9.07034 23.6578 9.10232 23.6677 9.18612L23.6875 9.34822C23.7041 9.48606 23.6721 9.62169 23.5971 9.73416" fill="#DC0811"/>
<path id="Vector_16" d="M23.4118 8.93146L23.1979 9.30307C23.156 9.37475 23.0413 9.35049 23.0259 9.26668L22.995 9.10679C22.9686 8.97116 22.9917 8.83222 23.0601 8.71533L23.274 8.34373C23.3148 8.27205 23.4306 8.29631 23.446 8.38011L23.4769 8.54001C23.5034 8.67564 23.4802 8.81458 23.4129 8.93146" fill="#DC0811"/>
<path id="Vector_17" d="M23.1692 8.14296L22.9807 8.53001C22.9454 8.60279 22.8285 8.58735 22.8076 8.50575L22.7656 8.34806C22.7293 8.21354 22.7425 8.0746 22.8009 7.9522L22.9895 7.56625C23.0248 7.49237 23.1417 7.50891 23.1637 7.58941L23.2056 7.7471C23.2409 7.88162 23.2277 8.02167 23.1692 8.14186" fill="#DC0811"/>
<path id="Vector_18" d="M22.8737 7.3733L22.7127 7.77138C22.6819 7.84746 22.565 7.83974 22.5374 7.75925L22.4845 7.60487C22.4393 7.47365 22.4426 7.33361 22.4933 7.2079L22.6543 6.80982C22.6852 6.73374 22.8031 6.74146 22.8296 6.82195L22.8825 6.97633C22.9278 7.10866 22.9244 7.2476 22.8737 7.3733Z" fill="#DC0811"/>
<path id="Vector_19" d="M22.5242 6.62568L22.3907 7.03478C22.3665 7.11307 22.2485 7.11307 22.2154 7.03478L22.1526 6.88371C22.0985 6.7558 22.0919 6.61576 22.1338 6.48785L22.2661 6.07874C22.2915 6.00045 22.4084 6.00045 22.4415 6.07874L22.5054 6.22871C22.5595 6.35773 22.5661 6.49667 22.5242 6.62458" fill="#DC0811"/>
<path id="Vector_20" d="M22.1228 5.90669L22.0191 6.32351C21.9993 6.40401 21.8824 6.41283 21.8438 6.33674L21.7699 6.19119C21.7071 6.06769 21.6916 5.92875 21.7236 5.79753L21.8273 5.38071C21.8471 5.30131 21.964 5.29249 22.0026 5.36858L22.0765 5.51413C22.1393 5.63764 22.1559 5.77768 22.1228 5.9078" fill="#DC0811"/>
<path id="Vector_21" d="M21.6729 5.2153L21.5979 5.63874C21.5836 5.72034 21.4678 5.73688 21.4237 5.6641L21.3399 5.52406C21.2693 5.40387 21.2429 5.26713 21.266 5.13371L21.3399 4.71027C21.3543 4.62867 21.47 4.61323 21.5141 4.68491L21.5979 4.82495C21.6685 4.94514 21.695 5.08188 21.6718 5.2153" fill="#DC0811"/>
<path id="Vector_22" d="M21.1756 4.55703L21.1304 4.98378C21.1227 5.06537 21.008 5.09074 20.9584 5.02016L20.8657 4.88674C20.7864 4.77206 20.75 4.63643 20.7643 4.503L20.8095 4.07626C20.8183 3.99356 20.933 3.9693 20.9804 4.03877L21.0742 4.17329C21.1535 4.28687 21.1888 4.4225 21.1756 4.55703Z" fill="#DC0811"/>
<path id="Vector_23" d="M20.6341 3.93508L20.6198 4.36403C20.6165 4.44563 20.504 4.47871 20.4511 4.41255L20.3496 4.28574C20.2614 4.17767 20.2162 4.04535 20.2217 3.90972L20.2361 3.48077C20.2394 3.39807 20.3518 3.36609 20.4048 3.43225L20.5073 3.55906C20.5944 3.66713 20.6397 3.80055 20.6341 3.93508Z" fill="#DC0811"/>
<path id="Vector_24" d="M20.0509 3.35283L20.0652 3.78288C20.0685 3.86558 19.9582 3.90528 19.9009 3.84353L19.7895 3.72333C19.6947 3.62188 19.6407 3.49177 19.6351 3.35724L19.6197 2.92719C19.6175 2.84449 19.7278 2.80479 19.7851 2.86654L19.8954 2.98673C19.9902 3.08928 20.0442 3.2183 20.0487 3.35283" fill="#DC0811"/>
<path id="Vector_25" d="M19.4278 2.81251L19.473 3.23925C19.4807 3.32085 19.3749 3.36937 19.3131 3.31092L19.194 3.19955C19.0926 3.10472 19.0297 2.97901 19.0154 2.84448L18.9702 2.41774C18.9614 2.33614 19.0683 2.28873 19.1301 2.34607L19.2492 2.45854C19.3506 2.55337 19.4135 2.67798 19.4278 2.81251Z" fill="#DC0811"/>
<path id="Vector_26" d="M18.7684 2.31745L18.8423 2.74089C18.8566 2.82249 18.753 2.87762 18.6868 2.82359L18.56 2.72104C18.4519 2.63282 18.3814 2.51263 18.3571 2.38031L18.2832 1.95797C18.2689 1.87637 18.3725 1.82124 18.4376 1.87417L18.5644 1.97672C18.6725 2.06493 18.743 2.18513 18.7673 2.31745" fill="#DC0811"/>
<path id="Vector_27" d="M18.0759 1.86861L18.1796 2.28543C18.1994 2.36483 18.1013 2.42768 18.0307 2.37916L17.8973 2.28543C17.7837 2.20604 17.7032 2.09025 17.6712 1.96014L17.5665 1.54332C17.5466 1.46282 17.6459 1.40107 17.7153 1.44959L17.8487 1.54332C17.9623 1.62381 18.0428 1.7396 18.0748 1.86972" fill="#DC0811"/>
<path id="Vector_28" d="M17.3537 1.4695L17.4871 1.8786C17.5124 1.95689 17.4176 2.02636 17.3448 1.98225L17.2048 1.89734C17.0857 1.82457 16.9986 1.7165 16.9567 1.58749L16.8244 1.17839C16.799 1.1001 16.8938 1.03063 16.9655 1.07473L17.1056 1.15964C17.2246 1.23132 17.3129 1.34048 17.3537 1.4684" fill="#DC0811"/>
<path id="Vector_29" d="M16.606 1.12326L16.767 1.52134C16.7979 1.59742 16.7075 1.67351 16.6325 1.63491L16.488 1.56103C16.3634 1.49708 16.2686 1.39453 16.2179 1.26882L16.0569 0.870746C16.026 0.79466 16.1153 0.718574 16.1903 0.757168L16.3359 0.832151C16.4594 0.895005 16.5542 0.998658 16.6049 1.12437" fill="#DC0811"/>
<path id="Vector_30" d="M15.8352 0.827646L16.0238 1.21359C16.0602 1.28747 15.9764 1.36907 15.8981 1.33599L15.7481 1.27093C15.6202 1.2169 15.5177 1.12096 15.4592 0.998564L15.2707 0.612621C15.2354 0.53874 15.3181 0.457141 15.3964 0.490222L15.5463 0.555281C15.6753 0.610415 15.7768 0.70635 15.8352 0.827646Z" fill="#DC0811"/>
<path id="Vector_31" d="M15.0468 0.587266L15.2618 0.958874C15.3026 1.03055 15.2254 1.11766 15.1449 1.09009L14.9906 1.03717C14.8593 0.991955 14.7502 0.902636 14.6829 0.785751L14.4679 0.414143C14.426 0.342467 14.5054 0.255355 14.5848 0.282922L14.738 0.336954C14.8704 0.382164 14.9784 0.47038 15.0457 0.587266" fill="#DC0811"/>
<path id="Vector_32" d="M14.243 0.402016L14.4833 0.758186C14.5297 0.827656 14.4569 0.920283 14.3753 0.897126L14.2176 0.855224C14.0831 0.818835 13.9684 0.737235 13.8934 0.625863L13.653 0.269693C13.6067 0.201325 13.6784 0.108699 13.7611 0.130753L13.9188 0.173758C14.0522 0.210147 14.168 0.290644 14.243 0.402016Z" fill="#DC0811"/>
<path id="Vector_33" d="M13.428 0.274101L13.6927 0.612629C13.7434 0.677688 13.6784 0.775828 13.5946 0.758185L13.4347 0.727309C13.2979 0.700844 13.1777 0.628067 13.095 0.521105L12.8315 0.182578C12.7808 0.117519 12.8458 0.0204816 12.9285 0.037022L13.0884 0.0690002C13.2252 0.0954648 13.3453 0.168243 13.428 0.275204" fill="#DC0811"/>
<path id="Vector_34" d="M12.6065 0.20358L12.8944 0.522259C12.9495 0.58401 12.891 0.685458 12.8061 0.674431L12.6451 0.654582C12.5062 0.636939 12.3816 0.572983 12.2912 0.472638L12.0034 0.152856C11.9493 0.0911051 12.0067 -0.00924014 12.0916 0.000684111L12.2537 0.0205326C12.3915 0.037073 12.5161 0.102132 12.6065 0.202477" fill="#DC0811"/>
<path id="Vector_35" d="M11.7817 0.190391L12.0916 0.489221C12.15 0.546561 12.0993 0.651317 12.0144 0.646906L11.8523 0.636982C11.7134 0.630366 11.5843 0.574129 11.4873 0.481502L11.1774 0.182672C11.1179 0.125332 11.1686 0.019473 11.2535 0.0249865L11.4167 0.0338081C11.5568 0.0415269 11.6847 0.0966617 11.7817 0.190391Z" fill="#DC0811"/>
<path id="Vector_36" d="M10.958 0.234437L11.2866 0.511214C11.3506 0.56304 11.3065 0.672207 11.2216 0.67331L11.0584 0.675515C10.9194 0.678823 10.7871 0.63251 10.6835 0.545397L10.3538 0.269723C10.2898 0.216794 10.3339 0.107627 10.4188 0.106525L10.582 0.104319C10.7221 0.102114 10.8533 0.148427 10.9569 0.234437" fill="#DC0811"/>
<path id="Vector_37" d="M10.1398 0.335925L10.4872 0.58734C10.5533 0.635858 10.518 0.747231 10.4331 0.754949L10.2699 0.768182C10.131 0.780311 9.99536 0.74282 9.88729 0.664528L9.53995 0.412011C9.47378 0.363493 9.50907 0.252121 9.59398 0.244402L9.75607 0.231169C9.89501 0.220142 10.0295 0.256531 10.1398 0.335925Z" fill="#DC0811"/>
<path id="Vector_38" d="M9.33044 0.493639L9.69543 0.720794C9.7649 0.764902 9.73733 0.878479 9.65353 0.891712L9.49253 0.917074C9.3558 0.939128 9.21796 0.91156 9.10328 0.839885L8.73829 0.61273C8.66772 0.568622 8.69639 0.455045 8.78019 0.441812L8.94119 0.417553C9.07902 0.395499 9.21576 0.423067 9.33044 0.494742" fill="#DC0811"/>
<path id="Vector_39" d="M8.5343 0.707474L8.91363 0.908165C8.9853 0.947862 8.96656 1.06254 8.88386 1.08129L8.72507 1.11768C8.58944 1.14855 8.44939 1.13091 8.33141 1.06695L7.95098 0.866262C7.8782 0.827668 7.89915 0.711885 7.98075 0.694242L8.13954 0.65675C8.27517 0.625875 8.41411 0.643518 8.5332 0.707474" fill="#DC0811"/>
<path id="Vector_40" d="M7.7536 0.977611L8.14616 1.15073C8.22114 1.18492 8.21011 1.3007 8.12851 1.32606L7.97193 1.37348C7.8385 1.41318 7.69846 1.40546 7.57496 1.35143L7.1824 1.1772C7.10742 1.14302 7.11844 1.02723 7.20004 1.00187L7.35663 0.954455C7.49005 0.914758 7.63009 0.922477 7.75249 0.977611" fill="#DC0811"/>
<path id="Vector_41" d="M6.99493 1.2997L7.39852 1.44636C7.47571 1.47503 7.4724 1.59192 7.39301 1.62169L7.24083 1.68013C7.11182 1.72975 6.97067 1.73196 6.84386 1.68565L6.44028 1.53899C6.36309 1.51032 6.3664 1.39343 6.44579 1.36366L6.59796 1.30632C6.72698 1.2567 6.86812 1.25449 6.99493 1.30081" fill="#DC0811"/>
<path id="Vector_42" d="M6.26054 1.67462L6.67405 1.79371C6.75344 1.81686 6.75785 1.93375 6.68066 1.96904L6.5329 2.0374C6.40609 2.09585 6.26715 2.10798 6.13814 2.07048L5.72463 1.95139C5.64633 1.92824 5.64082 1.81135 5.71801 1.77607L5.86577 1.7077C5.99148 1.64815 6.13152 1.63713 6.26164 1.67462" fill="#DC0811"/>
<path id="Vector_43" d="M5.5537 2.10022L5.97383 2.18954C6.05433 2.20718 6.06756 2.32296 5.99258 2.36376L5.85033 2.44205C5.72903 2.50932 5.59009 2.53027 5.45777 2.5027L5.03764 2.41338C4.95715 2.39684 4.94391 2.27996 5.01779 2.23916L5.16114 2.16087C5.28244 2.0936 5.42138 2.07265 5.5526 2.10022" fill="#DC0811"/>
<path id="Vector_44" d="M4.87886 2.57434L5.3045 2.63389C5.3861 2.64602 5.40705 2.7607 5.33537 2.80701L5.19754 2.89523C5.08065 2.97131 4.94392 3.00219 4.81049 2.98234L4.38375 2.9228C4.30215 2.91067 4.2823 2.79599 4.35287 2.74967L4.4896 2.66035C4.60759 2.58537 4.74322 2.5545 4.87775 2.57324" fill="#DC0811"/>
<path id="Vector_45" d="M4.23818 3.09378L4.66713 3.12355C4.74984 3.12906 4.77851 3.24264 4.71014 3.29447L4.57892 3.3915C4.46865 3.47531 4.33412 3.51501 4.19959 3.50618L3.77064 3.47641C3.68794 3.4709 3.65927 3.35732 3.72764 3.3066L3.85775 3.20846C3.96802 3.12465 4.10255 3.08495 4.23818 3.09488" fill="#DC0811"/>
<path id="Vector_46" d="M3.63613 3.65611H4.06618C4.14778 3.65611 4.18528 3.76748 4.12022 3.82372L3.99672 3.93068C3.89196 4.0211 3.76074 4.07072 3.62511 4.07072H3.19616C3.11346 4.07072 3.07597 3.95935 3.14102 3.90421L3.26453 3.79725C3.36928 3.70683 3.5005 3.65611 3.63613 3.65611Z" fill="#DC0811"/>
<path id="Vector_47" d="M3.07375 4.2604L3.5027 4.23063C3.5843 4.22511 3.6284 4.33318 3.56886 4.39383L3.45197 4.50851C3.35383 4.60665 3.22592 4.66509 3.09249 4.67391L2.66355 4.70368C2.58084 4.7092 2.53674 4.60113 2.59738 4.54048L2.71317 4.4258C2.81131 4.32766 2.93922 4.26922 3.07375 4.2593" fill="#DC0811"/>
<path id="Vector_48" d="M2.55547 4.9011L2.98111 4.84156C3.06271 4.83053 3.11454 4.93529 3.0583 4.99924L2.95134 5.12164C2.85981 5.2264 2.73742 5.29366 2.60289 5.31241L2.17725 5.37306C2.09565 5.38408 2.04382 5.27933 2.09895 5.21427L2.20702 5.09187C2.29854 4.98711 2.42204 4.91875 2.55547 4.9011Z" fill="#DC0811"/>
<path id="Vector_49" d="M2.08353 5.577L2.50366 5.48768C2.58416 5.47114 2.6437 5.57149 2.59188 5.63875L2.49374 5.76887C2.40993 5.87914 2.29194 5.95522 2.15962 5.98279L1.73949 6.07211C1.659 6.08975 1.60055 5.9883 1.65128 5.92104L1.75052 5.79092C1.83433 5.67955 1.95231 5.60346 2.08464 5.5759" fill="#DC0811"/>
<path id="Vector_50" d="M1.65898 6.28378L2.07249 6.16469C2.15188 6.14264 2.21805 6.23967 2.17173 6.31025L2.08241 6.44698C2.00633 6.56387 1.89385 6.64767 1.76373 6.68516L1.35022 6.80315C1.27193 6.82631 1.20577 6.72927 1.25098 6.65759L1.3403 6.52086C1.41639 6.40508 1.52886 6.32127 1.65788 6.28378" fill="#DC0811"/>
<path id="Vector_51" d="M1.28519 7.01928L1.68878 6.87262C1.76596 6.84395 1.83874 6.93658 1.79684 7.01046L1.71745 7.15271C1.64908 7.27511 1.54322 7.36663 1.41641 7.41074L1.01282 7.5585C0.935635 7.58717 0.862857 7.49454 0.903657 7.42066L0.984154 7.27842C1.05252 7.15712 1.15838 7.0656 1.28519 7.01928Z" fill="#DC0811"/>
<path id="Vector_52" d="M0.964295 7.77801L1.35685 7.60378C1.43184 7.5707 1.51013 7.65671 1.47484 7.7339L1.40537 7.88166C1.34693 8.00737 1.24659 8.10551 1.12308 8.16064L0.730524 8.33597C0.655541 8.36905 0.577249 8.28194 0.613638 8.20585L0.683108 8.05809C0.742654 7.93239 0.841896 7.83314 0.965398 7.77801" fill="#DC0811"/>
<path id="Vector_53" d="M0.696332 8.55876L1.07676 8.35696C1.14954 8.31837 1.23445 8.39997 1.20357 8.47826L1.14403 8.63043C1.0933 8.75945 1.00178 8.86531 0.881585 8.92816L0.502258 9.12995C0.42948 9.16855 0.344572 9.08805 0.37655 9.00866L0.434993 8.85649C0.485717 8.72747 0.578344 8.62161 0.697435 8.55766" fill="#DC0811"/>
<path id="Vector_54" d="M0.483512 9.35482L0.847401 9.12657C0.916871 9.08356 1.00729 9.15854 0.98193 9.23904L0.934514 9.39562C0.892611 9.52905 0.808806 9.63932 0.694126 9.7121L0.329134 9.93925C0.259664 9.98336 0.169243 9.90838 0.194605 9.82678L0.242021 9.6713C0.282821 9.53787 0.368831 9.4265 0.482409 9.35482" fill="#DC0811"/>
<path id="Vector_55" d="M0.326946 10.1642L0.675398 9.91165C0.742662 9.86313 0.837494 9.9326 0.817646 10.0142L0.780154 10.173C0.748176 10.3086 0.67209 10.4255 0.56182 10.5049L0.214471 10.7574C0.147207 10.8059 0.0523753 10.7376 0.0722238 10.6549L0.108613 10.4961C0.140591 10.3604 0.21778 10.2436 0.325844 10.1642" fill="#DC0811"/>
<path id="Vector_56" d="M0.226587 10.9824L0.556293 10.7067C0.619146 10.6538 0.719491 10.7166 0.705156 10.7993L0.679794 10.9603C0.658843 11.0982 0.589373 11.2194 0.48572 11.3066L0.156014 11.5822C0.0931607 11.6352 -0.00608187 11.5734 0.00715047 11.4907L0.0325125 11.3297C0.0545664 11.1919 0.122933 11.0706 0.226587 10.9835" fill="#DC0811"/>
<path id="Vector_57" d="M0.184674 11.8073L0.493428 11.5084C0.552974 11.4522 0.656627 11.5062 0.648908 11.5911L0.634573 11.7532C0.622444 11.8911 0.561795 12.0179 0.464758 12.1127L0.154901 12.4115C0.0964581 12.4689 -0.00829791 12.4138 0.000523648 12.3299L0.0148587 12.1678C0.0269883 12.03 0.0865339 11.9032 0.184674 11.8095" fill="#DC0811"/>
<path id="Vector_58" d="M0.200126 12.631L0.48793 12.3123C0.543064 12.2516 0.650026 12.2979 0.648923 12.3829L0.645615 12.5461C0.64341 12.6839 0.592686 12.8151 0.501162 12.9155L0.213359 13.2352C0.158224 13.297 0.0512624 13.2485 0.0534678 13.1647L0.0567758 13.0015C0.0589812 12.8625 0.109705 12.7324 0.200126 12.6321" fill="#DC0811"/>
<path id="Vector_59" d="M0.272893 13.4524L0.53754 13.1139C0.589367 13.0488 0.698533 13.0885 0.702944 13.1734L0.711766 13.3377C0.718382 13.4756 0.676479 13.6101 0.593777 13.716L0.329131 14.0545C0.278407 14.1195 0.168137 14.0799 0.163726 13.9949L0.156007 13.8317C0.149391 13.6928 0.191294 13.5583 0.273996 13.4524" fill="#DC0811"/>
<path id="Vector_60" d="M0.40301 14.2662L0.643397 13.91C0.68971 13.8406 0.802185 13.8726 0.812109 13.9575L0.831958 14.1196C0.848498 14.2574 0.81652 14.393 0.741537 14.5055L0.501149 14.8617C0.454836 14.93 0.342361 14.8981 0.332437 14.8143L0.312589 14.6522C0.296048 14.5143 0.328026 14.3787 0.404112 14.2662" fill="#DC0811"/>
<path id="Vector_61" d="M0.589369 15.0701L0.804394 14.6974C0.846297 14.6268 0.960977 14.6511 0.976415 14.7338L1.00729 14.8937C1.03265 15.0304 1.0106 15.1683 0.942231 15.2852L0.728308 15.6579C0.686406 15.7295 0.571726 15.7053 0.556288 15.6215L0.525413 15.4616C0.498948 15.3248 0.522104 15.187 0.589369 15.0701Z" fill="#DC0811"/>
<path id="Vector_62" d="M0.830868 15.8575L1.01943 15.4704C1.05582 15.3976 1.1716 15.4131 1.19255 15.4947L1.23445 15.6524C1.27084 15.7869 1.25761 15.9258 1.19807 16.0482L1.0095 16.4342C0.974218 16.5081 0.857333 16.4915 0.835279 16.4099L0.793376 16.2522C0.75809 16.1177 0.77022 15.9777 0.829765 15.8564" fill="#DC0811"/>
<path id="Vector_63" d="M1.12748 16.6271L1.28848 16.229C1.31935 16.1529 1.43624 16.1596 1.4638 16.2412L1.51673 16.3955C1.56194 16.5279 1.55864 16.6668 1.50791 16.7925L1.34692 17.1906C1.31604 17.2667 1.19916 17.2589 1.17159 17.1785L1.11866 17.0241C1.07455 16.8918 1.07676 16.7528 1.12748 16.6271Z" fill="#DC0811"/>
<path id="Vector_64" d="M1.47704 17.3736L1.61047 16.9656C1.63583 16.8862 1.75272 16.8862 1.7858 16.9656L1.84975 17.1167C1.90379 17.2435 1.9104 17.3846 1.8685 17.5126L1.73618 17.9217C1.71082 17.9999 1.59283 17.9999 1.56085 17.9217L1.498 17.7706C1.44396 17.6427 1.43735 17.5026 1.47815 17.3747" fill="#DC0811"/>
<path id="Vector_65" d="M1.87733 18.0948L1.98099 17.678C2.00084 17.5975 2.11882 17.5898 2.15632 17.6648L2.2302 17.8103C2.29195 17.9349 2.30849 18.0739 2.27651 18.2051L2.17175 18.6219C2.1519 18.7013 2.03502 18.7101 1.99642 18.6341L1.92254 18.4885C1.85969 18.365 1.84315 18.225 1.87513 18.0948" fill="#DC0811"/>
<path id="Vector_66" d="M2.32723 18.7851L2.40222 18.3617C2.41655 18.2801 2.53233 18.2635 2.57644 18.3363L2.66025 18.4764C2.73192 18.5955 2.75728 18.7333 2.73413 18.8656L2.66025 19.289C2.64591 19.3706 2.53013 19.3872 2.48602 19.3144L2.40222 19.1744C2.33164 19.0553 2.30518 18.9174 2.32834 18.784" fill="#DC0811"/>
<path id="Vector_67" d="M2.82454 19.4434L2.86975 19.0166C2.87857 18.935 2.99215 18.9097 3.04177 18.9791L3.1344 19.1126C3.21379 19.2273 3.24908 19.3629 3.23585 19.4963L3.19064 19.9242C3.18181 20.0058 3.06713 20.0311 3.01862 19.9605L2.92489 19.826C2.84549 19.7124 2.81021 19.5768 2.82344 19.4423" fill="#DC0811"/>
<path id="Vector_68" d="M3.36707 20.0653L3.38251 19.6352C3.38472 19.5536 3.49719 19.5206 3.55122 19.5867L3.65378 19.7135C3.74089 19.8216 3.7861 19.9539 3.78059 20.0896L3.76625 20.5185C3.76405 20.6012 3.65157 20.6332 3.59754 20.567L3.49499 20.4402C3.40787 20.3321 3.36266 20.1998 3.36707 20.0653Z" fill="#DC0811"/>
<path id="Vector_69" d="M3.9504 20.6487L3.93607 20.2186C3.93386 20.1359 4.04303 20.0962 4.10037 20.158L4.21174 20.2771C4.30657 20.3785 4.3606 20.5086 4.36501 20.6432L4.37935 21.0721C4.38266 21.1548 4.27239 21.1956 4.21394 21.1328L4.10368 21.0137C4.00884 20.9111 3.95481 20.7821 3.9493 20.6487" fill="#DC0811"/>
<path id="Vector_70" d="M4.57341 21.1879L4.5282 20.76C4.51938 20.6784 4.62634 20.6299 4.68809 20.6884L4.80718 20.7997C4.90863 20.8946 4.97148 21.0192 4.98582 21.1548L5.03103 21.5826C5.03985 21.6642 4.93289 21.7117 4.87114 21.6543L4.75094 21.5418C4.64949 21.447 4.58664 21.3224 4.5723 21.1879" fill="#DC0811"/>
<path id="Vector_71" d="M5.23283 21.683L5.15785 21.2595C5.14351 21.1779 5.24717 21.1228 5.31333 21.1768L5.44014 21.2794C5.5482 21.3676 5.61877 21.4878 5.64193 21.6212L5.71691 22.0446C5.73125 22.1262 5.6276 22.1803 5.56254 22.1273L5.43573 22.0248C5.32877 21.9366 5.25599 21.8175 5.23283 21.683Z" fill="#DC0811"/>
<path id="Vector_72" d="M5.9253 22.1318L5.82165 21.715C5.8018 21.6356 5.90104 21.5727 5.97051 21.6213L6.10394 21.715C6.21752 21.7944 6.29802 21.9102 6.32999 22.0414L6.43475 22.4582C6.4546 22.5387 6.35536 22.6004 6.28589 22.5508L6.15246 22.4582C6.03888 22.3777 5.95839 22.263 5.92641 22.1318" fill="#DC0811"/>
<path id="Vector_73" d="M6.64647 22.531L6.51305 22.1219C6.48768 22.0436 6.58141 21.9741 6.65419 22.0182L6.79423 22.102C6.91222 22.1737 7.00044 22.2829 7.04234 22.4108L7.17466 22.8199C7.20002 22.8971 7.10519 22.9666 7.03241 22.9236L6.89347 22.8386C6.77438 22.767 6.68727 22.6578 6.64537 22.5288" fill="#DC0811"/>
<path id="Vector_74" d="M7.39412 22.8783L7.23312 22.4802C7.20225 22.4042 7.29157 22.3281 7.36765 22.3667L7.51211 22.4405C7.63671 22.5045 7.73154 22.6071 7.78227 22.7328L7.94326 23.1308C7.97524 23.2069 7.88482 23.283 7.80983 23.2444L7.66428 23.1694C7.54078 23.1066 7.44594 23.0029 7.39522 22.8772" fill="#DC0811"/>
<path id="Vector_75" d="M8.1649 23.1727L7.97634 22.7868C7.93995 22.7129 8.02376 22.6313 8.10205 22.6644L8.25202 22.7295C8.37993 22.7846 8.48248 22.8805 8.54092 23.0018L8.72948 23.3878C8.76477 23.4616 8.68207 23.5432 8.60377 23.5102L8.45381 23.4462C8.3259 23.3911 8.22335 23.2951 8.1649 23.1738" fill="#DC0811"/>
<path id="Vector_76" d="M8.95442 23.4132L8.73939 23.0416C8.69749 22.9699 8.77578 22.8828 8.85628 22.9114L9.00955 22.9644C9.14188 23.0096 9.24994 23.0989 9.3172 23.2158L9.53223 23.5874C9.57413 23.6591 9.49584 23.7462 9.41534 23.7186L9.26207 23.6657C9.12975 23.6205 9.02168 23.5312 8.95442 23.4143" fill="#DC0811"/>
<path id="Vector_77" d="M9.75718 23.5973L9.51679 23.2422C9.47048 23.1727 9.54326 23.0812 9.62486 23.1033L9.78144 23.1463C9.91597 23.1827 10.0307 23.2643 10.1067 23.3756L10.3471 23.7318C10.3934 23.8002 10.3218 23.8928 10.2391 23.8707L10.0814 23.8277C9.94685 23.7914 9.83217 23.7109 9.75718 23.5984" fill="#DC0811"/>
<path id="Vector_78" d="M10.5721 23.7262L10.3085 23.3888C10.2567 23.3237 10.3229 23.2256 10.4056 23.2432L10.5654 23.2752C10.7022 23.3017 10.8224 23.3745 10.9051 23.4814L11.1697 23.8199C11.2204 23.885 11.1554 23.982 11.0716 23.9655L10.9117 23.9335C10.775 23.9071 10.6548 23.8343 10.5721 23.7273" fill="#DC0811"/>
<path id="Vector_79" d="M11.3936 23.7979L11.1058 23.4792C11.0506 23.4175 11.1091 23.316 11.1929 23.3271L11.3539 23.3469C11.4917 23.3634 11.6163 23.4285 11.7067 23.5289L11.9945 23.8475C12.0486 23.9093 11.9912 24.0107 11.9063 23.9997L11.7442 23.9788C11.6064 23.9611 11.4818 23.8972 11.3914 23.7968" fill="#DC0811"/>
<path id="Vector_80" d="M12.2184 23.8112L11.9097 23.5124C11.8501 23.455 11.9008 23.3503 11.9868 23.3547L12.1489 23.3646C12.2879 23.3723 12.4169 23.4275 12.5139 23.5201L12.8227 23.8189C12.8822 23.8763 12.8315 23.981 12.7466 23.9766L12.5834 23.9678C12.4434 23.9601 12.3154 23.9049 12.2184 23.8112Z" fill="#DC0811"/>
<path id="Vector_81" d="M13.0421 23.767L12.7135 23.4902C12.6507 23.4373 12.6937 23.3292 12.7786 23.3281L12.9418 23.3259C13.0807 23.3237 13.213 23.37 13.3167 23.4572L13.6464 23.7328C13.7093 23.7858 13.6663 23.8949 13.5802 23.896L13.417 23.8982C13.277 23.9004 13.1458 23.8541 13.0421 23.7681" fill="#DC0811"/>
<path id="Vector_82" d="M13.8614 23.6656L13.513 23.413C13.4468 23.3645 13.4832 23.2532 13.567 23.2454L13.7302 23.2322C13.868 23.2201 14.0037 23.2565 14.1128 23.337L14.4613 23.5895C14.5274 23.638 14.4922 23.7494 14.4073 23.756L14.2441 23.7703C14.1051 23.7813 13.9706 23.745 13.8614 23.6656Z" fill="#DC0811"/>
<path id="Vector_83" d="M14.6708 23.508L14.3069 23.2797C14.2363 23.2367 14.2639 23.1231 14.3488 23.1099L14.5098 23.0845C14.6465 23.0636 14.7844 23.0901 14.899 23.1628L15.2629 23.39C15.3335 23.4341 15.3048 23.5477 15.221 23.5609L15.06 23.5863C14.9222 23.6072 14.7855 23.5796 14.6708 23.5091" fill="#DC0811"/>
<path id="Vector_84" d="M15.468 23.2929L15.0887 23.0922C15.0159 23.0525 15.0358 22.9379 15.1185 22.9191L15.2773 22.8827C15.414 22.8518 15.5529 22.8695 15.672 22.9323L16.0514 23.1341C16.1241 23.1727 16.1043 23.2885 16.0216 23.3073L15.8617 23.3436C15.7261 23.3745 15.5871 23.358 15.468 23.294" fill="#DC0811"/>
<path id="Vector_85" d="M16.2466 23.0239L15.854 22.8485C15.779 22.8155 15.79 22.6986 15.8716 22.6743L16.0282 22.6269C16.1616 22.5872 16.3006 22.5949 16.4241 22.649L16.8166 22.8232C16.8916 22.8574 16.8806 22.9731 16.799 22.9985L16.6424 23.0459C16.509 23.0856 16.369 23.0779 16.2466 23.0239Z" fill="#DC0811"/>
<path id="Vector_86" d="M17.0063 22.7008L16.6027 22.553C16.5244 22.5255 16.5288 22.4086 16.6071 22.3777L16.7604 22.3193C16.8905 22.2696 17.0306 22.2674 17.1574 22.3148L17.561 22.4615C17.6382 22.4891 17.6348 22.6071 17.5566 22.6368L17.4033 22.6953C17.2732 22.7449 17.1331 22.7471 17.0063 22.7008Z" fill="#DC0811"/>
<path id="Vector_87" d="M17.7407 22.3259L17.3272 22.2068C17.2489 22.1847 17.2434 22.0667 17.3206 22.0314L17.4694 21.9631C17.5963 21.9046 17.7352 21.8936 17.8653 21.93L18.2788 22.0491C18.3571 22.0722 18.3626 22.1891 18.2854 22.2244L18.1366 22.2928C18.0109 22.3512 17.8708 22.3623 17.7418 22.3259" fill="#DC0811"/>
<path id="Vector_88" d="M18.4464 21.9002L18.0263 21.8109C17.9458 21.7933 17.9326 21.6775 18.0075 21.6356L18.1498 21.5573C18.2711 21.49 18.41 21.4691 18.5424 21.4977L18.9625 21.5871C19.043 21.6047 19.0551 21.7205 18.9812 21.7624L18.8379 21.8407C18.7166 21.9079 18.5776 21.9278 18.4453 21.9002" fill="#DC0811"/>
<path id="Vector_89" d="M19.1224 21.4272L18.6956 21.3665C18.6129 21.3555 18.5931 21.2408 18.6648 21.1945L18.8015 21.1063C18.9184 21.0302 19.0551 20.9993 19.1885 21.0181L19.6142 21.0787C19.6958 21.0908 19.7167 21.2055 19.6451 21.2507L19.5072 21.34C19.3903 21.4161 19.2536 21.447 19.1202 21.4283" fill="#DC0811"/>
<path id="Vector_90" d="M19.7619 20.9078L19.333 20.878C19.2514 20.8725 19.2216 20.7589 19.29 20.7082L19.4201 20.6101C19.5304 20.5274 19.6649 20.4866 19.7994 20.4965L20.2284 20.5263C20.3111 20.5318 20.3398 20.6454 20.2714 20.6972L20.1402 20.7953C20.0299 20.878 19.8954 20.9188 19.7608 20.9089" fill="#DC0811"/>
<path id="Vector_91" d="M10.9867 2.53132L11.6141 2.08032L11.3715 1.33931L11.9946 1.79693L12.6242 1.33711L12.3816 2.0715L13.0134 2.52802L12.2405 2.52471L12.0023 3.26682L11.7663 2.53022L10.9867 2.53132Z" fill="#DC0811"/>
<path id="Vector_92" d="M7.44042 3.6407L7.84731 2.9835L7.34007 2.39135L8.09101 2.5755L8.4968 1.90947L8.55304 2.68136L9.31169 2.8611L8.59604 3.15331L8.6589 3.93071L8.15938 3.34077L7.44042 3.6407Z" fill="#DC0811"/>
<path id="Vector_93" d="M4.58886 6.02138L4.71236 5.25831L4.01766 4.90655L4.78183 4.78967L4.90203 4.01888L5.24937 4.70917L6.01906 4.58567L5.46991 5.1304L5.82498 5.824L5.138 5.46893L4.58886 6.02138Z" fill="#DC0811"/>
<path id="Vector_94" d="M2.86425 9.313L2.68782 8.56096L1.91042 8.50141L2.57203 8.10113L2.38788 7.34358L2.97341 7.84862L3.63724 7.43952L3.3373 8.15186L3.93166 8.65689L3.16087 8.59294L2.86425 9.313Z" fill="#DC0811"/>
<path id="Vector_95" d="M2.53123 13.0136L2.08023 12.3862L1.33922 12.6288L1.79684 12.0058L1.33701 11.3761L2.07141 11.6187L2.52792 10.9869L2.52462 11.7599L3.26673 11.9991L2.53013 12.2351L2.53123 13.0136Z" fill="#DC0811"/>
<path id="Vector_96" d="M3.64052 16.5599L2.98331 16.153L2.39117 16.6614L2.57532 15.9104L1.90929 15.5046L2.68117 15.4473L2.86091 14.6886L3.15313 15.4043L3.93053 15.3414L3.34059 15.8409L3.64052 16.5599Z" fill="#DC0811"/>
<path id="Vector_97" d="M6.02126 19.4125L5.25819 19.2879L4.90643 19.9837L4.78955 19.2196L4.01876 19.0994L4.70905 18.7509L4.58555 17.9812L5.13028 18.5315L5.82387 18.1753L5.46881 18.8623L6.02126 19.4125Z" fill="#DC0811"/>
<path id="Vector_98" d="M9.31278 21.1361L8.56074 21.3136L8.5012 22.0899L8.10092 21.4294L7.34337 21.6135L7.8484 21.028L7.4393 20.3642L8.15164 20.663L8.65668 20.0687L8.59272 20.8394L9.31278 21.1361Z" fill="#DC0811"/>
<path id="Vector_99" d="M13.0134 21.4691L12.386 21.9201L12.6286 22.6611L12.0056 22.2034L11.3759 22.6633L11.6185 21.9289L10.9867 21.4724L11.7597 21.4768L11.999 20.7347L12.2349 21.4713L13.0134 21.4691Z" fill="#DC0811"/>
<path id="Vector_100" d="M16.5597 20.3609L16.1528 21.0181L16.6612 21.6091L15.9102 21.425L15.5044 22.091L15.4471 21.3202L14.6884 21.1394L15.4041 20.8472L15.3412 20.0698L15.8408 20.6608L16.5597 20.3609Z" fill="#DC0811"/>
<path id="Vector_101" d="M19.4124 17.979L19.2878 18.7421L19.9836 19.0939L19.2194 19.2118L19.0992 19.9815L18.7507 19.2912L17.9822 19.4147L18.5313 18.8711L18.1751 18.1775L18.8621 18.5315L19.4124 17.979Z" fill="#DC0811"/>
<path id="Vector_102" d="M21.1359 14.6875L21.3134 15.4407L22.0897 15.4991L21.4292 15.9005L21.6133 16.658L21.0278 16.153L20.364 16.5621L20.6628 15.8487L20.0685 15.3436L20.8392 15.4087L21.1359 14.6875Z" fill="#DC0811"/>
<path id="Vector_103" d="M21.4689 10.9869L21.9199 11.6143L22.6609 11.3717L22.2033 11.9958L22.6631 12.6244L21.9287 12.3818L21.4722 13.0136L21.4766 12.2406L20.7345 12.0014L21.4711 11.7665L21.4689 10.9869Z" fill="#DC0811"/>
<path id="Vector_104" d="M20.3607 7.44051L21.0179 7.84741L21.609 7.34016L21.4248 8.0911L22.0909 8.49689L21.3201 8.55313L21.1392 9.31178L20.847 8.59613L20.0696 8.65899L20.6607 8.15947L20.3607 7.44051Z" fill="#DC0811"/>
<path id="Vector_105" d="M17.9789 4.58898L18.7419 4.71248L19.0937 4.01779L19.2117 4.78195L19.9814 4.90215L19.2911 5.2495L19.4146 6.01918L18.871 5.47004L18.1774 5.8251L18.5313 5.13812L17.9789 4.58898Z" fill="#DC0811"/>
<path id="Vector_106" d="M14.6873 2.8644L15.4405 2.68797L15.4989 1.91057L15.9003 2.57219L16.6578 2.38804L16.1528 2.97357L16.5619 3.63739L15.8485 3.33746L15.3445 3.93181L15.4085 3.16103L14.6873 2.8644Z" fill="#DC0811"/>
<path id="Vector_107" fill-rule="evenodd" clip-rule="evenodd" d="M12.0034 5.86146C15.3942 5.86146 18.1432 8.61048 18.1432 12.0013C18.1432 15.3921 15.3942 18.1411 12.0034 18.1411C8.61259 18.1411 5.86357 15.3921 5.86357 12.0013C5.86357 8.61048 8.61259 5.86146 12.0034 5.86146ZM12.0034 6.0401C15.2949 6.0401 17.9634 8.70862 17.9634 12.0002C17.9634 15.2917 15.2949 17.9602 12.0034 17.9602C8.71183 17.9602 6.04331 15.2917 6.04331 12.0002C6.04331 8.70862 8.71183 6.0401 12.0034 6.0401Z" fill="#E3000F"/>
<path id="Vector_108" fill-rule="evenodd" clip-rule="evenodd" d="M12.0034 3.72446C16.574 3.72446 20.2791 7.42952 20.2791 12.0002C20.2791 16.5709 16.574 20.2759 12.0034 20.2759C7.43269 20.2759 3.72764 16.5709 3.72764 12.0002C3.72764 7.42952 7.43269 3.72446 12.0034 3.72446ZM12.0034 3.95934C16.445 3.95934 20.0453 7.55964 20.0453 12.0013C20.0453 16.4429 16.445 20.0432 12.0034 20.0432C7.56171 20.0432 3.96141 16.4429 3.96141 12.0013C3.96141 7.55964 7.56171 3.95934 12.0034 3.95934Z" fill="#E3000F"/>
<path id="Vector_109" fill-rule="evenodd" clip-rule="evenodd" d="M13.878 11.3397C14.0742 11.342 14.1856 11.3662 14.3554 11.3651C14.7215 11.3629 14.952 11.418 15.3081 11.418V11.3916C15.0369 11.3916 13.9496 11.1799 13.2439 11.1799C12.7962 11.1799 12.6782 11.2868 12.3441 11.3651C12.3441 10.9461 12.2779 11.0134 12.4411 10.7476C12.5426 10.5811 12.665 10.58 12.9429 10.376C13.1899 10.194 13.2968 9.85552 13.2968 9.53905C13.2968 9.3582 13.138 9.36041 13.138 9.24794V8.98329H10.8885C10.8885 9.47068 10.8963 9.19721 10.7033 9.48612C10.7033 9.82464 10.8301 10.0595 11.0043 10.2966C11.0473 10.355 11.0506 10.3506 11.1003 10.3859C11.355 10.569 11.3991 10.5458 11.5226 10.6781C11.7365 10.9075 11.6825 11.0707 11.6825 11.3916C11.0617 11.063 10.3173 11.2339 9.6447 11.2593C9.32161 11.2714 8.9897 11.3916 8.66551 11.3916V11.418C8.94229 11.418 9.11982 11.364 9.38006 11.3651C9.78585 11.3673 10.4508 11.2736 10.8389 11.3364C11.044 11.3695 11.2613 11.4225 11.4189 11.4974C11.3484 11.5934 11.4322 11.5085 11.3263 11.5636C10.7397 11.8712 10.4056 12.5373 10.5666 13.1978C10.593 13.3059 10.6184 13.361 10.6548 13.4536C10.7154 13.6069 10.8555 13.7491 10.9426 13.8804C10.7948 13.8804 10.7584 13.8616 10.6515 13.8539L9.29515 14.0072C8.98309 14.0557 8.66772 14.0656 8.34793 14.0656C8.35676 13.9609 8.36778 14.0094 8.3744 13.9068C8.37881 13.8484 8.36999 13.7789 8.3744 13.7205C8.38212 13.6157 8.39425 13.6675 8.40197 13.5628C8.40528 13.5143 8.39976 13.4525 8.40086 13.4029C8.40307 13.2033 8.456 12.9541 8.4549 12.7424L8.56075 11.4191C8.46703 11.4445 8.37771 11.5327 8.34352 11.6253C8.30714 11.7235 8.24097 13.0467 8.21671 13.3775C8.209 13.479 8.19245 13.4448 8.18915 13.5617C8.18694 13.6323 8.19576 13.6984 8.18474 13.769C8.1682 13.8737 8.09321 14.2509 8.21671 14.2509C8.56958 14.2509 8.96765 14.2553 9.30397 14.2001L10.2291 14.0667C11.3087 13.9421 11.4267 14.274 11.7354 14.3556V14.5409C11.5866 14.4626 11.4774 14.3677 11.3087 14.306C10.4794 13.9994 9.58957 14.4085 8.74491 14.4085L7.97743 14.3821C7.97743 14.1715 8.03256 13.9355 8.03036 13.7205C8.02926 13.5639 8.05682 13.5385 8.05793 13.404C8.06234 12.9199 8.16378 12.3377 8.15717 11.783L7.97743 11.9473L7.87708 13.2496C7.8407 13.4823 7.87708 13.6642 7.83518 13.8958L7.79328 14.5409L8.16158 14.5695C8.65338 14.6247 9.18488 14.5629 9.66124 14.4769C9.73733 14.4637 9.81893 14.4593 9.89502 14.446C10.3559 14.3666 10.8885 14.3214 11.3219 14.5056L11.5413 14.6302C11.6207 14.6787 11.6571 14.7096 11.7376 14.7526V14.9378C11.4443 14.7824 11.2425 14.5409 10.8643 14.5409C9.80239 14.5409 9.3161 14.7526 8.61479 14.7526C8.42292 14.7526 8.33581 14.725 8.16489 14.7261C8.0469 14.7272 8.02264 14.7173 7.94766 14.7052C7.75579 14.6743 7.63449 14.7945 7.63449 14.542C7.63449 14.3292 7.67419 14.1097 7.68963 13.9057L7.82195 12.1591C7.73484 12.1822 7.75799 12.1811 7.69624 12.2451C7.57384 12.3697 7.62787 12.3939 7.60913 12.5549L7.53084 13.4294C7.52643 13.4878 7.53635 13.5551 7.52973 13.6135L7.47791 14.1439C7.45144 14.9279 7.27832 14.8077 7.74917 14.8805C7.99287 14.918 8.24318 14.8849 8.48357 14.9147C9.07902 14.9875 9.89281 14.7272 10.5224 14.7272C11.1521 14.7272 11.2271 14.8331 11.7398 15.1771C11.7398 15.4076 11.7674 15.5587 11.7663 15.7593C11.763 16.0935 12.0883 16.1795 12.2349 15.9622C12.2835 15.8906 12.2702 15.788 12.2691 15.6789C12.2691 15.3734 12.2096 15.2047 12.4389 15.0547C12.4852 15.025 12.4963 15.0161 12.5338 14.9908C12.5977 14.9478 12.6507 14.907 12.7278 14.8673C13.4225 14.5034 14.4602 14.9004 15.2078 14.9103C15.392 14.9125 15.3445 14.9356 15.5265 14.9125C15.7658 14.8827 16.0161 14.9169 16.2609 14.8783C16.3326 14.8673 16.3414 14.8618 16.4527 14.8584C16.6325 14.854 16.563 14.8022 16.5564 14.6467C16.5542 14.5883 16.5619 14.5177 16.5575 14.4604C16.5498 14.3589 16.5332 14.3931 16.5299 14.2762L16.4252 12.8725C16.4208 12.8141 16.4296 12.7446 16.4252 12.6861C16.4175 12.5814 16.4053 12.6332 16.3976 12.5285C16.3932 12.4744 16.3976 12.3994 16.3976 12.3432C16.3745 12.2671 16.2565 12.1767 16.1859 12.1579C16.1947 12.2583 16.2124 12.2451 16.2135 12.3686C16.2135 12.4722 16.2113 12.4965 16.2289 12.5913L16.3458 14.1417C16.3447 14.4725 16.4803 14.6964 16.241 14.6997C15.79 14.7063 15.339 14.7901 14.8792 14.7085C14.716 14.6798 14.5638 14.6688 14.4139 14.6445C14.1194 14.5982 13.8261 14.5387 13.4876 14.5387C12.8712 14.5387 12.8116 14.564 12.2967 14.9092V14.7239C12.4908 14.5938 12.8017 14.3799 13.1171 14.3799C14.0797 14.3799 14.7866 14.5916 15.3137 14.5916L16.0525 14.5629C16.1341 14.5541 16.101 14.5409 16.2135 14.5387C16.2135 14.3545 16.1903 14.0281 16.166 13.8715L16.0227 11.9506L15.843 11.7863L15.8804 12.4634C15.9157 12.652 15.908 12.9078 15.9223 13.1096C15.9301 13.2154 15.9422 13.1625 15.9499 13.2673L16.0293 14.3788L15.2618 14.4052C14.3499 14.4052 13.3354 13.9178 12.4742 14.3964C12.397 14.4394 12.3915 14.4637 12.2978 14.4846V14.3258C12.4985 14.1913 12.8127 14.0347 13.1447 14.0347C13.5306 14.0347 13.8746 14.0612 14.2451 14.1252C14.415 14.1538 14.5561 14.1704 14.7259 14.2001C14.8682 14.2244 15.027 14.2465 15.2089 14.2465C15.7536 14.2465 15.8749 14.3126 15.8518 14.1373L15.8176 13.7436C15.8132 13.6775 15.8231 13.5981 15.8176 13.5308C15.8099 13.4294 15.7933 13.4635 15.79 13.3467L15.6908 11.9903C15.6555 11.7687 15.7139 11.4853 15.4471 11.4136C15.4559 11.5184 15.4669 11.4699 15.4736 11.5724L15.5254 12.4204C15.5254 12.5538 15.5529 12.5814 15.5518 12.7369L15.607 13.5815C15.6158 13.6609 15.629 13.6323 15.6323 13.7414L15.6577 14.0601C15.124 14.0601 14.6829 14.0094 14.1602 13.9167C13.9706 13.8837 13.7589 13.898 13.578 13.8638C13.3751 13.8263 13.2329 13.8748 13.0112 13.8748C13.1391 13.683 13.2781 13.5198 13.352 13.2893C13.5008 12.8295 13.3939 12.2903 13.084 11.9231C12.977 11.7963 12.7367 11.5868 12.5613 11.546V11.493C13.0443 11.3805 13.0212 11.2835 13.6475 11.3067C13.7644 11.3111 13.7533 11.3331 13.8835 11.3353M11.1003 9.19501H12.9263V9.35379H11.1003V9.19501ZM11.7354 10.4653C11.4796 10.4653 11.2238 10.2503 11.0804 10.0617C10.9878 9.93932 10.9282 9.75297 10.915 9.59198H13.1116C13.0542 9.71217 13.1281 9.69122 13.0156 9.91948C12.9627 10.0253 12.9186 10.0904 12.8414 10.1687C12.4676 10.5392 12.3165 10.4664 11.7365 10.4664L11.7354 10.4653ZM11.7619 10.7564C11.7332 10.7024 11.7255 10.6936 11.7089 10.6241H12.3176C12.2956 10.6704 12.2868 10.7101 12.2647 10.7564H11.7619ZM11.9207 10.9152C11.9207 10.8215 11.9725 10.8358 12.0795 10.8358C12.0795 11.5283 12.1511 11.418 11.9207 11.418V10.9152ZM10.7033 12.7942C10.7033 12.4281 10.8985 12.1249 11.0881 11.9352C11.5513 11.4699 12.3684 11.45 12.8535 11.9407C12.9903 12.0797 13.0212 12.1105 13.1116 12.2914C13.2803 12.6288 13.2979 13.0886 13.1204 13.4128C13.0895 13.4702 13.0862 13.4635 13.0586 13.5099C12.9804 13.6433 12.9881 13.6455 12.8668 13.7679C12.5713 14.0634 12.1434 14.1902 11.7178 14.1086C11.516 14.07 11.4333 14.0215 11.269 13.9223C10.8852 13.6907 10.7033 13.2617 10.7033 12.7942ZM11.8942 14.4615V14.3027H12.1059V15.8641C11.8512 15.9248 11.9207 15.8641 11.9207 15.176L11.8997 14.6258C11.9141 14.4957 11.8942 14.585 11.8942 14.4615Z" fill="#E3000F"/>
<path id="Vector_110" fill-rule="evenodd" clip-rule="evenodd" d="M11.709 6.99835C11.709 7.60152 12.0001 7.35011 12.0001 7.97754C12.0001 8.14184 11.8854 8.32048 11.8082 8.41972C11.7057 8.55094 11.6307 8.65018 11.6307 8.87624H11.9483C12.0409 8.48037 12.5569 8.56638 12.5569 7.92351C12.5569 7.60924 12.16 7.39532 12.16 7.23543C12.16 7.1847 12.1964 7.14942 12.2129 7.07664C12.0927 7.10421 12.0817 7.11523 12.0541 7.23543C11.9692 7.17368 11.8347 6.99063 11.9383 6.80207C11.9824 6.72157 11.9769 6.76678 12.0012 6.67967C11.8556 6.71385 11.7101 6.82522 11.7101 6.99724" fill="#E3000F"/>
<path id="Vector_111" fill-rule="evenodd" clip-rule="evenodd" d="M11.5766 7.55413C11.5766 7.76033 11.3748 7.80444 11.1896 8.11981C11.0705 8.3227 11.0506 8.66234 11.1532 8.87736H11.5502C11.5502 8.48149 11.8203 8.39218 11.9052 8.09445C11.9504 7.93456 11.9537 7.7879 11.8777 7.65006C11.795 7.50009 11.6902 7.46922 11.5502 7.39534C11.559 7.50451 11.5766 7.45488 11.5766 7.55413ZM11.3649 8.401C11.4112 8.20251 11.5281 8.17053 11.6086 8.06247L11.6825 7.9511C11.6538 8.0757 11.6119 8.1165 11.5303 8.1959C11.4267 8.29734 11.452 8.30175 11.3649 8.401Z" fill="#E3000F"/>
<path id="Vector_112" fill-rule="evenodd" clip-rule="evenodd" d="M12.0265 8.8774C12.1059 8.8774 12.1853 8.8774 12.2658 8.8774C12.418 8.8774 12.386 8.88402 12.4764 8.82337L12.8205 8.8763C12.998 8.54108 12.9076 8.02722 12.6352 7.84417C12.6352 8.00296 12.6496 8.08015 12.5988 8.20475C12.5327 8.36906 12.4511 8.45176 12.3276 8.54218C12.2294 8.61496 12.0574 8.75831 12.0265 8.87519M12.4764 8.82447C12.5095 8.70207 12.5238 8.77705 12.654 8.57857C12.6882 8.52564 12.665 8.56093 12.6882 8.53336C12.6562 8.67119 12.5779 8.7561 12.4764 8.82447Z" fill="#E3000F"/>
<path id="Vector_113" fill-rule="evenodd" clip-rule="evenodd" d="M11.709 19.0927C11.709 19.5338 12.2912 19.4599 12.2912 19.1457C12.2912 18.6572 11.709 18.7465 11.709 19.0927Z" fill="#E3000F"/>
<path id="Vector_114" fill-rule="evenodd" clip-rule="evenodd" d="M12.2967 12.8868L12.5051 12.8196L12.5062 12.5924L12.6341 12.7788L12.8414 12.7115L12.7157 12.8912L12.8469 13.0743L12.6374 13.0026L12.5051 13.1879L12.5073 12.9585L12.2967 12.8868Z" fill="#E3000F"/>
<path id="Vector_115" fill-rule="evenodd" clip-rule="evenodd" d="M12.3276 13.2496C12.3276 13.2496 12.3243 13.2573 12.3221 13.2617C12.2956 13.3025 12.2647 13.34 12.2283 13.3764C12.0982 13.5065 11.9405 13.5716 11.7553 13.5716C11.57 13.5716 11.4156 13.5065 11.2855 13.3775C11.1554 13.2474 11.0904 13.0908 11.0904 12.9077C11.0904 12.7247 11.1543 12.5659 11.2833 12.4358C11.4123 12.3057 11.5689 12.2406 11.7542 12.2406C11.9394 12.2406 12.0982 12.3057 12.2283 12.4358C12.2625 12.47 12.2912 12.5064 12.3177 12.5438C12.3177 12.5438 12.3177 12.5461 12.3177 12.5472L12.3143 12.545C12.3088 12.5383 12.3022 12.5317 12.2956 12.5251C12.1919 12.4214 12.0651 12.3696 11.9163 12.3696C11.7674 12.3696 11.6417 12.4214 11.538 12.5251C11.4344 12.6288 11.3826 12.7556 11.3826 12.9033C11.3826 13.0511 11.4344 13.1779 11.538 13.2816C11.6417 13.3852 11.7685 13.4381 11.9163 13.4381C12.064 13.4381 12.1908 13.3863 12.2945 13.2816C12.3033 13.2727 12.3121 13.2628 12.3221 13.2529L12.3265 13.2485L12.3276 13.2496Z" fill="#E3000F"/>
<path id="Vector_116" fill-rule="evenodd" clip-rule="evenodd" d="M18.4751 7.67982C18.528 7.67982 18.5721 7.72282 18.5721 7.77685C18.5721 7.83088 18.5291 7.87389 18.4751 7.87389C18.421 7.87389 18.378 7.83088 18.378 7.77685C18.378 7.72282 18.421 7.67982 18.4751 7.67982ZM19.28 9.37025C19.333 9.37025 19.3771 9.41325 19.3771 9.46728C19.3771 9.52132 19.3341 9.56432 19.28 9.56432C19.226 9.56432 19.183 9.52132 19.183 9.46728C19.183 9.41325 19.226 9.37025 19.28 9.37025ZM13.1127 4.25264C13.1656 4.25264 13.2097 4.29564 13.2097 4.34968C13.2097 4.40371 13.1667 4.44671 13.1127 4.44671C13.0586 4.44671 13.0156 4.40371 13.0156 4.34968C13.0156 4.29564 13.0586 4.25264 13.1127 4.25264ZM10.5246 4.30116C10.5776 4.30116 10.6217 4.34416 10.6217 4.3982C10.6217 4.45223 10.5787 4.49523 10.5246 4.49523C10.4706 4.49523 10.4276 4.45223 10.4276 4.3982C10.4276 4.34416 10.4706 4.30116 10.5246 4.30116ZM6.74792 6.22646C6.80085 6.22646 6.84496 6.26947 6.84496 6.3235C6.84496 6.37753 6.80195 6.42054 6.74792 6.42054C6.69389 6.42054 6.65088 6.37753 6.65088 6.3235C6.65088 6.26947 6.69389 6.22646 6.74792 6.22646ZM5.86246 16.615C5.91538 16.615 5.95949 16.658 5.95949 16.712C5.95949 16.766 5.91649 16.809 5.86246 16.809C5.80842 16.809 5.76542 16.766 5.76542 16.712C5.76542 16.658 5.80842 16.615 5.86246 16.615ZM8.43173 18.7652C8.48466 18.7652 8.52877 18.8082 8.52877 18.8622C8.52877 18.9163 8.48577 18.9593 8.43173 18.9593C8.3777 18.9593 8.3347 18.9163 8.3347 18.8622C8.3347 18.8082 8.3777 18.7652 8.43173 18.7652ZM8.73167 18.9218C8.7846 18.9218 8.8287 18.9648 8.8287 19.0188C8.8287 19.0729 8.7857 19.1159 8.73167 19.1159C8.67764 19.1159 8.63463 19.0729 8.63463 19.0188C8.63463 18.9648 8.67764 18.9218 8.73167 18.9218ZM13.8978 18.1753L14.2385 19.1831L14.4866 19.0993L14.1459 18.0915L13.8978 18.1753ZM15.1361 19.1975L15.2806 19.1324C15.2618 19.0806 15.2971 19.0475 15.3302 19.0332C15.3644 19.0177 15.4118 19.0133 15.4383 19.0618L15.5827 18.9968C15.5055 18.838 15.3677 18.8369 15.2629 18.8843C15.1582 18.9317 15.0678 19.0365 15.1361 19.1997V19.1975ZM14.5969 18.4234L14.6576 18.5579L15.038 18.3859L14.9476 18.1874L14.8042 18.2525L14.7976 18.2392C14.7811 18.2028 14.7722 18.1587 14.7877 18.119C14.7987 18.0859 14.8263 18.0562 14.877 18.033C14.9211 18.0132 14.9608 18.0165 14.9895 18.0319C15.0247 18.0507 15.0534 18.0782 15.1328 18.2558C15.2133 18.4333 15.2144 18.4719 15.2056 18.5105C15.1979 18.5414 15.1747 18.5755 15.1306 18.5954C15.049 18.6318 14.995 18.6141 14.942 18.5491L14.7028 18.6571C14.7976 18.806 14.9773 18.9207 15.2265 18.8071C15.3434 18.7542 15.4085 18.6803 15.4471 18.58C15.5011 18.4355 15.446 18.312 15.3721 18.1477C15.2982 17.9845 15.242 17.8599 15.0975 17.8059C14.9972 17.7673 14.8979 17.7684 14.7811 17.8213C14.6752 17.8698 14.5925 17.9349 14.5484 18.0573C14.5087 18.1653 14.5252 18.2679 14.5958 18.4245L14.5969 18.4234ZM15.382 17.5026L15.9565 18.3991L16.1771 18.258L15.6026 17.3615L15.382 17.5026ZM15.8055 17.2225L15.9499 17.4056L16.3017 17.1288L16.8155 17.7827L17.0217 17.6206L16.3634 16.7837L15.8066 17.2214L15.8055 17.2225ZM16.5873 16.5675L17.3922 17.2644L17.5632 17.0671L17.1585 16.7164L17.7859 16.809L17.9359 16.6359L17.1309 15.939L16.96 16.1364L17.3647 16.487L16.7372 16.3944L16.5873 16.5675ZM17.7804 15.649L17.8807 15.4924L18.0682 15.7262L17.7804 15.6479V15.649ZM17.2511 15.7758L18.356 16.0239L18.4652 15.8541L17.7782 14.9532L17.6304 15.1837L17.7352 15.3138L17.5587 15.5894L17.3988 15.5453L17.2511 15.7758ZM17.8289 14.8275L18.5567 14.7106L18.8235 15.2068L18.9404 14.9091L18.7033 14.4845L19.054 14.6224L19.1488 14.382L18.1586 13.9916L18.0638 14.232L18.3736 14.3544L18.4365 14.4757L17.9403 14.5441L17.8289 14.8275ZM18.6692 13.4987L18.7111 13.3179L18.9669 13.4745L18.6703 13.4976L18.6692 13.4987ZM18.2148 13.7965L19.3396 13.6586L19.3848 13.4623L18.4343 12.8459L18.3725 13.1128L18.5148 13.1999L18.4409 13.5186L18.2755 13.5307L18.2137 13.7976L18.2148 13.7965ZM19.1929 12.4159C19.151 12.4159 19.1069 12.3916 19.1091 12.32L19.1135 12.1568L19.2867 12.1612L19.2823 12.3244C19.28 12.396 19.2348 12.417 19.1929 12.4159ZM18.7783 12.4203C18.7331 12.4192 18.6846 12.3938 18.6868 12.3222L18.6912 12.1457L18.8776 12.1501L18.8732 12.3266C18.8709 12.3982 18.8224 12.4214 18.7783 12.4203ZM18.7563 12.6816C18.9062 12.6849 18.9636 12.5989 18.9911 12.5559C19.0132 12.589 19.0783 12.675 19.1984 12.6783C19.3826 12.6827 19.5094 12.5681 19.5149 12.3464L19.5259 11.9053L18.4618 11.8789L18.4497 12.342C18.4453 12.5317 18.5523 12.6761 18.7552 12.6816H18.7563ZM18.4244 11.2371L19.4719 11.0497L19.4267 10.796L18.9228 10.6428L19.3429 10.3252L19.2977 10.0716L18.2501 10.259L18.2964 10.5171L18.7982 10.4277L18.5655 10.6229L18.5953 10.7872L18.8809 10.8898L18.3791 10.9791L18.4255 11.2371H18.4244ZM18.131 9.96901L19.1389 9.62828L19.0551 9.38017L18.0472 9.7209L18.131 9.96901ZM18.7077 9.1067L18.9151 9.00084L18.5567 8.30174L18.3494 8.40759L18.4685 8.64026L17.7286 9.01959L17.8476 9.25226L18.5876 8.87293L18.7066 9.1056L18.7077 9.1067ZM17.4771 8.57851L18.3736 8.00401L18.2325 7.78347L17.336 8.35797L17.4771 8.57851ZM18.1255 7.08436L18.0219 6.96417C17.9767 6.99725 17.937 6.97299 17.9116 6.94432C17.8873 6.91565 17.8686 6.87264 17.9083 6.83295L17.8046 6.71275C17.6745 6.83184 17.712 6.96527 17.7881 7.05128C17.8631 7.13839 17.9899 7.19463 18.1255 7.08326V7.08436ZM17.5378 7.82096L17.6492 7.72392L17.3757 7.40855L17.2103 7.5519L17.3128 7.67099L17.3018 7.68092C17.2709 7.70738 17.2312 7.72833 17.1893 7.72503C17.1541 7.72392 17.1177 7.70628 17.0813 7.66438C17.0504 7.62799 17.0416 7.58829 17.0482 7.55742C17.0559 7.51882 17.0747 7.48354 17.2213 7.35562C17.368 7.22881 17.4055 7.21668 17.4441 7.21338C17.476 7.21117 17.5157 7.2244 17.5466 7.26079C17.6051 7.32806 17.6028 7.3854 17.5565 7.45487L17.7286 7.65335C17.8443 7.51993 17.9028 7.31482 17.723 7.10862C17.6392 7.01158 17.5499 6.96968 17.4419 6.96196C17.2875 6.95093 17.1849 7.04025 17.0493 7.15714C16.9137 7.27513 16.8111 7.36334 16.8001 7.51772C16.7924 7.62578 16.821 7.71951 16.9048 7.81655C16.9809 7.90477 17.0669 7.96541 17.1982 7.97203C17.3128 7.97975 17.4066 7.93454 17.5367 7.82096H17.5378ZM16.4726 7.33247L16.6259 7.15604L16.2763 6.8539L16.3987 6.71275L16.6975 6.97078L16.8497 6.79435L16.5509 6.53632L16.6678 6.40179L17.0173 6.70393L17.1695 6.5275L16.6226 6.05334L15.9256 6.85831L16.4726 7.33247ZM16.123 5.57477L16.08 5.24176L15.9113 5.14472L15.6015 5.27484L15.7591 5.36526L15.9234 5.31674L15.9642 5.48325L16.1219 5.57367L16.123 5.57477ZM15.3908 6.50214L15.9212 5.57918L15.6941 5.44906L15.1637 6.37202L15.3908 6.50214ZM14.9498 6.24852L15.0457 6.0357L14.6388 5.85155L14.9817 5.094L14.7436 4.98593L14.3047 5.9563L14.9509 6.24852H14.9498ZM14.0698 5.87691L14.1338 5.65306L13.7037 5.53066L13.9309 4.73121L13.6795 4.65953L13.3883 5.68394L14.0698 5.87801V5.87691ZM13.0818 5.63101L13.2163 4.57463L12.9572 4.54155L12.8227 5.59793L13.0818 5.63101ZM12.5139 5.55713L12.5404 4.49303L12.2834 4.48641L12.032 4.94954L11.8049 4.47428L11.548 4.46767L11.5215 5.53177L11.7828 5.53838L11.7961 5.02894L11.9405 5.29579L12.1081 5.3002L12.2658 5.04107L12.2526 5.55051L12.5139 5.55713ZM10.8863 5.64314L10.6989 4.59558L10.4408 4.64189L10.6283 5.68945L10.8863 5.64314ZM10.1178 4.94513L10.0428 4.72459L9.29956 4.97601L9.37454 5.19655L9.62265 5.11274L9.8895 5.90007L10.1376 5.81626L9.87075 5.02894L10.1189 4.94513H10.1178ZM9.43629 6.06216L9.33043 5.85486L8.91913 6.06547L8.83422 5.89896L9.18598 5.71922L9.08012 5.51192L8.72836 5.69166L8.64676 5.53287L9.05807 5.32225L8.95221 5.11495L8.30823 5.44465L8.79342 6.39187L9.43739 6.06216H9.43629ZM7.99727 5.62219L7.7646 5.78759L7.85061 6.19559L7.49224 5.98056L7.25957 6.14597L7.887 6.47347L8.13842 6.82633L8.35124 6.67526L8.09982 6.3224L7.99617 5.62219H7.99727ZM7.73042 7.15604L6.99603 6.38525L6.80636 6.56609L7.54076 7.33688L7.73042 7.15604ZM6.6167 7.25748C6.6586 7.29387 6.67073 7.36003 6.62331 7.41407L6.52628 7.52544L6.36308 7.38429L6.46012 7.27292C6.50753 7.21889 6.57369 7.22109 6.6156 7.25748H6.6167ZM7.37094 7.48905L6.88465 7.37216C6.90781 7.28174 6.89789 7.15383 6.78762 7.059C6.65529 6.94432 6.44578 6.93109 6.2914 7.10972L6.01573 7.4284L6.8207 8.1253L6.99162 7.92792L6.69168 7.66879L6.74902 7.60263L7.17135 7.71951L7.36984 7.49015L7.37094 7.48905ZM6.32338 8.17713L5.72462 7.83309L5.5945 8.06025L6.18775 8.40208C6.27376 8.4517 6.29471 8.52889 6.2506 8.60387C6.2076 8.67886 6.13151 8.6976 6.0455 8.64798L5.45225 8.30615L5.32213 8.5333L5.9209 8.87734C6.12269 8.99313 6.34323 8.91153 6.4535 8.71966C6.56377 8.52779 6.52628 8.29402 6.32338 8.17713ZM6.11718 9.32614L5.12696 8.93579L5.03102 9.17948L5.41256 9.32945L5.31001 9.58858L4.92847 9.43861L4.83254 9.68231L5.82276 10.0727L5.91869 9.82897L5.52613 9.67459L5.62868 9.41546L6.02124 9.56984L6.11718 9.32614ZM5.73565 10.3715L4.68808 10.184L4.64287 10.4377L5.063 10.7552L4.55907 10.9085L4.51386 11.1621L5.56142 11.3496L5.60773 11.0916L5.10601 11.0022L5.3916 10.8997L5.42138 10.7343L5.18871 10.5391L5.69043 10.6284L5.73675 10.3704L5.73565 10.3715ZM5.16335 11.6528L4.47306 11.6705L4.47968 11.9318L5.16445 11.9142C5.26259 11.912 5.32103 11.9671 5.32324 12.0542C5.32544 12.1413 5.27031 12.1965 5.17107 12.1987L4.48629 12.2163L4.49291 12.4776L5.1832 12.46C5.41586 12.4545 5.56142 12.2692 5.55591 12.0487C5.55039 11.8271 5.39602 11.6473 5.16335 11.6528ZM5.23171 12.7246L5.27803 12.9871C5.33978 12.9926 5.39822 13.0158 5.41366 13.1007C5.42248 13.1481 5.40925 13.1867 5.38719 13.2098C5.36073 13.2385 5.32655 13.2617 5.13578 13.2958C4.94391 13.33 4.90421 13.3201 4.87003 13.3025C4.84136 13.2881 4.816 13.2561 4.80828 13.2087C4.79284 13.1238 4.84026 13.0819 4.89649 13.0544L4.85018 12.7919C4.62633 12.8713 4.54363 13.0499 4.57892 13.2484C4.60207 13.3763 4.65721 13.4579 4.74543 13.5197C4.87224 13.6079 5.00566 13.5836 5.18209 13.5528C5.35852 13.5208 5.49305 13.4976 5.58127 13.3708C5.64302 13.2826 5.66728 13.1867 5.64412 13.0588C5.60884 12.8603 5.4699 12.7213 5.23171 12.7235V12.7246ZM5.85804 14.0181L5.64081 14.1041L5.81063 14.5342L5.6364 14.6025L5.49195 14.2353L5.27472 14.3213L5.41917 14.6885L5.25377 14.7536L5.08395 14.3236L4.86672 14.4096L5.13247 15.0833L6.12269 14.693L5.85694 14.0192L5.85804 14.0181ZM5.28685 15.4064L5.4291 15.6545L5.84371 15.6071L5.5956 15.9434L5.73785 16.1915L6.1249 15.5983L6.50092 15.3821L6.3708 15.155L5.99478 15.3711L5.28795 15.4075L5.28685 15.4064ZM6.79203 15.8166L5.95508 16.4749L6.11718 16.6811L6.95412 16.0228L6.79203 15.8166ZM7.07432 16.1849L6.87473 16.8939L6.31235 16.9281L6.53289 17.1597L7.01808 17.1222L6.74571 17.3824L6.92435 17.5699L7.69513 16.8355L7.5165 16.648L7.27501 16.8785L7.13827 16.8851L7.28493 16.4065L7.07432 16.186V16.1849ZM7.71167 17.7562C7.74365 17.711 7.80871 17.6923 7.86715 17.7342L7.98735 17.8202L7.86274 17.9955L7.74255 17.9095C7.68411 17.8676 7.6808 17.8015 7.71278 17.7562H7.71167ZM7.87046 16.9833L7.80099 17.4784C7.70837 17.464 7.58266 17.4861 7.49885 17.6041C7.39741 17.7463 7.40402 17.9569 7.59699 18.0937L7.94104 18.3385L8.55744 17.4706L8.34462 17.3196L8.11526 17.6427L8.04359 17.5919L8.11967 17.1597L7.87267 16.9833H7.87046ZM8.63904 17.9514L8.32367 18.5667L8.55634 18.6858L8.8684 18.076C8.91361 17.9878 8.9897 17.9635 9.06689 18.0032C9.14408 18.0429 9.16613 18.1179 9.12092 18.2061L8.80886 18.8159L9.04152 18.935L9.3569 18.3197C9.46275 18.1124 9.37013 17.8963 9.17385 17.7959C8.97647 17.6945 8.7449 17.7441 8.63904 17.9514ZM9.51679 18.8711L9.45283 19.0949L10.2082 19.3088L10.2721 19.085L10.0207 19.0133L10.2479 18.2139L9.99646 18.1422L9.7693 18.9416L9.51789 18.87L9.51679 18.8711Z" fill="#E3000F"/>
</g>
</svg>
