<svg width="543" height="283" viewBox="0 0 543 283" fill="none" xmlns="http://www.w3.org/2000/svg">
<g filter="url(#filter0_di_40002933_3623)">
<rect x="207.659" y="95.1367" width="110.681" height="84.6127" rx="12" fill="#2450BE"/>
<path d="M291.408 119.137H290.783C289.163 119.137 287.85 120.45 287.85 122.069C287.85 123.688 289.163 125.001 290.783 125.001H291.408C293.028 125.001 294.34 123.688 294.34 122.069C294.34 120.45 293.028 119.137 291.408 119.137Z" fill="white"/>
<path d="M291.462 152.639C286.611 153.77 276.509 155.756 263.015 155.749C249.583 155.743 239.529 153.767 234.681 152.639V147.291C238.956 148.428 249.142 150.791 263.136 150.785C277.055 150.778 287.184 148.43 291.462 147.291V152.639Z" fill="white"/>
<path d="M231.659 127.201V145.292L237.691 145.297L237.699 137.626L239.269 140.795C239.688 141.645 240.553 142.182 241.499 142.189C242.458 142.196 243.333 141.654 243.759 140.793L245.322 137.633L245.344 145.297H251.371V127.236L245.59 127.254L244.156 130.197C243.094 132.378 239.989 132.389 238.911 130.214L237.436 127.232C235.511 127.221 233.586 127.21 231.662 127.199L231.659 127.201Z" fill="white"/>
<path d="M253.616 127.21V145.297H267.678V141.981C267.678 141.349 267.166 140.837 266.534 140.837H260.788C260.156 140.839 259.643 140.326 259.643 139.694C259.643 139.064 260.154 138.552 260.784 138.552L263.508 138.533C264.245 138.528 264.939 138.14 265.301 137.497C265.32 137.459 265.34 137.422 265.36 137.385C265.406 137.295 265.911 136.23 265.36 135.122C265.342 135.087 265.325 135.052 265.305 135.019C264.941 134.365 264.23 133.976 263.481 133.983L260.782 134.003C260.15 134.003 259.638 133.491 259.638 132.859V132.813C259.638 132.181 260.15 131.67 260.782 131.67H266.534C267.166 131.67 267.678 131.156 267.678 130.526V127.234L253.614 127.212L253.616 127.21Z" fill="white"/>
<path d="M285.367 137.622C284.764 136.658 283.855 136.259 283.491 136.123C283.904 135.802 284.584 135.271 284.915 134.371C285.517 132.732 285.512 130.23 283.963 128.665C282.312 126.999 280.072 127.199 279.762 127.232H269.227V145.295L280.039 145.297C280.232 145.301 283.618 145.321 285.135 142.863C285.848 141.706 285.892 140.418 285.899 140.08C285.914 139.424 285.934 138.528 285.367 137.624V137.622ZM278.017 141.177H276.503C275.647 141.177 274.951 140.482 274.951 139.626C274.951 138.77 275.647 138.074 276.503 138.074H278.017C278.873 138.074 279.569 138.77 279.569 139.626C279.569 140.482 278.873 141.177 278.017 141.177ZM279.569 132.844C279.569 133.651 278.915 134.308 278.105 134.308H276.413C275.605 134.308 274.949 133.654 274.949 132.844C274.949 132.036 275.603 131.38 276.413 131.38H278.105C278.913 131.38 279.569 132.034 279.569 132.844Z" fill="white"/>
<path d="M289.458 126.995H292.329C293.435 126.995 294.436 127.897 294.333 128.999C293.826 134.411 293.571 139.918 293.271 145.297C291.41 145.297 290.277 145.297 288.416 145.297C288.109 139.801 287.81 134.437 287.457 128.999C287.384 127.895 288.355 126.995 289.461 126.995H289.458Z" fill="white"/>
</g>
<g filter="url(#filter1_d_40002933_3623)">
<path d="M10 215C10 205.059 18.0589 197 28 197H165C174.941 197 183 205.059 183 215V251C183 260.941 174.941 269 165 269H28C18.0589 269 10 260.941 10 251V215Z" fill="#FDFEFF"/>
<rect x="22.5" y="209.5" width="148" height="47" rx="9.5" fill="#F8FBFF"/>
<rect x="22.5" y="209.5" width="148" height="47" rx="9.5" stroke="#DFE6F5"/>
<path d="M54 235C56.4508 235 58.6716 236.036 60.3268 237.712L60.485 237.876L60.5293 237.928C60.7352 238.196 60.7082 238.582 60.457 238.818C60.2059 239.055 59.8199 239.059 59.5644 238.838L59.515 238.79L59.2383 238.51C57.8273 237.147 55.9944 236.333 54 236.333C51.8726 236.333 49.9288 237.259 48.485 238.79C48.2325 239.058 47.8109 239.071 47.543 238.818C47.2751 238.566 47.2625 238.144 47.515 237.876C49.1855 236.104 51.4701 235 54 235ZM56.3333 230C56.3333 228.711 55.2887 227.667 54 227.667C52.7113 227.667 51.6667 228.711 51.6667 230C51.6667 231.289 52.7113 232.333 54 232.333C55.2887 232.333 56.3333 231.289 56.3333 230ZM57.6667 230C57.6667 232.025 56.025 233.667 54 233.667C51.9749 233.667 50.3333 232.025 50.3333 230C50.3333 227.975 51.9749 226.333 54 226.333C56.025 226.333 57.6667 227.975 57.6667 230Z" fill="#132B93"/>
<path d="M75.408 238.16C74.5013 238.16 73.7227 238.005 73.072 237.696C72.4213 237.376 71.92 236.891 71.568 236.24C71.216 235.579 71.0187 234.752 70.976 233.76C70.9653 233.291 70.96 232.843 70.96 232.416C70.96 231.979 70.9653 231.525 70.976 231.056C71.0187 230.075 71.2213 229.259 71.584 228.608C71.9573 227.947 72.4693 227.456 73.12 227.136C73.7813 226.805 74.544 226.64 75.408 226.64C76.2827 226.64 77.0453 226.805 77.696 227.136C78.3573 227.456 78.8747 227.947 79.248 228.608C79.6213 229.259 79.824 230.075 79.856 231.056C79.8773 231.525 79.888 231.979 79.888 232.416C79.888 232.843 79.8773 233.291 79.856 233.76C79.824 234.752 79.6267 235.579 79.264 236.24C78.912 236.891 78.4107 237.376 77.76 237.696C77.1093 238.005 76.3253 238.16 75.408 238.16ZM75.408 236.8C76.2293 236.8 76.896 236.555 77.408 236.064C77.9307 235.573 78.2133 234.779 78.256 233.68C78.2773 233.2 78.288 232.773 78.288 232.4C78.288 232.016 78.2773 231.589 78.256 231.12C78.2347 230.384 78.096 229.787 77.84 229.328C77.5947 228.869 77.264 228.533 76.848 228.32C76.432 228.107 75.952 228 75.408 228C74.8853 228 74.416 228.107 74 228.32C73.584 228.533 73.248 228.869 72.992 229.328C72.7467 229.787 72.608 230.384 72.576 231.12C72.5653 231.589 72.56 232.016 72.56 232.4C72.56 232.773 72.5653 233.2 72.576 233.68C72.6187 234.779 72.9013 235.573 73.424 236.064C73.9467 236.555 74.608 236.8 75.408 236.8ZM76.576 226C76.4587 226 76.368 225.968 76.304 225.904C76.24 225.84 76.208 225.755 76.208 225.648V224.784C76.208 224.677 76.24 224.592 76.304 224.528C76.368 224.453 76.4587 224.416 76.576 224.416H77.44C77.5467 224.416 77.632 224.453 77.696 224.528C77.7707 224.592 77.808 224.677 77.808 224.784V225.648C77.808 225.755 77.7707 225.84 77.696 225.904C77.632 225.968 77.5467 226 77.44 226H76.576ZM73.376 226C73.2693 226 73.184 225.968 73.12 225.904C73.056 225.84 73.024 225.755 73.024 225.648V224.784C73.024 224.677 73.056 224.592 73.12 224.528C73.184 224.453 73.2693 224.416 73.376 224.416H74.256C74.3627 224.416 74.448 224.453 74.512 224.528C74.5867 224.592 74.624 224.677 74.624 224.784V225.648C74.624 225.755 74.5867 225.84 74.512 225.904C74.448 225.968 74.3627 226 74.256 226H73.376ZM85.4201 241.52C84.6948 241.52 84.0975 241.424 83.6281 241.232C83.1695 241.04 82.8068 240.805 82.5401 240.528C82.2841 240.261 82.0975 239.989 81.9801 239.712C81.8735 239.445 81.8148 239.232 81.8041 239.072C81.7935 238.965 81.8255 238.875 81.9001 238.8C81.9855 238.725 82.0761 238.688 82.1721 238.688H82.9401C83.0361 238.688 83.1161 238.709 83.1801 238.752C83.2441 238.795 83.2975 238.885 83.3401 239.024C83.4041 239.184 83.5001 239.36 83.6281 239.552C83.7561 239.755 83.9535 239.925 84.2201 240.064C84.4868 240.213 84.8601 240.288 85.3401 240.288C85.8415 240.288 86.2628 240.219 86.6041 240.08C86.9455 239.952 87.2015 239.717 87.3721 239.376C87.5535 239.045 87.6441 238.587 87.6441 238V236.912C87.3881 237.243 87.0521 237.52 86.6361 237.744C86.2201 237.957 85.6975 238.064 85.0681 238.064C84.4708 238.064 83.9588 237.963 83.5321 237.76C83.1055 237.547 82.7535 237.264 82.4761 236.912C82.2095 236.549 82.0068 236.139 81.8681 235.68C81.7401 235.221 81.6655 234.741 81.6441 234.24C81.6335 233.941 81.6335 233.648 81.6441 233.36C81.6655 232.859 81.7401 232.379 81.8681 231.92C82.0068 231.461 82.2095 231.051 82.4761 230.688C82.7535 230.325 83.1055 230.043 83.5321 229.84C83.9588 229.627 84.4708 229.52 85.0681 229.52C85.7081 229.52 86.2361 229.643 86.6521 229.888C87.0788 230.123 87.4255 230.411 87.6921 230.752V230.064C87.6921 229.957 87.7241 229.867 87.7881 229.792C87.8628 229.717 87.9535 229.68 88.0601 229.68H88.7961C88.9028 229.68 88.9935 229.717 89.0681 229.792C89.1428 229.867 89.1801 229.957 89.1801 230.064V237.824C89.1801 238.539 89.0575 239.173 88.8121 239.728C88.5775 240.283 88.1828 240.72 87.6281 241.04C87.0841 241.36 86.3481 241.52 85.4201 241.52ZM85.3881 236.784C85.9215 236.784 86.3481 236.661 86.6681 236.416C86.9988 236.171 87.2388 235.861 87.3881 235.488C87.5481 235.115 87.6335 234.736 87.6441 234.352C87.6548 234.203 87.6601 234.021 87.6601 233.808C87.6601 233.584 87.6548 233.397 87.6441 233.248C87.6335 232.864 87.5481 232.485 87.3881 232.112C87.2388 231.739 86.9988 231.429 86.6681 231.184C86.3481 230.939 85.9215 230.816 85.3881 230.816C84.8548 230.816 84.4281 230.939 84.1081 231.184C83.7881 231.419 83.5588 231.733 83.4201 232.128C83.2815 232.512 83.2015 232.928 83.1801 233.376C83.1695 233.653 83.1695 233.936 83.1801 234.224C83.2015 234.672 83.2815 235.093 83.4201 235.488C83.5588 235.872 83.7881 236.187 84.1081 236.432C84.4281 236.667 84.8548 236.784 85.3881 236.784ZM85.4201 228.56C84.9295 228.56 84.5401 228.469 84.2521 228.288C83.9641 228.096 83.7615 227.851 83.6441 227.552C83.5268 227.243 83.4681 226.923 83.4681 226.592C83.4681 226.507 83.4948 226.437 83.5481 226.384C83.6015 226.32 83.6761 226.288 83.7721 226.288H84.2521C84.3481 226.288 84.4228 226.32 84.4761 226.384C84.5295 226.437 84.5561 226.507 84.5561 226.592C84.5561 226.837 84.6148 227.067 84.7321 227.28C84.8495 227.493 85.0788 227.6 85.4201 227.6C85.7721 227.6 86.0015 227.493 86.1081 227.28C86.2255 227.067 86.2841 226.832 86.2841 226.576C86.2841 226.501 86.3108 226.437 86.3641 226.384C86.4175 226.32 86.4921 226.288 86.5881 226.288H87.0681C87.1641 226.288 87.2388 226.32 87.2921 226.384C87.3455 226.437 87.3721 226.507 87.3721 226.592C87.3721 226.923 87.3081 227.243 87.1801 227.552C87.0628 227.851 86.8601 228.096 86.5721 228.288C86.2948 228.469 85.9108 228.56 85.4201 228.56ZM91.927 238C91.8203 238 91.7297 237.968 91.655 237.904C91.591 237.829 91.559 237.739 91.559 237.632V230.064C91.559 229.957 91.591 229.867 91.655 229.792C91.7297 229.717 91.8203 229.68 91.927 229.68H92.663C92.7697 229.68 92.8603 229.717 92.935 229.792C93.0097 229.867 93.047 229.957 93.047 230.064V230.768C93.2603 230.405 93.5537 230.133 93.927 229.952C94.3003 229.771 94.7483 229.68 95.271 229.68H95.911C96.0177 229.68 96.103 229.717 96.167 229.792C96.231 229.856 96.263 229.941 96.263 230.048V230.704C96.263 230.811 96.231 230.896 96.167 230.96C96.103 231.024 96.0177 231.056 95.911 231.056H94.951C94.375 231.056 93.9217 231.227 93.591 231.568C93.2603 231.899 93.095 232.352 93.095 232.928V237.632C93.095 237.739 93.0577 237.829 92.983 237.904C92.9083 237.968 92.8177 238 92.711 238H91.927ZM100.793 238.16C99.6942 238.16 98.8195 237.824 98.1689 237.152C97.5182 236.469 97.1609 235.541 97.0969 234.368C97.0862 234.229 97.0809 234.053 97.0809 233.84C97.0809 233.616 97.0862 233.435 97.0969 233.296C97.1395 232.539 97.3155 231.877 97.6249 231.312C97.9342 230.736 98.3555 230.293 98.8889 229.984C99.4329 229.675 100.068 229.52 100.793 229.52C101.604 229.52 102.281 229.691 102.825 230.032C103.38 230.373 103.801 230.859 104.089 231.488C104.377 232.117 104.521 232.853 104.521 233.696V233.968C104.521 234.085 104.484 234.176 104.409 234.24C104.345 234.304 104.26 234.336 104.153 234.336H98.6169C98.6169 234.347 98.6169 234.368 98.6169 234.4C98.6169 234.432 98.6169 234.459 98.6169 234.48C98.6382 234.917 98.7342 235.328 98.9049 235.712C99.0755 236.085 99.3209 236.389 99.6409 236.624C99.9609 236.859 100.345 236.976 100.793 236.976C101.177 236.976 101.497 236.917 101.753 236.8C102.009 236.683 102.217 236.555 102.377 236.416C102.537 236.267 102.644 236.155 102.697 236.08C102.793 235.941 102.868 235.861 102.921 235.84C102.974 235.808 103.06 235.792 103.177 235.792H103.945C104.052 235.792 104.137 235.824 104.201 235.888C104.276 235.941 104.308 236.021 104.297 236.128C104.286 236.288 104.201 236.485 104.041 236.72C103.881 236.944 103.652 237.168 103.353 237.392C103.054 237.616 102.692 237.803 102.265 237.952C101.838 238.091 101.348 238.16 100.793 238.16ZM98.6169 233.232H103.001V233.184C103.001 232.704 102.91 232.277 102.729 231.904C102.558 231.531 102.308 231.237 101.977 231.024C101.646 230.8 101.252 230.688 100.793 230.688C100.334 230.688 99.9395 230.8 99.6089 231.024C99.2889 231.237 99.0435 231.531 98.8729 231.904C98.7022 232.277 98.6169 232.704 98.6169 233.184V233.232ZM106.802 238C106.695 238 106.605 237.968 106.53 237.904C106.466 237.829 106.434 237.739 106.434 237.632V230.048C106.434 229.941 106.466 229.856 106.53 229.792C106.605 229.717 106.695 229.68 106.802 229.68H107.554C107.661 229.68 107.746 229.717 107.81 229.792C107.885 229.856 107.922 229.941 107.922 230.048V230.752C108.199 230.389 108.546 230.096 108.962 229.872C109.389 229.637 109.933 229.52 110.594 229.52C111.287 229.52 111.874 229.675 112.354 229.984C112.845 230.283 113.213 230.704 113.458 231.248C113.703 231.781 113.826 232.405 113.826 233.12V237.632C113.826 237.739 113.794 237.829 113.73 237.904C113.666 237.968 113.581 238 113.474 238H112.674C112.567 238 112.477 237.968 112.402 237.904C112.338 237.829 112.306 237.739 112.306 237.632V233.2C112.306 232.453 112.125 231.872 111.762 231.456C111.399 231.029 110.866 230.816 110.162 230.816C109.501 230.816 108.967 231.029 108.562 231.456C108.167 231.872 107.97 232.453 107.97 233.2V237.632C107.97 237.739 107.933 237.829 107.858 237.904C107.794 237.968 107.709 238 107.602 238H106.802ZM119.497 238.16C118.74 238.16 118.084 238.016 117.529 237.728C116.985 237.429 116.564 237.008 116.265 236.464C115.966 235.909 115.806 235.248 115.785 234.48C115.774 234.32 115.769 234.107 115.769 233.84C115.769 233.573 115.774 233.36 115.785 233.2C115.806 232.432 115.966 231.776 116.265 231.232C116.564 230.677 116.985 230.256 117.529 229.968C118.084 229.669 118.74 229.52 119.497 229.52C120.116 229.52 120.644 229.605 121.081 229.776C121.529 229.947 121.897 230.165 122.185 230.432C122.473 230.699 122.686 230.987 122.825 231.296C122.974 231.605 123.054 231.899 123.065 232.176C123.076 232.283 123.044 232.368 122.969 232.432C122.894 232.496 122.804 232.528 122.697 232.528H121.929C121.822 232.528 121.742 232.507 121.689 232.464C121.636 232.411 121.582 232.325 121.529 232.208C121.337 231.685 121.076 231.317 120.745 231.104C120.414 230.891 120.004 230.784 119.513 230.784C118.873 230.784 118.35 230.981 117.945 231.376C117.55 231.771 117.337 232.405 117.305 233.28C117.294 233.664 117.294 234.037 117.305 234.4C117.337 235.285 117.55 235.925 117.945 236.32C118.35 236.704 118.873 236.896 119.513 236.896C120.004 236.896 120.414 236.789 120.745 236.576C121.076 236.363 121.337 235.995 121.529 235.472C121.582 235.355 121.636 235.275 121.689 235.232C121.742 235.179 121.822 235.152 121.929 235.152H122.697C122.804 235.152 122.894 235.184 122.969 235.248C123.044 235.312 123.076 235.397 123.065 235.504C123.054 235.728 123.006 235.957 122.921 236.192C122.836 236.427 122.697 236.667 122.505 236.912C122.324 237.147 122.094 237.36 121.817 237.552C121.54 237.733 121.204 237.883 120.809 238C120.425 238.107 119.988 238.16 119.497 238.16ZM125.333 238C125.227 238 125.136 237.968 125.061 237.904C124.997 237.829 124.965 237.739 124.965 237.632V230.048C124.965 229.941 124.997 229.856 125.061 229.792C125.136 229.717 125.227 229.68 125.333 229.68H126.101C126.208 229.68 126.293 229.717 126.357 229.792C126.421 229.856 126.453 229.941 126.453 230.048V237.632C126.453 237.739 126.421 237.829 126.357 237.904C126.293 237.968 126.208 238 126.101 238H125.333ZM125.205 228.128C125.099 228.128 125.008 228.096 124.933 228.032C124.869 227.957 124.837 227.867 124.837 227.76V226.896C124.837 226.789 124.869 226.704 124.933 226.64C125.008 226.565 125.099 226.528 125.205 226.528H126.213C126.32 226.528 126.405 226.565 126.469 226.64C126.544 226.704 126.581 226.789 126.581 226.896V227.76C126.581 227.867 126.544 227.957 126.469 228.032C126.405 228.096 126.32 228.128 126.213 228.128H125.205ZM129.224 238C129.118 238 129.027 237.968 128.952 237.904C128.888 237.829 128.856 237.739 128.856 237.632V227.008C128.856 226.901 128.888 226.816 128.952 226.752C129.027 226.677 129.118 226.64 129.224 226.64H129.976C130.094 226.64 130.184 226.677 130.248 226.752C130.312 226.816 130.344 226.901 130.344 227.008V237.632C130.344 237.739 130.312 237.829 130.248 237.904C130.184 237.968 130.094 238 129.976 238H129.224ZM136.043 238.16C134.944 238.16 134.07 237.824 133.419 237.152C132.768 236.469 132.411 235.541 132.347 234.368C132.336 234.229 132.331 234.053 132.331 233.84C132.331 233.616 132.336 233.435 132.347 233.296C132.39 232.539 132.566 231.877 132.875 231.312C133.184 230.736 133.606 230.293 134.139 229.984C134.683 229.675 135.318 229.52 136.043 229.52C136.854 229.52 137.531 229.691 138.075 230.032C138.63 230.373 139.051 230.859 139.339 231.488C139.627 232.117 139.771 232.853 139.771 233.696V233.968C139.771 234.085 139.734 234.176 139.659 234.24C139.595 234.304 139.51 234.336 139.403 234.336H133.867C133.867 234.347 133.867 234.368 133.867 234.4C133.867 234.432 133.867 234.459 133.867 234.48C133.888 234.917 133.984 235.328 134.155 235.712C134.326 236.085 134.571 236.389 134.891 236.624C135.211 236.859 135.595 236.976 136.043 236.976C136.427 236.976 136.747 236.917 137.003 236.8C137.259 236.683 137.467 236.555 137.627 236.416C137.787 236.267 137.894 236.155 137.947 236.08C138.043 235.941 138.118 235.861 138.171 235.84C138.224 235.808 138.31 235.792 138.427 235.792H139.195C139.302 235.792 139.387 235.824 139.451 235.888C139.526 235.941 139.558 236.021 139.547 236.128C139.536 236.288 139.451 236.485 139.291 236.72C139.131 236.944 138.902 237.168 138.603 237.392C138.304 237.616 137.942 237.803 137.515 237.952C137.088 238.091 136.598 238.16 136.043 238.16ZM133.867 233.232H138.251V233.184C138.251 232.704 138.16 232.277 137.979 231.904C137.808 231.531 137.558 231.237 137.227 231.024C136.896 230.8 136.502 230.688 136.043 230.688C135.584 230.688 135.19 230.8 134.859 231.024C134.539 231.237 134.294 231.531 134.123 231.904C133.952 232.277 133.867 232.704 133.867 233.184V233.232ZM142.052 238C141.945 238 141.855 237.968 141.78 237.904C141.716 237.829 141.684 237.739 141.684 237.632V230.064C141.684 229.957 141.716 229.867 141.78 229.792C141.855 229.717 141.945 229.68 142.052 229.68H142.788C142.895 229.68 142.985 229.717 143.06 229.792C143.135 229.867 143.172 229.957 143.172 230.064V230.768C143.385 230.405 143.679 230.133 144.052 229.952C144.425 229.771 144.873 229.68 145.396 229.68H146.036C146.143 229.68 146.228 229.717 146.292 229.792C146.356 229.856 146.388 229.941 146.388 230.048V230.704C146.388 230.811 146.356 230.896 146.292 230.96C146.228 231.024 146.143 231.056 146.036 231.056H145.076C144.5 231.056 144.047 231.227 143.716 231.568C143.385 231.899 143.22 232.352 143.22 232.928V237.632C143.22 237.739 143.183 237.829 143.108 237.904C143.033 237.968 142.943 238 142.836 238H142.052Z" fill="#132B93"/>
</g>
<g filter="url(#filter2_d_40002933_3623)">
<path d="M343 215C343 205.059 351.059 197 361 197H515C524.941 197 533 205.059 533 215V251C533 260.941 524.941 269 515 269H361C351.059 269 343 260.941 343 251V215Z" fill="#FDFEFF"/>
<rect x="355.5" y="209.5" width="165" height="47" rx="9.5" fill="#F8FBFF"/>
<rect x="355.5" y="209.5" width="165" height="47" rx="9.5" stroke="#DFE6F5"/>
<g clip-path="url(#clip0_40002933_3623)">
<path d="M381.934 233C382.109 233 382.281 232.999 382.426 233.011C382.578 233.024 382.758 233.053 382.939 233.145L383.031 233.197C383.21 233.307 383.36 233.457 383.47 233.636L383.521 233.728L383.579 233.863C383.6 233.921 383.614 233.977 383.625 234.032L384.697 233.584C384.707 233.58 384.721 233.573 384.738 233.566C384.774 233.55 384.826 233.528 384.889 233.501C385.016 233.448 385.193 233.377 385.392 233.305C385.761 233.173 386.312 233 386.762 233C387.082 233 387.4 233.038 387.71 233.113L389.3 233.5L389.439 233.54C390.096 233.758 390.567 234.354 390.602 235.057L391.592 234.335L391.723 234.249C392.389 233.85 393.257 233.94 393.824 234.491L393.943 234.619C394.5 235.285 394.461 236.272 393.823 236.892L393.824 236.893L392.385 238.291L392.385 238.292C391.964 238.701 391.443 238.996 390.876 239.149L390.63 239.206L388.596 239.602C388.161 239.687 387.714 239.688 387.279 239.607L387.094 239.567L385.255 239.121L385.254 239.12C385.087 239.079 384.914 239.058 384.74 239.058H383.657C383.656 239.069 383.657 239.081 383.656 239.092C383.646 239.206 383.627 239.336 383.579 239.47L383.521 239.606C383.394 239.856 383.189 240.06 382.938 240.188L382.939 240.188C382.758 240.28 382.578 240.31 382.426 240.322C382.281 240.334 382.109 240.333 381.934 240.333H381.4C381.224 240.333 381.052 240.334 380.908 240.322C380.793 240.313 380.664 240.294 380.53 240.246L380.395 240.188C380.175 240.076 379.991 239.906 379.863 239.697L379.812 239.606C379.72 239.425 379.69 239.244 379.678 239.092C379.666 238.947 379.667 238.775 379.667 238.6V234.733C379.667 234.558 379.666 234.386 379.678 234.241C379.69 234.089 379.72 233.909 379.812 233.728L379.863 233.636C379.991 233.427 380.175 233.257 380.395 233.145L380.53 233.087C380.664 233.04 380.793 233.02 380.908 233.011C381.052 232.999 381.224 233 381.4 233H381.934ZM386.762 234.333C386.569 234.333 386.216 234.426 385.842 234.561C385.67 234.622 385.516 234.684 385.404 234.731C385.349 234.754 385.304 234.773 385.274 234.787C385.259 234.793 385.248 234.798 385.241 234.801C385.237 234.803 385.235 234.804 385.233 234.805L385.232 234.805C385.225 234.808 385.218 234.812 385.212 234.815L383.667 235.46V237.725H384.74C385.02 237.725 385.299 237.758 385.572 237.825H385.571L387.409 238.272L387.524 238.296C387.794 238.347 388.071 238.346 388.342 238.293L390.374 237.898L390.527 237.862C390.879 237.767 391.199 237.585 391.455 237.336L392.894 235.936L392.94 235.882C393.02 235.766 393.02 235.618 392.94 235.501L392.894 235.447C392.775 235.331 392.589 235.303 392.439 235.375L392.378 235.412L390.701 236.634L390.702 236.635C390.346 236.895 389.916 237.033 389.476 237.033H387.857C387.489 237.033 387.19 236.735 387.19 236.367C387.19 236.021 387.453 235.737 387.789 235.703L387.857 235.7H388.887C389.117 235.7 389.272 235.523 389.272 235.344V235.139C389.272 234.989 389.165 234.839 388.986 234.796H388.985L387.395 234.409C387.188 234.359 386.976 234.333 386.762 234.333ZM387.967 225.945C389.007 225.449 390.052 225.796 390.69 226.537C391.612 226.214 392.678 226.443 393.34 227.379L393.411 227.484C394.088 228.548 393.847 229.897 392.912 230.679L392.816 230.755C392.419 231.056 391.665 231.48 390.993 231.837L390.366 232.165C390.232 232.233 390.097 232.304 389.975 232.354C389.844 232.409 389.688 232.458 389.504 232.464H389.406C389.21 232.456 389.014 232.403 388.84 232.313L388.755 232.264C388.599 232.166 388.488 232.046 388.402 231.933C388.362 231.881 388.321 231.822 388.281 231.761L388.158 231.574C387.755 230.947 387.17 230.013 386.857 229.379L386.741 229.128C386.228 227.91 386.756 226.523 387.966 225.945H387.967ZM389.859 227.682C389.608 227.157 389.111 226.936 388.635 227.109L388.541 227.149C387.967 227.422 387.736 228.055 387.969 228.609L388.064 228.814C388.327 229.341 388.857 230.196 389.279 230.852L389.39 231.022C389.419 231.065 389.44 231.096 389.46 231.122C389.46 231.123 389.461 231.123 389.462 231.124C389.463 231.123 389.464 231.124 389.465 231.123C389.524 231.099 389.603 231.058 389.756 230.979L390.383 230.651C391.031 230.306 391.698 229.93 392.011 229.693L392.098 229.62C392.483 229.266 392.579 228.708 392.314 228.246L392.252 228.149C391.919 227.678 391.343 227.598 390.838 227.945C390.677 228.055 390.477 228.089 390.288 228.038C390.1 227.988 389.943 227.858 389.859 227.682ZM381 238.6C381 238.797 381.001 238.906 381.007 238.984C381.007 238.987 381.008 238.989 381.008 238.992C381.01 238.992 381.013 238.993 381.016 238.993C381.094 238.999 381.202 239 381.4 239H381.934C382.131 239 382.239 238.999 382.317 238.993C382.32 238.993 382.322 238.992 382.325 238.992C382.325 238.989 382.326 238.987 382.326 238.984C382.333 238.906 382.333 238.797 382.333 238.6V234.733C382.333 234.536 382.333 234.427 382.326 234.35C382.326 234.346 382.325 234.343 382.325 234.341C382.322 234.34 382.32 234.34 382.317 234.34C382.239 234.334 382.131 234.333 381.934 234.333H381.4C381.202 234.333 381.094 234.334 381.016 234.34C381.013 234.34 381.01 234.34 381.008 234.341C381.008 234.343 381.007 234.346 381.007 234.35C381.001 234.427 381 234.536 381 234.733V238.6Z" fill="#132B93"/>
</g>
<path d="M408.408 238.16C407.501 238.16 406.723 238.005 406.072 237.696C405.421 237.376 404.92 236.891 404.568 236.24C404.216 235.579 404.019 234.752 403.976 233.76C403.965 233.291 403.96 232.843 403.96 232.416C403.96 231.979 403.965 231.525 403.976 231.056C404.019 230.075 404.221 229.259 404.584 228.608C404.957 227.947 405.469 227.456 406.12 227.136C406.781 226.805 407.544 226.64 408.408 226.64C409.283 226.64 410.045 226.805 410.696 227.136C411.357 227.456 411.875 227.947 412.248 228.608C412.621 229.259 412.824 230.075 412.856 231.056C412.877 231.525 412.888 231.979 412.888 232.416C412.888 232.843 412.877 233.291 412.856 233.76C412.824 234.752 412.627 235.579 412.264 236.24C411.912 236.891 411.411 237.376 410.76 237.696C410.109 238.005 409.325 238.16 408.408 238.16ZM408.408 236.8C409.229 236.8 409.896 236.555 410.408 236.064C410.931 235.573 411.213 234.779 411.256 233.68C411.277 233.2 411.288 232.773 411.288 232.4C411.288 232.016 411.277 231.589 411.256 231.12C411.235 230.384 411.096 229.787 410.84 229.328C410.595 228.869 410.264 228.533 409.848 228.32C409.432 228.107 408.952 228 408.408 228C407.885 228 407.416 228.107 407 228.32C406.584 228.533 406.248 228.869 405.992 229.328C405.747 229.787 405.608 230.384 405.576 231.12C405.565 231.589 405.56 232.016 405.56 232.4C405.56 232.773 405.565 233.2 405.576 233.68C405.619 234.779 405.901 235.573 406.424 236.064C406.947 236.555 407.608 236.8 408.408 236.8ZM409.576 226C409.459 226 409.368 225.968 409.304 225.904C409.24 225.84 409.208 225.755 409.208 225.648V224.784C409.208 224.677 409.24 224.592 409.304 224.528C409.368 224.453 409.459 224.416 409.576 224.416H410.44C410.547 224.416 410.632 224.453 410.696 224.528C410.771 224.592 410.808 224.677 410.808 224.784V225.648C410.808 225.755 410.771 225.84 410.696 225.904C410.632 225.968 410.547 226 410.44 226H409.576ZM406.376 226C406.269 226 406.184 225.968 406.12 225.904C406.056 225.84 406.024 225.755 406.024 225.648V224.784C406.024 224.677 406.056 224.592 406.12 224.528C406.184 224.453 406.269 224.416 406.376 224.416H407.256C407.363 224.416 407.448 224.453 407.512 224.528C407.587 224.592 407.624 224.677 407.624 224.784V225.648C407.624 225.755 407.587 225.84 407.512 225.904C407.448 225.968 407.363 226 407.256 226H406.376ZM418.42 241.52C417.695 241.52 417.097 241.424 416.628 241.232C416.169 241.04 415.807 240.805 415.54 240.528C415.284 240.261 415.097 239.989 414.98 239.712C414.873 239.445 414.815 239.232 414.804 239.072C414.793 238.965 414.825 238.875 414.9 238.8C414.985 238.725 415.076 238.688 415.172 238.688H415.94C416.036 238.688 416.116 238.709 416.18 238.752C416.244 238.795 416.297 238.885 416.34 239.024C416.404 239.184 416.5 239.36 416.628 239.552C416.756 239.755 416.953 239.925 417.22 240.064C417.487 240.213 417.86 240.288 418.34 240.288C418.841 240.288 419.263 240.219 419.604 240.08C419.945 239.952 420.201 239.717 420.372 239.376C420.553 239.045 420.644 238.587 420.644 238V236.912C420.388 237.243 420.052 237.52 419.636 237.744C419.22 237.957 418.697 238.064 418.068 238.064C417.471 238.064 416.959 237.963 416.532 237.76C416.105 237.547 415.753 237.264 415.476 236.912C415.209 236.549 415.007 236.139 414.868 235.68C414.74 235.221 414.665 234.741 414.644 234.24C414.633 233.941 414.633 233.648 414.644 233.36C414.665 232.859 414.74 232.379 414.868 231.92C415.007 231.461 415.209 231.051 415.476 230.688C415.753 230.325 416.105 230.043 416.532 229.84C416.959 229.627 417.471 229.52 418.068 229.52C418.708 229.52 419.236 229.643 419.652 229.888C420.079 230.123 420.425 230.411 420.692 230.752V230.064C420.692 229.957 420.724 229.867 420.788 229.792C420.863 229.717 420.953 229.68 421.06 229.68H421.796C421.903 229.68 421.993 229.717 422.068 229.792C422.143 229.867 422.18 229.957 422.18 230.064V237.824C422.18 238.539 422.057 239.173 421.812 239.728C421.577 240.283 421.183 240.72 420.628 241.04C420.084 241.36 419.348 241.52 418.42 241.52ZM418.388 236.784C418.921 236.784 419.348 236.661 419.668 236.416C419.999 236.171 420.239 235.861 420.388 235.488C420.548 235.115 420.633 234.736 420.644 234.352C420.655 234.203 420.66 234.021 420.66 233.808C420.66 233.584 420.655 233.397 420.644 233.248C420.633 232.864 420.548 232.485 420.388 232.112C420.239 231.739 419.999 231.429 419.668 231.184C419.348 230.939 418.921 230.816 418.388 230.816C417.855 230.816 417.428 230.939 417.108 231.184C416.788 231.419 416.559 231.733 416.42 232.128C416.281 232.512 416.201 232.928 416.18 233.376C416.169 233.653 416.169 233.936 416.18 234.224C416.201 234.672 416.281 235.093 416.42 235.488C416.559 235.872 416.788 236.187 417.108 236.432C417.428 236.667 417.855 236.784 418.388 236.784ZM418.42 228.56C417.929 228.56 417.54 228.469 417.252 228.288C416.964 228.096 416.761 227.851 416.644 227.552C416.527 227.243 416.468 226.923 416.468 226.592C416.468 226.507 416.495 226.437 416.548 226.384C416.601 226.32 416.676 226.288 416.772 226.288H417.252C417.348 226.288 417.423 226.32 417.476 226.384C417.529 226.437 417.556 226.507 417.556 226.592C417.556 226.837 417.615 227.067 417.732 227.28C417.849 227.493 418.079 227.6 418.42 227.6C418.772 227.6 419.001 227.493 419.108 227.28C419.225 227.067 419.284 226.832 419.284 226.576C419.284 226.501 419.311 226.437 419.364 226.384C419.417 226.32 419.492 226.288 419.588 226.288H420.068C420.164 226.288 420.239 226.32 420.292 226.384C420.345 226.437 420.372 226.507 420.372 226.592C420.372 226.923 420.308 227.243 420.18 227.552C420.063 227.851 419.86 228.096 419.572 228.288C419.295 228.469 418.911 228.56 418.42 228.56ZM424.927 238C424.82 238 424.73 237.968 424.655 237.904C424.591 237.829 424.559 237.739 424.559 237.632V230.064C424.559 229.957 424.591 229.867 424.655 229.792C424.73 229.717 424.82 229.68 424.927 229.68H425.663C425.77 229.68 425.86 229.717 425.935 229.792C426.01 229.867 426.047 229.957 426.047 230.064V230.768C426.26 230.405 426.554 230.133 426.927 229.952C427.3 229.771 427.748 229.68 428.271 229.68H428.911C429.018 229.68 429.103 229.717 429.167 229.792C429.231 229.856 429.263 229.941 429.263 230.048V230.704C429.263 230.811 429.231 230.896 429.167 230.96C429.103 231.024 429.018 231.056 428.911 231.056H427.951C427.375 231.056 426.922 231.227 426.591 231.568C426.26 231.899 426.095 232.352 426.095 232.928V237.632C426.095 237.739 426.058 237.829 425.983 237.904C425.908 237.968 425.818 238 425.711 238H424.927ZM433.793 238.16C432.694 238.16 431.82 237.824 431.169 237.152C430.518 236.469 430.161 235.541 430.097 234.368C430.086 234.229 430.081 234.053 430.081 233.84C430.081 233.616 430.086 233.435 430.097 233.296C430.14 232.539 430.316 231.877 430.625 231.312C430.934 230.736 431.356 230.293 431.889 229.984C432.433 229.675 433.068 229.52 433.793 229.52C434.604 229.52 435.281 229.691 435.825 230.032C436.38 230.373 436.801 230.859 437.089 231.488C437.377 232.117 437.521 232.853 437.521 233.696V233.968C437.521 234.085 437.484 234.176 437.409 234.24C437.345 234.304 437.26 234.336 437.153 234.336H431.617C431.617 234.347 431.617 234.368 431.617 234.4C431.617 234.432 431.617 234.459 431.617 234.48C431.638 234.917 431.734 235.328 431.905 235.712C432.076 236.085 432.321 236.389 432.641 236.624C432.961 236.859 433.345 236.976 433.793 236.976C434.177 236.976 434.497 236.917 434.753 236.8C435.009 236.683 435.217 236.555 435.377 236.416C435.537 236.267 435.644 236.155 435.697 236.08C435.793 235.941 435.868 235.861 435.921 235.84C435.974 235.808 436.06 235.792 436.177 235.792H436.945C437.052 235.792 437.137 235.824 437.201 235.888C437.276 235.941 437.308 236.021 437.297 236.128C437.286 236.288 437.201 236.485 437.041 236.72C436.881 236.944 436.652 237.168 436.353 237.392C436.054 237.616 435.692 237.803 435.265 237.952C434.838 238.091 434.348 238.16 433.793 238.16ZM431.617 233.232H436.001V233.184C436.001 232.704 435.91 232.277 435.729 231.904C435.558 231.531 435.308 231.237 434.977 231.024C434.646 230.8 434.252 230.688 433.793 230.688C433.334 230.688 432.94 230.8 432.609 231.024C432.289 231.237 432.044 231.531 431.873 231.904C431.702 232.277 431.617 232.704 431.617 233.184V233.232ZM442.635 238C442.038 238 441.552 237.888 441.179 237.664C440.806 237.429 440.534 237.104 440.363 236.688C440.192 236.261 440.107 235.76 440.107 235.184V230.96H438.859C438.752 230.96 438.662 230.928 438.587 230.864C438.523 230.789 438.491 230.699 438.491 230.592V230.048C438.491 229.941 438.523 229.856 438.587 229.792C438.662 229.717 438.752 229.68 438.859 229.68H440.107V227.008C440.107 226.901 440.139 226.816 440.203 226.752C440.278 226.677 440.368 226.64 440.475 226.64H441.227C441.334 226.64 441.419 226.677 441.483 226.752C441.558 226.816 441.595 226.901 441.595 227.008V229.68H443.579C443.686 229.68 443.771 229.717 443.835 229.792C443.91 229.856 443.947 229.941 443.947 230.048V230.592C443.947 230.699 443.91 230.789 443.835 230.864C443.771 230.928 443.686 230.96 443.579 230.96H441.595V235.072C441.595 235.573 441.68 235.968 441.851 236.256C442.022 236.544 442.326 236.688 442.763 236.688H443.739C443.846 236.688 443.931 236.725 443.995 236.8C444.07 236.864 444.107 236.949 444.107 237.056V237.632C444.107 237.739 444.07 237.829 443.995 237.904C443.931 237.968 443.846 238 443.739 238H442.635ZM446.005 238C445.898 238 445.808 237.968 445.733 237.904C445.669 237.829 445.637 237.739 445.637 237.632V230.048C445.637 229.941 445.669 229.856 445.733 229.792C445.808 229.717 445.898 229.68 446.005 229.68H446.725C446.832 229.68 446.917 229.717 446.981 229.792C447.056 229.856 447.093 229.941 447.093 230.048V230.608C447.338 230.277 447.648 230.016 448.021 229.824C448.394 229.621 448.842 229.52 449.365 229.52C450.57 229.509 451.424 230 451.925 230.992C452.17 230.544 452.528 230.187 452.997 229.92C453.466 229.653 454 229.52 454.597 229.52C455.152 229.52 455.653 229.648 456.101 229.904C456.56 230.16 456.917 230.549 457.173 231.072C457.44 231.584 457.573 232.229 457.573 233.008V237.632C457.573 237.739 457.536 237.829 457.461 237.904C457.397 237.968 457.312 238 457.205 238H456.453C456.346 238 456.256 237.968 456.181 237.904C456.117 237.829 456.085 237.739 456.085 237.632V233.152C456.085 232.555 456 232.085 455.829 231.744C455.658 231.403 455.429 231.163 455.141 231.024C454.853 230.885 454.538 230.816 454.197 230.816C453.92 230.816 453.637 230.885 453.349 231.024C453.061 231.163 452.821 231.403 452.629 231.744C452.448 232.085 452.357 232.555 452.357 233.152V237.632C452.357 237.739 452.32 237.829 452.245 237.904C452.181 237.968 452.096 238 451.989 238H451.237C451.13 238 451.04 237.968 450.965 237.904C450.901 237.829 450.869 237.739 450.869 237.632V233.152C450.869 232.555 450.778 232.085 450.597 231.744C450.416 231.403 450.181 231.163 449.893 231.024C449.605 230.885 449.301 230.816 448.981 230.816C448.704 230.816 448.421 230.885 448.133 231.024C447.845 231.163 447.605 231.403 447.413 231.744C447.232 232.085 447.141 232.549 447.141 233.136V237.632C447.141 237.739 447.104 237.829 447.029 237.904C446.965 237.968 446.88 238 446.773 238H446.005ZM463.168 238.16C462.069 238.16 461.195 237.824 460.544 237.152C459.893 236.469 459.536 235.541 459.472 234.368C459.461 234.229 459.456 234.053 459.456 233.84C459.456 233.616 459.461 233.435 459.472 233.296C459.515 232.539 459.691 231.877 460 231.312C460.309 230.736 460.731 230.293 461.264 229.984C461.808 229.675 462.443 229.52 463.168 229.52C463.979 229.52 464.656 229.691 465.2 230.032C465.755 230.373 466.176 230.859 466.464 231.488C466.752 232.117 466.896 232.853 466.896 233.696V233.968C466.896 234.085 466.859 234.176 466.784 234.24C466.72 234.304 466.635 234.336 466.528 234.336H460.992C460.992 234.347 460.992 234.368 460.992 234.4C460.992 234.432 460.992 234.459 460.992 234.48C461.013 234.917 461.109 235.328 461.28 235.712C461.451 236.085 461.696 236.389 462.016 236.624C462.336 236.859 462.72 236.976 463.168 236.976C463.552 236.976 463.872 236.917 464.128 236.8C464.384 236.683 464.592 236.555 464.752 236.416C464.912 236.267 465.019 236.155 465.072 236.08C465.168 235.941 465.243 235.861 465.296 235.84C465.349 235.808 465.435 235.792 465.552 235.792H466.32C466.427 235.792 466.512 235.824 466.576 235.888C466.651 235.941 466.683 236.021 466.672 236.128C466.661 236.288 466.576 236.485 466.416 236.72C466.256 236.944 466.027 237.168 465.728 237.392C465.429 237.616 465.067 237.803 464.64 237.952C464.213 238.091 463.723 238.16 463.168 238.16ZM460.992 233.232H465.376V233.184C465.376 232.704 465.285 232.277 465.104 231.904C464.933 231.531 464.683 231.237 464.352 231.024C464.021 230.8 463.627 230.688 463.168 230.688C462.709 230.688 462.315 230.8 461.984 231.024C461.664 231.237 461.419 231.531 461.248 231.904C461.077 232.277 460.992 232.704 460.992 233.184V233.232ZM469.177 238C469.07 238 468.98 237.968 468.905 237.904C468.841 237.829 468.809 237.739 468.809 237.632V230.048C468.809 229.941 468.841 229.856 468.905 229.792C468.98 229.717 469.07 229.68 469.177 229.68H469.929C470.036 229.68 470.121 229.717 470.185 229.792C470.26 229.856 470.297 229.941 470.297 230.048V230.752C470.574 230.389 470.921 230.096 471.337 229.872C471.764 229.637 472.308 229.52 472.969 229.52C473.662 229.52 474.249 229.675 474.729 229.984C475.22 230.283 475.588 230.704 475.833 231.248C476.078 231.781 476.201 232.405 476.201 233.12V237.632C476.201 237.739 476.169 237.829 476.105 237.904C476.041 237.968 475.956 238 475.849 238H475.049C474.942 238 474.852 237.968 474.777 237.904C474.713 237.829 474.681 237.739 474.681 237.632V233.2C474.681 232.453 474.5 231.872 474.137 231.456C473.774 231.029 473.241 230.816 472.537 230.816C471.876 230.816 471.342 231.029 470.937 231.456C470.542 231.872 470.345 232.453 470.345 233.2V237.632C470.345 237.739 470.308 237.829 470.233 237.904C470.169 237.968 470.084 238 469.977 238H469.177ZM478.896 238C478.789 238 478.699 237.968 478.624 237.904C478.56 237.829 478.528 237.739 478.528 237.632V227.008C478.528 226.901 478.56 226.816 478.624 226.752C478.699 226.677 478.789 226.64 478.896 226.64H479.648C479.765 226.64 479.856 226.677 479.92 226.752C479.984 226.816 480.016 226.901 480.016 227.008V237.632C480.016 237.739 479.984 237.829 479.92 237.904C479.856 237.968 479.765 238 479.648 238H478.896ZM485.715 238.16C484.616 238.16 483.741 237.824 483.091 237.152C482.44 236.469 482.083 235.541 482.019 234.368C482.008 234.229 482.003 234.053 482.003 233.84C482.003 233.616 482.008 233.435 482.019 233.296C482.061 232.539 482.237 231.877 482.547 231.312C482.856 230.736 483.277 230.293 483.811 229.984C484.355 229.675 484.989 229.52 485.715 229.52C486.525 229.52 487.203 229.691 487.747 230.032C488.301 230.373 488.723 230.859 489.011 231.488C489.299 232.117 489.443 232.853 489.443 233.696V233.968C489.443 234.085 489.405 234.176 489.331 234.24C489.267 234.304 489.181 234.336 489.075 234.336H483.539C483.539 234.347 483.539 234.368 483.539 234.4C483.539 234.432 483.539 234.459 483.539 234.48C483.56 234.917 483.656 235.328 483.827 235.712C483.997 236.085 484.243 236.389 484.563 236.624C484.883 236.859 485.267 236.976 485.715 236.976C486.099 236.976 486.419 236.917 486.675 236.8C486.931 236.683 487.139 236.555 487.299 236.416C487.459 236.267 487.565 236.155 487.619 236.08C487.715 235.941 487.789 235.861 487.843 235.84C487.896 235.808 487.981 235.792 488.099 235.792H488.867C488.973 235.792 489.059 235.824 489.123 235.888C489.197 235.941 489.229 236.021 489.219 236.128C489.208 236.288 489.123 236.485 488.963 236.72C488.803 236.944 488.573 237.168 488.275 237.392C487.976 237.616 487.613 237.803 487.187 237.952C486.76 238.091 486.269 238.16 485.715 238.16ZM483.539 233.232H487.923V233.184C487.923 232.704 487.832 232.277 487.651 231.904C487.48 231.531 487.229 231.237 486.899 231.024C486.568 230.8 486.173 230.688 485.715 230.688C485.256 230.688 484.861 230.8 484.531 231.024C484.211 231.237 483.965 231.531 483.795 231.904C483.624 232.277 483.539 232.704 483.539 233.184V233.232ZM491.724 238C491.617 238 491.527 237.968 491.452 237.904C491.388 237.829 491.356 237.739 491.356 237.632V230.064C491.356 229.957 491.388 229.867 491.452 229.792C491.527 229.717 491.617 229.68 491.724 229.68H492.46C492.567 229.68 492.657 229.717 492.732 229.792C492.807 229.867 492.844 229.957 492.844 230.064V230.768C493.057 230.405 493.351 230.133 493.724 229.952C494.097 229.771 494.545 229.68 495.068 229.68H495.708C495.815 229.68 495.9 229.717 495.964 229.792C496.028 229.856 496.06 229.941 496.06 230.048V230.704C496.06 230.811 496.028 230.896 495.964 230.96C495.9 231.024 495.815 231.056 495.708 231.056H494.748C494.172 231.056 493.719 231.227 493.388 231.568C493.057 231.899 492.892 232.352 492.892 232.928V237.632C492.892 237.739 492.855 237.829 492.78 237.904C492.705 237.968 492.615 238 492.508 238H491.724Z" fill="#132B93"/>
</g>
<g filter="url(#filter3_d_40002933_3623)">
<path d="M19 24C19 14.0589 27.0589 6 37 6H165C174.941 6 183 14.0589 183 24V60C183 69.9411 174.941 78 165 78H37C27.0589 78 19 69.9411 19 60V24Z" fill="#FDFEFF"/>
<rect x="31.5" y="18.5" width="139" height="47" rx="9.5" fill="#F8FBFF"/>
<rect x="31.5" y="18.5" width="139" height="47" rx="9.5" stroke="#DFE6F5"/>
<path d="M65.6667 43.667V42.4118L63.5365 43.4769C63.4967 43.4967 63.4079 43.5449 63.2988 43.5804L63.1843 43.6103C63.093 43.6274 62.9998 43.6319 62.9076 43.6233L62.8158 43.6103C62.7362 43.5954 62.6612 43.5689 62.5996 43.5426L62.4636 43.4769L58.3334 41.4118V44.8714C58.3334 45.0032 58.3335 45.0714 58.3366 45.1207C58.3367 45.122 58.3365 45.1235 58.3366 45.1246C58.338 45.1254 58.3396 45.1264 58.3412 45.1273C58.3848 45.1507 58.4469 45.1796 58.5671 45.2347L62.8334 47.1904L62.9974 47.2633C62.9982 47.2636 62.9993 47.2637 63 47.264C63.0008 47.2637 63.0018 47.2636 63.0026 47.2633C63.0352 47.2503 63.0793 47.2305 63.1667 47.1904L67.433 45.2347L67.6589 45.1273C67.6603 45.1265 67.6615 45.1253 67.6628 45.1246C67.6629 45.1235 67.6634 45.122 67.6634 45.1207C67.6666 45.0714 67.6667 45.0032 67.6667 44.8714V41.4118L67 41.7451V43.667C66.9999 44.035 66.7015 44.3336 66.3334 44.3336C65.9652 44.3336 65.6668 44.035 65.6667 43.667ZM57.8236 39.6663L63 42.2549L64.8425 41.333L62.7018 40.2627C62.3727 40.098 62.2392 39.698 62.4037 39.3688C62.5683 39.0395 62.9689 38.9059 63.2982 39.0706L66.3334 40.5875L68.1758 39.6663L63 37.0784L57.8236 39.6663ZM69 45.0302C68.9988 45.171 68.9914 45.3291 68.9512 45.4834L68.9225 45.5752C68.8713 45.719 68.7961 45.8532 68.6999 45.971L68.597 46.083C68.4584 46.2179 68.2864 46.3088 68.1335 46.3805L63.722 48.4026C63.5907 48.4629 63.4184 48.5473 63.2285 48.5804C63.0778 48.6065 62.9229 48.6065 62.7722 48.5804C62.6771 48.5638 62.5859 48.5344 62.5026 48.5016L62.278 48.4026L58.0111 46.4469C57.8314 46.3645 57.5885 46.2628 57.4037 46.083C57.2943 45.9764 57.2037 45.8521 57.1367 45.7158L57.0775 45.5752C57.0126 45.3928 57.0015 45.1991 57 45.0302V40.7451L56.0352 40.2627C55.8095 40.1498 55.6668 39.9193 55.6667 39.667C55.6667 39.4145 55.8094 39.1836 56.0352 39.0706L62.4636 35.8564L62.5996 35.7913C62.6612 35.765 62.7361 35.7379 62.8158 35.723L62.9076 35.7106C62.9998 35.702 63.093 35.7058 63.1843 35.723L63.2988 35.7529C63.4079 35.7883 63.4968 35.8366 63.5365 35.8564L69.9649 39.0706C70.1907 39.1836 70.3334 39.4145 70.3334 39.667C70.3332 39.9193 70.1905 40.1498 69.9649 40.2627L69 40.7451V45.0302Z" fill="#132B93"/>
<path d="M80.76 47C80.6533 47 80.5627 46.968 80.488 46.904C80.424 46.8293 80.392 46.7387 80.392 46.632V36.184C80.392 36.0667 80.424 35.976 80.488 35.912C80.5627 35.8373 80.6533 35.8 80.76 35.8H81.56C81.688 35.8 81.784 35.832 81.848 35.896C81.912 35.96 81.9493 36.0133 81.96 36.056L85.352 42.52L88.76 36.056C88.7813 36.0133 88.8187 35.96 88.872 35.896C88.936 35.832 89.032 35.8 89.16 35.8H89.944C90.0613 35.8 90.152 35.8373 90.216 35.912C90.2907 35.976 90.328 36.0667 90.328 36.184V46.632C90.328 46.7387 90.2907 46.8293 90.216 46.904C90.152 46.968 90.0613 47 89.944 47H89.16C89.0533 47 88.9627 46.968 88.888 46.904C88.824 46.8293 88.792 46.7387 88.792 46.632V38.76L86.12 43.976C86.0773 44.0827 86.0133 44.168 85.928 44.232C85.8427 44.2853 85.736 44.312 85.608 44.312H85.112C84.9733 44.312 84.8613 44.2853 84.776 44.232C84.7013 44.168 84.6373 44.0827 84.584 43.976L81.912 38.76V46.632C81.912 46.7387 81.8747 46.8293 81.8 46.904C81.736 46.968 81.6507 47 81.544 47H80.76ZM96.1991 47.16C95.1005 47.16 94.2258 46.824 93.5751 46.152C92.9245 45.4693 92.5671 44.5413 92.5031 43.368C92.4925 43.2293 92.4871 43.0533 92.4871 42.84C92.4871 42.616 92.4925 42.4347 92.5031 42.296C92.5458 41.5387 92.7218 40.8773 93.0311 40.312C93.3405 39.736 93.7618 39.2933 94.2951 38.984C94.8391 38.6747 95.4738 38.52 96.1991 38.52C97.0098 38.52 97.6871 38.6907 98.2311 39.032C98.7858 39.3733 99.2071 39.8587 99.4951 40.488C99.7831 41.1173 99.9271 41.8533 99.9271 42.696V42.968C99.9271 43.0853 99.8898 43.176 99.8151 43.24C99.7511 43.304 99.6658 43.336 99.5591 43.336H94.0231C94.0231 43.3467 94.0231 43.368 94.0231 43.4C94.0231 43.432 94.0231 43.4587 94.0231 43.48C94.0445 43.9173 94.1405 44.328 94.3111 44.712C94.4818 45.0853 94.7271 45.3893 95.0471 45.624C95.3671 45.8587 95.7511 45.976 96.1991 45.976C96.5831 45.976 96.9031 45.9173 97.1591 45.8C97.4151 45.6827 97.6231 45.5547 97.7831 45.416C97.9431 45.2667 98.0498 45.1547 98.1031 45.08C98.1991 44.9413 98.2738 44.8613 98.3271 44.84C98.3805 44.808 98.4658 44.792 98.5831 44.792H99.3511C99.4578 44.792 99.5431 44.824 99.6071 44.888C99.6818 44.9413 99.7138 45.0213 99.7031 45.128C99.6925 45.288 99.6071 45.4853 99.4471 45.72C99.2871 45.944 99.0578 46.168 98.7591 46.392C98.4605 46.616 98.0978 46.8027 97.6711 46.952C97.2445 47.0907 96.7538 47.16 96.1991 47.16ZM94.0231 42.232H98.4071V42.184C98.4071 41.704 98.3165 41.2773 98.1351 40.904C97.9645 40.5307 97.7138 40.2373 97.3831 40.024C97.0525 39.8 96.6578 39.688 96.1991 39.688C95.7405 39.688 95.3458 39.8 95.0151 40.024C94.6951 40.2373 94.4498 40.5307 94.2791 40.904C94.1085 41.2773 94.0231 41.704 94.0231 42.184V42.232ZM101.665 47C101.558 47 101.467 46.968 101.393 46.904C101.329 46.8293 101.297 46.7387 101.297 46.632V46.072C101.297 45.976 101.318 45.8853 101.361 45.8C101.414 45.7147 101.467 45.6347 101.521 45.56L105.937 39.944H101.809C101.702 39.944 101.611 39.912 101.537 39.848C101.473 39.784 101.441 39.6933 101.441 39.576V39.048C101.441 38.9413 101.473 38.856 101.537 38.792C101.611 38.7173 101.702 38.68 101.809 38.68H107.505C107.611 38.68 107.697 38.7173 107.761 38.792C107.835 38.856 107.873 38.9413 107.873 39.048V39.64C107.873 39.736 107.846 39.8213 107.793 39.896C107.75 39.9707 107.702 40.0507 107.649 40.136L103.281 45.736H107.825C107.931 45.736 108.017 45.768 108.081 45.832C108.155 45.896 108.193 45.9867 108.193 46.104V46.632C108.193 46.7387 108.155 46.8293 108.081 46.904C108.017 46.968 107.931 47 107.825 47H101.665ZM113.069 47.16C112.387 47.16 111.805 47.0107 111.325 46.712C110.856 46.4027 110.499 45.976 110.253 45.432C110.008 44.888 109.885 44.264 109.885 43.56V39.048C109.885 38.9413 109.917 38.856 109.981 38.792C110.056 38.7173 110.147 38.68 110.253 38.68H111.053C111.16 38.68 111.245 38.7173 111.309 38.792C111.384 38.856 111.421 38.9413 111.421 39.048V43.48C111.421 45.0693 112.115 45.864 113.501 45.864C114.163 45.864 114.691 45.656 115.085 45.24C115.491 44.8133 115.693 44.2267 115.693 43.48V39.048C115.693 38.9413 115.725 38.856 115.789 38.792C115.864 38.7173 115.955 38.68 116.061 38.68H116.845C116.963 38.68 117.053 38.7173 117.117 38.792C117.181 38.856 117.213 38.9413 117.213 39.048V46.632C117.213 46.7387 117.181 46.8293 117.117 46.904C117.053 46.968 116.963 47 116.845 47H116.109C116.003 47 115.912 46.968 115.837 46.904C115.773 46.8293 115.741 46.7387 115.741 46.632V45.928C115.453 46.3013 115.101 46.6 114.685 46.824C114.28 47.048 113.741 47.16 113.069 47.16ZM119.958 47C119.852 47 119.761 46.968 119.686 46.904C119.622 46.8293 119.59 46.7387 119.59 46.632V39.048C119.59 38.9413 119.622 38.856 119.686 38.792C119.761 38.7173 119.852 38.68 119.958 38.68H120.71C120.817 38.68 120.902 38.7173 120.966 38.792C121.041 38.856 121.078 38.9413 121.078 39.048V39.752C121.356 39.3893 121.702 39.096 122.118 38.872C122.545 38.6373 123.089 38.52 123.75 38.52C124.444 38.52 125.03 38.6747 125.51 38.984C126.001 39.2827 126.369 39.704 126.614 40.248C126.86 40.7813 126.982 41.4053 126.982 42.12V46.632C126.982 46.7387 126.95 46.8293 126.886 46.904C126.822 46.968 126.737 47 126.63 47H125.83C125.724 47 125.633 46.968 125.558 46.904C125.494 46.8293 125.462 46.7387 125.462 46.632V42.2C125.462 41.4533 125.281 40.872 124.918 40.456C124.556 40.0293 124.022 39.816 123.318 39.816C122.657 39.816 122.124 40.0293 121.718 40.456C121.324 40.872 121.126 41.4533 121.126 42.2V46.632C121.126 46.7387 121.089 46.8293 121.014 46.904C120.95 46.968 120.865 47 120.758 47H119.958ZM129.677 47C129.571 47 129.48 46.968 129.405 46.904C129.341 46.8293 129.309 46.7387 129.309 46.632V36.008C129.309 35.9013 129.341 35.816 129.405 35.752C129.48 35.6773 129.571 35.64 129.677 35.64H130.429C130.547 35.64 130.637 35.6773 130.701 35.752C130.765 35.816 130.797 35.9013 130.797 36.008V46.632C130.797 46.7387 130.765 46.8293 130.701 46.904C130.637 46.968 130.547 47 130.429 47H129.677ZM135.504 47.16C134.971 47.16 134.485 47.0533 134.048 46.84C133.611 46.6267 133.259 46.3387 132.992 45.976C132.725 45.6133 132.592 45.2027 132.592 44.744C132.592 44.008 132.891 43.4213 133.488 42.984C134.085 42.5467 134.864 42.2587 135.824 42.12L138.208 41.784V41.32C138.208 40.808 138.059 40.408 137.76 40.12C137.472 39.832 136.997 39.688 136.336 39.688C135.856 39.688 135.467 39.784 135.168 39.976C134.88 40.168 134.677 40.4133 134.56 40.712C134.496 40.872 134.384 40.952 134.224 40.952H133.504C133.387 40.952 133.296 40.92 133.232 40.856C133.179 40.7813 133.152 40.696 133.152 40.6C133.152 40.44 133.211 40.2427 133.328 40.008C133.456 39.7733 133.648 39.544 133.904 39.32C134.16 39.096 134.485 38.9093 134.88 38.76C135.285 38.6 135.776 38.52 136.352 38.52C136.992 38.52 137.531 38.6053 137.968 38.776C138.405 38.936 138.747 39.1547 138.992 39.432C139.248 39.7093 139.429 40.024 139.536 40.376C139.653 40.728 139.712 41.0853 139.712 41.448V46.632C139.712 46.7387 139.675 46.8293 139.6 46.904C139.536 46.968 139.451 47 139.344 47H138.608C138.491 47 138.4 46.968 138.336 46.904C138.272 46.8293 138.24 46.7387 138.24 46.632V45.944C138.101 46.136 137.915 46.328 137.68 46.52C137.445 46.7013 137.152 46.856 136.8 46.984C136.448 47.1013 136.016 47.16 135.504 47.16ZM135.84 45.96C136.277 45.96 136.677 45.8693 137.04 45.688C137.403 45.496 137.685 45.2027 137.888 44.808C138.101 44.4133 138.208 43.9173 138.208 43.32V42.872L136.352 43.144C135.595 43.2507 135.024 43.432 134.64 43.688C134.256 43.9333 134.064 44.248 134.064 44.632C134.064 44.9307 134.149 45.1813 134.32 45.384C134.501 45.576 134.725 45.72 134.992 45.816C135.269 45.912 135.552 45.96 135.84 45.96ZM142.38 47C142.273 47 142.183 46.968 142.108 46.904C142.044 46.8293 142.012 46.7387 142.012 46.632V39.064C142.012 38.9573 142.044 38.8667 142.108 38.792C142.183 38.7173 142.273 38.68 142.38 38.68H143.116C143.223 38.68 143.313 38.7173 143.388 38.792C143.463 38.8667 143.5 38.9573 143.5 39.064V39.768C143.713 39.4053 144.007 39.1333 144.38 38.952C144.753 38.7707 145.201 38.68 145.724 38.68H146.364C146.471 38.68 146.556 38.7173 146.62 38.792C146.684 38.856 146.716 38.9413 146.716 39.048V39.704C146.716 39.8107 146.684 39.896 146.62 39.96C146.556 40.024 146.471 40.056 146.364 40.056H145.404C144.828 40.056 144.375 40.2267 144.044 40.568C143.713 40.8987 143.548 41.352 143.548 41.928V46.632C143.548 46.7387 143.511 46.8293 143.436 46.904C143.361 46.968 143.271 47 143.164 47H142.38Z" fill="#132B93"/>
</g>
<g filter="url(#filter4_d_40002933_3623)">
<path d="M343 24C343 14.0589 351.059 6 361 6H469C478.941 6 487 14.0589 487 24V60C487 69.9411 478.941 78 469 78H361C351.059 78 343 69.9411 343 60V24Z" fill="#FDFEFF"/>
<rect x="355.5" y="18.5" width="119" height="47" rx="9.5" fill="#F8FBFF"/>
<rect x="355.5" y="18.5" width="119" height="47" rx="9.5" stroke="#DFE6F5"/>
<path d="M385.333 44C387.385 44 389.219 45.0079 390.59 46.5964L390.857 46.9213L390.897 46.9773C391.078 47.2626 391.017 47.6442 390.745 47.8575C390.474 48.0707 390.089 48.04 389.854 47.7969L389.809 47.7455L389.579 47.4662C388.41 46.1099 386.92 45.3334 385.333 45.3334C383.641 45.3334 382.058 46.2172 380.857 47.7455C380.63 48.0348 380.211 48.0849 379.921 47.8575C379.632 47.63 379.582 47.2107 379.809 46.9213C381.204 45.1465 383.145 44 385.333 44ZM390.393 44.903C390.535 44.5884 390.891 44.4379 391.212 44.5456L391.275 44.5704L391.483 44.6687C392.448 45.1452 393.31 45.8547 394.037 46.7312L394.191 46.9213L394.23 46.9773C394.411 47.2626 394.35 47.6442 394.079 47.8575C393.807 48.0707 393.422 48.04 393.187 47.7969L393.143 47.7455L393.01 47.5821C392.388 46.8316 391.669 46.2477 390.893 45.864L390.725 45.7852L390.665 45.7539C390.372 45.5844 390.25 45.2176 390.393 44.903ZM387.667 39C387.667 37.7114 386.622 36.6667 385.333 36.6667C384.045 36.6667 383 37.7114 383 39C383 40.2887 384.045 41.3334 385.333 41.3334C386.622 41.3334 387.667 40.2887 387.667 39ZM390.667 39C390.667 38.1421 390.204 37.3909 389.512 36.9851L389.37 36.9089L389.311 36.8757C389.025 36.6955 388.916 36.3242 389.07 36.015C389.223 35.7059 389.585 35.5684 389.901 35.6875L389.964 35.7149L390.185 35.8347C391.27 36.4705 392 37.6494 392 39C392 40.4406 391.169 41.686 389.964 42.2852C389.634 42.449 389.234 42.3147 389.07 41.9851C388.906 41.6554 389.04 41.2551 389.37 41.0912C390.14 40.7086 390.667 39.9152 390.667 39ZM389 39C389 41.0251 387.358 42.6667 385.333 42.6667C383.308 42.6667 381.667 41.0251 381.667 39C381.667 36.975 383.308 35.3334 385.333 35.3334C387.358 35.3334 389 36.975 389 39Z" fill="#132B93"/>
<path d="M407.72 47C407.56 47 407.432 46.9627 407.336 46.888C407.251 46.8133 407.181 46.712 407.128 46.584L403.56 36.296C403.539 36.232 403.528 36.1733 403.528 36.12C403.528 36.0347 403.56 35.96 403.624 35.896C403.688 35.832 403.763 35.8 403.848 35.8H404.68C404.808 35.8 404.904 35.8373 404.968 35.912C405.043 35.976 405.085 36.0347 405.096 36.088L408.232 45.16L411.368 36.088C411.389 36.0347 411.432 35.976 411.496 35.912C411.56 35.8373 411.656 35.8 411.784 35.8H412.616C412.701 35.8 412.776 35.832 412.84 35.896C412.915 35.96 412.952 36.0347 412.952 36.12C412.952 36.1733 412.941 36.232 412.92 36.296L409.336 46.584C409.293 46.712 409.224 46.8133 409.128 46.888C409.043 46.9627 408.92 47 408.76 47H407.72ZM417.137 47.16C416.038 47.16 415.163 46.824 414.513 46.152C413.862 45.4693 413.505 44.5413 413.441 43.368C413.43 43.2293 413.425 43.0533 413.425 42.84C413.425 42.616 413.43 42.4347 413.441 42.296C413.483 41.5387 413.659 40.8773 413.969 40.312C414.278 39.736 414.699 39.2933 415.233 38.984C415.777 38.6747 416.411 38.52 417.137 38.52C417.947 38.52 418.625 38.6907 419.169 39.032C419.723 39.3733 420.145 39.8587 420.433 40.488C420.721 41.1173 420.865 41.8533 420.865 42.696V42.968C420.865 43.0853 420.827 43.176 420.753 43.24C420.689 43.304 420.603 43.336 420.497 43.336H414.961C414.961 43.3467 414.961 43.368 414.961 43.4C414.961 43.432 414.961 43.4587 414.961 43.48C414.982 43.9173 415.078 44.328 415.249 44.712C415.419 45.0853 415.665 45.3893 415.985 45.624C416.305 45.8587 416.689 45.976 417.137 45.976C417.521 45.976 417.841 45.9173 418.097 45.8C418.353 45.6827 418.561 45.5547 418.721 45.416C418.881 45.2667 418.987 45.1547 419.041 45.08C419.137 44.9413 419.211 44.8613 419.265 44.84C419.318 44.808 419.403 44.792 419.521 44.792H420.289C420.395 44.792 420.481 44.824 420.545 44.888C420.619 44.9413 420.651 45.0213 420.641 45.128C420.63 45.288 420.545 45.4853 420.385 45.72C420.225 45.944 419.995 46.168 419.697 46.392C419.398 46.616 419.035 46.8027 418.609 46.952C418.182 47.0907 417.691 47.16 417.137 47.16ZM414.961 42.232H419.345V42.184C419.345 41.704 419.254 41.2773 419.073 40.904C418.902 40.5307 418.651 40.2373 418.321 40.024C417.99 39.8 417.595 39.688 417.137 39.688C416.678 39.688 416.283 39.8 415.953 40.024C415.633 40.2373 415.387 40.5307 415.217 40.904C415.046 41.2773 414.961 41.704 414.961 42.184V42.232ZM423.162 47C423.055 47 422.964 46.968 422.89 46.904C422.826 46.8293 422.794 46.7387 422.794 46.632V36.008C422.794 35.9013 422.826 35.816 422.89 35.752C422.964 35.6773 423.055 35.64 423.162 35.64H423.914C424.031 35.64 424.122 35.6773 424.186 35.752C424.25 35.816 424.282 35.9013 424.282 36.008V46.632C424.282 46.7387 424.25 46.8293 424.186 46.904C424.122 46.968 424.031 47 423.914 47H423.162ZM427.036 47C426.93 47 426.839 46.968 426.764 46.904C426.7 46.8293 426.668 46.7387 426.668 46.632V39.048C426.668 38.9413 426.7 38.856 426.764 38.792C426.839 38.7173 426.93 38.68 427.036 38.68H427.804C427.911 38.68 427.996 38.7173 428.06 38.792C428.124 38.856 428.156 38.9413 428.156 39.048V46.632C428.156 46.7387 428.124 46.8293 428.06 46.904C427.996 46.968 427.911 47 427.804 47H427.036ZM426.908 37.128C426.802 37.128 426.711 37.096 426.636 37.032C426.572 36.9573 426.54 36.8667 426.54 36.76V35.896C426.54 35.7893 426.572 35.704 426.636 35.64C426.711 35.5653 426.802 35.528 426.908 35.528H427.916C428.023 35.528 428.108 35.5653 428.172 35.64C428.247 35.704 428.284 35.7893 428.284 35.896V36.76C428.284 36.8667 428.247 36.9573 428.172 37.032C428.108 37.096 428.023 37.128 427.916 37.128H426.908ZM430.927 47C430.821 47 430.73 46.968 430.655 46.904C430.591 46.8293 430.559 46.7387 430.559 46.632V36.008C430.559 35.9013 430.591 35.816 430.655 35.752C430.73 35.6773 430.821 35.64 430.927 35.64H431.679C431.797 35.64 431.887 35.6773 431.951 35.752C432.015 35.816 432.047 35.9013 432.047 36.008V46.632C432.047 46.7387 432.015 46.8293 431.951 46.904C431.887 46.968 431.797 47 431.679 47H430.927ZM437.746 47.16C436.647 47.16 435.773 46.824 435.122 46.152C434.471 45.4693 434.114 44.5413 434.05 43.368C434.039 43.2293 434.034 43.0533 434.034 42.84C434.034 42.616 434.039 42.4347 434.05 42.296C434.093 41.5387 434.269 40.8773 434.578 40.312C434.887 39.736 435.309 39.2933 435.842 38.984C436.386 38.6747 437.021 38.52 437.746 38.52C438.557 38.52 439.234 38.6907 439.778 39.032C440.333 39.3733 440.754 39.8587 441.042 40.488C441.33 41.1173 441.474 41.8533 441.474 42.696V42.968C441.474 43.0853 441.437 43.176 441.362 43.24C441.298 43.304 441.213 43.336 441.106 43.336H435.57C435.57 43.3467 435.57 43.368 435.57 43.4C435.57 43.432 435.57 43.4587 435.57 43.48C435.591 43.9173 435.687 44.328 435.858 44.712C436.029 45.0853 436.274 45.3893 436.594 45.624C436.914 45.8587 437.298 45.976 437.746 45.976C438.13 45.976 438.45 45.9173 438.706 45.8C438.962 45.6827 439.17 45.5547 439.33 45.416C439.49 45.2667 439.597 45.1547 439.65 45.08C439.746 44.9413 439.821 44.8613 439.874 44.84C439.927 44.808 440.013 44.792 440.13 44.792H440.898C441.005 44.792 441.09 44.824 441.154 44.888C441.229 44.9413 441.261 45.0213 441.25 45.128C441.239 45.288 441.154 45.4853 440.994 45.72C440.834 45.944 440.605 46.168 440.306 46.392C440.007 46.616 439.645 46.8027 439.218 46.952C438.791 47.0907 438.301 47.16 437.746 47.16ZM435.57 42.232H439.954V42.184C439.954 41.704 439.863 41.2773 439.682 40.904C439.511 40.5307 439.261 40.2373 438.93 40.024C438.599 39.8 438.205 39.688 437.746 39.688C437.287 39.688 436.893 39.8 436.562 40.024C436.242 40.2373 435.997 40.5307 435.826 40.904C435.655 41.2773 435.57 41.704 435.57 42.184V42.232ZM443.755 47C443.648 47 443.558 46.968 443.483 46.904C443.419 46.8293 443.387 46.7387 443.387 46.632V39.064C443.387 38.9573 443.419 38.8667 443.483 38.792C443.558 38.7173 443.648 38.68 443.755 38.68H444.491C444.598 38.68 444.688 38.7173 444.763 38.792C444.838 38.8667 444.875 38.9573 444.875 39.064V39.768C445.088 39.4053 445.382 39.1333 445.755 38.952C446.128 38.7707 446.576 38.68 447.099 38.68H447.739C447.846 38.68 447.931 38.7173 447.995 38.792C448.059 38.856 448.091 38.9413 448.091 39.048V39.704C448.091 39.8107 448.059 39.896 447.995 39.96C447.931 40.024 447.846 40.056 447.739 40.056H446.779C446.203 40.056 445.75 40.2267 445.419 40.568C445.088 40.8987 444.923 41.352 444.923 41.928V46.632C444.923 46.7387 444.886 46.8293 444.811 46.904C444.736 46.968 444.646 47 444.539 47H443.755Z" fill="#132B93"/>
</g>
<path d="M318.34 135.079C340.051 135.079 321.037 40.0095 342.748 40.0095" stroke="#B6C5E9" stroke-width="2"/>
<path d="M318.34 135.079C340.059 135.079 321.03 230.224 342.748 230.224" stroke="#B6C5E9" stroke-width="2"/>
<path d="M183.252 40.0095C204.962 40.0095 185.949 135.079 207.659 135.079" stroke="#B6C5E9" stroke-width="2"/>
<path d="M182.772 230.224C204.73 230.224 185.701 135.079 207.659 135.079" stroke="#B6C5E9" stroke-width="2"/>
<defs>
<filter id="filter0_di_40002933_3623" x="203.659" y="91.1367" width="118.681" height="92.6127" filterUnits="userSpaceOnUse" color-interpolation-filters="sRGB">
<feFlood flood-opacity="0" result="BackgroundImageFix"/>
<feColorMatrix in="SourceAlpha" type="matrix" values="0 0 0 0 0 0 0 0 0 0 0 0 0 0 0 0 0 0 127 0" result="hardAlpha"/>
<feMorphology radius="4" operator="dilate" in="SourceAlpha" result="effect1_dropShadow_40002933_3623"/>
<feOffset/>
<feComposite in2="hardAlpha" operator="out"/>
<feColorMatrix type="matrix" values="0 0 0 0 0 0 0 0 0 0.2 0 0 0 0 0.701961 0 0 0 0.16 0"/>
<feBlend mode="normal" in2="BackgroundImageFix" result="effect1_dropShadow_40002933_3623"/>
<feBlend mode="normal" in="SourceGraphic" in2="effect1_dropShadow_40002933_3623" result="shape"/>
<feColorMatrix in="SourceAlpha" type="matrix" values="0 0 0 0 0 0 0 0 0 0 0 0 0 0 0 0 0 0 127 0" result="hardAlpha"/>
<feMorphology radius="5" operator="erode" in="SourceAlpha" result="effect2_innerShadow_40002933_3623"/>
<feOffset/>
<feGaussianBlur stdDeviation="12"/>
<feComposite in2="hardAlpha" operator="arithmetic" k2="-1" k3="1"/>
<feColorMatrix type="matrix" values="0 0 0 0 0.713726 0 0 0 0 0.772549 0 0 0 0 0.913725 0 0 0 1 0"/>
<feBlend mode="normal" in2="shape" result="effect2_innerShadow_40002933_3623"/>
</filter>
<filter id="filter1_d_40002933_3623" x="0" y="191" width="193" height="92" filterUnits="userSpaceOnUse" color-interpolation-filters="sRGB">
<feFlood flood-opacity="0" result="BackgroundImageFix"/>
<feColorMatrix in="SourceAlpha" type="matrix" values="0 0 0 0 0 0 0 0 0 0 0 0 0 0 0 0 0 0 127 0" result="hardAlpha"/>
<feOffset dy="4"/>
<feGaussianBlur stdDeviation="5"/>
<feColorMatrix type="matrix" values="0 0 0 0 0 0 0 0 0 0.2 0 0 0 0 0.701961 0 0 0 0.16 0"/>
<feBlend mode="normal" in2="BackgroundImageFix" result="effect1_dropShadow_40002933_3623"/>
<feBlend mode="normal" in="SourceGraphic" in2="effect1_dropShadow_40002933_3623" result="shape"/>
</filter>
<filter id="filter2_d_40002933_3623" x="333" y="191" width="210" height="92" filterUnits="userSpaceOnUse" color-interpolation-filters="sRGB">
<feFlood flood-opacity="0" result="BackgroundImageFix"/>
<feColorMatrix in="SourceAlpha" type="matrix" values="0 0 0 0 0 0 0 0 0 0 0 0 0 0 0 0 0 0 127 0" result="hardAlpha"/>
<feOffset dy="4"/>
<feGaussianBlur stdDeviation="5"/>
<feColorMatrix type="matrix" values="0 0 0 0 0 0 0 0 0 0.2 0 0 0 0 0.701961 0 0 0 0.16 0"/>
<feBlend mode="normal" in2="BackgroundImageFix" result="effect1_dropShadow_40002933_3623"/>
<feBlend mode="normal" in="SourceGraphic" in2="effect1_dropShadow_40002933_3623" result="shape"/>
</filter>
<filter id="filter3_d_40002933_3623" x="9" y="0" width="184" height="92" filterUnits="userSpaceOnUse" color-interpolation-filters="sRGB">
<feFlood flood-opacity="0" result="BackgroundImageFix"/>
<feColorMatrix in="SourceAlpha" type="matrix" values="0 0 0 0 0 0 0 0 0 0 0 0 0 0 0 0 0 0 127 0" result="hardAlpha"/>
<feOffset dy="4"/>
<feGaussianBlur stdDeviation="5"/>
<feColorMatrix type="matrix" values="0 0 0 0 0 0 0 0 0 0.2 0 0 0 0 0.701961 0 0 0 0.16 0"/>
<feBlend mode="normal" in2="BackgroundImageFix" result="effect1_dropShadow_40002933_3623"/>
<feBlend mode="normal" in="SourceGraphic" in2="effect1_dropShadow_40002933_3623" result="shape"/>
</filter>
<filter id="filter4_d_40002933_3623" x="333" y="0" width="164" height="92" filterUnits="userSpaceOnUse" color-interpolation-filters="sRGB">
<feFlood flood-opacity="0" result="BackgroundImageFix"/>
<feColorMatrix in="SourceAlpha" type="matrix" values="0 0 0 0 0 0 0 0 0 0 0 0 0 0 0 0 0 0 127 0" result="hardAlpha"/>
<feOffset dy="4"/>
<feGaussianBlur stdDeviation="5"/>
<feColorMatrix type="matrix" values="0 0 0 0 0 0 0 0 0 0.2 0 0 0 0 0.701961 0 0 0 0.16 0"/>
<feBlend mode="normal" in2="BackgroundImageFix" result="effect1_dropShadow_40002933_3623"/>
<feBlend mode="normal" in="SourceGraphic" in2="effect1_dropShadow_40002933_3623" result="shape"/>
</filter>
<clipPath id="clip0_40002933_3623">
<rect width="16" height="16" fill="white" transform="translate(379 225)"/>
</clipPath>
</defs>
</svg>
