<svg width="16" height="16" viewBox="0 0 16 16" fill="none" xmlns="http://www.w3.org/2000/svg">
<g id="Icons/YKS">
<path id="Vector (Stroke)" d="M10.6667 9.66684V8.41163L8.53654 9.47674C8.49681 9.49661 8.40801 9.54482 8.29891 9.58025L8.18433 9.6102C8.09305 9.62729 7.99982 9.63177 7.90763 9.62322L7.81584 9.6102C7.73627 9.59528 7.66125 9.56874 7.59969 9.54249L7.46362 9.47674L3.33341 7.41163V10.8713C3.33342 11.0031 3.33353 11.0713 3.33667 11.1206C3.33675 11.1219 3.33659 11.1234 3.33667 11.1245C3.33809 11.1253 3.33964 11.1263 3.34123 11.1271C3.38484 11.1506 3.447 11.1795 3.56714 11.2346L7.83341 13.1903L7.99748 13.2632C7.99828 13.2635 7.99933 13.2636 8.00008 13.2638C8.00083 13.2636 8.00188 13.2635 8.00269 13.2632C8.03529 13.2502 8.07938 13.2303 8.16675 13.1903L12.433 11.2346L12.6589 11.1271C12.6603 11.1264 12.6616 11.1252 12.6628 11.1245C12.6629 11.1234 12.6634 11.1219 12.6635 11.1206C12.6666 11.0713 12.6667 11.0031 12.6667 10.8713V7.41163L12.0001 7.74497V9.66684C11.9999 10.0349 11.7015 10.3335 11.3334 10.3335C10.9653 10.3335 10.6669 10.0349 10.6667 9.66684ZM2.82365 5.66619L8.00008 8.25473L9.84253 7.33286L7.7019 6.26255C7.37277 6.09788 7.23927 5.69789 7.40373 5.36867C7.56839 5.03935 7.96894 4.90583 8.29826 5.07049L11.3334 6.58742L13.1759 5.66619L8.00008 3.0783L2.82365 5.66619ZM14.0001 11.0301C13.9989 11.1709 13.9914 11.329 13.9513 11.4832L13.9226 11.575C13.8713 11.7189 13.7961 11.853 13.7 11.9709L13.5971 12.0829C13.4584 12.2178 13.2865 12.3087 13.1335 12.3804L8.72209 14.4025C8.59076 14.4627 8.41849 14.5472 8.2286 14.5803C8.07786 14.6064 7.92295 14.6064 7.77222 14.5803C7.6772 14.5637 7.58594 14.5343 7.50269 14.5015L7.27808 14.4025L3.01115 12.4468C2.83146 12.3644 2.58852 12.2627 2.40373 12.0829C2.29433 11.9763 2.20379 11.852 2.1368 11.7157L2.07756 11.575C2.01262 11.3927 2.00153 11.199 2.00008 11.0301V6.74497L1.03524 6.26255C0.809551 6.14963 0.666855 5.91919 0.666748 5.66684C0.666748 5.41437 0.809448 5.18344 1.03524 5.07049L7.46362 1.8563L7.59969 1.79119C7.66129 1.76492 7.73618 1.73777 7.81584 1.72283L7.90763 1.71046C7.99986 1.7019 8.09301 1.70571 8.18433 1.72283L8.29891 1.75278C8.40801 1.78821 8.49682 1.83643 8.53654 1.8563L14.9649 5.07049C15.1907 5.18344 15.3334 5.41437 15.3334 5.66684C15.3333 5.91919 15.1906 6.14963 14.9649 6.26255L14.0001 6.74497V11.0301Z" fill="#B6C5E9"/>
</g>
</svg>
