<svg width="19" height="30" viewBox="0 0 19 30" fill="none" xmlns="http://www.w3.org/2000/svg">
<g id="Group">
<path id="Vector" d="M12.2506 3.87415L11.4416 5.27532L4.00557 18.1539C3.50203 19.0271 3.24983 19.4639 3.03341 19.9093C2.77806 20.4351 2.55891 20.9707 2.37978 21.507C2.2288 21.9609 2.11623 22.4169 1.89108 23.3268L0.936376 27.1842L0.702499 28.1274C0.647795 28.3474 0.639679 28.5543 0.679063 28.725C0.718447 28.8957 0.80377 29.0233 0.925442 29.0935C1.04711 29.1638 1.20031 29.1739 1.36781 29.1226C1.53532 29.0714 1.71048 28.9609 1.87363 28.8035L2.57351 28.1294L5.43675 25.3739C6.11307 24.7235 6.45079 24.3985 6.76845 24.0408C7.14486 23.6165 7.49713 23.1616 7.82525 22.6759C8.10276 22.2657 8.35497 21.8289 8.8585 20.9568L16.2945 8.07716L17.1035 6.67599C17.747 5.56135 18.1086 4.34476 18.1086 3.29387C18.1086 2.24297 17.747 1.44385 17.1035 1.07231C16.46 0.700758 15.5871 0.787218 14.677 1.31267C13.7669 1.83811 12.8941 2.75951 12.2506 3.87415Z" stroke="#FEB272" stroke-width="1.5"/>
<path id="Vector_2" opacity="0.5" d="M11.4416 5.2741C11.4416 5.2741 11.5428 7.20078 13.0595 8.07645C14.5763 8.95212 16.2945 8.07595 16.2945 8.07595M2.57351 28.1292L0.936378 27.184" stroke="#FEB272" stroke-width="1.5"/>
</g>
</svg>
