<svg width="16" height="16" viewBox="0 0 16 16" fill="none" xmlns="http://www.w3.org/2000/svg">
<g id="Icons/Alert">
<g clip-path="url(#clip0_0_459)">
<path id="Vector (Stroke)" d="M14 8.00001C14 11.3137 11.3137 14 8 14C4.68629 14 2.00001 11.3137 2.00001 8.00001C2.00001 4.68633 4.6863 2.00001 8 2.00001C11.3137 2.00001 14 4.68633 14 8.00001ZM8.00652 6.00001L8.07487 5.99676C8.41104 5.96261 8.67318 5.67852 8.67318 5.33334C8.67318 4.98817 8.41104 4.70408 8.07487 4.66993L8.00652 4.66668H8C7.63181 4.66668 7.33334 4.96515 7.33334 5.33334C7.33334 5.70153 7.63181 6.00001 8 6.00001H8.00652ZM7.33334 8.00001V10.6667C7.33334 11.0349 7.63181 11.3333 8 11.3333C8.36819 11.3333 8.66667 11.0349 8.66667 10.6667V8.00001C8.66667 7.63182 8.36819 7.33334 8 7.33334C7.63181 7.33334 7.33334 7.63182 7.33334 8.00001ZM15.3333 8.00001C15.3333 3.94995 12.0501 0.666677 8 0.666677C3.94991 0.666677 0.666672 3.94996 0.666672 8.00001C0.666672 12.0501 3.94992 15.3333 8 15.3333C12.0501 15.3333 15.3333 12.0501 15.3333 8.00001Z" fill="#DFE6F5"/>
</g>
</g>
<defs>
<clipPath id="clip0_0_459">
<rect width="16" height="16" rx="8" transform="matrix(1 0 0 -1 0 16)" fill="white"/>
</clipPath>
</defs>
</svg>
