<svg width="24" height="24" viewBox="0 0 24 24" fill="none" xmlns="http://www.w3.org/2000/svg">
<g id="Icons/star">
<g id="Vector (Stroke)">
<path d="M11.5105 1.7116C11.8801 1.58404 12.2873 1.60604 12.6443 1.77605L12.6453 1.77508C12.9981 1.94325 13.1925 2.23573 13.2908 2.39617C13.3974 2.57035 13.5076 2.79491 13.614 3.01043L15.7537 7.34539L20.5418 8.04656L20.8982 8.10027C21.0144 8.11935 21.1262 8.1399 21.2254 8.16375C21.3854 8.20225 21.6638 8.28011 21.9109 8.48894L22.0144 8.5866L22.1238 8.71551C22.3593 9.02803 22.4644 9.42241 22.4129 9.81414C22.3616 10.2015 22.1434 10.4779 22.0213 10.6208C21.9549 10.6983 21.8767 10.7803 21.7937 10.8639L21.5369 11.1169L18.074 14.4889L18.8914 19.2526L18.9509 19.6091C18.9688 19.7256 18.9829 19.8383 18.991 19.9401C19.0039 20.1041 19.0173 20.3933 18.8953 20.693L18.8338 20.822C18.6449 21.1695 18.3275 21.4266 17.9529 21.5407L17.7888 21.5807C17.4043 21.6519 17.0747 21.5297 16.9011 21.4577C16.8069 21.4186 16.7046 21.3701 16.5994 21.3171L16.2791 21.1501L11.9998 18.8991L7.72048 21.1501C7.50781 21.2619 7.28698 21.3794 7.09841 21.4577C6.94662 21.5207 6.67528 21.6226 6.35231 21.5993L6.21071 21.5807C5.82152 21.5086 5.47882 21.286 5.25466 20.9655L5.16579 20.822C4.97916 20.4784 4.99374 20.1276 5.00856 19.9401C5.02469 19.7365 5.06752 19.4897 5.10817 19.2526L5.92458 14.4889L2.46266 11.1169C2.29061 10.9493 2.11103 10.7759 1.97829 10.6208C1.85613 10.478 1.63798 10.2025 1.58669 9.81512L1.57399 9.64617C1.56669 9.25507 1.71297 8.87384 1.98512 8.5866L2.08864 8.48894C2.33577 8.28011 2.61416 8.20225 2.77419 8.16375C2.97262 8.11603 3.22012 8.0813 3.45778 8.04656L8.24489 7.34539L10.3855 3.01043L10.5466 2.68816C10.6007 2.58327 10.6554 2.48335 10.7088 2.39617C10.807 2.23575 11.0017 1.94424 11.3543 1.77605L11.5105 1.7116ZM9.99196 8.32488L9.99294 8.32586C9.96218 8.38818 9.89623 8.53258 9.79274 8.67937L9.67653 8.8239C9.57754 8.93043 9.46352 9.02185 9.33864 9.09539L9.20973 9.16375C9.09497 9.21705 8.97529 9.2505 8.87282 9.27215L8.63844 9.31023L4.14723 9.96648L7.39626 13.1296L7.56325 13.2985C7.59853 13.3375 7.63569 13.3813 7.67165 13.4294L7.77321 13.5846L7.83766 13.7155C7.87636 13.8043 7.90665 13.8965 7.92751 13.9909L7.95192 14.1345L7.96071 14.32C7.95986 14.3798 7.95555 14.4368 7.94997 14.4889L7.91384 14.7233L7.14821 19.1911L11.1619 17.0807L11.3738 16.9743C11.4696 16.9314 11.5862 16.8874 11.7107 16.863L11.8543 16.8415C11.951 16.832 12.0485 16.832 12.1453 16.8415L12.2888 16.863L12.4675 16.9118C12.6376 16.9697 12.776 17.0484 12.8377 17.0807L16.8504 19.1911L16.0857 14.7233C16.07 14.6317 16.0172 14.3861 16.0476 14.1345L16.072 13.9909C16.1033 13.8492 16.1552 13.7123 16.2263 13.5846L16.3279 13.4294C16.4355 13.2856 16.5533 13.1792 16.6033 13.1305L19.8513 9.96648L15.3611 9.31023C15.2691 9.29678 15.0195 9.27043 14.7898 9.16375L14.7888 9.16277C14.6133 9.08103 14.4556 8.96623 14.324 8.82488L14.323 8.8239C14.1505 8.6381 14.0476 8.40896 14.0066 8.32586L11.9998 4.25945L9.99196 8.32488Z" fill="#FFCD39"/>
<path d="M9.99196 8.32488L9.99294 8.32586C9.96218 8.38818 9.89623 8.53258 9.79274 8.67937L9.67653 8.8239C9.57754 8.93043 9.46352 9.02185 9.33864 9.09539L9.20973 9.16375C9.09497 9.21705 8.97529 9.2505 8.87282 9.27215L8.63844 9.31023L4.14723 9.96648L7.39626 13.1296L7.56325 13.2985C7.59853 13.3375 7.63569 13.3813 7.67165 13.4294L7.77321 13.5846L7.83766 13.7155C7.87636 13.8043 7.90665 13.8965 7.92751 13.9909L7.95192 14.1345L7.96071 14.32C7.95986 14.3798 7.95555 14.4368 7.94997 14.4889L7.91384 14.7233L7.14821 19.1911L11.1619 17.0807L11.3738 16.9743C11.4696 16.9314 11.5862 16.8874 11.7107 16.863L11.8543 16.8415C11.951 16.832 12.0485 16.832 12.1453 16.8415L12.2888 16.863L12.4675 16.9118C12.6376 16.9697 12.776 17.0484 12.8377 17.0807L16.8504 19.1911L16.0857 14.7233C16.07 14.6317 16.0172 14.3861 16.0476 14.1345L16.072 13.9909C16.1033 13.8492 16.1552 13.7123 16.2263 13.5846L16.3279 13.4294C16.4355 13.2856 16.5533 13.1792 16.6033 13.1305L19.8513 9.96648L15.3611 9.31023C15.2691 9.29678 15.0195 9.27043 14.7898 9.16375L14.7888 9.16277C14.6133 9.08103 14.4556 8.96623 14.324 8.82488L14.323 8.8239C14.1505 8.6381 14.0476 8.40896 14.0066 8.32586L11.9998 4.25945L9.99196 8.32488Z" fill="#FFCD39"/>
</g>
</g>
</svg>
