<svg width="16" height="16" viewBox="0 0 16 16" fill="none" xmlns="http://www.w3.org/2000/svg">
<g id="Icons/Rol Degistirme">
<path id="Vector (Stroke)" d="M6.33333 10C8.38518 10 10.2195 11.0079 11.5898 12.5964L11.8574 12.9213L11.8971 12.9773C12.0779 13.2626 12.0167 13.6442 11.7454 13.8575C11.4741 14.0707 11.0887 14.04 10.8542 13.7969L10.8092 13.7455L10.5794 13.4662C9.40995 12.1099 7.91999 11.3334 6.33333 11.3334C4.64082 11.3334 3.05822 12.2172 1.85742 13.7455C1.62991 14.0348 1.21067 14.0849 0.92122 13.8575C0.631885 13.63 0.581822 13.2107 0.809241 12.9213C2.20375 11.1465 4.14483 10 6.33333 10ZM11.3926 10.903C11.5349 10.5884 11.8911 10.4379 12.2116 10.5456L12.2747 10.5704L12.4831 10.6687C13.4476 11.1452 14.3103 11.8547 15.0371 12.7312L15.1908 12.9213L15.2305 12.9773C15.4112 13.2626 15.35 13.6442 15.0788 13.8575C14.8074 14.0707 14.4221 14.04 14.1875 13.7969L14.1426 13.7455L14.0104 13.5821C13.3881 12.8316 12.6692 12.2477 11.8926 11.864L11.7253 11.7852L11.6647 11.7539C11.3724 11.5844 11.2504 11.2176 11.3926 10.903ZM8.66666 5.00004C8.66666 3.71138 7.622 2.66671 6.33333 2.66671C5.04467 2.66671 4 3.71138 4 5.00004C4 6.2887 5.04467 7.33337 6.33333 7.33337C7.622 7.33337 8.66666 6.28871 8.66666 5.00004ZM11.6667 5.00004C11.6667 4.14211 11.2039 3.39086 10.5117 2.98507L10.3698 2.90889L10.3105 2.87569C10.0246 2.69555 9.91601 2.32418 10.0697 2.01501C10.2233 1.70594 10.5848 1.56839 10.901 1.68754L10.9635 1.71488L11.1849 1.83468C12.2697 2.47048 13 3.64943 13 5.00004C13 6.44062 12.1692 7.68601 10.9635 8.2852C10.6339 8.44902 10.2336 8.31466 10.0697 7.98507C9.90584 7.6554 10.0402 7.25509 10.3698 7.09119C11.1397 6.70861 11.6667 5.91522 11.6667 5.00004ZM10 5.00004C10 7.02508 8.35839 8.66671 6.33333 8.66671C4.30829 8.66671 2.66666 7.02508 2.66666 5.00004C2.66666 2.975 4.30829 1.33337 6.33333 1.33337C8.35839 1.33337 10 2.975 10 5.00004Z" fill="#132B93"/>
</g>
</svg>
