<svg width="27" height="21" viewBox="0 0 27 21" fill="none" xmlns="http://www.w3.org/2000/svg">
<path id="&#226;&#128;&#157;" d="M1.06744 20.9721V19.4023C3.22326 18.607 4.9186 17.3616 6.15349 15.6663C7.38837 13.95 8.00581 12.1709 8.00581 10.3291C8.00581 9.9314 7.94302 9.63837 7.81744 9.45C7.75465 9.32442 7.67093 9.26163 7.56628 9.26163C7.46163 9.26163 7.29419 9.34535 7.06395 9.51279C6.39419 9.99419 5.55698 10.2349 4.55233 10.2349C3.33837 10.2349 2.27093 9.75349 1.35 8.7907C0.45 7.80698 0 6.64535 0 5.30581C0 3.88256 0.523256 2.64767 1.56977 1.60116C2.61628 0.533721 3.90349 0 5.4314 0C7.1686 0 8.67558 0.722093 9.95233 2.16628C11.25 3.58953 11.8988 5.51512 11.8988 7.94302C11.8988 10.7686 11.0302 13.3012 9.29302 15.5407C7.55581 17.7802 4.81395 19.5907 1.06744 20.9721ZM16.1686 20.9721V19.4023C18.3244 18.607 20.0198 17.3616 21.2547 15.6663C22.4895 13.95 23.107 12.1709 23.107 10.3291C23.107 9.9314 23.0442 9.63837 22.9186 9.45C22.8558 9.32442 22.7721 9.26163 22.6674 9.26163C22.5628 9.26163 22.3953 9.34535 22.1651 9.51279C21.4953 9.99419 20.6581 10.2349 19.6535 10.2349C18.4395 10.2349 17.3721 9.75349 16.4512 8.7907C15.5512 7.80698 15.1012 6.64535 15.1012 5.30581C15.1012 3.88256 15.6244 2.64767 16.6709 1.60116C17.7174 0.533721 19.0047 0 20.5326 0C22.2698 0 23.7767 0.722093 25.0535 2.16628C26.3512 3.58953 27 5.51512 27 7.94302C27 10.7686 26.1314 13.3012 24.3942 15.5407C22.657 17.7802 19.9151 19.5907 16.1686 20.9721Z" fill="#B6C5E9"/>
</svg>
