<svg width="19" height="30" viewBox="0 0 19 30" fill="none" xmlns="http://www.w3.org/2000/svg">
<g id="Group">
<path id="Vector" d="M12.2506 3.87415L11.4416 5.27532L4.00555 18.1539C3.50202 19.0271 3.24982 19.4639 3.03339 19.9093C2.77804 20.4351 2.55889 20.9707 2.37976 21.507C2.22879 21.9609 2.11621 22.4169 1.89106 23.3268L0.93636 27.1842L0.702484 28.1274C0.647779 28.3474 0.639663 28.5543 0.679047 28.725C0.718432 28.8957 0.803755 29.0233 0.925427 29.0935C1.0471 29.1638 1.2003 29.1739 1.3678 29.1226C1.5353 29.0714 1.71047 28.9609 1.87361 28.8035L2.57349 28.1294L5.43673 25.3739C6.11305 24.7235 6.45078 24.3985 6.76843 24.0408C7.14485 23.6165 7.49711 23.1616 7.82524 22.6759C8.10275 22.2657 8.35495 21.8289 8.85848 20.9568L16.2945 8.07716L17.1035 6.67599C17.747 5.56135 18.1086 4.34476 18.1086 3.29387C18.1086 2.24297 17.747 1.44385 17.1035 1.07231C16.46 0.700758 15.5871 0.787218 14.677 1.31267C13.7669 1.83811 12.8941 2.75951 12.2506 3.87415Z" stroke="#FEB272" stroke-width="1.5"/>
<path id="Vector_2" opacity="0.5" d="M11.4416 5.2741C11.4416 5.2741 11.5428 7.20078 13.0595 8.07645C14.5762 8.95212 16.2945 8.07595 16.2945 8.07595M2.5735 28.1292L0.936362 27.184" stroke="#FEB272" stroke-width="1.5"/>
</g>
</svg>
