<svg width="16" height="16" viewBox="0 0 16 16" fill="none" xmlns="http://www.w3.org/2000/svg">
<g id="Icons/user-03">
<path id="Vector (Stroke)" d="M7.99999 10C10.4508 10 12.6716 11.036 14.3268 12.7116L14.485 12.8763L14.5293 12.9278C14.7352 13.1958 14.7082 13.5816 14.457 13.8184C14.2059 14.055 13.8198 14.0589 13.5644 13.8379L13.515 13.7904L13.2383 13.5105C11.8273 12.1471 9.99439 11.3334 7.99999 11.3334C5.8726 11.3334 3.92882 12.2591 2.48502 13.7904C2.23248 14.0583 1.81086 14.0708 1.54296 13.8184C1.27511 13.5659 1.26252 13.1442 1.51496 12.8763C3.18553 11.1045 5.47014 10 7.99999 10ZM10.3333 5.00004C10.3333 3.71138 9.28866 2.66671 7.99999 2.66671C6.71133 2.66671 5.66666 3.71138 5.66666 5.00004C5.66666 6.2887 6.71133 7.33337 7.99999 7.33337C9.28866 7.33337 10.3333 6.28871 10.3333 5.00004ZM11.6667 5.00004C11.6667 7.02508 10.025 8.66671 7.99999 8.66671C5.97495 8.66671 4.33332 7.02508 4.33332 5.00004C4.33332 2.975 5.97495 1.33337 7.99999 1.33337C10.025 1.33337 11.6667 2.975 11.6667 5.00004Z" fill="#132B93"/>
</g>
</svg>
