<svg width="2816" height="1626" viewBox="0 0 2816 1626" fill="none" xmlns="http://www.w3.org/2000/svg">
<path id="zemin" d="M705 407.032L1408 1.15508L2111 407.032L1408 812.909M705 407.032L1408 812.909M705 407.032L2.00052 812.909L705 1218.79L1408 812.909M1478.3 41.7428L72.3005 853.497M1548.6 82.3305L142.6 894.085M1618.9 122.918L212.9 934.672M1689.2 163.506L283.2 975.26M1759.5 204.094L353.5 1015.85M1829.8 244.681L423.8 1056.44M1900.1 285.269L494.1 1097.02M1970.4 325.857L564.4 1137.61M2040.7 366.444L634.7 1178.2M1337.7 41.7428L2040.7 447.62M1267.4 82.3305L1970.4 488.208M1197.1 122.918L1900.1 528.795M1126.8 163.506L1829.8 569.383M1056.5 204.094L1759.5 609.971M986.2 244.681L1689.2 650.558M915.9 285.269L1618.9 691.146M845.6 325.857L1548.6 731.734M775.3 366.444L1478.3 772.322M1408 812.978L2111 407.101L2814 812.978L2111 1218.86M1408 812.978L2111 1218.86M1408 812.978L705 1218.86L1408 1624.73L2111 1218.86M2181.3 447.689L775.3 1259.44M2251.6 488.276L845.6 1300.03M2321.9 528.864L915.9 1340.62M2392.2 569.452L986.2 1381.21M2462.5 610.039L1056.5 1421.79M2532.8 650.627L1126.8 1462.38M2603.1 691.215L1197.1 1502.97M2673.4 731.803L1267.4 1543.56M2743.7 772.39L1337.7 1584.14M2040.7 447.689L2743.7 853.566M1970.4 488.276L2673.4 894.153M1900.1 528.864L2603.1 934.741M1829.8 569.452L2532.8 975.329M1759.5 610.039L2462.5 1015.92M1689.2 650.627L2392.2 1056.5M1618.9 691.215L2321.9 1097.09M1548.6 731.803L2251.6 1137.68M1478.3 772.39L2181.3 1178.27M634.7 447.62L1337.7 853.497M564.4 488.208L1267.4 894.085M494.1 528.795L1197.1 934.672M423.8 569.383L1126.8 975.26M353.5 609.971L1056.5 1015.85M283.2 650.558L986.2 1056.44M212.9 691.146L915.9 1097.02M142.6 731.734L845.6 1137.61M72.3005 772.322L775.3 1178.2M1337.7 853.566L2040.7 1259.44M1267.4 894.153L1970.4 1300.03M1197.1 934.741L1900.1 1340.62M1126.8 975.329L1829.8 1381.21M1056.5 1015.92L1759.5 1421.79M986.2 1056.5L1689.2 1462.38M915.9 1097.09L1618.9 1502.97M845.6 1137.68L1548.6 1543.56M775.3 1178.27L1478.3 1584.14" stroke="url(#paint0_radial_0_548)" stroke-width="2"/>
<defs>
<radialGradient id="paint0_radial_0_548" cx="0" cy="0" r="1" gradientUnits="userSpaceOnUse" gradientTransform="translate(1341.99 770.876) rotate(85.5791) scale(856.404 856.404)">
<stop stop-color="#F7F6F8"/>
<stop offset="0.515643" stop-color="#DFE6F5" stop-opacity="0.019113"/>
<stop offset="1" stop-color="#DFE6F5" stop-opacity="0"/>
</radialGradient>
</defs>
</svg>
