<svg width="21" height="36" viewBox="0 0 21 36" fill="none" xmlns="http://www.w3.org/2000/svg">
<g id="landing-grafik-icons" clip-path="url(#clip0_0_555)">
<path id="Vector" d="M5.23945 26.7501C4.95078 26.7334 4.72705 26.6169 4.56828 26.4006C4.40951 26.1842 4.33013 25.8841 4.33013 25.5001V20.7001L2.25166 20.5751C2.09289 20.5667 1.97742 20.5084 1.90525 20.4001C1.83309 20.2917 1.797 20.1459 1.797 19.9626C1.797 19.7792 1.83309 19.5917 1.90525 19.4001C1.97742 19.2084 2.09289 19.0167 2.25166 18.8251L9.56958 10.0001C9.69948 9.84173 9.83314 9.7019 9.97055 9.58056C10.108 9.45923 10.2485 9.3574 10.3923 9.27506C10.5361 9.19273 10.6769 9.1324 10.8149 9.09406C10.9529 9.05573 11.0863 9.04106 11.215 9.05006L19.4639 9.48757C19.6083 9.48757 19.7203 9.5439 19.7999 9.65656C19.8796 9.76923 19.9192 9.91706 19.9186 10.1001V16.5001C19.9186 16.7834 19.8354 17.0691 19.6692 17.3571C19.5029 17.6451 19.2974 17.8594 19.0526 18.0001C18.8078 18.1407 18.6022 18.1634 18.4359 18.0681C18.2697 17.9727 18.1865 17.7834 18.1865 17.5001V11.6001L16.4545 13.7001V18.5001C16.4545 18.8834 16.3751 19.2752 16.2163 19.6756C16.0576 20.0759 15.8338 20.4507 15.5452 20.8001L11.215 26.0001C11.0851 26.1584 10.9518 26.2981 10.8149 26.4191C10.6781 26.5401 10.5372 26.6421 10.3923 26.7251C10.2474 26.8081 10.1065 26.8687 9.96968 26.9071C9.83285 26.9454 9.69948 26.9597 9.56958 26.9501L5.23945 26.7501ZM10.3923 18.7001L16.3246 11.5751L10.3923 11.3001L4.46003 18.4251L10.3923 18.7001ZM10.3923 24.7251L14.7224 19.5251V15.7501L11.2367 19.9876C11.1068 20.1459 10.9697 20.2877 10.8253 20.4131C10.681 20.5384 10.5366 20.6424 10.3923 20.7251C10.248 20.8077 10.1036 20.8704 9.95929 20.9131C9.81495 20.9557 9.67783 20.9722 9.54793 20.9626L6.06218 20.7501V24.5251L10.3923 24.7251Z" fill="#FEB272"/>
</g>
<defs>
<clipPath id="clip0_0_555">
<rect width="24" height="24" fill="white" transform="matrix(0.866025 -0.5 0 1 0 12)"/>
</clipPath>
</defs>
</svg>
