<svg width="17" height="28" viewBox="0 0 17 28" fill="none" xmlns="http://www.w3.org/2000/svg">
<g id="Group">
<path id="Vector" d="M13.3486 8.89817L12.89 10.0971C12.4585 11.225 12.2423 11.7887 11.7724 12.0983C11.3017 12.4083 11.1029 12.209 10.7045 11.8109C10.2616 11.363 9.97759 10.707 9.87805 9.90229C9.78477 9.15184 9.73857 8.77687 9.62524 8.64399C9.44565 8.4326 9.08299 8.46884 8.81275 8.44166C8.10051 8.36968 7.74395 8.33395 7.65067 7.97609C7.55652 7.62074 7.76226 7.0832 8.17374 6.00811C8.58521 4.93302 8.79095 4.39548 9.14053 4.08392C9.48924 3.77187 9.84667 3.8081 10.5589 3.88008C10.8292 3.90827 11.1378 4.01094 11.4603 3.85089C11.6626 3.75022 11.9825 3.41149 12.6215 2.73553C13.307 2.00835 14.0551 1.45512 14.7931 1.12944C15.4557 0.838525 15.7869 0.693569 15.9927 1.07106C16.2002 1.44955 15.984 2.01327 15.5524 3.14121L15.0939 4.3381M13.3486 8.89817L13.7269 8.93642C13.9255 8.95606 14.1453 8.91633 14.3735 8.81957C14.6016 8.72281 14.8335 8.57096 15.0556 8.37291C15.2776 8.17487 15.4854 7.93461 15.6666 7.66622C15.8479 7.39783 15.9991 7.1067 16.1112 6.8099C16.3434 6.20506 16.4065 5.6115 16.2871 5.15655C16.1676 4.7016 15.8751 4.42151 15.4722 4.37635L15.0939 4.3381M13.3486 8.89817L15.0939 4.3381M4.14091 18.0173C4.14091 18.5512 3.95722 19.1694 3.63024 19.7357C3.30326 20.3021 2.85978 20.7702 2.39736 21.0372C1.93495 21.3042 1.49147 21.3481 1.16449 21.1593C0.837511 20.9706 0.653817 20.5645 0.653817 20.0306C0.653817 19.4966 0.837511 18.8785 1.16449 18.3121C1.49147 17.7458 1.93495 17.2776 2.39736 17.0107C2.85978 16.7437 3.30326 16.6998 3.63024 16.8885C3.95722 17.0773 4.14091 17.4833 4.14091 18.0173Z" stroke="#FEB272" stroke-width="1.5"/>
<path id="Vector_2" d="M3.26914 17.5139L9.37156 8.9575" stroke="#FEB272" stroke-width="1.5" stroke-linejoin="round"/>
<path id="Vector_3" d="M4.14092 27.077L10.2433 23.5537M3.26914 20.5338L7.62801 25.0637" stroke="#FEB272" stroke-width="1.5" stroke-linecap="round" stroke-linejoin="round"/>
</g>
</svg>
