<svg width="1844" height="839" viewBox="0 0 1844 839" fill="none" xmlns="http://www.w3.org/2000/svg">
<g id="Group">
<path id="Vector" opacity="0.24" d="M910.946 295.501C920.036 294.261 947.335 290.412 965.505 288.023C983.675 285.633 1001.84 283.353 1019.95 281.174C1038.04 278.994 1056.12 276.924 1074.08 274.965C1092.03 273.005 1109.94 271.156 1127.69 269.416C1145.46 267.676 1163.12 266.036 1180.61 264.517C1198.1 262.997 1215.47 261.577 1232.63 260.277C1249.79 258.968 1266.79 257.758 1283.56 256.658C1300.33 255.558 1316.92 254.558 1333.24 253.659C1349.56 252.759 1365.65 251.949 1381.46 251.239C1397.27 250.529 1412.83 249.909 1428.07 249.369C1443.3 248.83 1458.27 248.38 1472.9 248C1487.52 247.62 1501.83 247.34 1515.77 247.1C1529.71 246.87 1543.33 246.72 1556.54 246.63C1569.76 246.53 1582.63 246.5 1595.07 246.52C1607.52 246.54 1619.59 246.61 1631.23 246.73C1642.86 246.85 1654.09 247.01 1664.87 247.2C1675.65 247.39 1686.02 247.62 1695.91 247.88C1705.79 248.14 1715.24 248.44 1724.21 248.73C1733.17 249.029 1741.68 249.369 1749.68 249.699C1757.68 250.029 1765.21 250.389 1772.23 250.739C1779.25 251.089 1785.78 251.449 1791.8 251.799C1797.81 252.149 1803.32 252.509 1808.3 252.849C1813.28 253.189 1817.76 253.539 1821.69 253.859C1825.62 254.179 1829.04 254.499 1831.91 254.798C1834.79 255.098 1837.13 255.388 1838.94 255.648C1840.75 255.908 1842.02 256.158 1842.75 256.388C1843.48 256.618 1843.68 256.818 1843.34 257.008C1842.99 257.198 1842.11 257.358 1840.68 257.508C1839.26 257.658 1837.3 257.788 1834.81 257.898C1832.32 258.008 1829.29 258.098 1825.73 258.178C1822.18 258.258 1818.08 258.318 1813.48 258.368C1808.87 258.418 1803.74 258.458 1798.1 258.488C1792.46 258.518 1786.3 258.538 1779.64 258.568C1772.98 258.588 1765.81 258.608 1758.16 258.638C1750.52 258.658 1742.37 258.698 1733.74 258.738C1725.13 258.778 1716.02 258.838 1706.47 258.908C1696.92 258.978 1686.89 259.078 1676.44 259.188C1665.99 259.308 1655.07 259.458 1643.75 259.638C1632.42 259.818 1620.66 260.028 1608.52 260.287C1596.36 260.547 1583.79 260.837 1570.86 261.197C1557.93 261.557 1544.59 261.947 1530.92 262.407C1517.25 262.867 1503.19 263.387 1488.83 263.967C1474.47 264.547 1459.74 265.197 1444.74 265.926C1429.74 266.656 1414.41 267.436 1398.82 268.316C1383.23 269.186 1367.34 270.136 1351.22 271.166C1335.1 272.195 1318.71 273.315 1302.12 274.525C1285.54 275.735 1268.69 277.034 1251.7 278.414C1234.7 279.804 1217.47 281.284 1200.12 282.863C1182.77 284.443 1165.23 286.103 1147.58 287.863C1129.95 289.622 1112.15 291.482 1094.28 293.442C1076.41 295.391 1058.42 297.441 1040.39 299.59C1022.37 301.73 1004.24 303.97 986.115 306.299C967.994 308.629 949.804 311.048 931.653 313.548C913.503 316.058 895.313 318.647 877.192 321.317C859.07 323.986 840.949 326.746 822.924 329.575C804.9 332.405 786.915 335.314 769.056 338.284C751.197 341.253 733.396 344.293 715.761 347.382C698.125 350.471 680.587 353.631 663.234 356.83C645.88 360.03 628.663 363.279 611.66 366.559C594.656 369.838 577.799 373.167 561.203 376.507C544.608 379.846 528.188 383.216 512.05 386.585C495.912 389.954 479.987 393.354 464.355 396.733C448.722 400.113 433.352 403.512 418.293 406.871C403.233 410.231 388.447 413.6 374 416.91C359.553 420.219 345.408 423.528 331.642 426.768C317.866 430.007 304.411 433.217 291.335 436.356C278.259 439.496 265.543 442.575 253.226 445.585C240.908 448.594 228.95 451.533 217.42 454.383C205.89 457.232 194.749 460.002 184.045 462.661C173.342 465.321 163.046 467.901 153.198 470.35C143.35 472.8 133.929 475.149 124.985 477.359C116.031 479.568 107.515 481.678 99.4752 483.638C91.4353 485.597 83.8523 487.427 76.7651 489.107C69.6681 490.786 63.0378 492.336 56.9034 493.726C50.7689 495.106 45.1108 496.355 39.968 497.435C34.8154 498.515 30.1489 499.445 25.988 500.205C21.827 500.965 18.1814 501.565 15.0315 501.994C11.8914 502.424 9.24701 502.694 7.11793 502.784C4.98885 502.884 3.37503 502.804 2.26675 502.564C1.15846 502.324 0.575153 501.904 0.5071 501.325C0.439048 500.735 0.876525 499.995 1.83898 499.075C2.79172 498.155 4.26942 497.075 6.25267 495.836C8.23592 494.596 10.7442 493.186 13.7482 491.626C16.762 490.067 20.2813 488.337 24.2964 486.477C28.3212 484.618 32.8419 482.598 37.868 480.438C42.8942 478.279 48.4162 475.979 54.4243 473.56C60.4324 471.14 66.946 468.57 73.9263 465.891C80.9065 463.211 88.3826 460.412 96.3059 457.512C104.229 454.613 112.648 451.583 121.505 448.494C130.371 445.395 139.685 442.185 149.436 438.906C159.187 435.626 169.404 432.257 180.03 428.837C190.656 425.418 201.72 421.909 213.182 418.369C224.644 414.83 236.524 411.221 248.783 407.591C261.042 403.962 273.71 400.283 286.727 396.593C299.745 392.904 313.161 389.185 326.898 385.475C340.635 381.766 354.741 378.037 369.149 374.327C383.557 370.618 398.324 366.908 413.354 363.239C428.384 359.57 443.754 355.9 459.358 352.291C474.961 348.682 490.885 345.092 507.014 341.573C523.142 338.054 539.553 334.574 556.148 331.165C572.743 327.765 589.591 324.416 606.604 321.157C623.617 317.897 640.844 314.698 658.208 311.598C675.571 308.499 693.119 305.479 710.764 302.55C728.419 299.63 746.229 296.801 764.098 294.091C781.976 291.382 799.981 288.752 818.034 286.253C836.078 283.753 854.219 281.344 872.36 279.074C890.501 276.795 908.71 274.625 926.88 272.585C945.06 270.536 963.269 268.616 981.419 266.816C999.56 265.017 1017.72 263.327 1035.76 261.767C1053.82 260.207 1071.84 258.768 1089.73 257.458C1107.62 256.138 1125.46 254.938 1143.12 253.869C1160.79 252.799 1178.36 251.839 1195.74 250.999C1213.11 250.159 1230.37 249.439 1247.4 248.83C1264.42 248.22 1281.3 247.72 1297.9 247.33C1314.52 246.93 1330.94 246.65 1347.09 246.46C1363.23 246.27 1379.15 246.19 1394.77 246.19C1410.39 246.19 1425.75 246.3 1440.78 246.47C1455.81 246.64 1470.56 246.92 1484.95 247.26C1499.34 247.6 1513.44 248.02 1527.13 248.49C1540.84 248.969 1554.21 249.529 1567.18 250.129C1580.14 250.729 1592.76 251.389 1604.95 252.089C1617.14 252.789 1628.93 253.549 1640.3 254.339C1651.66 255.128 1662.62 255.958 1673.12 256.818C1683.62 257.668 1693.69 258.558 1703.28 259.458C1712.88 260.357 1722.04 261.277 1730.71 262.207C1739.38 263.137 1747.59 264.077 1755.29 265.027C1762.99 265.966 1770.22 266.906 1776.94 267.846C1783.65 268.786 1789.88 269.716 1795.58 270.636C1801.28 271.555 1806.49 272.465 1811.17 273.365C1815.84 274.265 1820 275.135 1823.63 275.985C1827.26 276.835 1830.37 277.664 1832.94 278.474C1835.52 279.274 1837.55 280.064 1839.06 280.814C1840.57 281.564 1841.54 282.294 1841.97 282.983C1842.4 283.673 1842.3 284.343 1841.65 284.983C1841.01 285.623 1839.84 286.223 1838.13 286.803C1836.41 287.383 1834.17 287.923 1831.39 288.452C1828.61 288.972 1825.3 289.472 1821.47 289.942C1817.64 290.412 1813.28 290.862 1808.41 291.292C1803.54 291.722 1798.13 292.132 1792.23 292.522C1786.33 292.922 1779.9 293.292 1773 293.672C1766.1 294.041 1758.68 294.391 1750.78 294.761C1742.89 295.121 1734.51 295.471 1725.66 295.831C1716.82 296.191 1707.48 296.551 1697.72 296.921C1687.95 297.291 1677.71 297.681 1667.04 298.081C1656.38 298.481 1645.26 298.901 1633.75 299.351C1622.23 299.8 1610.28 300.27 1597.95 300.77C1585.62 301.28 1572.87 301.82 1559.77 302.4C1546.68 302.98 1533.17 303.6 1519.35 304.28C1505.52 304.95 1491.32 305.659 1476.82 306.439C1462.33 307.219 1447.46 308.039 1432.34 308.929C1417.21 309.819 1401.76 310.768 1386.07 311.778C1370.38 312.788 1354.38 313.878 1338.17 315.038C1321.96 316.188 1305.48 317.407 1288.81 318.717C1272.15 320.017 1255.23 321.387 1238.18 322.836C1221.12 324.286 1203.84 325.816 1186.44 327.416C1169.05 329.015 1151.47 330.705 1133.8 332.465C1116.12 334.224 1098.31 336.064 1080.44 337.984C1062.56 339.903 1044.56 341.893 1026.54 343.963C1008.51 346.032 990.412 348.182 972.31 350.391C954.208 352.601 936.057 354.891 917.936 357.25C899.814 359.6 881.683 362.019 863.61 364.499C845.537 366.968 827.484 369.518 809.528 372.108C791.572 374.697 773.654 377.337 755.873 380.026C738.092 382.716 720.388 385.435 702.841 388.205C685.302 390.974 667.861 393.774 650.625 396.593C633.378 399.413 616.268 402.272 599.381 405.122C582.494 407.971 565.773 410.861 549.314 413.73C532.845 416.6 516.571 419.479 500.568 422.349C484.566 425.208 468.797 428.068 453.32 430.897C437.843 433.727 422.629 436.536 407.735 439.296C392.841 442.055 378.229 444.785 363.957 447.454C349.686 450.124 335.715 452.763 322.124 455.313C308.533 457.872 295.263 460.372 282.382 462.781C269.5 465.191 256.969 467.541 244.846 469.79C232.722 472.04 220.969 474.199 209.643 476.249C198.317 478.299 187.39 480.268 176.89 482.108C166.4 483.948 156.309 485.687 146.684 487.287C137.06 488.887 127.863 490.377 119.133 491.726C110.403 493.066 102.11 494.296 94.2935 495.366C86.4772 496.435 79.1372 497.375 72.2736 498.165C65.4197 498.955 59.0227 499.585 53.1313 500.075C47.2399 500.565 41.8151 500.885 36.9153 501.055C32.0155 501.225 27.5921 501.245 23.6839 501.095C19.7757 500.945 16.3731 500.645 13.4857 500.165C10.5983 499.685 8.20678 499.065 6.34019 498.275C4.4736 497.485 3.11253 496.525 2.27645 495.416C1.44037 494.306 1.11955 493.026 1.30427 491.596C1.4987 490.167 2.20841 488.577 3.44308 486.837C4.67775 485.097 6.40824 483.208 8.67342 481.178C10.9386 479.149 13.7093 476.959 16.9856 474.649C20.2618 472.34 24.0728 469.88 28.3601 467.301C32.6572 464.721 37.4695 462.012 42.7679 459.192C48.0662 456.373 53.8799 453.423 60.1699 450.394C66.4599 447.364 73.2457 444.195 80.5079 440.955C87.7701 437.716 95.5087 434.376 103.724 430.977C111.929 427.578 120.62 424.068 129.749 420.519C138.878 416.97 148.483 413.34 158.506 409.681C168.529 406.012 179.009 402.292 189.898 398.543C200.777 394.794 212.112 391.004 223.827 387.205C235.542 383.406 247.675 379.576 260.187 375.757C272.699 371.938 285.609 368.098 298.86 364.299C312.121 360.49 325.76 356.68 339.721 352.911C353.681 349.142 368.011 345.392 382.633 341.693C397.255 337.994 412.216 334.324 427.46 330.725C442.694 327.126 458.24 323.576 474.038 320.107C489.826 316.627 505.915 313.228 522.209 309.909C538.503 306.589 555.069 303.34 571.81 300.2C588.551 297.051 605.535 294.001 622.674 291.062C639.804 288.123 657.148 285.273 674.608 282.553C692.069 279.834 709.714 277.214 727.447 274.715C745.179 272.225 763.057 269.846 780.994 267.596C798.931 265.347 816.975 263.227 835.057 261.247C853.14 259.268 871.291 257.398 889.451 255.678C907.602 253.959 925.801 252.369 943.961 250.919C962.122 249.469 980.301 248.16 998.413 246.98C1016.52 245.8 1034.62 244.76 1052.6 243.85C1070.59 242.941 1088.53 242.181 1106.33 241.541C1124.14 240.901 1141.87 240.401 1159.42 240.011C1176.97 239.631 1194.41 239.391 1211.66 239.261C1228.91 239.131 1246.01 239.131 1262.88 239.241C1279.74 239.361 1296.45 239.581 1312.88 239.921C1329.32 240.261 1345.57 240.711 1361.51 241.251C1377.46 241.801 1393.18 242.441 1408.58 243.181C1423.97 243.92 1439.11 244.75 1453.92 245.66C1468.72 246.57 1483.22 247.57 1497.38 248.63C1511.52 249.689 1525.36 250.829 1538.79 252.019C1552.24 253.209 1565.33 254.479 1578.03 255.778C1590.72 257.078 1603.05 258.448 1614.95 259.838C1626.85 261.227 1638.36 262.667 1649.43 264.127C1660.5 265.587 1671.16 267.086 1681.35 268.596C1691.55 270.106 1701.31 271.635 1710.6 273.175C1719.9 274.715 1728.74 276.265 1737.09 277.804C1745.44 279.344 1753.33 280.904 1760.71 282.434C1768.09 283.963 1775.01 285.503 1781.4 287.023C1787.79 288.532 1793.7 290.042 1799.08 291.512C1804.46 292.992 1809.35 294.441 1813.7 295.871C1818.05 297.301 1821.9 298.701 1825.21 300.06C1828.51 301.42 1831.3 302.77 1833.56 304.06C1835.81 305.359 1837.53 306.629 1838.72 307.849C1839.9 309.069 1840.57 310.259 1840.68 311.408C1840.8 312.548 1840.39 313.668 1839.45 314.738C1838.5 315.808 1837.02 316.837 1835 317.827C1832.99 318.817 1830.45 319.777 1827.37 320.697C1824.3 321.617 1820.69 322.496 1816.58 323.356C1812.47 324.216 1807.81 325.026 1802.66 325.816C1797.51 326.606 1791.83 327.366 1785.66 328.115C1779.48 328.855 1772.8 329.565 1765.64 330.265C1758.47 330.975 1750.79 331.635 1742.66 332.315C1734.52 332.985 1725.88 333.634 1716.8 334.284C1707.72 334.944 1698.15 335.584 1688.15 336.234C1678.14 336.894 1667.69 337.524 1656.81 338.194C1645.93 338.863 1634.61 339.523 1622.89 340.213C1611.18 340.903 1599.03 341.603 1586.52 342.333C1573.99 343.063 1561.06 343.803 1547.79 344.592C1534.52 345.382 1520.85 346.182 1506.87 347.032C1492.89 347.882 1478.54 348.762 1463.89 349.692C1449.25 350.621 1434.26 351.591 1419.01 352.621C1403.75 353.651 1388.19 354.701 1372.38 355.83C1356.57 356.95 1340.48 358.13 1324.17 359.36C1307.87 360.6 1291.3 361.879 1274.56 363.229C1257.82 364.579 1240.85 365.989 1223.72 367.448C1206.6 368.918 1189.27 370.448 1171.83 372.038C1154.39 373.627 1136.77 375.277 1119.08 376.987C1101.39 378.696 1083.56 380.476 1065.67 382.296C1047.78 384.125 1029.79 386.025 1011.77 387.965C993.756 389.904 975.664 391.914 957.581 393.954C939.499 395.993 921.377 398.113 903.305 400.253C885.232 402.392 867.13 404.592 849.125 406.811C831.11 409.041 813.115 411.311 795.227 413.6C777.339 415.9 759.509 418.229 741.815 420.579C724.122 422.929 706.506 425.308 689.065 427.678C671.624 430.057 654.3 432.457 637.16 434.856C620.03 437.246 603.036 439.646 586.286 442.035C569.525 444.425 552.94 446.794 536.617 449.144C520.294 451.493 504.156 453.833 488.309 456.133C472.463 458.432 456.849 460.702 441.537 462.911C426.226 465.131 411.176 467.301 396.448 469.41C381.729 471.52 367.282 473.58 353.205 475.559C339.118 477.539 325.342 479.468 311.936 481.288C298.539 483.108 285.463 484.868 272.776 486.517C260.099 488.157 247.782 489.737 235.872 491.186C223.963 492.636 212.423 493.986 201.311 495.216C190.199 496.445 179.496 497.555 169.239 498.545C158.973 499.535 149.125 500.405 139.733 501.135C130.342 501.865 121.378 502.474 112.891 502.924C104.404 503.384 96.3642 503.704 88.8007 503.874C81.2468 504.044 74.1402 504.074 67.5293 503.944C60.9185 503.824 54.7937 503.544 49.1648 503.124C43.5359 502.694 38.3833 502.104 33.746 501.365C29.1087 500.625 24.9672 499.725 21.341 498.675C17.7147 497.625 14.5746 496.415 11.9691 495.056C9.35394 493.696 7.25402 492.176 5.67909 490.507C4.09443 488.837 3.03475 487.017 2.49033 485.048C1.94591 483.078 1.91675 480.968 2.40284 478.709C2.89865 476.449 3.90972 474.049 5.43604 471.52C6.96237 468.99 9.01367 466.321 11.5705 463.531C14.1273 460.752 17.2189 457.822 20.8062 454.803C24.3936 451.783 28.4962 448.624 33.1044 445.375C37.7125 442.125 42.8262 438.776 48.4357 435.336C54.0452 431.897 60.1602 428.358 66.7613 424.758C73.3624 421.159 80.4496 417.45 88.0132 413.71C95.5768 409.971 103.636 406.142 112.133 402.292C120.64 398.443 129.632 394.514 139.053 390.574C148.473 386.635 158.38 382.656 168.685 378.666C179 374.677 189.762 370.668 200.932 366.659C212.103 362.649 223.71 358.64 235.697 354.651C247.684 350.671 260.099 346.672 272.864 342.733C285.638 338.793 298.792 334.864 312.305 331.005C325.809 327.146 339.692 323.306 353.895 319.557C368.099 315.808 382.643 312.088 397.488 308.469C412.333 304.86 427.499 301.3 442.937 297.841C458.376 294.381 474.106 291.012 490.088 287.743C506.071 284.483 522.316 281.304 538.775 278.254C555.224 275.205 571.936 272.265 588.823 269.446C605.7 266.626 622.82 263.927 640.067 261.367C657.313 258.808 674.764 256.368 692.312 254.079C709.86 251.789 727.583 249.629 745.383 247.61C763.184 245.6 781.111 243.73 799.087 242.011C817.062 240.301 835.145 238.721 853.227 237.302C871.32 235.882 889.48 234.612 907.621 233.502C925.762 232.392 943.942 231.423 962.063 230.613C980.185 229.793 998.316 229.143 1016.36 228.633C1034.4 228.123 1052.43 227.763 1070.33 227.543C1088.22 227.333 1106.07 227.253 1123.76 227.323C1141.45 227.393 1159.06 227.613 1176.47 227.953C1193.88 228.303 1211.18 228.783 1228.27 229.393C1245.35 230.003 1262.28 230.743 1278.98 231.593C1295.66 232.442 1312.17 233.422 1328.41 234.512C1344.65 235.602 1360.67 236.792 1376.4 238.081C1392.12 239.371 1407.6 240.771 1422.76 242.251C1437.92 243.73 1452.81 245.31 1467.35 246.95C1481.88 248.6 1496.14 250.329 1510 252.119C1523.88 253.909 1537.42 255.768 1550.58 257.678C1563.75 259.588 1576.55 261.557 1588.95 263.567C1601.34 265.577 1613.37 267.626 1624.96 269.706C1636.55 271.775 1647.74 273.895 1658.51 276.025C1669.26 278.154 1679.59 280.314 1689.46 282.464C1699.33 284.623 1708.77 286.793 1717.73 288.962C1726.69 291.132 1735.2 293.302 1743.21 295.451C1751.22 297.601 1758.79 299.76 1765.83 301.88C1772.88 304 1779.45 306.119 1785.51 308.199C1791.57 310.279 1797.13 312.338 1802.17 314.358C1807.22 316.378 1811.76 318.367 1815.78 320.317C1819.79 322.256 1823.29 324.176 1826.26 326.046C1829.22 327.915 1831.68 329.735 1833.6 331.515C1835.52 333.294 1836.92 335.024 1837.78 336.714C1838.63 338.394 1838.96 340.033 1838.77 341.613C1838.56 343.193 1837.82 344.732 1836.56 346.222C1835.3 347.712 1833.5 349.152 1831.17 350.541C1828.85 351.931 1825.99 353.271 1822.62 354.581C1819.24 355.88 1815.35 357.13 1810.92 358.35C1806.51 359.56 1801.57 360.73 1796.13 361.869C1790.68 363.009 1784.73 364.099 1778.28 365.159C1771.83 366.219 1764.87 367.248 1757.44 368.258C1750.01 369.268 1742.07 370.238 1733.68 371.198C1725.29 372.158 1716.41 373.087 1707.08 374.017C1697.75 374.937 1687.94 375.837 1677.72 376.747C1667.49 377.647 1656.79 378.536 1645.7 379.436C1634.61 380.326 1623.07 381.226 1611.15 382.116C1599.23 383.016 1586.87 383.925 1574.17 384.845C1561.46 385.765 1548.36 386.695 1534.9 387.645C1521.45 388.605 1507.62 389.564 1493.48 390.564C1479.34 391.564 1464.83 392.574 1450.04 393.634C1435.25 394.694 1420.13 395.763 1404.75 396.883C1389.37 398.003 1373.68 399.143 1357.76 400.343C1341.85 401.532 1325.64 402.762 1309.25 404.032C1292.86 405.302 1276.19 406.611 1259.38 407.971C1242.56 409.331 1225.51 410.731 1208.33 412.17C1191.14 413.61 1173.77 415.1 1156.29 416.63C1138.81 418.159 1121.16 419.739 1103.44 421.349C1085.72 422.959 1067.87 424.618 1049.98 426.308C1032.08 427.998 1014.08 429.737 996.08 431.507C978.075 433.277 960.002 435.076 941.949 436.906C923.895 438.736 905.803 440.605 887.769 442.495C869.735 444.375 851.701 446.294 833.745 448.214C815.789 450.134 797.862 452.083 780.051 454.033C762.241 455.983 744.489 457.942 726.883 459.902C709.276 461.862 691.767 463.821 674.424 465.761C657.08 467.701 639.872 469.64 622.859 471.55C605.846 473.46 588.988 475.349 572.374 477.199C555.749 479.049 539.31 480.888 523.123 482.668C506.936 484.438 490.963 486.197 475.272 487.877C459.591 489.557 444.133 491.186 428.996 492.746C413.859 494.306 398.985 495.796 384.451 497.215C369.917 498.625 355.665 499.965 341.772 501.215C327.88 502.454 314.308 503.634 301.106 504.684C287.913 505.744 275.051 506.704 262.598 507.553C250.144 508.403 238.04 509.143 226.355 509.773C214.669 510.393 203.372 510.893 192.503 511.273C181.634 511.653 171.164 511.903 161.15 512.013C151.137 512.133 141.532 512.113 132.393 511.953C123.265 511.793 114.554 511.493 106.339 511.043C98.1142 510.593 90.3367 510.003 83.0551 509.253C75.7734 508.503 68.9487 507.623 62.6198 506.574C56.2909 505.524 50.4481 504.344 45.1108 502.994C39.7638 501.645 34.9126 500.155 30.5767 498.505C26.231 496.855 22.3909 495.056 19.0661 493.106C15.7412 491.156 12.9218 489.067 10.6275 486.817C8.33314 484.578 6.53462 482.188 5.27079 479.668C4.00695 477.139 3.25835 474.469 3.03475 471.67C2.81115 468.87 3.10281 465.951 3.91944 462.891C4.73607 459.842 6.07768 456.663 7.92482 453.373C9.78169 450.084 12.1636 446.674 15.0607 443.165C17.9578 439.666 21.3701 436.036 25.288 432.347C29.2156 428.648 33.6488 424.848 38.5875 420.979C43.5261 417.12 48.9801 413.16 54.9298 409.161C60.8699 405.152 67.3252 401.062 74.2471 396.953C81.169 392.834 88.6062 388.665 96.4906 384.465C104.385 380.266 112.765 376.027 121.602 371.778C130.429 367.538 139.743 363.259 149.484 359C159.226 354.741 169.433 350.461 180.059 346.222C190.676 341.983 201.749 337.734 213.211 333.544C224.673 329.355 236.572 325.176 248.851 321.067C261.12 316.957 273.807 312.888 286.844 308.889C299.881 304.89 313.316 300.95 327.082 297.101C340.839 293.252 354.974 289.472 369.402 285.793C383.829 282.114 398.616 278.524 413.675 275.055C428.734 271.585 444.123 268.206 459.746 264.957C475.379 261.717 491.303 258.578 507.451 255.588C523.599 252.589 540.02 249.729 556.624 247.01C573.229 244.29 590.087 241.701 607.09 239.271C624.104 236.842 641.321 234.562 658.674 232.442C676.028 230.323 693.556 228.353 711.182 226.553C728.808 224.754 746.589 223.104 764.438 221.634C782.287 220.165 800.253 218.845 818.248 217.705C836.243 216.565 854.336 215.595 872.418 214.786C890.501 213.986 908.642 213.356 926.744 212.886C944.846 212.426 962.977 212.116 981.04 211.986C999.103 211.856 1017.17 211.886 1035.12 212.066C1053.08 212.256 1071 212.606 1088.78 213.116C1106.56 213.626 1124.27 214.286 1141.83 215.096C1159.38 215.905 1176.83 216.865 1194.08 217.955C1211.34 219.045 1228.46 220.295 1245.36 221.654C1262.25 223.024 1278.98 224.524 1295.46 226.134C1311.94 227.743 1328.23 229.493 1344.24 231.333C1360.24 233.172 1376.03 235.142 1391.51 237.192C1406.98 239.241 1422.21 241.401 1437.1 243.63C1451.99 245.86 1466.61 248.18 1480.87 250.569C1495.13 252.959 1509.08 255.428 1522.65 257.948C1536.22 260.467 1549.47 263.047 1562.32 265.677C1575.17 268.296 1587.65 270.976 1599.74 273.685C1611.82 276.385 1623.51 279.134 1634.77 281.904C1646.04 284.663 1656.9 287.453 1667.31 290.242C1677.73 293.032 1687.72 295.841 1697.25 298.641C1706.76 301.44 1715.87 304.25 1724.48 307.029C1733.08 309.809 1741.25 312.598 1748.92 315.348C1756.59 318.097 1763.78 320.837 1770.48 323.536C1777.17 326.236 1783.39 328.905 1789.1 331.545C1794.81 334.184 1800.01 336.774 1804.7 339.323C1809.39 341.873 1813.58 344.383 1817.24 346.842C1820.91 349.302 1824.06 351.711 1826.68 354.051C1829.31 356.4 1831.42 358.71 1832.99 360.95C1834.57 363.189 1835.62 365.379 1836.13 367.498C1836.65 369.628 1836.65 371.688 1836.1 373.697C1835.56 375.697 1834.5 377.647 1832.9 379.546C1831.31 381.436 1829.19 383.256 1826.55 385.025C1823.9 386.795 1820.73 388.515 1817.04 390.174C1813.35 391.834 1809.14 393.444 1804.42 394.994C1799.7 396.543 1794.46 398.043 1788.73 399.503C1782.99 400.962 1776.75 402.362 1770.01 403.732C1763.28 405.102 1756.04 406.421 1748.34 407.711C1740.64 409.001 1732.44 410.251 1723.78 411.471C1715.12 412.69 1705.99 413.88 1696.4 415.05C1686.82 416.22 1676.78 417.36 1666.32 418.479C1655.86 419.599 1644.93 420.709 1633.62 421.809C1622.3 422.909 1610.55 423.988 1598.42 425.078C1586.3 426.168 1573.74 427.238 1560.84 428.318C1547.94 429.397 1534.65 430.467 1521.02 431.557C1507.4 432.647 1493.39 433.737 1479.09 434.846C1464.78 435.946 1450.13 437.066 1435.19 438.216C1420.26 439.356 1405.01 440.495 1389.5 441.675C1374 442.855 1358.18 444.045 1342.16 445.265C1326.14 446.484 1309.83 447.724 1293.33 448.984C1276.85 450.254 1260.11 451.543 1243.21 452.863C1226.31 454.183 1209.2 455.523 1191.96 456.893C1174.72 458.252 1157.3 459.662 1139.77 461.082C1122.25 462.502 1104.57 463.951 1086.82 465.421C1069.08 466.891 1051.22 468.38 1033.31 469.89C1015.42 471.4 997.421 472.93 979.436 474.469C961.441 476.009 943.388 477.569 925.373 479.129C907.349 480.688 889.295 482.268 871.31 483.838C853.325 485.407 835.339 486.997 817.451 488.557C799.563 490.127 781.704 491.686 763.981 493.236C746.258 494.786 728.594 496.325 711.085 497.825C693.585 499.335 676.174 500.825 658.947 502.274C641.719 503.724 624.629 505.144 607.751 506.524C590.874 507.903 574.143 509.233 557.665 510.513C541.186 511.793 524.892 513.013 508.871 514.172C492.84 515.322 477.032 516.432 461.516 517.442C446 518.462 430.727 519.411 415.784 520.271C400.842 521.131 386.152 521.901 371.813 522.571C357.473 523.241 343.435 523.831 329.756 524.301C316.077 524.77 302.72 525.14 289.751 525.39C276.772 525.64 264.143 525.79 251.923 525.8C239.703 525.8 227.832 525.71 216.4 525.47C204.967 525.23 193.913 524.86 183.297 524.36C172.681 523.851 162.482 523.211 152.741 522.431C143 521.651 133.657 520.721 124.81 519.641C115.954 518.562 107.535 517.352 99.6016 515.982C91.6686 514.612 84.1828 513.102 77.2025 511.433C70.2125 509.763 63.6989 507.963 57.6811 506.004C51.673 504.044 46.1316 501.924 41.1054 499.665C36.0792 497.405 31.5489 495.006 27.5337 492.456C23.5284 489.907 20.0091 487.217 17.005 484.378C14.0107 481.548 11.5316 478.579 9.56781 475.479C7.61373 472.38 6.1652 469.14 5.24162 465.781C4.31805 462.422 3.92918 458.932 4.05556 455.343C4.18194 451.753 4.83328 448.034 6.00962 444.215C7.17624 440.405 8.88729 436.476 11.0941 432.467C13.3107 428.458 16.062 424.338 19.3091 420.169C22.5659 415.99 26.3477 411.721 30.635 407.401C34.9223 403.082 39.7152 398.683 45.0233 394.244C50.3217 389.804 56.1353 385.315 62.4351 380.796C68.7348 376.277 75.5498 371.718 82.8315 367.148C90.1131 362.589 97.9003 357.98 106.135 353.391C114.369 348.802 123.109 344.203 132.277 339.633C141.454 335.064 151.098 330.505 161.17 325.986C171.242 321.467 181.78 316.967 192.727 312.538C203.664 308.109 215.058 303.71 226.831 299.391C238.614 295.081 250.805 290.822 263.375 286.663C275.946 282.504 288.915 278.404 302.234 274.425C315.552 270.446 329.241 266.556 343.26 262.787C357.278 259.018 371.667 255.348 386.327 251.829C400.997 248.31 416.008 244.89 431.281 241.631C446.554 238.381 462.148 235.242 477.965 232.272C493.783 229.303 509.901 226.483 526.214 223.824C542.528 221.164 559.103 218.665 575.844 216.345C592.585 214.026 609.569 211.856 626.699 209.876C643.819 207.897 661.144 206.087 678.575 204.457C696.006 202.828 713.622 201.388 731.296 200.128C748.98 198.868 766.8 197.799 784.679 196.909C802.548 196.019 820.533 195.319 838.528 194.799C856.523 194.289 874.586 193.959 892.64 193.819C910.693 193.669 928.785 193.709 946.829 193.929C964.873 194.149 982.936 194.559 1000.9 195.129C1018.87 195.699 1036.83 196.469 1054.67 197.389C1072.51 198.308 1090.29 199.408 1107.94 200.668C1125.57 201.918 1143.14 203.348 1160.52 204.917C1177.91 206.487 1195.16 208.217 1212.23 210.076C1229.29 211.936 1246.19 213.956 1262.88 216.095C1279.56 218.235 1296.07 220.515 1312.3 222.904C1328.54 225.294 1344.58 227.813 1360.33 230.423C1376.08 233.032 1391.58 235.772 1406.79 238.581C1421.99 241.391 1436.93 244.31 1451.52 247.3C1466.12 250.289 1480.43 253.359 1494.38 256.488C1508.33 259.618 1521.97 262.827 1535.22 266.066C1548.47 269.306 1561.39 272.625 1573.91 275.955C1586.42 279.284 1598.58 282.673 1610.31 286.073C1622.05 289.472 1633.39 292.902 1644.31 296.331C1655.23 299.76 1665.73 303.22 1675.79 306.659C1685.85 310.099 1695.48 313.548 1704.64 316.977C1713.81 320.407 1722.53 323.836 1730.78 327.236C1739.02 330.635 1746.82 334.004 1754.12 337.344C1761.42 340.683 1768.25 343.993 1774.57 347.252C1780.9 350.511 1786.75 353.741 1792.08 356.91C1797.42 360.08 1802.25 363.199 1806.58 366.269C1810.89 369.338 1814.73 372.338 1818.02 375.287C1821.32 378.226 1824.11 381.116 1826.36 383.945C1828.62 386.765 1830.38 389.514 1831.58 392.204C1832.8 394.894 1833.5 397.513 1833.66 400.063C1833.83 402.612 1833.48 405.092 1832.59 407.491C1831.72 409.901 1830.3 412.23 1828.36 414.51C1826.43 416.78 1823.98 418.969 1821.01 421.109C1818.04 423.238 1814.53 425.298 1810.53 427.298C1806.52 429.297 1801.99 431.227 1796.96 433.097C1791.94 434.966 1786.39 436.776 1780.36 438.536C1774.32 440.295 1767.78 441.975 1760.76 443.625C1753.74 445.275 1746.22 446.864 1738.23 448.404C1730.25 449.944 1721.77 451.443 1712.86 452.913C1703.94 454.373 1694.53 455.783 1684.72 457.172C1674.89 458.562 1664.6 459.902 1653.89 461.222C1643.18 462.541 1632.04 463.831 1620.5 465.101C1608.96 466.381 1597 467.621 1584.65 468.84C1572.31 470.07 1559.56 471.28 1546.47 472.49C1533.38 473.699 1519.89 474.889 1506.09 476.069C1492.28 477.259 1478.12 478.439 1463.65 479.628C1449.18 480.808 1434.38 481.988 1419.3 483.168C1404.23 484.348 1388.82 485.537 1373.19 486.727C1357.56 487.917 1341.63 489.117 1325.49 490.317C1309.36 491.516 1292.96 492.736 1276.38 493.956C1259.79 495.176 1242.98 496.395 1226.01 497.635C1209.04 498.865 1191.87 500.125 1174.57 501.375C1157.28 502.624 1139.8 503.884 1122.25 505.154C1104.69 506.424 1086.99 507.693 1069.23 508.963C1051.46 510.233 1033.59 511.513 1015.7 512.783C997.801 514.052 979.815 515.332 961.849 516.592C943.883 517.852 925.849 519.111 907.864 520.351C889.879 521.591 871.874 522.821 853.947 524.031C836.02 525.24 818.093 526.44 800.282 527.59C782.462 528.75 764.691 529.879 747.055 530.969C729.42 532.059 711.853 533.129 694.451 534.129C677.049 535.139 659.763 536.108 642.662 537.018C625.562 537.928 608.597 538.788 591.866 539.568C575.125 540.348 558.549 541.088 542.226 541.727C525.894 542.377 509.775 542.957 493.919 543.437C478.072 543.917 462.43 544.337 447.108 544.647C431.777 544.957 416.698 545.177 401.95 545.287C387.202 545.397 372.736 545.407 358.61 545.287C344.485 545.177 330.67 544.967 317.215 544.627C303.76 544.287 290.645 543.827 277.919 543.237C265.193 542.647 252.808 541.937 240.84 541.087C228.873 540.238 217.275 539.258 206.104 538.128C194.934 536.998 184.162 535.738 173.837 534.329C163.503 532.919 153.587 531.369 144.128 529.67C134.668 527.97 125.646 526.12 117.091 524.121C108.536 522.121 100.428 519.981 92.8158 517.692C85.2036 515.402 78.0386 512.953 71.3792 510.373C64.71 507.783 58.5366 505.054 52.8591 502.174C47.1815 499.295 41.9901 496.275 37.3139 493.106C32.6377 489.947 28.4476 486.637 24.7922 483.208C21.1368 479.768 17.9772 476.199 15.3523 472.5C12.7177 468.81 10.5983 464.981 9.01369 461.052C7.42904 457.122 6.3499 453.053 5.80547 448.894C5.26105 444.735 5.25134 440.455 5.75688 436.096C6.26241 431.737 7.30265 427.268 8.85814 422.739C10.4136 418.209 12.5038 413.57 15.1093 408.891C17.7244 404.212 20.8451 399.443 24.4908 394.634C28.1365 389.834 32.2974 384.965 36.9834 380.076C41.6596 375.187 46.8413 370.238 52.5285 365.289C58.2158 360.34 64.4183 355.361 71.107 350.391C77.7858 345.422 84.98 340.433 92.6408 335.484C100.302 330.525 108.448 325.566 117.062 320.657C125.676 315.748 134.765 310.858 144.293 306.029C153.82 301.2 163.824 296.411 174.246 291.712C184.668 287.013 195.546 282.364 206.814 277.804C218.091 273.255 229.796 268.766 241.9 264.407C253.994 260.048 266.496 255.768 279.358 251.619C292.22 247.48 305.49 243.43 319.081 239.541C332.673 235.652 346.643 231.883 360.914 228.263C375.186 224.644 389.817 221.174 404.721 217.865C419.624 214.556 434.859 211.396 450.336 208.417C465.813 205.447 481.601 202.628 497.603 199.998C513.605 197.369 529.88 194.929 546.348 192.67C562.817 190.42 579.529 188.34 596.396 186.461C613.273 184.581 630.355 182.911 647.572 181.442C664.789 179.972 682.191 178.682 699.691 177.612C717.19 176.532 734.835 175.673 752.558 175.013C770.271 174.353 788.12 173.893 805.989 173.633C823.858 173.373 841.824 173.323 859.799 173.483C877.765 173.633 895.79 173.993 913.775 174.543C931.77 175.093 949.794 175.852 967.75 176.792C985.707 177.742 1003.65 178.882 1021.51 180.192C1039.37 181.511 1057.18 183.031 1074.88 184.711C1092.57 186.401 1110.19 188.26 1127.66 190.3C1145.13 192.33 1162.5 194.529 1179.69 196.879C1196.86 199.228 1213.93 201.748 1230.76 204.407C1247.6 207.057 1264.28 209.856 1280.72 212.786C1297.15 215.705 1313.4 218.775 1329.37 221.954C1345.35 225.124 1361.1 228.423 1376.57 231.813C1392.03 235.202 1407.24 238.711 1422.14 242.291C1437.03 245.87 1451.66 249.549 1465.94 253.289C1480.22 257.028 1494.21 260.857 1507.82 264.727C1521.43 268.596 1534.73 272.535 1547.64 276.505C1560.55 280.474 1573.11 284.503 1585.27 288.542C1597.43 292.582 1609.22 296.661 1620.59 300.74C1631.95 304.83 1642.94 308.929 1653.48 313.028C1664.02 317.117 1674.15 321.237 1683.83 325.316C1693.51 329.395 1702.76 333.484 1711.55 337.534C1720.34 341.583 1728.68 345.612 1736.54 349.602C1744.41 353.581 1751.82 357.55 1758.72 361.459C1765.63 365.369 1772.08 369.228 1778.02 373.027C1783.96 376.827 1789.42 380.596 1794.37 384.285C1799.32 387.975 1803.78 391.604 1807.73 395.163C1811.67 398.713 1815.11 402.212 1818.03 405.632C1820.96 409.051 1823.37 412.4 1825.25 415.67C1827.14 418.939 1828.52 422.129 1829.37 425.238C1830.21 428.348 1830.55 431.377 1830.37 434.327C1830.18 437.276 1829.46 440.145 1828.23 442.935C1826.99 445.724 1825.23 448.424 1822.96 451.054C1820.68 453.683 1817.88 456.213 1814.57 458.692C1811.26 461.162 1807.43 463.541 1803.1 465.861C1798.76 468.171 1793.92 470.41 1788.56 472.58C1783.22 474.749 1777.36 476.829 1771.03 478.859C1764.69 480.888 1757.84 482.838 1750.53 484.738C1743.22 486.637 1735.4 488.457 1727.14 490.237C1718.88 492.016 1710.13 493.726 1700.94 495.396C1691.74 497.065 1682.1 498.675 1672.01 500.245C1661.93 501.825 1651.39 503.334 1640.44 504.824C1629.5 506.304 1618.12 507.753 1606.35 509.163C1594.57 510.573 1582.39 511.953 1569.85 513.302C1557.3 514.652 1544.35 515.962 1531.06 517.262C1517.77 518.562 1504.1 519.821 1490.12 521.071C1476.14 522.321 1461.8 523.551 1447.18 524.77C1432.56 525.99 1417.59 527.19 1402.37 528.38C1387.16 529.57 1371.63 530.739 1355.87 531.899C1340.12 533.069 1324.07 534.219 1307.83 535.359C1291.58 536.508 1275.09 537.638 1258.42 538.758C1241.75 539.888 1224.85 540.998 1207.82 542.107C1190.79 543.217 1173.55 544.307 1156.21 545.387C1138.87 546.467 1121.35 547.546 1103.76 548.606C1086.17 549.666 1068.45 550.716 1050.68 551.736C1032.92 552.755 1015.03 553.765 997.139 554.755C979.251 555.735 961.285 556.705 943.339 557.635C925.393 558.564 907.407 559.474 889.461 560.344C871.524 561.214 853.577 562.044 835.709 562.834C817.84 563.623 799.991 564.373 782.268 565.073C764.535 565.763 746.851 566.423 729.323 567.003C711.785 567.593 694.324 568.123 677.049 568.583C659.763 569.043 642.604 569.442 625.64 569.752C608.675 570.062 591.856 570.312 575.271 570.462C558.676 570.612 542.275 570.682 526.117 570.662C509.96 570.632 494.006 570.512 478.344 570.282C462.682 570.052 447.244 569.732 432.117 569.292C416.99 568.853 402.125 568.303 387.601 567.613C373.067 566.933 358.814 566.153 344.932 565.223C331.039 564.303 317.468 563.254 304.256 562.064C291.053 560.874 278.191 559.564 265.728 558.104C253.255 556.655 241.151 555.045 229.466 553.305C217.78 551.566 206.464 549.686 195.585 547.646C184.706 545.607 174.236 543.437 164.213 541.108C154.19 538.778 144.584 536.308 135.446 533.679C126.307 531.049 117.606 528.28 109.391 525.35C101.167 522.431 93.3991 519.351 86.1272 516.132C78.8552 512.913 72.05 509.543 65.7405 506.034C59.431 502.524 53.6174 498.885 48.2995 495.096C42.9817 491.306 38.1694 487.387 33.8724 483.338C29.5753 479.289 25.7644 475.099 22.4979 470.8C19.2216 466.501 16.4606 462.072 14.2246 457.542C11.9886 453.023 10.2775 448.354 9.08172 443.615C7.89566 438.876 7.22487 434.017 7.08876 429.097C6.95266 424.168 7.35124 419.149 8.26509 414.06C9.17895 408.971 10.6275 403.802 12.601 398.593C14.5746 393.384 17.0828 388.095 20.0966 382.776C23.12 377.457 26.6588 372.098 30.7225 366.719C34.7862 361.34 39.3652 355.93 44.4497 350.521C49.5342 345.112 55.1437 339.683 61.2393 334.284C67.3349 328.885 73.9457 323.476 81.0329 318.117C88.1201 312.758 95.7032 307.409 103.763 302.13C111.822 296.851 120.358 291.602 129.35 286.443C138.343 281.284 147.812 276.165 157.719 271.156C167.625 266.136 177.989 261.207 188.77 256.378C199.552 251.559 210.771 246.82 222.388 242.211C233.996 237.611 246.041 233.112 258.456 228.773C270.861 224.434 283.684 220.215 296.848 216.155C310.011 212.106 323.553 208.187 337.426 204.457C351.29 200.728 365.532 197.139 380.047 193.749C394.571 190.36 409.436 187.14 424.563 184.121C439.69 181.102 455.129 178.262 470.81 175.633C486.481 173.003 502.445 170.573 518.612 168.354C534.779 166.134 551.209 164.125 567.814 162.335C584.409 160.535 601.238 158.955 618.222 157.596C635.206 156.236 652.375 155.096 669.66 154.186C686.945 153.277 704.406 152.577 721.944 152.117C739.482 151.647 757.166 151.407 774.889 151.387C792.612 151.367 810.442 151.577 828.291 151.997C846.14 152.417 864.067 153.067 881.975 153.926C899.882 154.786 917.829 155.876 935.737 157.156C953.634 158.436 971.561 159.945 989.401 161.645C1007.24 163.355 1025.05 165.254 1042.76 167.354C1060.47 169.444 1078.12 171.743 1095.64 174.213C1113.16 176.682 1130.59 179.352 1147.86 182.171C1165.12 184.991 1182.27 188 1199.23 191.15C1216.17 194.299 1232.99 197.619 1249.58 201.068C1266.16 204.517 1282.57 208.117 1298.73 211.846C1314.89 215.565 1330.84 219.435 1346.52 223.394C1362.2 227.353 1377.65 231.443 1392.81 235.612C1407.95 239.781 1422.84 244.06 1437.41 248.41C1451.97 252.759 1466.27 257.208 1480.2 261.697C1494.13 266.186 1507.77 270.766 1521.02 275.365C1534.28 279.974 1547.22 284.643 1559.75 289.332C1572.29 294.021 1584.48 298.751 1596.26 303.49C1608.03 308.229 1619.45 312.998 1630.44 317.747C1641.42 322.506 1652.01 327.276 1662.16 332.015C1672.31 336.754 1682.05 341.513 1691.34 346.222C1700.62 350.931 1709.48 355.631 1717.86 360.28C1726.24 364.929 1734.19 369.548 1741.66 374.117C1749.12 378.686 1756.12 383.206 1762.64 387.655C1769.15 392.104 1775.2 396.523 1780.75 400.852C1786.3 405.182 1791.35 409.451 1795.9 413.64C1800.45 417.829 1804.53 421.959 1808.08 425.978C1811.62 430.007 1814.69 433.977 1817.21 437.846C1819.75 441.715 1821.77 445.505 1823.29 449.184C1824.81 452.873 1825.8 456.483 1826.27 460.002C1826.75 463.521 1826.71 466.931 1826.15 470.26C1825.58 473.59 1824.51 476.829 1822.92 479.968C1821.33 483.118 1819.21 486.157 1816.58 489.117C1813.96 492.076 1810.82 494.946 1807.16 497.725C1803.52 500.505 1799.35 503.184 1794.68 505.794C1790.01 508.403 1784.84 510.903 1779.17 513.332C1773.5 515.762 1767.34 518.112 1760.68 520.391C1754.03 522.661 1746.89 524.85 1739.27 526.97C1731.66 529.09 1723.56 531.129 1715.02 533.109C1706.46 535.089 1697.45 536.988 1687.99 538.838C1678.53 540.688 1668.61 542.467 1658.27 544.197C1647.93 545.927 1637.15 547.586 1625.97 549.206C1614.79 550.826 1603.17 552.385 1591.18 553.895C1579.19 555.415 1566.78 556.885 1554.03 558.304C1541.28 559.734 1528.13 561.114 1514.64 562.464C1501.17 563.813 1487.3 565.123 1473.15 566.403C1458.99 567.683 1444.49 568.923 1429.7 570.122C1414.93 571.332 1399.81 572.512 1384.46 573.662C1369.11 574.812 1353.43 575.931 1337.56 577.021C1321.68 578.121 1305.53 579.181 1289.17 580.221C1272.83 581.26 1256.25 582.27 1239.49 583.26C1222.73 584.25 1205.77 585.2 1188.67 586.13C1171.57 587.059 1154.27 587.959 1136.9 588.829C1119.52 589.699 1101.97 590.539 1084.35 591.339C1066.74 592.138 1049.01 592.908 1031.23 593.628C1013.46 594.348 995.594 595.048 977.715 595.698C959.837 596.348 941.9 596.938 923.993 597.487C906.085 598.037 888.138 598.537 870.26 598.977C852.382 599.417 834.493 599.807 816.693 600.127C798.902 600.447 781.14 600.697 763.505 600.887C745.86 601.077 728.292 601.177 710.861 601.217C693.43 601.247 676.106 601.197 658.956 601.057C641.807 600.917 624.784 600.697 607.965 600.357C591.156 600.027 574.493 599.607 558.073 599.077C541.653 598.547 525.417 597.927 509.444 597.168C493.471 596.418 477.712 595.558 462.255 594.568C446.797 593.578 431.573 592.488 416.669 591.249C401.766 590.019 387.134 588.659 372.833 587.159C358.533 585.66 344.533 584.03 330.903 582.26C317.263 580.491 303.954 578.581 291.024 576.521C278.094 574.462 265.514 572.262 253.333 569.912C241.151 567.563 229.339 565.063 217.955 562.404C206.561 559.754 195.566 556.945 185.008 553.995C174.45 551.036 164.3 547.936 154.617 544.677C144.925 541.417 135.67 538.008 126.871 534.449C118.083 530.889 109.741 527.18 101.877 523.331C94.0213 519.471 86.623 515.472 79.7205 511.333C72.818 507.194 66.3919 502.904 60.4713 498.495C54.5507 494.076 49.1259 489.517 44.2067 484.838C39.2874 480.168 34.8737 475.349 30.985 470.43C27.0963 465.511 23.7131 460.462 20.8549 455.323C17.9966 450.184 15.6537 444.925 13.8454 439.586C12.0372 434.247 10.7442 428.807 9.99558 423.288C9.23727 417.779 9.01369 412.17 9.31507 406.521C9.61644 400.872 10.4525 395.133 11.8039 389.375C13.1649 383.616 15.0509 377.777 17.4717 371.938C19.8924 366.099 22.8284 360.2 26.2894 354.321C29.7503 348.442 33.746 342.523 38.2375 336.624C42.7387 330.735 47.7551 324.826 53.2868 318.967C58.8088 313.108 64.8461 307.259 71.3694 301.46C77.8928 295.671 84.9314 289.902 92.4366 284.223C99.9419 278.534 107.943 272.905 116.411 267.366C124.878 261.827 133.822 256.358 143.214 251.019C152.605 245.67 162.463 240.401 172.739 235.272C183.015 230.153 193.757 225.124 204.899 220.255C216.04 215.375 227.619 210.636 239.567 206.067C251.524 201.498 263.891 197.059 276.617 192.799C289.333 188.55 302.467 184.461 315.932 180.572C329.387 176.682 343.221 172.963 357.356 169.454C371.492 165.954 385.968 162.625 400.735 159.525C415.502 156.426 430.581 153.536 445.912 150.867C461.244 148.207 476.886 145.758 492.733 143.538C508.579 141.319 524.717 139.329 541.031 137.579C557.344 135.83 573.9 134.31 590.612 133.04C607.333 131.76 624.249 130.731 641.301 129.941C658.353 129.151 675.6 128.611 692.924 128.301C710.258 128.001 727.748 127.941 745.286 128.131C762.834 128.311 780.508 128.741 798.212 129.421C815.915 130.091 833.706 131 851.497 132.14C869.288 133.29 887.137 134.67 904.957 136.27C922.777 137.869 940.617 139.719 958.398 141.779C976.179 143.838 993.96 146.108 1011.64 148.597C1029.33 151.077 1046.97 153.786 1064.5 156.686C1082.02 159.575 1099.49 162.685 1116.8 165.954C1134.1 169.224 1151.31 172.713 1168.34 176.342C1185.36 179.972 1202.27 183.791 1218.96 187.76C1235.65 191.72 1252.19 195.849 1268.49 200.108C1284.79 204.367 1300.92 208.777 1316.76 213.306C1332.61 217.825 1348.26 222.494 1363.61 227.243C1378.96 231.993 1394.08 236.872 1408.9 241.821C1423.7 246.77 1438.25 251.829 1452.45 256.938C1466.66 262.047 1480.58 267.256 1494.14 272.495C1507.7 277.744 1520.96 283.053 1533.83 288.382C1546.71 293.722 1559.26 299.111 1571.41 304.5C1583.56 309.899 1595.35 315.328 1606.73 320.737C1618.11 326.156 1629.12 331.605 1639.69 337.014C1650.27 342.423 1660.46 347.852 1670.2 353.231C1679.94 358.61 1689.27 363.989 1698.14 369.308C1707.02 374.627 1715.46 379.926 1723.43 385.155C1731.4 390.384 1738.93 395.583 1745.98 400.702C1753.03 405.822 1759.62 410.891 1765.73 415.88C1771.83 420.869 1777.46 425.788 1782.6 430.627C1787.75 435.456 1792.39 440.225 1796.55 444.895C1800.69 449.564 1804.36 454.153 1807.51 458.642C1810.67 463.131 1813.32 467.531 1815.45 471.82C1817.59 476.109 1819.23 480.318 1820.34 484.418C1821.46 488.507 1822.07 492.506 1822.17 496.395C1822.27 500.285 1821.85 504.074 1820.92 507.763C1819.98 511.443 1818.54 515.022 1816.57 518.492C1814.61 521.961 1812.14 525.33 1809.16 528.61C1806.19 531.879 1802.69 535.039 1798.68 538.098C1794.69 541.167 1790.19 544.117 1785.18 546.976C1780.18 549.846 1774.67 552.605 1768.68 555.285C1762.69 557.965 1756.21 560.524 1749.25 563.014C1742.29 565.503 1734.84 567.893 1726.93 570.212C1719.02 572.532 1710.62 574.752 1701.8 576.901C1692.97 579.051 1683.66 581.11 1673.92 583.1C1664.19 585.1 1654 587.009 1643.42 588.849C1632.82 590.689 1621.79 592.478 1610.36 594.188C1598.94 595.898 1587.1 597.538 1574.88 599.127C1562.66 600.717 1550.05 602.237 1537.08 603.706C1524.12 605.176 1510.76 606.586 1497.09 607.946C1483.42 609.305 1469.39 610.615 1455.06 611.875C1440.73 613.145 1426.07 614.345 1411.12 615.504C1396.19 616.664 1380.93 617.784 1365.44 618.844C1349.95 619.913 1334.17 620.933 1318.16 621.923C1302.17 622.903 1285.91 623.833 1269.47 624.723C1253.03 625.612 1236.35 626.452 1219.52 627.252C1202.69 628.052 1185.66 628.802 1168.5 629.502C1151.35 630.202 1134 630.862 1116.58 631.461C1099.16 632.061 1081.58 632.611 1063.96 633.111C1046.32 633.601 1028.59 634.051 1010.82 634.431C993.047 634.811 975.197 635.131 957.338 635.381C939.489 635.631 921.582 635.831 903.723 635.941C885.864 636.051 867.966 636.101 850.146 636.061C832.335 636.021 814.515 635.911 796.812 635.711C779.108 635.511 761.434 635.221 743.906 634.841C726.377 634.451 708.907 633.981 691.612 633.411C674.307 632.831 657.119 632.161 640.115 631.371C623.112 630.582 606.245 629.682 589.591 628.672C572.947 627.652 556.459 626.532 540.224 625.273C523.988 624.013 507.947 622.643 492.178 621.133C476.41 619.624 460.884 617.984 445.64 616.204C430.396 614.424 415.405 612.515 400.745 610.445C386.084 608.386 371.706 606.186 357.667 603.836C343.629 601.477 329.912 598.987 316.544 596.338C303.186 593.688 290.159 590.879 277.53 587.929C264.902 584.97 252.623 581.86 240.753 578.591C228.882 575.321 217.391 571.902 206.337 568.323C195.284 564.743 184.619 561.004 174.411 557.125C164.203 553.235 154.413 549.186 145.08 544.997C135.757 540.798 126.862 536.448 118.452 531.959C110.043 527.46 102.081 522.831 94.6143 518.042C87.148 513.262 80.1482 508.333 73.6541 503.284C67.1599 498.235 61.1421 493.036 55.6493 487.727C50.1467 482.418 45.14 476.969 40.6582 471.42C36.1764 465.871 32.2002 460.202 28.7392 454.433C25.2783 448.674 22.352 442.795 19.941 436.846C17.53 430.897 15.644 424.838 14.2926 418.729C12.9413 412.62 12.1052 406.421 11.8136 400.183C11.5122 393.944 11.7552 387.635 12.5233 381.296C13.2913 374.957 14.5843 368.578 16.4217 362.179C18.2591 355.78 20.6118 349.352 23.4895 342.933C26.3671 336.514 29.7892 330.075 33.7168 323.676C37.6444 317.277 42.1067 310.878 47.0552 304.53C52.0133 298.181 57.4964 291.862 63.4753 285.603C69.4542 279.354 75.9387 273.145 82.9092 267.026C89.8798 260.907 97.3559 254.858 105.289 248.919C113.222 242.981 121.66 237.132 130.546 231.413C139.422 225.694 148.784 220.075 158.574 214.616C168.364 209.147 178.621 203.808 189.285 198.638C199.95 193.469 211.062 188.43 222.553 183.601C234.054 178.762 245.973 174.073 258.271 169.594C270.56 165.114 283.266 160.815 296.303 156.736C309.34 152.647 322.766 148.767 336.503 145.108C350.24 141.449 364.337 137.999 378.725 134.79C393.113 131.58 407.842 128.591 422.823 125.861C437.804 123.132 453.097 120.622 468.622 118.373C484.148 116.123 499.956 114.133 515.968 112.394C531.98 110.654 548.244 109.164 564.684 107.945C581.123 106.725 597.777 105.765 614.576 105.065C631.375 104.365 648.369 103.935 665.48 103.765C682.58 103.595 699.856 103.705 717.209 104.055C734.553 104.415 752.033 105.045 769.561 105.925C787.09 106.805 804.725 107.955 822.37 109.344C840.015 110.744 857.738 112.404 875.442 114.303C893.145 116.203 910.888 118.353 928.581 120.732C946.275 123.112 963.988 125.751 981.614 128.601C999.239 131.45 1016.85 134.54 1034.34 137.829C1051.84 141.119 1069.29 144.648 1086.6 148.357C1103.91 152.067 1121.14 155.986 1138.19 160.085C1155.26 164.185 1172.21 168.484 1188.97 172.943C1205.73 177.402 1222.35 182.041 1238.74 186.821C1255.14 191.6 1271.36 196.559 1287.35 201.618C1303.33 206.687 1319.13 211.926 1334.64 217.245C1350.16 222.574 1365.45 228.033 1380.45 233.582C1395.45 239.121 1410.21 244.8 1424.65 250.519C1439.08 256.248 1453.25 262.077 1467.07 267.946C1480.9 273.815 1494.43 279.774 1507.59 285.753C1520.76 291.732 1533.62 297.781 1546.09 303.83C1558.56 309.879 1570.7 315.978 1582.44 322.066C1594.19 328.155 1605.56 334.264 1616.52 340.363C1627.48 346.462 1638.07 352.551 1648.22 358.61C1658.38 364.669 1668.14 370.728 1677.45 376.727C1686.77 382.726 1695.67 388.705 1704.12 394.614C1712.57 400.523 1720.58 406.401 1728.12 412.19C1735.68 417.989 1742.77 423.738 1749.39 429.387C1756.02 435.036 1762.19 440.635 1767.87 446.134C1773.54 451.633 1778.76 457.052 1783.47 462.372C1788.18 467.691 1792.42 472.92 1796.17 478.049C1799.9 483.178 1803.15 488.197 1805.89 493.116C1808.63 498.035 1810.88 502.854 1812.61 507.553C1814.34 512.253 1815.58 516.842 1816.3 521.321C1817.02 525.79 1817.24 530.159 1816.95 534.409C1816.66 538.658 1815.85 542.787 1814.54 546.786C1813.23 550.796 1811.41 554.695 1809.08 558.474C1806.74 562.254 1803.91 565.913 1800.57 569.462C1797.23 573.012 1793.38 576.441 1789.03 579.761C1784.68 583.08 1779.83 586.29 1774.5 589.379C1769.16 592.468 1763.32 595.458 1757.01 598.347C1750.7 601.237 1743.88 604.006 1736.61 606.676C1729.33 609.355 1721.59 611.925 1713.38 614.394C1705.16 616.874 1696.49 619.244 1687.37 621.533C1678.25 623.823 1668.66 626.002 1658.67 628.112C1648.67 630.222 1638.23 632.231 1627.38 634.161C1616.53 636.101 1605.25 637.94 1593.58 639.72C1581.92 641.5 1569.85 643.179 1557.41 644.799C1544.97 646.419 1532.14 647.959 1518.97 649.438C1505.79 650.908 1492.25 652.308 1478.4 653.647C1464.55 654.987 1450.33 656.247 1435.84 657.447C1421.33 658.647 1406.51 659.786 1391.43 660.856C1376.35 661.926 1360.95 662.936 1345.33 663.876C1329.7 664.816 1313.8 665.705 1297.69 666.515C1281.58 667.335 1265.23 668.085 1248.69 668.785C1232.16 669.475 1215.4 670.105 1198.51 670.654C1181.6 671.214 1164.52 671.714 1147.31 672.144C1130.11 672.574 1112.73 672.934 1095.28 673.214C1077.83 673.494 1060.24 673.714 1042.61 673.844C1024.97 673.984 1007.24 674.044 989.488 674.024C971.736 674.004 953.897 673.904 936.086 673.704C918.276 673.514 900.417 673.244 882.607 672.864C864.796 672.494 846.976 672.034 829.234 671.464C811.492 670.894 793.778 670.235 776.163 669.455C758.556 668.675 741.008 667.805 723.587 666.805C706.175 665.805 688.841 664.706 671.692 663.476C654.533 662.236 637.5 660.896 620.662 659.416C603.824 657.937 587.122 656.327 570.663 654.587C554.194 652.838 537.91 650.958 521.879 648.938C505.847 646.919 490.02 644.759 474.485 642.44C458.94 640.13 443.647 637.67 428.646 635.061C413.646 632.451 398.917 629.682 384.519 626.762C370.121 623.843 356.015 620.773 342.268 617.534C328.521 614.294 315.086 610.905 302.029 607.346C288.983 603.796 276.267 600.077 263.949 596.208C251.631 592.328 239.703 588.289 228.173 584.09C216.643 579.891 205.511 575.531 194.817 571.022C184.123 566.503 173.828 561.834 163.999 557.005C154.17 552.176 144.759 547.186 135.835 542.057C126.91 536.928 118.404 531.639 110.412 526.22C102.411 520.801 94.8671 515.232 87.8188 509.533C80.7705 503.834 74.2082 497.995 68.1612 492.056C62.1143 486.107 56.534 480.018 51.4883 473.829C46.4427 467.641 41.8929 461.342 37.868 454.943C33.8432 448.544 30.3336 442.045 27.3588 435.476C24.3839 428.907 21.9145 422.229 19.9896 415.5C18.0647 408.771 16.6648 401.972 15.7898 395.123C14.9246 388.285 14.5843 381.376 14.7885 374.457C14.9926 367.528 15.712 360.57 16.9759 353.601C18.23 346.632 20.0285 339.643 22.352 332.675C24.6755 325.716 27.524 318.727 30.9072 311.788C34.2807 304.86 38.1791 297.931 42.5928 291.072C47.0065 284.213 51.955 277.394 57.3895 270.656C62.8337 263.917 68.7834 257.238 75.229 250.669C81.6648 244.1 88.6257 237.602 96.0532 231.243C103.481 224.874 111.414 218.605 119.794 212.486C128.174 206.367 137.04 200.368 146.344 194.539C155.648 188.71 165.428 183.011 175.617 177.512C185.805 172.013 196.46 166.654 207.504 161.525C218.548 156.386 230.03 151.427 241.88 146.688C253.731 141.949 266.01 137.399 278.629 133.1C291.248 128.791 304.265 124.702 317.613 120.852C330.952 117.013 344.669 113.394 358.669 110.044C372.678 106.695 387.027 103.575 401.659 100.736C416.28 97.8963 431.232 95.3068 446.418 92.9972C461.603 90.6876 477.09 88.638 492.781 86.8783C508.472 85.1186 524.435 83.6289 540.574 82.4291C556.712 81.2293 573.093 80.3095 589.62 79.6696C606.147 79.0297 622.888 78.6798 639.746 78.6098C656.604 78.5498 673.636 78.7697 690.756 79.2696C707.876 79.7696 725.152 80.5594 742.486 81.6292C759.82 82.6991 777.261 84.0488 794.741 85.6685C812.221 87.2882 829.778 89.1979 847.326 91.3575C864.884 93.5171 882.49 95.9667 900.067 98.6462C917.644 101.326 935.241 104.285 952.779 107.485C970.317 110.674 987.845 114.123 1005.29 117.793C1022.73 121.462 1040.12 125.381 1057.4 129.501C1074.67 133.62 1091.89 137.969 1108.95 142.518C1126.01 147.058 1142.98 151.827 1159.76 156.756C1176.54 161.685 1193.2 166.824 1209.66 172.113C1226.12 177.402 1242.42 182.871 1258.49 188.48C1274.57 194.079 1290.47 199.868 1306.1 205.747C1321.73 211.636 1337.17 217.665 1352.33 223.804C1367.48 229.943 1382.41 236.192 1397.03 242.521C1411.65 248.85 1426.02 255.298 1440.06 261.797C1454.1 268.286 1467.86 274.885 1481.28 281.504C1494.69 288.123 1507.82 294.811 1520.57 301.52C1533.33 308.219 1545.76 314.988 1557.81 321.737C1569.85 328.485 1581.56 335.284 1592.86 342.043C1604.17 348.802 1615.12 355.591 1625.65 362.329C1636.17 369.068 1646.32 375.807 1656.05 382.496C1665.77 389.185 1675.07 395.843 1683.95 402.442C1692.82 409.041 1701.28 415.6 1709.29 422.079C1717.3 428.558 1724.88 434.996 1731.98 441.325C1739.09 447.654 1745.76 453.933 1751.94 460.112C1758.13 466.291 1763.86 472.38 1769.1 478.359C1774.34 484.348 1779.12 490.237 1783.42 496.006C1787.71 501.775 1791.52 507.464 1794.83 513.023C1798.15 518.582 1800.97 524.021 1803.3 529.35C1805.63 534.669 1807.45 539.878 1808.79 544.957C1810.12 550.036 1810.94 554.995 1811.26 559.814C1811.58 564.643 1811.41 569.352 1810.72 573.912C1810.04 578.481 1808.84 582.93 1807.14 587.239C1805.44 591.559 1803.24 595.738 1800.54 599.797C1797.84 603.856 1794.63 607.776 1790.93 611.585C1787.22 615.384 1783.01 619.054 1778.32 622.603C1773.62 626.152 1768.42 629.572 1762.74 632.871C1757.06 636.171 1750.89 639.34 1744.26 642.409C1737.62 645.479 1730.49 648.408 1722.91 651.238C1715.33 654.067 1707.26 656.777 1698.75 659.386C1690.25 661.986 1681.27 664.476 1671.87 666.865C1662.47 669.255 1652.61 671.534 1642.35 673.724C1632.08 675.904 1621.37 677.983 1610.27 679.973C1599.16 681.962 1587.64 683.832 1575.74 685.632C1563.84 687.431 1551.54 689.121 1538.89 690.741C1526.23 692.351 1513.18 693.87 1499.82 695.31C1486.45 696.75 1472.71 698.09 1458.67 699.359C1444.63 700.619 1430.25 701.799 1415.6 702.899C1400.95 703.999 1385.95 705.008 1370.72 705.948C1355.49 706.888 1339.97 707.738 1324.22 708.508C1308.48 709.278 1292.45 709.967 1276.24 710.577C1260.04 711.187 1243.58 711.717 1226.97 712.157C1210.36 712.597 1193.53 712.967 1176.58 713.237C1159.62 713.517 1142.47 713.707 1125.22 713.797C1107.98 713.897 1090.58 713.907 1073.12 713.827C1055.65 713.747 1038.05 713.567 1020.42 713.297C1002.79 713.027 985.065 712.657 967.332 712.187C949.61 711.707 931.809 711.137 914.047 710.457C896.285 709.768 878.485 708.978 860.752 708.078C843.02 707.168 825.277 706.148 807.632 705.008C789.987 703.869 772.371 702.599 754.881 701.199C737.392 699.799 719.961 698.29 702.685 696.63C685.409 694.97 668.231 693.18 651.237 691.251C634.243 689.321 617.366 687.252 600.713 685.032C584.05 682.812 567.561 680.453 551.297 677.933C535.032 675.414 518.962 672.744 503.164 669.915C487.366 667.085 471.772 664.106 456.49 660.956C441.197 657.807 426.148 654.507 411.429 651.028C396.7 647.549 382.254 643.919 368.147 640.11C354.041 636.301 340.226 632.331 326.801 628.192C313.375 624.043 300.25 619.744 287.534 615.264C274.818 610.785 262.442 606.146 250.484 601.327C238.526 596.518 226.948 591.539 215.797 586.399C204.646 581.26 193.884 575.961 183.579 570.502C173.274 565.043 163.386 559.424 153.966 553.655C144.546 547.896 135.553 541.957 127.046 535.898C118.54 529.839 110.49 523.621 102.936 517.282C95.3823 510.933 88.2854 504.464 81.7037 497.865C75.1123 491.266 69.0168 484.548 63.4364 477.719C57.8561 470.89 52.7619 463.941 48.2023 456.902C43.6331 449.874 39.5791 442.735 36.0598 435.526C32.5405 428.318 29.5267 421.019 27.0477 413.67C24.5686 406.321 22.6145 398.893 21.2048 391.434C19.7952 383.975 18.9008 376.457 18.5508 368.938C18.2008 361.409 18.3758 353.851 19.0952 346.292C19.8146 338.733 21.059 331.165 22.8381 323.626C24.6172 316.088 26.931 308.539 29.7698 301.06C32.6085 293.582 35.982 286.103 39.861 278.724C43.74 271.336 48.1634 263.987 53.073 256.748C57.9922 249.509 63.4364 242.321 69.3765 235.272C75.3068 228.223 81.7621 221.254 88.684 214.426C95.6059 207.597 103.043 200.888 110.928 194.349C118.822 187.81 127.202 181.381 136.029 175.163C144.857 168.934 154.16 162.865 163.902 156.986C173.633 151.117 183.822 145.428 194.419 139.959C205.006 134.49 216.059 129.211 227.473 124.182C238.896 119.143 250.737 114.333 262.948 109.764C275.149 105.205 287.748 100.866 300.688 96.8065C313.627 92.7473 326.946 88.918 340.567 85.3886C354.187 81.8592 368.177 78.5798 382.429 75.6003C396.691 72.6208 411.273 69.9113 426.119 67.5018C440.954 65.0922 456.101 62.9726 471.471 61.1529C486.831 59.3432 502.474 57.8035 518.311 56.5837C534.138 55.3639 550.227 54.4541 566.473 53.8442C582.708 53.2343 599.177 52.9343 615.762 52.9343C632.357 52.9343 649.137 53.2443 666.014 53.8642C682.901 54.4841 699.934 55.4039 717.044 56.6137C734.155 57.8235 751.391 59.3532 768.667 61.1729C785.943 62.9926 803.325 65.1022 820.708 67.5018C838.091 69.9013 855.541 72.5908 872.972 75.5503C890.404 78.5098 907.874 81.7592 925.286 85.2586C942.697 88.758 960.129 92.5473 977.472 96.5666C994.816 100.586 1012.13 104.865 1029.34 109.384C1046.55 113.894 1063.7 118.653 1080.73 123.612C1097.75 128.571 1114.69 133.79 1131.46 139.169C1148.23 144.548 1164.9 150.167 1181.38 155.946C1197.85 161.725 1214.2 167.694 1230.32 173.823C1246.44 179.942 1262.4 186.251 1278.12 192.679C1293.84 199.108 1309.37 205.707 1324.63 212.416C1339.9 219.125 1354.94 225.954 1369.71 232.892C1384.48 239.821 1399 246.87 1413.2 253.979C1427.41 261.087 1441.37 268.306 1455 275.565C1468.62 282.823 1481.96 290.162 1494.96 297.511C1507.94 304.87 1520.63 312.278 1532.95 319.697C1545.27 327.116 1557.25 334.574 1568.85 342.013C1580.46 349.462 1591.72 356.92 1602.58 364.339C1613.43 371.758 1623.92 379.196 1634 386.565C1644.07 393.934 1653.77 401.302 1663.03 408.581C1672.28 415.87 1681.16 423.129 1689.58 430.297C1698 437.476 1706 444.585 1713.55 451.613C1721.1 458.642 1728.22 465.601 1734.88 472.46C1741.54 479.308 1747.75 486.097 1753.49 492.756C1759.23 499.415 1764.52 505.984 1769.31 512.433C1774.12 518.881 1778.46 525.22 1782.31 531.429C1786.16 537.638 1789.54 543.727 1792.42 549.696C1795.3 555.655 1797.71 561.494 1799.61 567.203C1801.5 572.912 1802.92 578.471 1803.84 583.9C1804.75 589.339 1805.16 594.628 1805.08 599.777C1805 604.926 1804.41 609.945 1803.33 614.814C1802.25 619.684 1800.67 624.413 1798.58 629.002C1796.5 633.581 1793.91 638.04 1790.83 642.34C1787.76 646.639 1784.17 650.798 1780.11 654.827C1776.04 658.847 1771.46 662.726 1766.42 666.465C1761.37 670.205 1755.83 673.814 1749.8 677.293C1743.79 680.763 1737.28 684.102 1730.32 687.312C1723.35 690.511 1715.9 693.59 1708.01 696.54C1700.11 699.489 1691.74 702.309 1682.94 705.008C1674.13 707.708 1664.87 710.287 1655.19 712.747C1645.51 715.207 1635.37 717.536 1624.84 719.756C1614.31 721.975 1603.33 724.085 1591.98 726.075C1580.62 728.074 1568.86 729.954 1556.74 731.734C1544.6 733.513 1532.07 735.173 1519.21 736.743C1506.35 738.312 1493.1 739.762 1479.53 741.122C1465.96 742.482 1452.04 743.731 1437.82 744.891C1423.61 746.051 1409.05 747.091 1394.24 748.051C1379.42 749.011 1364.29 749.86 1348.92 750.61C1333.55 751.36 1317.9 752.02 1302.04 752.58C1286.19 753.13 1270.06 753.59 1253.77 753.94C1237.46 754.29 1220.93 754.55 1204.24 754.7C1187.56 754.849 1170.66 754.899 1153.66 754.83C1136.66 754.77 1119.46 754.61 1102.19 754.33C1084.93 754.06 1067.51 753.67 1050.03 753.17C1032.56 752.67 1014.96 752.06 997.344 751.32C979.737 750.59 962.034 749.74 944.35 748.771C926.666 747.791 908.924 746.701 891.22 745.471C873.517 744.241 855.804 742.892 838.149 741.392C820.494 739.902 802.859 738.272 785.33 736.503C767.802 734.723 750.302 732.823 732.949 730.764C715.596 728.704 698.31 726.495 681.19 724.135C664.07 721.765 647.066 719.256 630.248 716.586C613.429 713.907 596.756 711.087 580.307 708.088C563.857 705.088 547.573 701.939 531.542 698.6C515.511 695.27 499.674 691.771 484.129 688.101C468.574 684.432 453.262 680.593 438.242 676.573C423.222 672.554 408.464 668.365 394.037 664.006C379.609 659.646 365.464 655.097 351.688 650.388C337.913 645.679 324.428 640.77 311.333 635.711C298.238 630.652 285.483 625.403 273.126 619.994C260.77 614.584 248.773 608.985 237.204 603.236C225.635 597.487 214.445 591.559 203.703 585.47C192.96 579.381 182.616 573.132 172.739 566.733C162.861 560.324 153.402 553.765 144.419 547.066C135.446 540.378 126.9 533.499 118.861 526.52C110.821 519.541 103.228 512.413 96.1503 505.164C89.0631 497.925 82.4718 490.547 76.3762 483.068C70.2806 475.589 64.6905 468.001 59.606 460.322C54.5215 452.643 49.962 444.855 45.908 437.006C41.8637 429.157 38.325 421.219 35.3209 413.23C32.3169 405.242 29.8475 397.183 27.9032 389.095C25.9685 381.006 24.5491 372.877 23.6742 364.739C22.7992 356.6 22.4492 348.412 22.6437 340.263C22.8381 332.115 23.5575 323.926 24.8214 315.798C26.0755 307.669 27.874 299.55 30.1975 291.492C32.521 283.433 35.3695 275.415 38.743 267.476C42.1165 259.538 46.0246 251.649 50.4384 243.88C54.8521 236.112 59.7907 228.403 65.2252 220.844C70.6597 213.286 76.6192 205.827 83.0551 198.518C89.4909 191.22 96.442 184.031 103.86 177.032C111.268 170.034 119.191 163.175 127.542 156.526C135.903 149.877 144.75 143.388 154.024 137.139C163.299 130.88 173.05 124.802 183.2 118.983C193.359 113.164 203.956 107.535 214.951 102.176C225.946 96.8165 237.37 91.6874 249.162 86.8383C260.955 81.9892 273.146 77.38 285.677 73.0708C298.209 68.7615 311.139 64.7023 324.38 60.9529C337.621 57.2036 351.222 53.7442 365.105 50.5848C378.987 47.4253 393.23 44.5658 407.706 42.0263C422.191 39.4867 436.997 37.2471 452.018 35.3375C467.038 33.4278 482.359 31.8281 497.875 30.5583C513.391 29.2885 529.151 28.3487 545.104 27.7288C561.048 27.1089 577.215 26.829 593.528 26.859C609.842 26.899 626.349 27.2589 642.974 27.9588C659.598 28.6487 676.378 29.6685 693.255 31.0082C710.122 32.338 727.126 34.0077 744.187 35.9874C761.24 37.967 778.418 40.2566 795.596 42.8561C812.785 45.4557 830.051 48.3752 847.307 51.5746C864.563 54.774 881.868 58.2934 899.124 62.0827C916.39 65.872 933.676 69.9613 950.893 74.3005C968.11 78.6498 985.318 83.269 1002.42 88.1381C1019.52 93.0072 1036.6 98.1463 1053.55 103.515C1070.49 108.884 1087.37 114.503 1104.1 120.312C1120.82 126.131 1137.46 132.2 1153.91 138.439C1170.37 144.678 1186.71 151.137 1202.84 157.766C1218.98 164.395 1234.95 171.213 1250.71 178.172C1266.46 185.131 1282.06 192.27 1297.39 199.528C1312.72 206.787 1327.85 214.196 1342.71 221.704C1357.58 229.213 1372.21 236.852 1386.56 244.57C1400.91 252.289 1414.99 260.117 1428.78 267.996C1442.56 275.875 1456.08 283.853 1469.26 291.852C1482.43 299.85 1495.33 307.919 1507.88 315.998C1520.42 324.076 1532.64 332.195 1544.5 340.313C1556.36 348.422 1567.88 356.57 1579.02 364.679C1590.16 372.787 1600.96 380.906 1611.34 388.965C1621.74 397.033 1631.76 405.082 1641.37 413.07C1650.97 421.059 1660.21 429.007 1669 436.876C1677.79 444.745 1686.18 452.563 1694.14 460.292C1702.09 468.011 1709.63 475.679 1716.72 483.228C1723.81 490.776 1730.47 498.245 1736.67 505.594C1742.87 512.943 1748.63 520.201 1753.92 527.32C1759.2 534.439 1764.04 541.457 1768.39 548.336C1772.75 555.215 1776.64 561.974 1780.05 568.593C1783.46 575.211 1786.4 581.7 1788.84 588.029C1791.28 594.368 1793.25 600.567 1794.73 606.616C1796.21 612.665 1797.2 618.574 1797.68 624.323C1798.18 630.072 1798.18 635.681 1797.68 641.13C1797.19 646.579 1796.21 651.868 1794.73 657.007C1793.25 662.136 1791.27 667.135 1788.8 671.954C1786.33 676.783 1783.36 681.463 1779.91 685.982C1776.46 690.501 1772.5 694.86 1768.07 699.079C1763.64 703.289 1758.71 707.348 1753.31 711.257C1747.92 715.167 1742.03 718.926 1735.67 722.535C1729.31 726.155 1722.47 729.614 1715.18 732.923C1707.89 736.243 1700.12 739.422 1691.92 742.452C1683.71 745.491 1675.04 748.381 1665.94 751.14C1656.84 753.9 1647.3 756.519 1637.33 758.999C1627.37 761.488 1616.96 763.838 1606.16 766.067C1595.37 768.297 1584.14 770.387 1572.55 772.356C1560.97 774.326 1548.96 776.166 1536.59 777.875C1524.24 779.595 1511.49 781.185 1498.42 782.665C1485.34 784.144 1471.89 785.484 1458.13 786.714C1444.37 787.944 1430.27 789.063 1415.89 790.063C1401.51 791.063 1386.8 791.933 1371.83 792.703C1356.87 793.473 1341.59 794.113 1326.11 794.632C1310.62 795.152 1294.84 795.562 1278.88 795.852C1262.9 796.142 1246.69 796.312 1230.31 796.362C1213.93 796.412 1197.31 796.342 1180.57 796.152C1163.83 795.962 1146.88 795.642 1129.83 795.192C1112.78 794.742 1095.57 794.183 1078.29 793.473C1060.99 792.773 1043.58 791.943 1026.11 790.973C1008.65 790.013 991.083 788.913 973.496 787.664C955.909 786.424 938.264 785.044 920.629 783.524C902.993 781.995 885.319 780.325 867.703 778.505C850.087 776.686 832.452 774.716 814.914 772.586C797.366 770.457 779.847 768.187 762.435 765.738C745.024 763.288 727.68 760.698 710.482 757.919C693.274 755.149 676.164 752.21 659.228 749.101C642.283 745.991 625.474 742.712 608.86 739.252C592.245 735.793 575.796 732.164 559.56 728.354C543.335 724.535 527.294 720.556 511.515 716.376C495.737 712.197 480.172 707.848 464.909 703.309C449.636 698.77 434.596 694.04 419.887 689.131C405.178 684.222 390.731 679.123 376.625 673.844C362.519 668.565 348.723 663.096 335.288 657.457C321.852 651.808 308.747 645.979 296.012 639.97C283.286 633.961 270.92 627.772 258.962 621.413C247.004 615.054 235.415 608.516 224.265 601.807C213.114 595.108 202.352 588.229 192.046 581.2C181.741 574.172 171.844 566.973 162.424 559.634C153.004 552.296 144.011 544.797 135.514 537.178C127.017 529.56 118.967 521.771 111.414 513.892C103.869 506.014 96.7726 497.975 90.2103 489.857C83.6384 481.738 77.5623 473.48 71.9916 465.161C66.4308 456.833 61.356 448.404 56.8159 439.916C52.2758 431.417 48.2509 422.829 44.7511 414.2C41.2512 405.572 38.2666 396.883 35.8265 388.165C33.3863 379.446 31.4614 370.668 30.0906 361.909C28.7198 353.141 27.8546 344.343 27.5532 335.564C27.2518 326.786 27.4657 318.007 28.224 309.279C28.9823 300.55 30.285 291.822 32.103 283.183C33.9307 274.545 36.2834 265.926 39.1708 257.428C42.0484 248.919 45.4608 240.471 49.3884 232.142C53.316 223.824 57.7686 215.585 62.7268 207.497C67.6849 199.408 73.1583 191.42 79.1275 183.621C85.0967 175.812 91.5714 168.134 98.5225 160.665C105.474 153.187 112.921 145.868 120.834 138.769C128.748 131.67 137.138 124.742 145.965 118.073C154.802 111.394 164.106 104.915 173.818 98.6962C183.53 92.4773 193.709 86.4884 204.276 80.7794C214.844 75.0604 225.849 69.5914 237.233 64.4223C248.608 59.2532 260.401 54.3441 272.543 49.7449C284.686 45.1457 297.217 40.8265 310.069 36.8372C322.922 32.8479 336.143 29.1586 349.666 25.7892C363.18 22.4298 377.053 19.3703 391.178 16.6708C405.304 13.9613 419.761 11.5817 434.441 9.54206C449.13 7.50243 464.102 5.80273 479.297 4.45297C494.482 3.10321 509.93 2.0934 525.563 1.43352C541.196 0.773638 557.062 0.46367 573.074 0.503663C589.086 0.533658 605.311 0.93359 621.663 1.66346C638.006 2.39333 654.523 3.48314 671.138 4.91288C687.752 6.34263 704.503 8.11233 721.322 10.212C738.141 12.3116 755.076 14.7611 772.05 17.5306C789.015 20.3001 806.077 23.4196 823.129 26.829C840.19 30.2484 857.301 33.9877 874.382 38.037C891.463 42.0763 908.593 46.4355 925.655 51.0747C942.717 55.7139 959.779 60.653 976.753 65.862C993.727 71.0611 1010.68 76.5601 1027.53 82.2991C1044.37 88.0281 1061.16 94.047 1077.8 100.276C1094.45 106.505 1111.01 112.984 1127.41 119.672C1143.81 126.361 1160.11 133.28 1176.21 140.379C1192.31 147.478 1208.28 154.786 1224.03 162.255C1239.78 169.724 1255.38 177.392 1270.74 185.181C1286.1 192.979 1301.28 200.938 1316.19 209.007C1331.11 217.075 1345.82 225.304 1360.25 233.612C1374.68 241.921 1388.88 250.349 1402.78 258.848C1416.68 267.346 1430.32 275.935 1443.65 284.573C1456.99 293.212 1470.04 301.92 1482.75 310.649C1495.47 319.377 1507.89 328.165 1519.96 336.944C1532.03 345.722 1543.78 354.541 1555.16 363.329C1566.55 372.118 1577.6 380.916 1588.26 389.674C1598.91 398.423 1609.24 407.171 1619.14 415.85C1629.05 424.528 1638.59 433.187 1647.72 441.755C1656.85 450.324 1665.59 458.852 1673.91 467.281C1682.23 475.709 1690.15 484.068 1697.63 492.316C1705.1 500.565 1712.17 508.733 1718.78 516.782C1725.39 524.83 1731.58 532.779 1737.32 540.588C1743.05 548.396 1748.34 556.105 1753.17 563.663C1757.99 571.222 1762.36 578.661 1766.26 585.95C1770.16 593.228 1773.61 600.387 1776.57 607.376C1779.53 614.365 1782.02 621.213 1784.03 627.902C1786.05 634.591 1787.57 641.13 1788.61 647.489C1789.65 653.857 1790.23 660.076 1790.29 666.115C1790.37 672.154 1789.95 678.033 1789.05 683.752C1788.15 689.461 1786.76 695.01 1784.88 700.389C1782.99 705.768 1780.63 710.967 1777.77 716.016C1774.91 721.066 1771.56 725.925 1767.73 730.624C1763.9 735.323 1759.57 739.862 1754.78 744.241C1749.99 748.611 1744.7 752.81 1738.95 756.849C1733.2 760.888 1726.97 764.758 1720.28 768.477C1713.59 772.196 1706.42 775.746 1698.8 779.145C1691.19 782.535 1683.11 785.784 1674.59 788.863C1666.08 791.943 1657.12 794.872 1647.72 797.662C1638.33 800.441 1628.49 803.061 1618.27 805.541C1608.03 808.02 1597.35 810.35 1586.3 812.539C1575.25 814.729 1563.78 816.768 1551.94 818.668C1540.1 820.568 1527.87 822.328 1515.29 823.947C1502.71 825.567 1489.75 827.037 1476.47 828.386C1463.19 829.726 1449.55 830.926 1435.62 831.996C1421.69 833.066 1407.41 833.995 1392.87 834.795C1378.32 835.595 1363.46 836.245 1348.35 836.775C1333.24 837.295 1317.84 837.685 1302.24 837.935C1286.63 838.185 1270.75 838.305 1254.69 838.275C1238.62 838.245 1222.33 838.085 1205.87 837.785C1189.41 837.485 1172.74 837.035 1155.94 836.455C1139.14 835.865 1122.16 835.135 1105.09 834.255C1088.02 833.376 1070.79 832.356 1053.51 831.176C1036.21 829.996 1018.81 828.676 1001.37 827.197C983.928 825.717 966.399 824.077 948.861 822.278C931.323 820.478 904.967 817.378 896.178 816.399" stroke="url(#paint0_linear_0_97)" stroke-miterlimit="10"/>
</g>
<defs>
<linearGradient id="paint0_linear_0_97" x1="0.0404529" y1="419.239" x2="1844.01" y2="419.239" gradientUnits="userSpaceOnUse">
<stop stop-color="#515573"/>
<stop offset="1" stop-color="#45464D"/>
</linearGradient>
</defs>
</svg>
