<svg width="16" height="16" viewBox="0 0 16 16" fill="none" xmlns="http://www.w3.org/2000/svg">
<g id="phone">
<path id="Vector (Stroke)" d="M3.39967 1.25192C3.96723 0.964854 4.63744 0.964854 5.20501 1.25192C5.51435 1.4084 5.78036 1.68535 6.09758 2.00257L6.22714 2.13278C6.43614 2.34178 6.61693 2.51711 6.74081 2.70765C7.17166 3.37048 7.17168 4.22518 6.74081 4.88799C6.61693 5.07854 6.43613 5.25387 6.22714 5.46286C6.18887 5.50114 6.16917 5.5207 6.15553 5.53513L6.15422 5.54294C6.15642 5.54781 6.15925 5.55443 6.16334 5.56312C6.16974 5.57671 6.17781 5.59253 6.18808 5.6139C6.61993 6.5133 7.20865 7.35707 7.95566 8.10414C8.70254 8.85102 9.54606 9.43987 10.4452 9.87171C10.4668 9.88203 10.483 9.89 10.4967 9.89645C10.5046 9.90019 10.5108 9.90278 10.5156 9.90492C10.517 9.90479 10.5188 9.90524 10.5208 9.90492C10.5219 9.90472 10.523 9.90384 10.524 9.90362C10.5384 9.89 10.5586 9.87098 10.5969 9.83265L10.8912 9.54424C10.985 9.45744 11.0764 9.38097 11.1718 9.31898C11.8345 8.88822 12.6887 8.88843 13.3515 9.31898C13.5422 9.44289 13.718 9.62362 13.927 9.83265L14.2864 10.192C14.5056 10.415 14.6905 10.6228 14.8079 10.8548L14.8587 10.9622C15.0942 11.5056 15.077 12.128 14.8079 12.6601C14.6514 12.9694 14.3739 13.2348 14.0566 13.5521L13.9518 13.6575C13.6191 13.9902 13.3739 14.2424 13.037 14.4316C12.7163 14.6118 12.2729 14.7394 11.8853 14.7675L11.7232 14.7734C11.3423 14.7723 11.068 14.6906 10.7037 14.5872C8.5749 13.983 6.56626 12.8424 4.89185 11.1679C3.21743 9.4935 2.0768 7.48488 1.47258 5.35609C1.36919 4.99181 1.28752 4.71758 1.28639 4.33656C1.28513 3.91609 1.42227 3.38938 1.62818 3.02276C1.81736 2.686 2.06962 2.44069 2.40227 2.10804L2.73691 1.77341C2.95992 1.55423 3.16768 1.36928 3.39967 1.25192ZM4.60344 2.44138C4.41426 2.34569 4.19042 2.34569 4.00123 2.44138C3.93011 2.47739 3.84156 2.55482 3.45045 2.94593L3.34498 3.05075C2.97157 3.42416 2.87076 3.5325 2.79029 3.67575C2.69709 3.84186 2.61915 4.14232 2.61972 4.33265C2.62023 4.50203 2.64501 4.60418 2.75514 4.99216C3.29887 6.90785 4.32502 8.71567 5.83456 10.2252C7.34407 11.7348 9.1519 12.7609 11.0676 13.3047C11.4556 13.4148 11.5578 13.4396 11.7271 13.4401C11.9174 13.4407 12.2179 13.3627 12.384 13.2695V13.2689C12.5272 13.1884 12.6356 13.0883 13.009 12.7148L13.1139 12.6093C13.505 12.2183 13.5824 12.1296 13.6184 12.0586C13.7141 11.8693 13.7141 11.6455 13.6184 11.4564C13.5825 11.3853 13.5052 11.2969 13.1139 10.9056L12.9843 10.7754C12.7917 10.5827 12.7107 10.5049 12.664 10.4661L12.6256 10.4375C12.4323 10.3118 12.1899 10.2957 11.9843 10.3899L11.8984 10.4375C11.8547 10.4658 11.7966 10.5183 11.5396 10.7754C11.4776 10.8375 11.3966 10.9212 11.2975 10.9922C11.0133 11.1956 10.64 11.2787 10.2942 11.2213L10.1484 11.1881C10.0905 11.1713 10.0381 11.151 9.99146 11.1308L9.86907 11.0742C8.83579 10.5781 7.86795 9.90184 7.01295 9.04685C6.15804 8.19187 5.48172 7.22407 4.9856 6.19073C4.95173 6.12018 4.90529 6.02673 4.87167 5.91143C4.75995 5.52813 4.83523 5.08699 5.06764 4.76234C5.13855 4.6633 5.22243 4.58216 5.28443 4.52015C5.54153 4.26305 5.59448 4.20524 5.62297 4.16143C5.76663 3.94048 5.76663 3.65518 5.62297 3.43422C5.59449 3.3904 5.54157 3.33263 5.28443 3.07549L5.15422 2.94593C4.76301 2.55472 4.67457 2.47737 4.60344 2.44138Z" fill="#B6C5E9"/>
</g>
</svg>
