<svg width="21" height="36" viewBox="0 0 21 36" fill="none" xmlns="http://www.w3.org/2000/svg">
<g id="landing-grafik-icons" clip-path="url(#clip0_0_599)">
<path id="Vector" d="M2.59808 15V16.5L16.8875 8.25V20.25L7.79424 25.5V27L19.4856 20.25V18.75L18.1865 19.5V6L2.59808 15ZM5.19746 15.7493C4.50902 16.1495 3.84945 16.8472 3.36253 17.6903C2.8756 18.5334 2.60082 19.4535 2.59808 20.25C2.59808 21.8993 3.76982 22.5735 5.19746 21.7493C5.88555 21.3488 6.54466 20.6511 7.03109 19.8083C7.51753 18.9655 7.79184 18.0459 7.79424 17.25C7.79424 15.6023 6.6238 14.9258 5.19746 15.7493ZM9.09327 14.25V15.75L12.3409 13.875V12.375L9.09327 14.25ZM13.6399 11.625V13.125L15.5885 12V10.5L13.6399 11.625ZM5.19746 17.2493C5.92102 16.8315 6.4952 17.1623 6.4952 18C6.4952 18.84 5.92167 19.8311 5.19746 20.2493C4.47 20.6693 3.89712 20.34 3.89712 19.5C3.89712 18.6623 4.47065 17.6689 5.19746 17.2493ZM9.09327 17.25V18.75L15.5885 15V13.5L9.09327 17.25ZM2.59808 24V30L3.89712 29.25V24.75L5.84568 23.625V28.125L7.14472 27.375V23.3685L8.48532 23.4135C8.86529 23.4266 9.3219 23.1622 9.70122 22.7115V22.713L11.994 19.989L11.388 19.0114L9.09457 21.7357L7.08366 21.6712C6.80306 21.6619 6.49046 21.7528 6.17304 21.936L2.59808 24Z" fill="#FEB272"/>
</g>
<defs>
<clipPath id="clip0_0_599">
<rect width="24" height="24" fill="white" transform="matrix(0.866025 -0.5 0 1 0 12)"/>
</clipPath>
</defs>
</svg>
