<svg width="21" height="36" viewBox="0 0 21 36" fill="none" xmlns="http://www.w3.org/2000/svg">
<g id="landing-grafik-icons" clip-path="url(#clip0_0_590)">
<path id="Vector" d="M18.1865 11.5L16.4545 12.5V6.5L17.3205 6V4L3.46411 12V14L4.33013 13.5V19.5L2.59808 20.5C2.3684 20.6326 2.14812 20.8651 1.98571 21.1464C1.8233 21.4278 1.73206 21.7348 1.73206 22V31L19.0526 21V12C19.0526 11.7348 18.9613 11.5331 18.7989 11.4393C18.6365 11.3456 18.4162 11.3674 18.1865 11.5ZM12.1244 23V19L8.66026 21V25L6.06218 26.5V12.5L14.7224 7.5V21.5L12.1244 23Z" fill="#FEB272"/>
<path id="Vector_2" d="M7.79424 13.5L9.52629 12.5V14.5L7.79424 15.5V13.5ZM11.2583 11.5L12.9904 10.5V12.5L11.2583 13.5V11.5ZM7.79424 17.5L9.52629 16.5V18.5L7.79424 19.5V17.5ZM11.2583 15.5L12.9904 14.5V16.5L11.2583 17.5V15.5Z" fill="#FEB272"/>
</g>
<defs>
<clipPath id="clip0_0_590">
<rect width="24" height="24" fill="white" transform="matrix(0.866025 -0.5 0 1 0 12)"/>
</clipPath>
</defs>
</svg>
