<svg width="21" height="36" viewBox="0 0 21 36" fill="none" xmlns="http://www.w3.org/2000/svg">
<g id="landing-grafik-icons" clip-path="url(#clip0_0_617)">
<path id="Vector" d="M11.6913 10.7502C12.6353 10.2052 13.4234 8.83018 13.4234 7.75018C13.4234 7.21974 13.2409 6.81639 12.9161 6.62886C12.5913 6.44132 12.1507 6.48496 11.6913 6.75018C10.73 7.30518 9.95929 8.63018 9.95929 9.75018C9.95929 10.8302 10.73 11.3052 11.6913 10.7502ZM8.56499 26.4352L9.43101 21.5552L11.2583 22.5002V28.5002L12.9904 27.5002V20.0002L11.1631 19.0552L11.6913 15.7502C12.2847 16.1927 13.0168 16.3994 13.8384 16.3562C14.66 16.3131 15.552 16.0212 16.4545 15.5002V13.5002C14.8004 14.4552 13.4234 14.2502 12.7219 13.2352L11.8559 12.1552C11.5095 11.7352 10.9899 11.6552 10.3923 12.0002C10.1238 12.1552 9.95929 12.3302 9.69082 12.4852L5.19615 17.2802V22.0002L6.9282 21.0002V17.5802L8.47838 15.9852L7.09274 24.9052L2.84922 26.3552L2.50281 28.5552L8.56499 26.4352Z" fill="#FEB272"/>
</g>
<defs>
<clipPath id="clip0_0_617">
<rect width="24" height="24" fill="white" transform="matrix(0.866025 -0.5 0 1 0 12)"/>
</clipPath>
</defs>
</svg>
