<svg width="83" height="48" viewBox="0 0 83 48" fill="none" xmlns="http://www.w3.org/2000/svg">
<g id="Vector">
<path d="M78.3319 0H77.5119C75.3888 0 73.6677 1.7211 73.6677 3.84418C73.6677 5.96727 75.3888 7.68837 77.5119 7.68837H78.3319C80.455 7.68837 82.1761 5.96727 82.1761 3.84418C82.1761 1.7211 80.455 0 78.3319 0Z" fill="#00B6BF"/>
<path d="M78.4019 43.9227C72.0429 45.4046 58.7983 48.0086 41.1081 48C23.4986 47.9914 10.3173 45.4017 3.96113 43.9227V36.9105C9.56627 38.401 22.9202 41.5 41.2664 41.4913C59.5147 41.4827 72.7939 38.4039 78.4019 36.9105V43.9227Z" fill="#00B6BF"/>
<path d="M0 10.5725V34.2908L7.90705 34.2965L7.91856 24.2401L9.97588 28.395C10.5255 29.5086 11.6592 30.2135 12.8993 30.2221C14.1567 30.2308 15.3048 29.5201 15.863 28.3921L17.9117 24.2487L17.9405 34.2965H25.8418V10.6185L18.2627 10.6416L16.3838 14.5001C14.9912 17.3602 10.9197 17.3746 9.50687 14.5231L7.57327 10.6128C5.04981 10.5984 2.52634 10.584 0.00287738 10.5696L0 10.5725Z" fill="#0033B3"/>
<path d="M28.7853 10.5841V34.2966H47.2207V29.9489C47.2207 29.1202 46.5503 28.4497 45.7216 28.4497H38.1886C37.3599 28.4526 36.6866 27.7793 36.6866 26.9506C36.6866 26.1248 37.357 25.4544 38.1828 25.4544L41.7537 25.4285C42.7205 25.4227 43.6297 24.9134 44.1045 24.0704C44.1304 24.0214 44.1563 23.9725 44.1822 23.9236C44.2426 23.8056 44.9044 22.4101 44.1822 20.957C44.1592 20.911 44.1362 20.865 44.1103 20.8218C43.6326 19.9643 42.7003 19.455 41.7191 19.4637L38.18 19.4896C37.3513 19.4896 36.6809 18.8191 36.6809 17.9904V17.93C36.6809 17.1013 37.3513 16.4309 38.18 16.4309H45.7216C46.5503 16.4309 47.2207 15.7576 47.2207 14.9318V10.6157L28.7824 10.5869L28.7853 10.5841Z" fill="#0033B3"/>
<path d="M70.4124 24.2343C69.6211 22.9712 68.4299 22.4475 67.9523 22.2691C68.4932 21.849 69.3852 21.1527 69.8197 19.9729C70.6081 17.8235 70.6023 14.5433 68.5709 12.4917C66.4071 10.3078 63.4693 10.5696 63.0636 10.6128H49.2522V34.2937L63.4261 34.2965C63.6794 34.3023 68.1191 34.3282 70.1074 31.1055C71.0426 29.5891 71.1001 27.9001 71.1088 27.457C71.1289 26.5967 71.1548 25.4227 70.4124 24.2372V24.2343ZM60.7761 28.8957H58.7907C57.6685 28.8957 56.7564 27.9836 56.7564 26.8614C56.7564 25.7392 57.6685 24.8271 58.7907 24.8271H60.7761C61.8983 24.8271 62.8104 25.7392 62.8104 26.8614C62.8104 27.9836 61.8983 28.8957 60.7761 28.8957ZM62.8104 17.9703C62.8104 19.0292 61.9529 19.8895 60.8912 19.8895H58.6727C57.6138 19.8895 56.7535 19.032 56.7535 17.9703C56.7535 16.9114 57.611 16.0511 58.6727 16.0511H60.8912C61.95 16.0511 62.8104 16.9085 62.8104 17.9703Z" fill="#0033B3"/>
<path d="M75.7759 10.3021H79.5395C80.9897 10.3021 82.3018 11.4847 82.1665 12.9291C81.5019 20.0247 81.1681 27.2441 80.7739 34.2966C78.3338 34.2966 76.8491 34.2966 74.4091 34.2966C74.0063 27.0916 73.6149 20.0593 73.1517 12.9291C73.0567 11.4818 74.3285 10.3021 75.7787 10.3021H75.7759Z" fill="#0033B3"/>
</g>
</svg>
