<svg width="16" height="16" viewBox="0 0 16 16" fill="none" xmlns="http://www.w3.org/2000/svg">
<g id="code-02">
<path id="Vector (Stroke)" d="M8.68232 1.85549C8.76218 1.49611 9.11852 1.2692 9.47789 1.34898C9.83727 1.42884 10.0642 1.78518 9.98441 2.14455L7.31774 14.1446C7.23788 14.5039 6.88154 14.7308 6.52217 14.6511C6.16279 14.5712 5.93587 14.2149 6.01566 13.8555L8.68232 1.85549ZM4.19534 4.19533C4.45569 3.93498 4.8777 3.93498 5.13805 4.19533C5.3984 4.45568 5.3984 4.87769 5.13805 5.13804L2.27607 8.00002L5.13805 10.862C5.3984 11.1223 5.3984 11.5444 5.13805 11.8047C4.8777 12.0651 4.45569 12.0651 4.19534 11.8047L0.86201 8.47138C0.601661 8.21103 0.601661 7.78902 0.86201 7.52867L4.19534 4.19533ZM10.862 4.19533C11.1224 3.93498 11.5444 3.93498 11.8047 4.19533L15.1381 7.52867C15.3984 7.78902 15.3984 8.21103 15.1381 8.47138L11.8047 11.8047C11.5444 12.0651 11.1224 12.0651 10.862 11.8047C10.6017 11.5444 10.6017 11.1223 10.862 10.862L13.724 8.00002L10.862 5.13804C10.6017 4.87769 10.6017 4.45568 10.862 4.19533Z" fill="#B6C5E9"/>
</g>
</svg>
