<svg width="67" height="42" viewBox="0 0 67 42" fill="none" xmlns="http://www.w3.org/2000/svg">
<g id="Vector">
<path d="M40.6246 0.551253L40.1329 0.835109C38.8601 1.57 38.86 2.76151 40.1329 3.4964C41.4058 4.2313 43.4695 4.23129 44.7424 3.4964L45.2341 3.21254C46.5069 2.47765 46.5069 1.28615 45.2341 0.551253C43.9612 -0.183643 41.8975 -0.183643 40.6246 0.551253Z" fill="#FDFEFF"/>
<path d="M67 15.7307C64.0759 18.4448 57.6965 23.9307 47.0853 30.0511C36.5225 36.1435 27.0672 39.8098 22.3697 41.498L18.1656 39.0708C22.4197 37.6465 32.2839 34.0968 43.278 27.7433C54.2135 21.4238 60.329 15.7616 62.7959 13.3035L67 15.7307Z" fill="#FDFEFF"/>
<path d="M3.74664e-07 31.3251L14.2201 39.5351L18.9641 36.8001L12.9418 33.3151L16.6663 34.0412C17.6634 34.2364 18.7657 34.088 19.5144 33.6617C20.2735 33.2294 20.5357 32.586 20.1941 32.0024L18.9383 29.859L24.9796 33.327L29.7167 30.5921L15.5208 22.396L10.9907 25.0274L12.1775 27.0135C13.0574 28.4855 10.6249 29.8998 8.06834 29.4018L4.56464 28.7176C3.04309 29.5861 1.52155 30.4546 1.51735e-07 31.3231L3.74664e-07 31.3251Z" fill="#FDFEFF"/>
<path d="M17.2649 21.3652L31.4815 29.5732L42.5343 23.1919L39.9277 21.6869C39.4308 21.4001 38.6269 21.4001 38.1301 21.6869L33.6138 24.2944C33.1187 24.5823 32.3113 24.5823 31.8145 24.2954C31.3194 24.0096 31.3194 23.5454 31.8145 23.2596L33.9398 22.0146C34.516 21.6779 34.7558 21.1869 34.535 20.7308C34.5212 20.7049 34.5074 20.679 34.4936 20.6531C34.4591 20.5913 34.0192 19.8792 32.715 19.6262C32.6736 19.6182 32.6322 19.6103 32.5908 19.6043C31.7903 19.4728 30.9261 19.6192 30.343 19.9619L28.2366 21.1959C27.7398 21.4827 26.9359 21.4827 26.439 21.1959L26.4028 21.175C25.906 20.8881 25.906 20.424 26.4028 20.1371L30.9243 17.5267C31.4212 17.2398 31.4194 16.7747 30.9243 16.4888L28.3367 14.9948L17.2649 21.3672L17.2649 21.3652Z" fill="#FDFEFF"/>
<path d="M50.406 11.6812C49.1743 11.5178 48.1461 11.7489 47.7528 11.8525C47.8252 11.5198 47.9425 10.97 47.4957 10.4113C46.6798 9.39435 44.7097 8.26092 42.2617 8.25394C39.6551 8.24697 38.0508 9.35451 37.8334 9.50989L29.5529 14.2907L43.7505 22.4877L52.2501 17.5824C52.4054 17.4968 55.0828 15.9689 54.3427 14.1652C53.9942 13.3166 53.0161 12.712 52.7556 12.5556C52.2519 12.2509 51.5635 11.8355 50.4077 11.6821L50.406 11.6812ZM47.4233 16.6302L46.2329 17.3175C45.5602 17.7059 44.4664 17.7059 43.7936 17.3175C43.1209 16.929 43.1209 16.2976 43.7936 15.9091L44.984 15.2219C45.6568 14.8335 46.7505 14.8335 47.4233 15.2219C48.0961 15.6103 48.0961 16.2418 47.4233 16.6302ZM42.0927 12.1443C42.7275 12.5108 42.7293 13.1054 42.0927 13.4729L40.7626 14.2409C40.1278 14.6074 39.0979 14.6084 38.4613 14.2409C37.8265 13.8743 37.8248 13.2797 38.4613 12.9122L39.7914 12.1443C40.4262 11.7778 41.4561 11.7768 42.0927 12.1443Z" fill="#FDFEFF"/>
<path d="M45.2686 5.00203L47.525 3.69928C48.3945 3.1973 49.8902 3.15248 50.6751 3.69928C54.5307 6.38547 58.6589 8.99995 62.6508 11.5776C61.1879 12.4222 60.2978 12.9361 58.8349 13.7807C54.2737 11.4262 49.8229 9.12744 45.2703 6.81972C44.3457 6.35161 44.4009 5.50302 45.2703 5.00104L45.2686 5.00203Z" fill="#FDFEFF"/>
</g>
</svg>
