<svg width="16" height="16" viewBox="0 0 16 16" fill="none" xmlns="http://www.w3.org/2000/svg">
<g id="Icons/YKS">
<path id="Vector (Stroke)" d="M10.6667 9.66696V8.41176L8.53648 9.47686C8.49675 9.49673 8.40795 9.54494 8.29885 9.58038L8.18426 9.61032C8.09299 9.62741 7.99976 9.63189 7.90757 9.62334L7.81577 9.61032C7.73621 9.5954 7.66119 9.56886 7.59963 9.54262L7.46356 9.47686L3.33335 7.41176V10.8714C3.33335 11.0032 3.33347 11.0714 3.33661 11.1207C3.33669 11.122 3.33653 11.1235 3.33661 11.1246C3.33803 11.1254 3.33958 11.1264 3.34117 11.1273C3.38478 11.1507 3.44694 11.1796 3.56708 11.2347L7.83335 13.1904L7.99742 13.2633C7.99822 13.2636 7.99927 13.2637 8.00002 13.264C8.00077 13.2637 8.00182 13.2636 8.00262 13.2633C8.03523 13.2503 8.07932 13.2305 8.16669 13.1904L12.433 11.2347L12.6589 11.1273C12.6603 11.1265 12.6615 11.1253 12.6628 11.1246C12.6629 11.1235 12.6634 11.122 12.6634 11.1207C12.6666 11.0714 12.6667 11.0032 12.6667 10.8714V7.41176L12 7.74509V9.66696C11.9999 10.035 11.7015 10.3336 11.3334 10.3336C10.9652 10.3336 10.6668 10.035 10.6667 9.66696ZM2.82359 5.66631L8.00002 8.25486L9.84247 7.33298L7.70184 6.26267C7.37271 6.098 7.23921 5.69801 7.40367 5.36879C7.56833 5.03947 7.96888 4.90595 8.2982 5.07061L11.3334 6.58754L13.1758 5.66631L8.00002 3.07842L2.82359 5.66631ZM14 11.0302C13.9988 11.171 13.9914 11.3291 13.9512 11.4834L13.9225 11.5752C13.8713 11.719 13.7961 11.8532 13.6999 11.971L13.597 12.083C13.4584 12.2179 13.2864 12.3088 13.1335 12.3805L8.72202 14.4026C8.5907 14.4629 8.41843 14.5473 8.22854 14.5804C8.0778 14.6065 7.92289 14.6065 7.77216 14.5804C7.67714 14.5638 7.58588 14.5344 7.50262 14.5016L7.27801 14.4026L3.01109 12.4469C2.8314 12.3645 2.58846 12.2628 2.40367 12.083C2.29427 11.9764 2.20373 11.8521 2.13674 11.7158L2.07749 11.5752C2.01256 11.3928 2.00147 11.1991 2.00002 11.0302V6.74509L1.03518 6.26267C0.80949 6.14976 0.666794 5.91931 0.666687 5.66696C0.666687 5.41449 0.809387 5.18356 1.03518 5.07061L7.46356 1.85642L7.59963 1.79131C7.66123 1.76504 7.73612 1.73789 7.81577 1.72295L7.90757 1.71058C7.9998 1.70202 8.09295 1.70583 8.18426 1.72295L8.29885 1.7529C8.40795 1.78833 8.49676 1.83656 8.53648 1.85642L14.9649 5.07061C15.1907 5.18356 15.3334 5.41449 15.3334 5.66696C15.3332 5.91931 15.1905 6.14976 14.9649 6.26267L14 6.74509V11.0302Z" fill="#132B93"/>
</g>
</svg>
