<svg width="16" height="16" viewBox="0 0 16 16" fill="none" xmlns="http://www.w3.org/2000/svg">
<g id="Icons/Rehberlik" clip-path="url(#clip0_0_388)">
<path id="Vector (Stroke)" d="M2.93359 8.00006C3.10918 8.00006 3.28124 7.99932 3.42578 8.01113C3.57812 8.02359 3.75796 8.05309 3.9388 8.14524L4.0306 8.19668C4.20962 8.30651 4.36025 8.45714 4.47005 8.63613L4.52148 8.72793L4.57943 8.86334C4.59978 8.92055 4.61365 8.9772 4.625 9.03196L5.69726 8.58405C5.70721 8.57959 5.72092 8.57317 5.73763 8.56582C5.77392 8.54985 5.82584 8.52795 5.88932 8.50136C6.01613 8.44825 6.19265 8.37683 6.39193 8.3054C6.76057 8.17328 7.31211 8.00006 7.76237 8.00006C8.08174 8.00009 8.3995 8.03809 8.70963 8.11334L10.3001 8.50006L10.4388 8.53978C11.0964 8.75846 11.567 9.35373 11.6016 10.0567L12.5918 9.3347L12.7227 9.24876C13.3888 8.84985 14.2573 8.94011 14.8236 9.49095L14.9427 9.6192C15.5004 10.2849 15.4608 11.2723 14.8229 11.892L14.8236 11.8926L13.3848 13.2911L13.3854 13.2917C12.9643 13.7015 12.443 13.9955 11.8756 14.1492L11.6296 14.2064L9.59635 14.6023C9.16142 14.6868 8.71426 14.6881 8.2793 14.6068L8.09375 14.5671L6.25521 14.1205L6.25391 14.1199C6.08656 14.0788 5.91414 14.058 5.74023 14.058H4.6569C4.65613 14.0694 4.6565 14.0808 4.6556 14.0919C4.64626 14.2061 4.62714 14.3361 4.57943 14.4701L4.52148 14.6055C4.39367 14.8563 4.18918 15.0598 3.93815 15.1876L3.9388 15.1882C3.75795 15.2804 3.57812 15.3099 3.42578 15.3223C3.28124 15.3341 3.10918 15.3334 2.93359 15.3334H2.39974C2.22415 15.3334 2.05209 15.3341 1.90755 15.3223C1.79337 15.313 1.66383 15.2938 1.52995 15.2462L1.39453 15.1882C1.17517 15.0764 0.991437 14.9062 0.86328 14.6973L0.811848 14.6055C0.719649 14.4246 0.690185 14.2443 0.677734 14.0919C0.665945 13.9473 0.666666 13.7752 0.666666 13.5997V9.73314C0.666666 9.55753 0.665923 9.38551 0.677734 9.24095C0.690192 9.08862 0.719688 8.9088 0.811848 8.72793L0.86328 8.63613C0.991368 8.42732 1.17502 8.25713 1.39453 8.14524L1.52995 8.0873C1.66385 8.03963 1.79336 8.02047 1.90755 8.01113C2.05209 7.99932 2.22415 8.00006 2.39974 8.00006H2.93359ZM7.76237 9.3334C7.56942 9.3334 7.21609 9.42646 6.8418 9.56061C6.66993 9.62221 6.51576 9.6845 6.4043 9.73118C6.34876 9.75444 6.30396 9.77338 6.27409 9.78652C6.25929 9.79303 6.24807 9.79827 6.24088 9.80149C6.23733 9.80309 6.23458 9.80406 6.23307 9.80475L6.23177 9.8054C6.22515 9.80843 6.2183 9.81171 6.21159 9.81452L4.66667 10.4603V12.7247H5.74023C6.02008 12.7247 6.29908 12.758 6.57161 12.8249H6.57096L8.40885 13.2715L8.52409 13.2963C8.79371 13.3467 9.07131 13.3456 9.3418 13.293L11.3743 12.8978L11.5273 12.862C11.8789 12.7668 12.1989 12.5852 12.4551 12.336L13.8939 10.9363L13.9401 10.8816C14.0196 10.766 14.02 10.6175 13.9401 10.5014L13.8939 10.4467C13.7753 10.3313 13.5895 10.3034 13.4395 10.3751L13.3776 10.4122L11.7012 11.6342L11.7018 11.6348C11.3459 11.895 10.9156 12.0332 10.4759 12.0333H8.85677C8.48871 12.0331 8.19015 11.7347 8.1901 11.3666C8.1901 11.0213 8.45278 10.7372 8.78906 10.7032L8.85677 10.6999H9.88737C10.1174 10.6999 10.2721 10.5233 10.2721 10.3438V10.1394C10.2721 9.98904 10.1652 9.83917 9.98568 9.79564H9.98502L8.39518 9.40892C8.18792 9.35863 7.97572 9.33342 7.76237 9.3334ZM8.9668 0.945376C10.0072 0.44898 11.0517 0.796352 11.6901 1.53652C12.6117 1.21435 13.6781 1.44265 14.3405 2.37897L14.4115 2.48444C15.0879 3.54768 14.8467 4.89738 13.9121 5.6791L13.8164 5.75527C13.4189 6.05641 12.6649 6.47955 11.9935 6.83665L11.3659 7.16478C11.2324 7.2335 11.0967 7.30386 10.9753 7.35423C10.8438 7.40876 10.688 7.4581 10.5039 7.46426H10.4056C10.2098 7.45581 10.0138 7.40332 9.83984 7.31256L9.75521 7.26373C9.59879 7.16642 9.48831 7.04596 9.40169 6.93301C9.36169 6.88082 9.32129 6.82211 9.2806 6.76113L9.1582 6.57363C8.75506 5.9473 8.16974 5.01318 7.85677 4.37897L7.74088 4.12767C7.22756 2.90969 7.75638 1.52291 8.96614 0.945376H8.9668ZM10.8594 2.68235C10.6084 2.15712 10.1112 1.93639 9.63542 2.10879L9.54101 2.1485C8.96691 2.42248 8.7358 3.05497 8.9694 3.60944L9.06445 3.81387C9.32675 4.34076 9.85715 5.19577 10.2793 5.85163L10.39 6.02155C10.4186 6.06462 10.4402 6.0964 10.4596 6.12181C10.4602 6.12255 10.461 6.12305 10.4616 6.12376C10.4625 6.12338 10.4639 6.12351 10.4648 6.12311C10.524 6.09857 10.6033 6.05774 10.7559 5.97923L11.3835 5.6511C12.0314 5.30598 12.6977 4.9301 13.0111 4.69277L13.0983 4.61985C13.4835 4.26604 13.5787 3.70799 13.3145 3.24616L13.252 3.14915C12.9188 2.67818 12.3435 2.59781 11.8379 2.94472C11.6773 3.05484 11.4765 3.08888 11.2884 3.03847C11.1002 2.98804 10.9434 2.85813 10.8594 2.68235ZM2 13.5997C2 13.7974 2.00081 13.9061 2.00716 13.9838C2.00738 13.9865 2.00759 13.9891 2.00781 13.9916C2.0105 13.9918 2.01328 13.9927 2.01628 13.9929C2.09396 13.9992 2.20222 14.0001 2.39974 14.0001H2.93359C3.13111 14.0001 3.23937 13.9992 3.31706 13.9929C3.31981 13.9927 3.32238 13.9918 3.32487 13.9916C3.3251 13.9891 3.32595 13.9865 3.32617 13.9838C3.33252 13.9061 3.33333 13.7974 3.33333 13.5997V9.73314C3.33333 9.53559 3.33252 9.42738 3.32617 9.34967C3.32591 9.34644 3.32514 9.34343 3.32487 9.34056C3.32239 9.34033 3.31979 9.34013 3.31706 9.33991C3.23937 9.33356 3.13111 9.3334 2.93359 9.3334H2.39974C2.20222 9.3334 2.09396 9.33356 2.01628 9.33991C2.01331 9.34015 2.01048 9.34031 2.00781 9.34056C2.00755 9.34342 2.00742 9.34646 2.00716 9.34967C2.00081 9.42738 2 9.53559 2 9.73314V13.5997Z" fill="#132B93"/>
</g>
<defs>
<clipPath id="clip0_0_388">
<rect width="16" height="16" fill="white"/>
</clipPath>
</defs>
</svg>
