<svg width="19" height="28" viewBox="0 0 19 28" fill="none" xmlns="http://www.w3.org/2000/svg">
<g id="Group">
<path id="Vector" d="M18.2419 16.9974L0.659346 27.1487" stroke="#FEB272" stroke-width="1.5" stroke-linecap="round"/>
<path id="Vector_2" d="M17.3627 17.505V9.89154C17.3627 9.48769 17.2238 9.18061 16.9765 9.03783C16.7292 8.89505 16.3938 8.92827 16.044 9.13019L13.4067 10.6529C13.0569 10.8548 12.7215 11.2089 12.4742 11.6372C12.2269 12.0656 12.088 12.5331 12.088 12.9369V20.5504V3.29321C12.088 1.85782 12.088 1.14013 11.7012 0.917817C11.3161 0.693474 10.6946 1.05232 9.4506 1.77052C8.20664 2.48873 7.58598 2.84707 7.20004 3.51654C6.81323 4.1845 6.81323 4.90219 6.81323 6.33859V23.5957V10.9067C6.81323 10.5028 6.67429 10.1957 6.42699 10.053C6.17969 9.91017 5.84428 9.9434 5.49454 10.1453L2.85716 11.668C2.50742 11.8699 2.17201 12.224 1.92471 12.6523C1.67741 13.0807 1.53847 13.5482 1.53847 13.952V26.6411" stroke="#FEB272" stroke-width="1.5"/>
</g>
</svg>
