<svg width="16" height="16" viewBox="0 0 16 16" fill="none" xmlns="http://www.w3.org/2000/svg">
<g id="Icons/Rol Degistirme">
<path id="Vector (Stroke)" d="M6.33337 10.0002C8.38523 10.0002 10.2195 11.008 11.5899 12.5965L11.8575 12.9214L11.8972 12.9774C12.0779 13.2627 12.0167 13.6443 11.7455 13.8576C11.4741 14.0708 11.0888 14.0401 10.8542 13.797L10.8093 13.7456L10.5795 13.4663C9.41 12.11 7.92004 11.3335 6.33337 11.3335C4.64087 11.3335 3.05826 12.2173 1.85746 13.7456C1.62995 14.0349 1.21071 14.085 0.921266 13.8576C0.631931 13.6301 0.581868 13.2108 0.809286 12.9214C2.20379 11.1466 4.14488 10.0002 6.33337 10.0002ZM11.3926 10.9032C11.535 10.5886 11.8912 10.438 12.2116 10.5457L12.2748 10.5705L12.4831 10.6688C13.4476 11.1453 14.3104 11.8548 15.0372 12.7313L15.1908 12.9214L15.2305 12.9774C15.4112 13.2627 15.35 13.6443 15.0788 13.8576C14.8075 14.0708 14.4221 14.0401 14.1875 13.797L14.1426 13.7456L14.0105 13.5822C13.3881 12.8317 12.6692 12.2478 11.8926 11.8641L11.7253 11.7853L11.6648 11.7541C11.3724 11.5845 11.2504 11.2177 11.3926 10.9032ZM8.66671 5.00016C8.66671 3.7115 7.62205 2.66683 6.33337 2.66683C5.04471 2.66683 4.00004 3.7115 4.00004 5.00016C4.00004 6.28883 5.04471 7.3335 6.33337 7.3335C7.62205 7.3335 8.66671 6.28883 8.66671 5.00016ZM11.6667 5.00016C11.6667 4.14223 11.204 3.39098 10.5118 2.98519L10.3698 2.90902L10.3106 2.87581C10.0246 2.69567 9.91606 2.3243 10.0697 2.01514C10.2234 1.70606 10.5848 1.56851 10.9011 1.68766L10.9636 1.71501L11.1849 1.8348C12.2697 2.4706 13 3.64955 13 5.00016C13 6.44074 12.1692 7.68614 10.9636 8.28532C10.6339 8.44914 10.2336 8.31478 10.0697 7.98519C9.90588 7.65552 10.0402 7.25521 10.3698 7.09131C11.1397 6.70873 11.6667 5.91534 11.6667 5.00016ZM10 5.00016C10 7.0252 8.35843 8.66683 6.33337 8.66683C4.30833 8.66683 2.66671 7.02521 2.66671 5.00016C2.66671 2.97512 4.30833 1.3335 6.33337 1.3335C8.35843 1.3335 10 2.97512 10 5.00016Z" fill="#B6C5E9"/>
</g>
</svg>
