<svg width="24" height="24" viewBox="0 0 24 24" fill="none" xmlns="http://www.w3.org/2000/svg">
<g id="Icons/star">
<g id="Vector (Stroke)">
<path d="M11.5108 1.7116C11.8804 1.58404 12.2875 1.60604 12.6445 1.77605L12.6455 1.77508C12.9983 1.94325 13.1928 2.23573 13.291 2.39617C13.3977 2.57035 13.5079 2.79491 13.6143 3.01043L15.7539 7.34539L20.542 8.04656L20.8985 8.10027C21.0147 8.11935 21.1264 8.1399 21.2256 8.16375C21.3856 8.20225 21.664 8.28011 21.9111 8.48894L22.0147 8.5866L22.124 8.71551C22.3595 9.02803 22.4647 9.42241 22.4131 9.81414C22.3618 10.2015 22.1437 10.4779 22.0215 10.6208C21.9551 10.6983 21.8769 10.7803 21.794 10.8639L21.5371 11.1169L18.0742 14.4889L18.8916 19.2526L18.9512 19.6091C18.9691 19.7256 18.9832 19.8383 18.9912 19.9401C19.0042 20.1041 19.0176 20.3933 18.8955 20.693L18.834 20.822C18.6452 21.1695 18.3278 21.4266 17.9531 21.5407L17.7891 21.5807C17.4045 21.6519 17.075 21.5297 16.9014 21.4577C16.8072 21.4186 16.7048 21.3701 16.5996 21.3171L16.2793 21.1501L12 18.8991L7.72072 21.1501C7.50805 21.2619 7.28722 21.3794 7.09865 21.4577C6.94687 21.5207 6.67552 21.6226 6.35256 21.5993L6.21095 21.5807C5.82177 21.5086 5.47906 21.286 5.2549 20.9655L5.16603 20.822C4.9794 20.4784 4.99398 20.1276 5.00881 19.9401C5.02493 19.7365 5.06777 19.4897 5.10842 19.2526L5.92482 14.4889L2.46291 11.1169C2.29086 10.9493 2.11128 10.7759 1.97853 10.6208C1.85638 10.478 1.63822 10.2025 1.58693 9.81512L1.57424 9.64617C1.56693 9.25507 1.71322 8.87384 1.98537 8.5866L2.08888 8.48894C2.33601 8.28011 2.6144 8.20225 2.77443 8.16375C2.97287 8.11603 3.22036 8.0813 3.45802 8.04656L8.24513 7.34539L10.3858 3.01043L10.5469 2.68816C10.601 2.58327 10.6556 2.48335 10.709 2.39617C10.8072 2.23575 11.0019 1.94424 11.3545 1.77605L11.5108 1.7116ZM9.9922 8.32488L9.99318 8.32586C9.96242 8.38818 9.89647 8.53258 9.79299 8.67937L9.67677 8.8239C9.57778 8.93043 9.46377 9.02185 9.33888 9.09539L9.20998 9.16375C9.09522 9.21705 8.97553 9.2505 8.87306 9.27215L8.63869 9.31023L4.14748 9.96648L7.3965 13.1296L7.56349 13.2985C7.59877 13.3375 7.63593 13.3813 7.67189 13.4294L7.77345 13.5846L7.83791 13.7155C7.8766 13.8043 7.90689 13.8965 7.92775 13.9909L7.95217 14.1345L7.96095 14.32C7.9601 14.3798 7.95579 14.4368 7.95021 14.4889L7.91408 14.7233L7.14845 19.1911L11.1621 17.0807L11.374 16.9743C11.4698 16.9314 11.5864 16.8874 11.711 16.863L11.8545 16.8415C11.9513 16.832 12.0488 16.832 12.1455 16.8415L12.2891 16.863L12.4678 16.9118C12.6379 16.9697 12.7763 17.0484 12.8379 17.0807L16.8506 19.1911L16.086 14.7233C16.0702 14.6317 16.0174 14.3861 16.0479 14.1345L16.0723 13.9909C16.1036 13.8492 16.1555 13.7123 16.2266 13.5846L16.3281 13.4294C16.4358 13.2856 16.5536 13.1792 16.6035 13.1305L19.8516 9.96648L15.3613 9.31023C15.2693 9.29678 15.0198 9.27043 14.7901 9.16375L14.7891 9.16277C14.6136 9.08103 14.4559 8.96623 14.3242 8.82488L14.3233 8.8239C14.1507 8.6381 14.0478 8.40896 14.0069 8.32586L12 4.25945L9.9922 8.32488Z" fill="#FFCD39"/>
<path d="M9.9922 8.32488L9.99318 8.32586C9.96242 8.38818 9.89647 8.53258 9.79299 8.67937L9.67677 8.8239C9.57778 8.93043 9.46377 9.02185 9.33888 9.09539L9.20998 9.16375C9.09522 9.21705 8.97553 9.2505 8.87306 9.27215L8.63869 9.31023L4.14748 9.96648L7.3965 13.1296L7.56349 13.2985C7.59877 13.3375 7.63593 13.3813 7.67189 13.4294L7.77345 13.5846L7.83791 13.7155C7.8766 13.8043 7.90689 13.8965 7.92775 13.9909L7.95217 14.1345L7.96095 14.32C7.9601 14.3798 7.95579 14.4368 7.95021 14.4889L7.91408 14.7233L7.14845 19.1911L11.1621 17.0807L11.374 16.9743C11.4698 16.9314 11.5864 16.8874 11.711 16.863L11.8545 16.8415C11.9513 16.832 12.0488 16.832 12.1455 16.8415L12.2891 16.863L12.4678 16.9118C12.6379 16.9697 12.7763 17.0484 12.8379 17.0807L16.8506 19.1911L16.086 14.7233C16.0702 14.6317 16.0174 14.3861 16.0479 14.1345L16.0723 13.9909C16.1036 13.8492 16.1555 13.7123 16.2266 13.5846L16.3281 13.4294C16.4358 13.2856 16.5536 13.1792 16.6035 13.1305L19.8516 9.96648L15.3613 9.31023C15.2693 9.29678 15.0198 9.27043 14.7901 9.16375L14.7891 9.16277C14.6136 9.08103 14.4559 8.96623 14.3242 8.82488L14.3233 8.8239C14.1507 8.6381 14.0478 8.40896 14.0069 8.32586L12 4.25945L9.9922 8.32488Z" fill="#FFCD39"/>
</g>
</g>
</svg>
