<svg width="24" height="24" viewBox="0 0 24 24" fill="none" xmlns="http://www.w3.org/2000/svg">
<g id="neler sunuyor icons">
<path id="Vector (Stroke)" d="M4.4004 12C4.66379 12 4.92187 11.9989 5.13869 12.0166C5.36719 12.0353 5.63695 12.0796 5.90822 12.2178L6.04591 12.295C6.31445 12.4597 6.5404 12.6856 6.70509 12.9541L6.78224 13.0918L6.86915 13.295C6.89969 13.3808 6.92049 13.4657 6.93751 13.5479L8.54591 12.876C8.56084 12.8693 8.58139 12.8597 8.60646 12.8487C8.6609 12.8247 8.73878 12.7919 8.834 12.752C9.02421 12.6723 9.28899 12.5652 9.5879 12.458C10.1409 12.2599 10.9682 12 11.6436 12C12.1226 12.0001 12.5993 12.0571 13.0645 12.17L15.4502 12.75L15.6582 12.8096C16.6446 13.1376 17.3505 14.0305 17.4024 15.085L18.8877 14.002L19.084 13.8731C20.0832 13.2747 21.386 13.4101 22.2354 14.2364L22.4141 14.4287C23.2506 15.4272 23.1912 16.9083 22.2344 17.8379L22.2354 17.8389L20.0772 19.9366L20.0781 19.9375C19.4464 20.5522 18.6645 20.9932 17.8135 21.2237L17.4443 21.3096L14.3945 21.9034C13.7421 22.0301 13.0714 22.0321 12.419 21.9102L12.1406 21.8506L9.38283 21.1807L9.38087 21.1797C9.12985 21.1181 8.87123 21.087 8.61037 21.0869H6.98537C6.98422 21.1041 6.98477 21.1211 6.98341 21.1377C6.96941 21.3091 6.94073 21.5041 6.86915 21.7051L6.78224 21.9082C6.59052 22.2845 6.28378 22.5896 5.90724 22.7813L5.90822 22.7823C5.63694 22.9205 5.3672 22.9647 5.13869 22.9834C4.92187 23.0011 4.66379 23 4.4004 23H3.59962C3.33624 23 3.07816 23.0011 2.86134 22.9834C2.69008 22.9694 2.49577 22.9407 2.29494 22.8692L2.09181 22.7823C1.76277 22.6146 1.48717 22.3593 1.29494 22.0459L1.21779 21.9082C1.07949 21.6368 1.03529 21.3663 1.01662 21.1377C0.998932 20.9209 1.00001 20.6628 1.00001 20.3994V14.5996C1.00001 14.3362 0.9989 14.0782 1.01662 13.8614C1.0353 13.6329 1.07955 13.3631 1.21779 13.0918L1.29494 12.9541C1.48707 12.6409 1.76255 12.3856 2.09181 12.2178L2.29494 12.1309C2.49579 12.0594 2.69006 12.0307 2.86134 12.0166C3.07816 11.9989 3.33624 12 3.59962 12H4.4004ZM11.6436 14C11.3542 14 10.8241 14.1396 10.2627 14.3409C10.0049 14.4333 9.77365 14.5267 9.60646 14.5967C9.52316 14.6316 9.45595 14.66 9.41115 14.6797C9.38895 14.6895 9.37212 14.6973 9.36134 14.7022C9.35602 14.7046 9.35189 14.706 9.34962 14.7071L9.34767 14.708C9.33774 14.7126 9.32747 14.7175 9.3174 14.7217L7.00001 15.6905V19.0869H8.61037C9.03014 19.087 9.44864 19.137 9.85744 19.2373H9.85646L12.6133 19.9073L12.7861 19.9444C13.1906 20.02 13.607 20.0183 14.0127 19.9395L17.0615 19.3467L17.291 19.293C17.8184 19.1501 18.2984 18.8777 18.6826 18.5039L20.8408 16.4043L20.9102 16.3223C21.0294 16.149 21.0301 15.9263 20.9102 15.752L20.8408 15.67C20.663 15.4969 20.3842 15.455 20.1592 15.5625L20.0664 15.6182L17.5518 17.4512L17.5527 17.4522C17.0189 17.8424 16.3734 18.0498 15.7139 18.0498H13.2852C12.7331 18.0497 12.2852 17.602 12.2852 17.0498C12.2852 16.532 12.6792 16.1058 13.1836 16.0547L13.2852 16.0498H14.8311C15.1761 16.0498 15.4082 15.785 15.4082 15.5157V15.209C15.4082 14.9835 15.2478 14.7587 14.9785 14.6934H14.9776L12.5928 14.1133C12.2819 14.0379 11.9636 14.0001 11.6436 14ZM13.4502 1.418C15.0109 0.673409 16.5776 1.19447 17.5352 2.30472C18.9175 1.82146 20.5171 2.16391 21.5108 3.56839L21.6172 3.7266C22.6318 5.32146 22.27 7.34601 20.8682 8.51859L20.7246 8.63285C20.1284 9.08455 18.9974 9.71927 17.9902 10.2549L17.0488 10.7471C16.8486 10.8502 16.645 10.9557 16.4629 11.0313C16.2657 11.1131 16.032 11.1871 15.7559 11.1963H15.6084C15.3147 11.1836 15.0207 11.1049 14.7598 10.9688L14.6328 10.8955C14.3982 10.7496 14.2325 10.5689 14.1026 10.3994C14.0425 10.3212 13.982 10.2331 13.9209 10.1416L13.7373 9.86038C13.1326 8.92089 12.2546 7.5197 11.7852 6.56839L11.6113 6.19144C10.8414 4.36447 11.6346 2.28431 13.4492 1.418H13.4502ZM16.2891 4.02347C15.9126 3.23562 15.1669 2.90453 14.4531 3.16312L14.3115 3.22269C13.4504 3.63366 13.1037 4.58239 13.4541 5.4141L13.5967 5.72074C13.9901 6.51108 14.7857 7.7936 15.419 8.77738L15.585 9.03226C15.628 9.09687 15.6602 9.14454 15.6895 9.18265C15.6903 9.18376 15.6916 9.18452 15.6924 9.18558C15.6938 9.18501 15.6958 9.18521 15.6973 9.1846C15.786 9.14779 15.905 9.08655 16.1338 8.96878L17.0752 8.4766C18.0472 7.95891 19.0466 7.39509 19.5166 7.0391L19.6475 6.92972C20.2252 6.39901 20.3681 5.56192 19.9717 4.86917L19.8779 4.72367C19.3782 4.01721 18.5152 3.89665 17.7568 4.41703C17.5159 4.58219 17.2148 4.63326 16.9326 4.55765C16.6504 4.48199 16.4151 4.28713 16.2891 4.02347ZM3.00001 20.3994C3.00001 20.696 3.00123 20.859 3.01076 20.9756C3.01109 20.9797 3.01139 20.9836 3.01173 20.9873C3.01576 20.9877 3.01994 20.9889 3.02443 20.9893C3.14096 20.9988 3.30334 21 3.59962 21H4.4004C4.69668 21 4.85907 20.9988 4.9756 20.9893C4.97973 20.989 4.98358 20.9877 4.98732 20.9873C4.98766 20.9836 4.98893 20.9798 4.98927 20.9756C4.9988 20.859 5.00001 20.696 5.00001 20.3994V14.5996C5.00001 14.3033 4.99879 14.141 4.98927 14.0244C4.98887 14.0196 4.98772 14.0151 4.98732 14.0108C4.98361 14.0104 4.9797 14.0101 4.9756 14.0098C4.85907 14.0003 4.69668 14 4.4004 14H3.59962C3.30334 14 3.14096 14.0003 3.02443 14.0098C3.01997 14.0102 3.01573 14.0104 3.01173 14.0108C3.01133 14.0151 3.01115 14.0196 3.01076 14.0244C3.00123 14.141 3.00001 14.3033 3.00001 14.5996V20.3994Z" fill="#0033B3"/>
</g>
</svg>
