<svg width="16" height="16" viewBox="0 0 16 16" fill="none" xmlns="http://www.w3.org/2000/svg">
<g id="Icons/Rehberlik" clip-path="url(#clip0_0_310)">
<path id="Vector (Stroke)" d="M2.93368 8.00018C3.10928 8.00018 3.28133 7.99944 3.42587 8.01125C3.57821 8.02372 3.75805 8.05322 3.93889 8.14537L4.03069 8.1968C4.20971 8.30663 4.36035 8.45726 4.47014 8.63625L4.52157 8.72805L4.57952 8.86347C4.59988 8.92067 4.61374 8.97733 4.62509 9.03209L5.69736 8.58417C5.70731 8.57971 5.72101 8.57329 5.73772 8.56594C5.77402 8.54997 5.82593 8.52807 5.88941 8.50149C6.01622 8.44838 6.19274 8.37695 6.39202 8.30552C6.76066 8.1734 7.31221 8.00018 7.76246 8.00018C8.08183 8.00021 8.39959 8.03821 8.70973 8.11347L10.3002 8.50018L10.4389 8.5399C11.0965 8.75858 11.5671 9.35385 11.6017 10.0568L12.5919 9.33482L12.7227 9.24888C13.3889 8.84997 14.2574 8.94024 14.8237 9.49107L14.9428 9.61932C15.5005 10.285 15.4609 11.2724 14.823 11.8921L14.8237 11.8928L13.3849 13.2912L13.3855 13.2919C12.9644 13.7016 12.4431 13.9956 11.8757 14.1493L11.6296 14.2066L9.59644 14.6024C9.16151 14.6869 8.71435 14.6882 8.27939 14.607L8.09384 14.5672L6.2553 14.1206L6.254 14.12C6.08665 14.0789 5.91423 14.0581 5.74032 14.0581H4.65699C4.65623 14.0695 4.65659 14.0809 4.65569 14.092C4.64635 14.2063 4.62723 14.3362 4.57952 14.4702L4.52157 14.6057C4.39376 14.8565 4.18927 15.0599 3.93824 15.1877L3.93889 15.1883C3.75804 15.2805 3.57821 15.31 3.42587 15.3225C3.28133 15.3343 3.10928 15.3335 2.93368 15.3335H2.39983C2.22424 15.3335 2.05219 15.3343 1.90764 15.3225C1.79347 15.3131 1.66393 15.2939 1.53004 15.2463L1.39462 15.1883C1.17526 15.0765 0.991529 14.9064 0.863372 14.6975L0.81194 14.6057C0.719741 14.4247 0.690276 14.2444 0.677825 14.092C0.666036 13.9474 0.666757 13.7754 0.666757 13.5998V9.73326C0.666757 9.55765 0.666015 9.38564 0.677825 9.24107C0.690283 9.08874 0.719779 8.90893 0.81194 8.72805L0.863372 8.63625C0.99146 8.42744 1.17511 8.25725 1.39462 8.14537L1.53004 8.08742C1.66394 8.03975 1.79345 8.0206 1.90764 8.01125C2.05219 7.99944 2.22424 8.00018 2.39983 8.00018H2.93368ZM7.76246 9.33352C7.56952 9.33352 7.21618 9.42659 6.84189 9.56073C6.67002 9.62233 6.51585 9.68462 6.40439 9.7313C6.34886 9.75456 6.30405 9.7735 6.27418 9.78664C6.25938 9.79315 6.24816 9.79839 6.24098 9.80162C6.23742 9.80321 6.23468 9.80419 6.23316 9.80487L6.23186 9.80552C6.22524 9.80855 6.21839 9.81183 6.21168 9.81464L4.66676 10.4605V12.7248H5.74032C6.02017 12.7248 6.29917 12.7581 6.57171 12.8251H6.57105L8.40894 13.2717L8.52418 13.2964C8.79381 13.3468 9.0714 13.3457 9.34189 13.2932L11.3744 12.898L11.5274 12.8622C11.879 12.7669 12.199 12.5853 12.4552 12.3361L13.894 10.9364L13.9402 10.8817C14.0197 10.7662 14.0201 10.6177 13.9402 10.5015L13.894 10.4468C13.7754 10.3315 13.5896 10.3035 13.4395 10.3752L13.3777 10.4123L11.7013 11.6343L11.7019 11.635C11.346 11.8951 10.9157 12.0334 10.476 12.0334H8.85686C8.4888 12.0333 8.19024 11.7348 8.19019 11.3667C8.19019 11.0215 8.45287 10.7373 8.78915 10.7033L8.85686 10.7001H9.88746C10.1175 10.7001 10.2722 10.5235 10.2722 10.3439V10.1395C10.2722 9.98916 10.1653 9.83929 9.98577 9.79576H9.98512L8.39527 9.40904C8.18801 9.35875 7.97581 9.33354 7.76246 9.33352ZM8.96689 0.945498C10.0073 0.449102 11.0518 0.796474 11.6902 1.53664C12.6118 1.21447 13.6782 1.44277 14.3406 2.37909L14.4115 2.48456C15.0879 3.5478 14.8468 4.8975 13.9122 5.67922L13.8165 5.75539C13.419 6.05653 12.665 6.47967 11.9936 6.83677L11.366 7.1649C11.2325 7.23362 11.0968 7.30398 10.9754 7.35435C10.8439 7.40889 10.6881 7.45822 10.504 7.46438H10.4057C10.2099 7.45593 10.0139 7.40344 9.83993 7.31268L9.7553 7.26386C9.59888 7.16654 9.4884 7.04609 9.40178 6.93313C9.36178 6.88094 9.32138 6.82223 9.28069 6.76125L9.15829 6.57375C8.75515 5.94742 8.16984 5.0133 7.85686 4.37909L7.74098 4.12779C7.22765 2.90981 7.75647 1.52303 8.96624 0.945498H8.96689ZM10.8595 2.68248C10.6085 2.15725 10.1113 1.93652 9.63551 2.10891L9.54111 2.14862C8.967 2.4226 8.73589 3.05509 8.96949 3.60956L9.06454 3.81399C9.32684 4.34088 9.85725 5.1959 10.2794 5.85175L10.3901 6.02167C10.4187 6.06474 10.4402 6.09652 10.4597 6.12193C10.4603 6.12267 10.4611 6.12318 10.4617 6.12388C10.4626 6.1235 10.464 6.12364 10.4649 6.12323C10.5241 6.09869 10.6034 6.05787 10.7559 5.97935L11.3836 5.65123C12.0315 5.3061 12.6978 4.93022 13.0112 4.69289L13.0984 4.61998C13.4836 4.26617 13.5788 3.70811 13.3145 3.24628L13.252 3.14927C12.9189 2.6783 12.3436 2.59793 11.838 2.94485C11.6774 3.05496 11.4766 3.089 11.2885 3.0386C11.1003 2.98816 10.9435 2.85825 10.8595 2.68248ZM2.00009 13.5998C2.00009 13.7975 2.0009 13.9062 2.00725 13.9839C2.00748 13.9866 2.00768 13.9892 2.0079 13.9917C2.01059 13.992 2.01337 13.9928 2.01637 13.993C2.09405 13.9994 2.20231 14.0002 2.39983 14.0002H2.93368C3.1312 14.0002 3.23946 13.9994 3.31715 13.993C3.3199 13.9928 3.32247 13.9919 3.32496 13.9917C3.32519 13.9892 3.32604 13.9867 3.32626 13.9839C3.33261 13.9062 3.33342 13.7975 3.33342 13.5998V9.73326C3.33342 9.53571 3.33261 9.4275 3.32626 9.34979C3.326 9.34656 3.32523 9.34356 3.32496 9.34068C3.32249 9.34045 3.31988 9.34025 3.31715 9.34003C3.23946 9.33368 3.1312 9.33352 2.93368 9.33352H2.39983C2.20231 9.33352 2.09405 9.33368 2.01637 9.34003C2.0134 9.34027 2.01057 9.34043 2.0079 9.34068C2.00764 9.34354 2.00751 9.34658 2.00725 9.34979C2.0009 9.4275 2.00009 9.53571 2.00009 9.73326V13.5998Z" fill="#B6C5E9"/>
</g>
<defs>
<clipPath id="clip0_0_310">
<rect width="16" height="16" fill="white"/>
</clipPath>
</defs>
</svg>
