<svg width="533" height="233" viewBox="0 0 533 233" fill="none" xmlns="http://www.w3.org/2000/svg">
<g filter="url(#filter0_di_40002539_2231)">
<rect x="224.532" y="3.99988" width="110.681" height="84.6127" rx="12" fill="#2450BE"/>
<path d="M308.28 27.9999H307.655C306.036 27.9999 304.723 29.3127 304.723 30.9321C304.723 32.5515 306.036 33.8643 307.655 33.8643H308.28C309.9 33.8643 311.213 32.5515 311.213 30.9321C311.213 29.3127 309.9 27.9999 308.28 27.9999Z" fill="white"/>
<path d="M308.334 61.5025C303.483 62.6328 293.381 64.6191 279.888 64.6125C266.456 64.6059 256.401 62.6306 251.553 61.5025V56.1539C255.829 57.2908 266.014 59.6545 280.008 59.648C293.927 59.6414 304.056 57.293 308.334 56.1539V61.5025Z" fill="white"/>
<path d="M248.532 36.0642V54.1556L254.563 54.16L254.572 46.4893L256.141 49.6586C256.56 50.5079 257.425 51.0456 258.371 51.0522C259.33 51.0588 260.206 50.5167 260.631 49.6564L262.194 46.4959L262.216 54.16H268.243V36.0993L262.462 36.1169L261.029 39.06C259.966 41.2416 256.861 41.2526 255.783 39.0776L254.308 36.0949C252.384 36.0839 250.459 36.073 248.534 36.062L248.532 36.0642Z" fill="white"/>
<path d="M270.488 36.073V54.1601H284.55V50.8438C284.55 50.2117 284.039 49.7003 283.406 49.7003H277.661C277.029 49.7025 276.515 49.1889 276.515 48.5568C276.515 47.9269 277.026 47.4156 277.656 47.4156L280.38 47.3958C281.117 47.3914 281.811 47.0029 282.173 46.3599C282.193 46.3226 282.213 46.2852 282.232 46.2479C282.278 46.158 282.783 45.0935 282.232 43.9851C282.215 43.95 282.197 43.9149 282.177 43.882C281.813 43.2279 281.102 42.8395 280.354 42.8461L277.654 42.8658C277.022 42.8658 276.511 42.3544 276.511 41.7223V41.6762C276.511 41.0442 277.022 40.5328 277.654 40.5328H283.406C284.039 40.5328 284.55 40.0192 284.55 39.3893V36.0972L270.486 36.0752L270.488 36.073Z" fill="white"/>
<path d="M302.24 46.4849C301.636 45.5214 300.728 45.122 300.363 44.9859C300.776 44.6655 301.456 44.1344 301.788 43.2345C302.389 41.595 302.385 39.093 300.835 37.5281C299.185 35.8623 296.944 36.062 296.634 36.0949H286.099V54.1578L296.911 54.16C297.104 54.1644 300.491 54.1842 302.007 51.726C302.72 50.5694 302.764 49.2811 302.771 48.9431C302.786 48.2868 302.806 47.3914 302.24 46.4871V46.4849ZM294.89 50.0405H293.375C292.519 50.0405 291.823 49.3447 291.823 48.4888C291.823 47.6328 292.519 46.9371 293.375 46.9371H294.89C295.745 46.9371 296.441 47.6328 296.441 48.4888C296.441 49.3447 295.745 50.0405 294.89 50.0405ZM296.441 41.7069C296.441 42.5146 295.787 43.1709 294.977 43.1709H293.285C292.477 43.1709 291.821 42.5168 291.821 41.7069C291.821 40.8993 292.475 40.243 293.285 40.243H294.977C295.785 40.243 296.441 40.8971 296.441 41.7069Z" fill="white"/>
<path d="M306.331 35.8579H309.202C310.308 35.8579 311.309 36.76 311.205 37.8617C310.698 43.274 310.444 48.7807 310.143 54.16C308.282 54.16 307.149 54.16 305.288 54.16C304.981 48.6644 304.683 43.3004 304.329 37.8617C304.257 36.7578 305.227 35.8579 306.333 35.8579H306.331Z" fill="white"/>
</g>
<path d="M146.744 196.977C200.469 196.977 170.807 48.6711 224.532 48.6711" stroke="#B6C5E9" stroke-width="2"/>
<path d="M279.872 90.9773C279.872 131.977 279.872 131.977 279.872 172.977" stroke="#B6C5E9" stroke-width="2"/>
<path d="M335.213 48.6711C388.937 48.6711 359.276 196.977 413 196.977" stroke="#B6C5E9" stroke-width="2"/>
<g filter="url(#filter1_d_40002539_2231)">
<rect x="10" y="170.613" width="136.744" height="48" rx="18" fill="#F8FBFF"/>
<rect x="10.5" y="171.113" width="135.744" height="47" rx="17.5" stroke="#DFE6F5"/>
<g clip-path="url(#clip0_40002539_2231)">
<path d="M60.9706 182.663C66.0108 182.655 69.5836 182.65 71.6888 182.647C72.412 182.647 73.1344 182.646 73.8576 182.646C73.9478 182.646 74.0388 182.646 74.1322 182.646C75.5936 182.644 77.0551 182.642 78.5173 182.639C80.0175 182.636 81.5185 182.634 83.0187 182.633C83.9445 182.633 84.8694 182.632 85.7952 182.628C86.4306 182.627 87.0652 182.626 87.7005 182.627C88.0669 182.627 88.4324 182.627 88.7988 182.625C89.1343 182.624 89.4706 182.624 89.806 182.625C89.9271 182.625 90.0482 182.625 90.1684 182.624C91.6465 182.612 92.9426 183.023 94.0234 184.07C94.0827 184.13 94.1421 184.19 94.203 184.252C94.2584 184.305 94.314 184.358 94.37 184.412C95.4967 185.565 95.7966 187.136 95.7982 188.691C95.7982 188.772 95.7982 188.853 95.799 188.937C95.799 189.108 95.799 189.278 95.799 189.448C95.799 189.706 95.8005 189.964 95.8021 190.221C95.8061 191.673 95.7546 192.981 94.9389 194.236C94.8539 194.374 94.793 194.514 94.7561 194.657C94.8297 194.889 94.9397 195.046 95.0829 195.241C95.2435 195.47 95.3456 195.688 95.4484 195.948C95.4793 196.024 95.5094 196.1 95.541 196.178C95.848 197.168 95.8092 198.223 95.8053 199.248C95.8045 199.502 95.8053 199.756 95.8061 200.01C95.8077 201.902 95.5711 203.624 94.1967 205.043C93.2828 205.947 92.05 206.582 90.7524 206.582C90.7009 206.582 90.6495 206.582 90.5957 206.582C90.4224 206.582 90.2491 206.582 90.0759 206.582C89.9508 206.582 89.825 206.582 89.7 206.582C89.355 206.582 89.0108 206.582 88.6659 206.582C88.294 206.582 87.9229 206.582 87.551 206.582C86.9069 206.582 86.2636 206.582 85.6195 206.582C84.689 206.582 83.7577 206.581 82.8272 206.581C81.3167 206.581 79.807 206.581 78.2965 206.579C76.8296 206.579 75.3626 206.578 73.8948 206.578C73.8038 206.578 73.712 206.578 73.6179 206.578C72.9034 206.578 72.1889 206.578 71.4752 206.578C67.9731 206.578 64.4711 206.575 60.969 206.574V182.663H60.9706ZM65.4016 187.032V192.433C68.3688 192.439 71.3367 192.443 74.3039 192.445C74.6544 192.445 75.0049 192.445 75.3555 192.446C75.4251 192.446 75.4947 192.446 75.5667 192.446C76.6958 192.447 77.825 192.449 78.9541 192.451C80.1132 192.453 81.2724 192.454 82.4316 192.455C83.1461 192.455 83.8614 192.456 84.5759 192.458C85.0665 192.46 85.557 192.46 86.0476 192.46C86.3301 192.46 86.6134 192.46 86.8958 192.461C87.2028 192.463 87.5106 192.462 87.8176 192.461C87.9063 192.462 87.9954 192.462 88.0851 192.464C89.0607 192.458 89.8947 192.268 90.6202 191.588C91.1322 191.036 91.383 190.343 91.3688 189.591C91.2968 188.824 90.9375 188.162 90.3781 187.641C89.8456 187.214 89.2379 187.021 88.5614 187.021C88.4783 187.021 88.3952 187.021 88.3098 187.021C88.2196 187.021 88.1286 187.021 88.0352 187.021C87.9387 187.021 87.8411 187.021 87.7425 187.021C87.4742 187.021 87.2068 187.021 86.9386 187.021C86.6498 187.021 86.3602 187.021 86.0713 187.021C85.5705 187.021 85.0696 187.021 84.5696 187.021C83.8456 187.021 83.1216 187.022 82.3976 187.022C81.2234 187.022 80.0484 187.022 78.8742 187.023C77.7332 187.023 76.5922 187.025 75.4512 187.025C75.3811 187.025 75.3101 187.025 75.2384 187.025C74.8855 187.025 74.5326 187.025 74.1797 187.025C71.2529 187.026 68.326 187.027 65.3992 187.029L65.4016 187.032ZM65.4016 196.802V202.203C68.3917 202.209 71.3826 202.213 74.3727 202.215C74.7256 202.215 75.0793 202.215 75.4322 202.216C75.5026 202.216 75.5731 202.216 75.6451 202.216C76.7829 202.217 77.9207 202.219 79.0585 202.221C80.2264 202.223 81.3943 202.224 82.5622 202.225C83.283 202.225 84.003 202.226 84.7239 202.228C85.2184 202.23 85.7121 202.23 86.2067 202.23C86.4915 202.23 86.7764 202.23 87.062 202.231C87.3714 202.233 87.6807 202.232 87.9901 202.231C88.0795 202.231 88.1689 202.233 88.2615 202.234C89.1881 202.228 89.9366 201.998 90.6226 201.358C91.1338 200.805 91.3854 200.114 91.3711 199.361C91.3039 198.642 90.9945 198.012 90.4754 197.515C89.6802 196.858 88.874 196.789 87.8762 196.791C87.7804 196.791 87.6839 196.791 87.585 196.791C87.3191 196.791 87.0533 196.791 86.7874 196.791C86.5002 196.791 86.213 196.791 85.9265 196.791C85.4296 196.791 84.932 196.791 84.435 196.791C83.7166 196.791 82.9973 196.792 82.2789 196.792C81.1126 196.792 79.9463 196.792 78.7808 196.793C77.6477 196.793 76.5154 196.795 75.3824 196.795C75.3127 196.795 75.2423 196.795 75.1711 196.795C74.8206 196.795 74.4701 196.795 74.1203 196.795C71.2141 196.796 68.3086 196.797 65.4024 196.799L65.4016 196.802Z" fill="#EB212E"/>
<path d="M27.7279 182.635C27.8537 182.635 27.9795 182.635 28.1053 182.635C28.4487 182.635 28.7921 182.635 29.1363 182.636C29.5074 182.637 29.8785 182.636 30.2504 182.636C30.8929 182.636 31.5354 182.636 32.1779 182.638C33.1068 182.64 34.0357 182.64 34.9647 182.641C36.472 182.641 37.9793 182.644 39.4867 182.645C40.9505 182.648 42.4143 182.649 43.8781 182.65C43.9683 182.65 44.0585 182.65 44.1519 182.65C44.6044 182.65 45.0578 182.65 45.5104 182.651C49.2665 182.653 53.0217 182.657 56.7778 182.663V187.031C56.4289 187.031 56.0791 187.032 55.7199 187.033C52.5177 187.038 49.3155 187.043 46.1134 187.05C45.694 187.05 45.2738 187.051 44.8545 187.052C44.7711 187.052 44.6867 187.052 44.6013 187.052C43.2483 187.055 41.896 187.057 40.543 187.058C39.1551 187.06 37.7665 187.062 36.3786 187.066C35.5217 187.069 34.6656 187.069 33.8087 187.07C33.2215 187.07 32.6337 187.072 32.0465 187.074C31.7079 187.075 31.3684 187.076 31.0298 187.076C30.7196 187.076 30.4087 187.076 30.0985 187.078C29.9861 187.078 29.8746 187.078 29.7622 187.078C28.8095 187.075 28.0088 187.19 27.265 187.826C26.0869 189.096 26.4405 190.742 26.3947 192.433H52.4267V196.801H26.3931C26.3113 198.452 26.5917 199.983 27.2342 201.394C27.8055 201.923 28.4875 202.132 29.2526 202.133C29.3508 202.133 29.4502 202.134 29.5509 202.135C29.6601 202.135 29.7685 202.135 29.8777 202.135C29.9933 202.135 30.1096 202.135 30.2251 202.136C30.5432 202.137 30.862 202.137 31.1801 202.138C31.5235 202.138 31.8669 202.14 32.2103 202.141C32.8054 202.142 33.4004 202.144 33.9954 202.145C34.8555 202.147 35.7156 202.149 36.5764 202.152C37.9722 202.156 39.368 202.159 40.7637 202.162C42.1199 202.165 43.4753 202.168 44.8315 202.172C44.9154 202.172 44.9985 202.172 45.0847 202.172C45.5041 202.172 45.9235 202.174 46.342 202.175C49.8204 202.184 53.2987 202.192 56.777 202.2V206.569C52.9355 206.576 49.0932 206.582 45.2517 206.585C44.7975 206.585 44.3441 206.586 43.89 206.586C43.7997 206.586 43.7085 206.586 43.6162 206.586C42.154 206.588 40.6925 206.59 39.2303 206.594C37.7301 206.597 36.2291 206.598 34.7289 206.599C33.8031 206.599 32.8781 206.601 31.9524 206.604C31.317 206.605 30.6824 206.606 30.0471 206.605C29.6807 206.605 29.3152 206.605 28.9488 206.607C28.6133 206.609 28.277 206.609 27.9415 206.607C27.8205 206.607 27.6994 206.607 27.5792 206.609C26.1011 206.621 24.805 206.209 23.7242 205.162C23.6649 205.102 23.6055 205.042 23.5446 204.98C23.4892 204.927 23.4335 204.874 23.3776 204.821C23.0303 204.465 22.7937 204.08 22.5706 203.64C22.5444 203.589 22.5191 203.539 22.4922 203.487C22.0475 202.566 22.0064 201.671 22.0096 200.665C22.0096 200.519 22.0088 200.372 22.008 200.226C22.0064 199.832 22.0064 199.436 22.0072 199.041C22.0072 198.711 22.0072 198.38 22.0072 198.049C22.0064 197.268 22.0064 196.488 22.0072 195.706C22.008 194.903 22.0072 194.099 22.0048 193.296C22.0032 192.604 22.0024 191.912 22.0032 191.22C22.0032 190.808 22.0032 190.396 22.0016 189.984C22.0001 189.596 22.0009 189.208 22.0016 188.82C22.0016 188.679 22.0016 188.537 22.0016 188.395C21.9929 186.845 22.3403 185.503 23.4433 184.354C23.5034 184.294 23.5628 184.235 23.6245 184.173C23.6772 184.118 23.7303 184.062 23.7835 184.006C24.138 183.657 24.521 183.42 24.9593 183.196C25.01 183.169 25.0598 183.144 25.112 183.117C25.9658 182.702 26.7911 182.629 27.7279 182.635Z" fill="#EB212E"/>
<path d="M105.565 182.632C105.671 182.632 105.778 182.632 105.884 182.631C106.174 182.629 106.463 182.63 106.753 182.631C107.066 182.631 107.38 182.63 107.693 182.629C108.306 182.628 108.919 182.627 109.532 182.628C110.03 182.628 110.529 182.628 111.028 182.628C111.172 182.628 111.316 182.628 111.46 182.628C111.532 182.628 111.604 182.628 111.677 182.628C113.031 182.626 114.385 182.626 115.738 182.627C116.974 182.627 118.21 182.625 119.446 182.623C120.718 182.62 121.989 182.619 123.261 182.62C123.974 182.62 124.687 182.62 125.4 182.617C126.006 182.616 126.614 182.616 127.221 182.617C127.53 182.617 127.84 182.618 128.149 182.616C130.006 182.607 131.612 182.715 133.026 184.071C133.087 184.132 133.148 184.193 133.212 184.256C133.267 184.309 133.322 184.362 133.379 184.416C133.726 184.772 133.962 185.157 134.186 185.597C134.212 185.648 134.237 185.698 134.264 185.75C134.607 186.463 134.751 187.171 134.743 187.96C134.743 188.04 134.743 188.12 134.743 188.203C134.743 188.469 134.743 188.735 134.741 189.001C134.741 189.193 134.741 189.385 134.741 189.577C134.741 189.988 134.741 190.401 134.739 190.812C134.738 191.407 134.737 192.003 134.736 192.598C134.736 193.564 134.734 194.53 134.732 195.496C134.73 196.434 134.728 197.372 134.728 198.31C134.728 198.368 134.728 198.426 134.728 198.485C134.728 198.776 134.728 199.066 134.727 199.357C134.724 201.763 134.72 204.169 134.715 206.576H130.363V200.063H104.41V206.576H99.9791C99.9736 204.201 99.9696 201.825 99.9672 199.45C99.9672 199.169 99.9672 198.888 99.9664 198.607C99.9664 198.552 99.9664 198.495 99.9664 198.438C99.9657 197.535 99.9633 196.631 99.9617 195.728C99.9593 194.8 99.9585 193.871 99.9577 192.943C99.9577 192.422 99.9569 191.902 99.9554 191.381C99.9538 190.89 99.953 190.398 99.9538 189.907C99.9538 189.728 99.9538 189.548 99.9522 189.369C99.9427 187.451 100.156 185.722 101.497 184.236C102.65 183.135 103.994 182.629 105.566 182.636L105.565 182.632ZM105.019 188.011C103.479 189.947 104.41 194.547 104.41 195.691H130.363C130.692 193.147 130.432 190.525 129.583 187.823C129.026 187.301 128.375 187.023 127.611 187.023C127.537 187.023 127.463 187.023 127.386 187.022C127.306 187.022 127.224 187.022 127.141 187.022C127.058 187.022 126.971 187.022 126.879 187.022C126.59 187.022 126.299 187.021 126.01 187.021C125.802 187.021 125.594 187.021 125.387 187.019C124.822 187.019 124.258 187.018 123.693 187.018C123.34 187.018 122.987 187.018 122.634 187.017C121.657 187.016 120.68 187.015 119.703 187.015C119.64 187.015 119.577 187.015 119.513 187.015C119.451 187.015 119.388 187.015 119.324 187.015C119.197 187.015 119.07 187.015 118.943 187.015C118.88 187.015 118.817 187.015 118.752 187.015C117.732 187.015 116.712 187.013 115.692 187.011C114.643 187.01 113.596 187.008 112.547 187.008C111.959 187.008 111.371 187.008 110.783 187.007C110.282 187.005 109.781 187.005 109.28 187.006C109.025 187.006 108.77 187.006 108.514 187.005C108.237 187.004 107.96 187.005 107.682 187.005C107.602 187.005 107.522 187.003 107.44 187.003C106.486 187.01 105.675 187.301 105.019 188.012L105.019 188.011Z" fill="#EB212E"/>
</g>
</g>
<g filter="url(#filter2_d_40002539_2231)">
<rect x="215.744" y="170.613" width="128.387" height="48" rx="18" fill="#F8FBFF"/>
<rect x="216.244" y="171.113" width="127.387" height="47" rx="17.5" stroke="#DFE6F5"/>
<g clip-path="url(#clip1_40002539_2231)">
<path fill-rule="evenodd" clip-rule="evenodd" d="M253.097 182.613V182.633C256.024 182.796 258.368 183.655 258.994 186.111C259.348 187.5 258.958 188.944 258.466 189.994C257.943 191.107 257.338 191.976 256.616 192.82C255.188 194.491 253.462 195.857 251.553 197.13C249.669 198.385 247.576 199.456 245.372 200.302C244.319 200.708 243.102 201.107 241.773 201.399C240.52 201.673 238.971 201.886 237.604 201.583C236.324 201.298 235.333 200.646 235.144 199.345C234.942 197.945 235.635 196.781 236.262 195.867C237.542 194.005 239.317 192.657 241.325 191.557C243.333 190.457 245.674 189.539 248.745 189.666C246.238 189.94 244.523 190.688 242.849 191.779C241.395 192.729 239.659 194.152 239.128 196.049C238.756 197.378 239.374 198.266 240.287 198.693C241.211 199.122 242.624 199.151 243.804 199.039C246.179 198.814 248.189 197.963 249.822 197.068C252.352 195.679 254.577 193.792 256.083 191.314C256.59 190.478 257.048 189.531 257.263 188.506C257.845 185.715 256.461 184.16 254.476 183.547C252.453 182.92 249.491 183.241 247.421 183.79C243.24 184.9 239.91 186.92 236.95 189.319C235.516 190.481 234.176 191.831 232.965 193.324C231.76 194.812 230.681 196.439 229.977 198.325C229.594 199.347 229.315 200.501 229.47 201.741C229.884 205.058 233.366 206.049 237.278 205.829C242.243 205.547 245.99 203.834 249.397 201.966C246.308 203.883 242.569 205.658 238.194 206.356C233.289 207.14 228.078 206.243 227.744 201.66V200.848C228.08 197.756 229.548 195.487 231.038 193.57C232.629 191.523 234.427 189.914 236.425 188.406C238.425 186.897 240.678 185.604 243.154 184.582C245.664 183.547 248.484 182.77 251.734 182.61H253.097" fill="#EB212E"/>
<path fill-rule="evenodd" clip-rule="evenodd" d="M254.378 188.344C254.135 188.926 253.752 189.547 253.462 190.152C254.238 190.25 255.113 190.25 255.923 190.315C254.914 190.667 253.884 191.001 252.852 191.332C252.51 191.986 252.169 192.641 251.835 193.303C251.509 192.889 251.266 192.395 250.94 191.981C249.936 192.292 248.968 192.638 247.972 192.957C248.784 192.359 249.612 191.779 250.432 191.19C250.184 190.76 249.884 190.382 249.638 189.95C250.218 189.994 250.787 190.015 251.366 190.051C251.555 190.061 251.775 190.121 251.936 190.093C252.101 190.061 252.383 189.795 252.567 189.666C253.178 189.228 253.793 188.763 254.376 188.344" fill="#EB212E"/>
</g>
<path d="M271.627 199.773C270.528 199.773 269.654 199.437 269.003 198.765C268.352 198.082 267.995 197.154 267.931 195.981C267.92 195.842 267.915 195.666 267.915 195.453C267.915 195.229 267.92 195.047 267.931 194.909C267.974 194.151 268.15 193.49 268.459 192.925C268.768 192.349 269.19 191.906 269.723 191.597C270.267 191.287 270.902 191.133 271.627 191.133C272.438 191.133 273.115 191.303 273.659 191.645C274.214 191.986 274.635 192.471 274.923 193.101C275.211 193.73 275.355 194.466 275.355 195.309V195.581C275.355 195.698 275.318 195.789 275.243 195.853C275.179 195.917 275.094 195.949 274.987 195.949H269.451C269.451 195.959 269.451 195.981 269.451 196.013C269.451 196.045 269.451 196.071 269.451 196.093C269.472 196.53 269.568 196.941 269.739 197.325C269.91 197.698 270.155 198.002 270.475 198.237C270.795 198.471 271.179 198.589 271.627 198.589C272.011 198.589 272.331 198.53 272.587 198.413C272.843 198.295 273.051 198.167 273.211 198.029C273.371 197.879 273.478 197.767 273.531 197.693C273.627 197.554 273.702 197.474 273.755 197.453C273.808 197.421 273.894 197.405 274.011 197.405H274.779C274.886 197.405 274.971 197.437 275.035 197.501C275.11 197.554 275.142 197.634 275.131 197.741C275.12 197.901 275.035 198.098 274.875 198.333C274.715 198.557 274.486 198.781 274.187 199.005C273.888 199.229 273.526 199.415 273.099 199.565C272.672 199.703 272.182 199.773 271.627 199.773ZM269.451 194.845H273.835V194.797C273.835 194.317 273.744 193.89 273.563 193.517C273.392 193.143 273.142 192.85 272.811 192.637C272.48 192.413 272.086 192.301 271.627 192.301C271.168 192.301 270.774 192.413 270.443 192.637C270.123 192.85 269.878 193.143 269.707 193.517C269.536 193.89 269.451 194.317 269.451 194.797V194.845ZM277.556 195.485C277.449 195.485 277.359 195.453 277.284 195.389C277.22 195.314 277.188 195.223 277.188 195.117V194.509C277.188 194.402 277.22 194.317 277.284 194.253C277.359 194.178 277.449 194.141 277.556 194.141H282.356C282.463 194.141 282.548 194.178 282.612 194.253C282.687 194.317 282.724 194.402 282.724 194.509V195.117C282.724 195.223 282.687 195.314 282.612 195.389C282.548 195.453 282.463 195.485 282.356 195.485H277.556ZM285.485 199.613C285.367 199.613 285.277 199.581 285.213 199.517C285.149 199.442 285.117 199.351 285.117 199.245V188.797C285.117 188.679 285.149 188.589 285.213 188.525C285.277 188.45 285.367 188.413 285.485 188.413H289.117C290.215 188.413 291.101 188.578 291.773 188.909C292.445 189.239 292.935 189.73 293.245 190.381C293.554 191.021 293.714 191.81 293.725 192.749C293.735 193.229 293.741 193.65 293.741 194.013C293.741 194.375 293.735 194.791 293.725 195.261C293.703 196.242 293.538 197.058 293.229 197.709C292.93 198.349 292.45 198.829 291.789 199.149C291.138 199.458 290.274 199.613 289.197 199.613H285.485ZM286.685 198.253H289.117C289.853 198.253 290.439 198.151 290.877 197.949C291.314 197.746 291.629 197.421 291.821 196.973C292.023 196.525 292.13 195.933 292.141 195.197C292.162 194.877 292.173 194.599 292.173 194.365C292.173 194.119 292.173 193.879 292.173 193.645C292.173 193.399 292.162 193.122 292.141 192.813C292.119 191.778 291.874 191.015 291.405 190.525C290.935 190.023 290.146 189.773 289.037 189.773H286.685V198.253ZM299.252 199.773C298.153 199.773 297.279 199.437 296.628 198.765C295.977 198.082 295.62 197.154 295.556 195.981C295.545 195.842 295.54 195.666 295.54 195.453C295.54 195.229 295.545 195.047 295.556 194.909C295.599 194.151 295.775 193.49 296.084 192.925C296.393 192.349 296.815 191.906 297.348 191.597C297.892 191.287 298.527 191.133 299.252 191.133C300.063 191.133 300.74 191.303 301.284 191.645C301.839 191.986 302.26 192.471 302.548 193.101C302.836 193.73 302.98 194.466 302.98 195.309V195.581C302.98 195.698 302.943 195.789 302.868 195.853C302.804 195.917 302.719 195.949 302.612 195.949H297.076C297.076 195.959 297.076 195.981 297.076 196.013C297.076 196.045 297.076 196.071 297.076 196.093C297.097 196.53 297.193 196.941 297.364 197.325C297.535 197.698 297.78 198.002 298.1 198.237C298.42 198.471 298.804 198.589 299.252 198.589C299.636 198.589 299.956 198.53 300.212 198.413C300.468 198.295 300.676 198.167 300.836 198.029C300.996 197.879 301.103 197.767 301.156 197.693C301.252 197.554 301.327 197.474 301.38 197.453C301.433 197.421 301.519 197.405 301.636 197.405H302.404C302.511 197.405 302.596 197.437 302.66 197.501C302.735 197.554 302.767 197.634 302.756 197.741C302.745 197.901 302.66 198.098 302.5 198.333C302.34 198.557 302.111 198.781 301.812 199.005C301.513 199.229 301.151 199.415 300.724 199.565C300.297 199.703 299.807 199.773 299.252 199.773ZM297.076 194.845H301.46V194.797C301.46 194.317 301.369 193.89 301.188 193.517C301.017 193.143 300.767 192.85 300.436 192.637C300.105 192.413 299.711 192.301 299.252 192.301C298.793 192.301 298.399 192.413 298.068 192.637C297.748 192.85 297.503 193.143 297.332 193.517C297.161 193.89 297.076 194.317 297.076 194.797V194.845ZM307.508 199.613C307.348 199.613 307.22 199.575 307.124 199.501C307.038 199.426 306.969 199.33 306.916 199.213L303.956 191.789C303.934 191.735 303.924 191.682 303.924 191.629C303.924 191.533 303.956 191.453 304.02 191.389C304.084 191.325 304.164 191.293 304.26 191.293H305.028C305.145 191.293 305.236 191.325 305.3 191.389C305.364 191.453 305.401 191.511 305.412 191.565L307.86 197.869L310.292 191.565C310.313 191.511 310.35 191.453 310.404 191.389C310.468 191.325 310.558 191.293 310.676 191.293H311.46C311.545 191.293 311.62 191.325 311.684 191.389C311.758 191.453 311.796 191.533 311.796 191.629C311.796 191.682 311.785 191.735 311.764 191.789L308.788 199.213C308.745 199.33 308.676 199.426 308.58 199.501C308.494 199.575 308.366 199.613 308.196 199.613H307.508ZM313.855 199.613C313.748 199.613 313.658 199.581 313.583 199.517C313.519 199.442 313.487 199.351 313.487 199.245V188.621C313.487 188.514 313.519 188.429 313.583 188.365C313.658 188.29 313.748 188.253 313.855 188.253H314.607C314.724 188.253 314.815 188.29 314.879 188.365C314.943 188.429 314.975 188.514 314.975 188.621V199.245C314.975 199.351 314.943 199.442 314.879 199.517C314.815 199.581 314.724 199.613 314.607 199.613H313.855ZM320.674 199.773C319.575 199.773 318.7 199.437 318.05 198.765C317.399 198.082 317.042 197.154 316.978 195.981C316.967 195.842 316.962 195.666 316.962 195.453C316.962 195.229 316.967 195.047 316.978 194.909C317.02 194.151 317.196 193.49 317.506 192.925C317.815 192.349 318.236 191.906 318.77 191.597C319.314 191.287 319.948 191.133 320.674 191.133C321.484 191.133 322.162 191.303 322.706 191.645C323.26 191.986 323.682 192.471 323.97 193.101C324.258 193.73 324.402 194.466 324.402 195.309V195.581C324.402 195.698 324.364 195.789 324.29 195.853C324.226 195.917 324.14 195.949 324.034 195.949H318.498C318.498 195.959 318.498 195.981 318.498 196.013C318.498 196.045 318.498 196.071 318.498 196.093C318.519 196.53 318.615 196.941 318.786 197.325C318.956 197.698 319.202 198.002 319.522 198.237C319.842 198.471 320.226 198.589 320.674 198.589C321.058 198.589 321.378 198.53 321.634 198.413C321.89 198.295 322.098 198.167 322.258 198.029C322.418 197.879 322.524 197.767 322.578 197.693C322.674 197.554 322.748 197.474 322.802 197.453C322.855 197.421 322.94 197.405 323.058 197.405H323.826C323.932 197.405 324.018 197.437 324.082 197.501C324.156 197.554 324.188 197.634 324.178 197.741C324.167 197.901 324.082 198.098 323.922 198.333C323.762 198.557 323.532 198.781 323.234 199.005C322.935 199.229 322.572 199.415 322.146 199.565C321.719 199.703 321.228 199.773 320.674 199.773ZM318.498 194.845H322.882V194.797C322.882 194.317 322.791 193.89 322.61 193.517C322.439 193.143 322.188 192.85 321.858 192.637C321.527 192.413 321.132 192.301 320.674 192.301C320.215 192.301 319.82 192.413 319.49 192.637C319.17 192.85 318.924 193.143 318.754 193.517C318.583 193.89 318.498 194.317 318.498 194.797V194.845ZM329.516 199.613C328.919 199.613 328.433 199.501 328.06 199.277C327.687 199.042 327.415 198.717 327.244 198.301C327.073 197.874 326.988 197.373 326.988 196.797V192.573H325.74C325.633 192.573 325.543 192.541 325.468 192.477C325.404 192.402 325.372 192.311 325.372 192.205V191.661C325.372 191.554 325.404 191.469 325.468 191.405C325.543 191.33 325.633 191.293 325.74 191.293H326.988V188.621C326.988 188.514 327.02 188.429 327.084 188.365C327.159 188.29 327.249 188.253 327.356 188.253H328.108C328.215 188.253 328.3 188.29 328.364 188.365C328.439 188.429 328.476 188.514 328.476 188.621V191.293H330.46C330.567 191.293 330.652 191.33 330.716 191.405C330.791 191.469 330.828 191.554 330.828 191.661V192.205C330.828 192.311 330.791 192.402 330.716 192.477C330.652 192.541 330.567 192.573 330.46 192.573H328.476V196.685C328.476 197.186 328.561 197.581 328.732 197.869C328.903 198.157 329.207 198.301 329.644 198.301H330.62C330.727 198.301 330.812 198.338 330.876 198.413C330.951 198.477 330.988 198.562 330.988 198.669V199.245C330.988 199.351 330.951 199.442 330.876 199.517C330.812 199.581 330.727 199.613 330.62 199.613H329.516Z" fill="#040308"/>
</g>
<g filter="url(#filter3_d_40002539_2231)">
<rect x="413.131" y="170.613" width="109" height="48" rx="18" fill="#F8FBFF"/>
<rect x="413.631" y="171.113" width="108" height="47" rx="17.5" stroke="#DFE6F5"/>
<g clip-path="url(#clip2_40002539_2231)">
<path d="M445.497 202.957H445.066C444.984 202.957 444.947 202.846 445.012 202.79L445.136 202.684C445.241 202.593 445.372 202.543 445.508 202.543H445.938C446.02 202.543 446.057 202.655 445.993 202.711L445.869 202.818C445.764 202.908 445.633 202.958 445.498 202.958" fill="#DC0811"/>
<path d="M446.058 202.354L445.629 202.384C445.547 202.389 445.503 202.281 445.563 202.221L445.678 202.107C445.777 202.009 445.903 201.95 446.039 201.941L446.468 201.912C446.551 201.906 446.595 202.014 446.534 202.074L446.418 202.188C446.32 202.287 446.192 202.345 446.058 202.355" fill="#DC0811"/>
<path d="M446.577 201.712L446.152 201.773C446.07 201.784 446.018 201.679 446.074 201.615L446.181 201.492C446.273 201.388 446.395 201.32 446.53 201.302L446.955 201.241C447.037 201.23 447.089 201.335 447.033 201.399L446.926 201.522C446.834 201.627 446.712 201.694 446.577 201.713" fill="#DC0811"/>
<path d="M447.049 201.037L446.628 201.125C446.547 201.143 446.489 201.041 446.54 200.974L446.638 200.844C446.722 200.734 446.84 200.658 446.972 200.629L447.392 200.54C447.473 200.522 447.531 200.624 447.48 200.692L447.381 200.822C447.297 200.932 447.179 201.008 447.048 201.037" fill="#DC0811"/>
<path d="M447.473 200.329L447.06 200.447C446.981 200.469 446.915 200.373 446.961 200.302L447.05 200.165C447.126 200.048 447.239 199.965 447.368 199.928L447.781 199.81C447.861 199.787 447.927 199.884 447.881 199.955L447.791 200.092C447.715 200.208 447.603 200.292 447.473 200.329Z" fill="#DC0811"/>
<path d="M447.846 199.594L447.443 199.74C447.366 199.769 447.293 199.676 447.335 199.602L447.414 199.46C447.483 199.339 447.588 199.247 447.715 199.201L448.119 199.054C448.197 199.026 448.269 199.118 448.228 199.192L448.149 199.334C448.081 199.456 447.974 199.547 447.848 199.592" fill="#DC0811"/>
<path d="M448.168 198.834L447.776 199.009C447.701 199.042 447.623 198.956 447.658 198.879L447.727 198.732C447.786 198.605 447.886 198.507 448.01 198.452L448.402 198.277C448.477 198.244 448.557 198.331 448.52 198.407L448.451 198.555C448.391 198.68 448.292 198.779 448.17 198.834" fill="#DC0811"/>
<path d="M448.436 198.055L448.056 198.257C447.983 198.296 447.898 198.214 447.93 198.136L447.989 197.984C448.039 197.854 448.131 197.749 448.251 197.685L448.631 197.483C448.702 197.444 448.788 197.525 448.756 197.604L448.698 197.756C448.647 197.887 448.556 197.992 448.435 198.055" fill="#DC0811"/>
<path d="M448.649 197.258L448.284 197.486C448.215 197.529 448.125 197.454 448.15 197.374L448.198 197.218C448.239 197.085 448.324 196.973 448.438 196.902L448.802 196.675C448.873 196.63 448.962 196.705 448.937 196.787L448.89 196.943C448.849 197.076 448.764 197.187 448.649 197.259" fill="#DC0811"/>
<path d="M448.805 196.449L448.457 196.701C448.391 196.75 448.296 196.681 448.315 196.6L448.353 196.441C448.385 196.305 448.461 196.188 448.571 196.109L448.918 195.856C448.985 195.808 449.079 195.876 449.061 195.959L449.023 196.118C448.992 196.253 448.914 196.37 448.806 196.449" fill="#DC0811"/>
<path d="M448.905 195.63L448.576 195.906C448.513 195.959 448.413 195.897 448.426 195.813L448.452 195.652C448.474 195.515 448.542 195.393 448.646 195.306L448.976 195.03C449.04 194.977 449.139 195.039 449.125 195.123L449.099 195.284C449.077 195.422 449.009 195.543 448.905 195.63Z" fill="#DC0811"/>
<path d="M448.947 194.807L448.638 195.105C448.579 195.163 448.475 195.109 448.483 195.024L448.497 194.862C448.509 194.723 448.569 194.596 448.667 194.502L448.976 194.203C449.035 194.146 449.139 194.201 449.131 194.286L449.117 194.448C449.105 194.586 449.045 194.713 448.948 194.807" fill="#DC0811"/>
<path d="M448.933 193.982L448.645 194.3C448.59 194.362 448.483 194.315 448.485 194.23L448.487 194.067C448.49 193.928 448.541 193.798 448.632 193.696L448.919 193.377C448.975 193.317 449.083 193.363 449.08 193.449L449.077 193.612C449.075 193.751 449.023 193.881 448.934 193.982" fill="#DC0811"/>
<path d="M448.86 193.161L448.595 193.499C448.544 193.565 448.434 193.525 448.43 193.44L448.421 193.277C448.414 193.139 448.456 193.005 448.539 192.898L448.803 192.559C448.854 192.494 448.963 192.534 448.969 192.618L448.977 192.781C448.983 192.92 448.941 193.053 448.859 193.16" fill="#DC0811"/>
<path d="M448.73 192.346L448.489 192.703C448.443 192.771 448.331 192.739 448.32 192.655L448.3 192.493C448.283 192.354 448.315 192.218 448.39 192.107L448.63 191.751C448.677 191.683 448.789 191.714 448.799 191.798L448.819 191.96C448.836 192.098 448.804 192.234 448.729 192.346" fill="#DC0811"/>
<path d="M448.543 191.544L448.329 191.915C448.287 191.987 448.173 191.963 448.157 191.879L448.126 191.719C448.1 191.583 448.123 191.444 448.191 191.327L448.405 190.956C448.446 190.884 448.562 190.908 448.577 190.992L448.608 191.152C448.635 191.288 448.612 191.427 448.544 191.544" fill="#DC0811"/>
<path d="M448.301 190.755L448.112 191.142C448.077 191.215 447.96 191.2 447.939 191.118L447.897 190.96C447.861 190.826 447.874 190.687 447.932 190.564L448.121 190.178C448.156 190.104 448.273 190.121 448.295 190.202L448.337 190.359C448.372 190.494 448.359 190.634 448.301 190.754" fill="#DC0811"/>
<path d="M448.005 189.985L447.844 190.383C447.813 190.46 447.696 190.452 447.669 190.371L447.616 190.217C447.571 190.086 447.574 189.946 447.625 189.82L447.786 189.422C447.817 189.346 447.935 189.354 447.961 189.434L448.014 189.588C448.059 189.721 448.056 189.86 448.005 189.985Z" fill="#DC0811"/>
<path d="M447.656 189.238L447.522 189.647C447.498 189.725 447.38 189.725 447.347 189.647L447.284 189.496C447.23 189.368 447.223 189.228 447.265 189.1L447.398 188.691C447.423 188.613 447.54 188.613 447.573 188.691L447.637 188.841C447.691 188.97 447.698 189.109 447.656 189.237" fill="#DC0811"/>
<path d="M447.254 188.519L447.151 188.936C447.131 189.016 447.014 189.025 446.975 188.949L446.901 188.803C446.839 188.68 446.823 188.541 446.855 188.41L446.959 187.993C446.979 187.913 447.095 187.905 447.134 187.981L447.208 188.126C447.271 188.25 447.287 188.39 447.254 188.52" fill="#DC0811"/>
<path d="M446.804 187.827L446.729 188.251C446.715 188.332 446.599 188.349 446.555 188.276L446.471 188.136C446.401 188.016 446.374 187.879 446.397 187.746L446.471 187.322C446.486 187.241 446.601 187.225 446.645 187.297L446.729 187.437C446.8 187.557 446.826 187.694 446.803 187.827" fill="#DC0811"/>
<path d="M446.307 187.169L446.262 187.596C446.254 187.677 446.139 187.703 446.09 187.632L445.997 187.499C445.918 187.384 445.881 187.248 445.896 187.115L445.941 186.688C445.95 186.606 446.064 186.581 446.112 186.651L446.206 186.785C446.285 186.899 446.32 187.034 446.307 187.169Z" fill="#DC0811"/>
<path d="M445.765 186.547L445.751 186.976C445.748 187.058 445.635 187.091 445.582 187.025L445.481 186.898C445.393 186.79 445.347 186.657 445.353 186.522L445.367 186.093C445.371 186.01 445.483 185.978 445.536 186.044L445.639 186.171C445.726 186.279 445.771 186.413 445.765 186.547Z" fill="#DC0811"/>
<path d="M445.182 185.965L445.197 186.395C445.2 186.478 445.09 186.517 445.032 186.455L444.921 186.335C444.826 186.234 444.772 186.104 444.766 185.969L444.751 185.539C444.749 185.456 444.859 185.417 444.916 185.478L445.027 185.599C445.122 185.701 445.176 185.83 445.18 185.965" fill="#DC0811"/>
<path d="M444.559 185.424L444.604 185.851C444.612 185.933 444.506 185.981 444.445 185.923L444.325 185.811C444.224 185.717 444.161 185.591 444.147 185.456L444.102 185.03C444.093 184.948 444.2 184.901 444.261 184.958L444.381 185.07C444.482 185.165 444.545 185.29 444.559 185.424Z" fill="#DC0811"/>
<path d="M443.9 184.929L443.974 185.353C443.988 185.434 443.884 185.49 443.818 185.436L443.691 185.333C443.583 185.245 443.513 185.125 443.488 184.992L443.414 184.57C443.4 184.488 443.504 184.433 443.569 184.486L443.696 184.589C443.804 184.677 443.874 184.797 443.899 184.929" fill="#DC0811"/>
<path d="M443.207 184.481L443.311 184.897C443.331 184.977 443.232 185.04 443.162 184.991L443.028 184.897C442.915 184.818 442.834 184.702 442.802 184.572L442.698 184.155C442.678 184.075 442.777 184.013 442.847 184.061L442.98 184.155C443.094 184.236 443.174 184.351 443.206 184.482" fill="#DC0811"/>
<path d="M442.485 184.081L442.618 184.49C442.644 184.569 442.549 184.638 442.476 184.594L442.336 184.509C442.217 184.436 442.13 184.328 442.088 184.199L441.956 183.79C441.93 183.712 442.025 183.642 442.097 183.687L442.237 183.772C442.356 183.843 442.444 183.952 442.485 184.08" fill="#DC0811"/>
<path d="M441.737 183.735L441.898 184.133C441.929 184.209 441.839 184.285 441.764 184.247L441.619 184.173C441.495 184.109 441.4 184.006 441.349 183.881L441.188 183.483C441.157 183.407 441.247 183.33 441.322 183.369L441.467 183.444C441.591 183.507 441.685 183.611 441.736 183.736" fill="#DC0811"/>
<path d="M440.966 183.439L441.155 183.825C441.191 183.899 441.107 183.981 441.029 183.948L440.879 183.883C440.751 183.829 440.649 183.733 440.59 183.61L440.402 183.224C440.366 183.151 440.449 183.069 440.527 183.102L440.677 183.167C440.806 183.222 440.908 183.318 440.966 183.439Z" fill="#DC0811"/>
<path d="M440.178 183.199L440.393 183.571C440.434 183.642 440.357 183.73 440.276 183.702L440.122 183.649C439.99 183.604 439.881 183.514 439.814 183.398L439.599 183.026C439.557 182.954 439.636 182.867 439.716 182.895L439.869 182.949C440.001 182.994 440.11 183.082 440.177 183.199" fill="#DC0811"/>
<path d="M439.374 183.014L439.614 183.37C439.661 183.44 439.588 183.532 439.506 183.509L439.349 183.467C439.214 183.431 439.099 183.349 439.025 183.238L438.784 182.882C438.738 182.813 438.809 182.721 438.892 182.743L439.05 182.786C439.183 182.822 439.299 182.902 439.374 183.014Z" fill="#DC0811"/>
<path d="M438.559 182.886L438.824 183.224C438.874 183.29 438.809 183.388 438.726 183.37L438.566 183.339C438.429 183.313 438.309 183.24 438.226 183.133L437.962 182.794C437.912 182.729 437.977 182.632 438.059 182.649L438.219 182.681C438.356 182.707 438.476 182.78 438.559 182.887" fill="#DC0811"/>
<path d="M437.738 182.815L438.025 183.134C438.08 183.196 438.022 183.297 437.937 183.286L437.776 183.266C437.637 183.249 437.513 183.185 437.422 183.084L437.134 182.765C437.08 182.703 437.138 182.603 437.223 182.613L437.385 182.632C437.523 182.649 437.647 182.714 437.738 182.814" fill="#DC0811"/>
<path d="M436.913 182.802L437.223 183.101C437.281 183.158 437.23 183.263 437.145 183.259L436.983 183.249C436.844 183.242 436.715 183.186 436.618 183.093L436.308 182.794C436.249 182.737 436.3 182.631 436.384 182.637L436.548 182.646C436.688 182.653 436.816 182.708 436.913 182.802Z" fill="#DC0811"/>
<path d="M436.089 182.846L436.418 183.123C436.482 183.175 436.438 183.284 436.353 183.285L436.189 183.287C436.05 183.291 435.918 183.244 435.814 183.157L435.485 182.882C435.421 182.829 435.465 182.719 435.55 182.718L435.713 182.716C435.853 182.714 435.984 182.76 436.088 182.846" fill="#DC0811"/>
<path d="M435.271 182.948L435.618 183.199C435.684 183.248 435.649 183.359 435.564 183.367L435.401 183.38C435.262 183.392 435.126 183.355 435.018 183.276L434.671 183.024C434.605 182.975 434.64 182.864 434.725 182.856L434.887 182.843C435.026 182.832 435.161 182.868 435.271 182.948Z" fill="#DC0811"/>
<path d="M434.461 183.105L434.826 183.333C434.896 183.377 434.868 183.49 434.785 183.504L434.624 183.529C434.487 183.551 434.349 183.523 434.234 183.452L433.869 183.225C433.799 183.18 433.827 183.067 433.911 183.054L434.072 183.029C434.21 183.007 434.347 183.035 434.461 183.107" fill="#DC0811"/>
<path d="M433.665 183.319L434.045 183.52C434.116 183.56 434.098 183.674 434.015 183.693L433.856 183.73C433.72 183.76 433.58 183.743 433.462 183.679L433.082 183.478C433.009 183.44 433.03 183.324 433.112 183.306L433.27 183.269C433.406 183.238 433.545 183.255 433.664 183.319" fill="#DC0811"/>
<path d="M432.885 183.589L433.277 183.763C433.352 183.797 433.341 183.913 433.259 183.938L433.103 183.985C432.969 184.025 432.829 184.017 432.706 183.963L432.313 183.789C432.238 183.755 432.249 183.639 432.331 183.614L432.488 183.566C432.621 183.527 432.761 183.534 432.883 183.589" fill="#DC0811"/>
<path d="M432.126 183.912L432.529 184.058C432.607 184.087 432.603 184.204 432.524 184.234L432.372 184.292C432.243 184.342 432.102 184.344 431.975 184.298L431.571 184.151C431.494 184.122 431.497 184.005 431.577 183.976L431.729 183.918C431.858 183.869 431.999 183.866 432.126 183.913" fill="#DC0811"/>
<path d="M431.391 184.286L431.805 184.406C431.884 184.429 431.889 184.546 431.811 184.581L431.664 184.649C431.537 184.708 431.398 184.72 431.269 184.682L430.855 184.563C430.777 184.54 430.772 184.423 430.849 184.388L430.997 184.32C431.122 184.26 431.262 184.249 431.392 184.286" fill="#DC0811"/>
<path d="M430.684 184.712L431.105 184.801C431.185 184.819 431.198 184.935 431.123 184.976L430.981 185.054C430.86 185.121 430.721 185.142 430.588 185.115L430.168 185.025C430.088 185.009 430.075 184.892 430.148 184.851L430.292 184.773C430.413 184.705 430.552 184.685 430.683 184.712" fill="#DC0811"/>
<path d="M430.01 185.186L430.435 185.246C430.517 185.258 430.538 185.373 430.466 185.419L430.328 185.507C430.211 185.583 430.075 185.614 429.941 185.594L429.515 185.535C429.433 185.523 429.413 185.408 429.484 185.362L429.62 185.272C429.738 185.197 429.874 185.166 430.009 185.185" fill="#DC0811"/>
<path d="M429.369 185.706L429.798 185.735C429.881 185.741 429.909 185.855 429.841 185.906L429.71 186.003C429.599 186.087 429.465 186.127 429.33 186.118L428.901 186.088C428.819 186.083 428.79 185.969 428.858 185.919L428.988 185.82C429.099 185.737 429.233 185.697 429.369 185.707" fill="#DC0811"/>
<path d="M428.767 186.268H429.197C429.278 186.268 429.316 186.379 429.251 186.436L429.127 186.543C429.023 186.633 428.891 186.683 428.756 186.683H428.327C428.244 186.683 428.207 186.571 428.272 186.516L428.395 186.409C428.5 186.319 428.631 186.268 428.767 186.268Z" fill="#DC0811"/>
<path d="M428.204 186.872L428.633 186.843C428.715 186.837 428.759 186.945 428.699 187.006L428.583 187.121C428.484 187.219 428.356 187.277 428.223 187.286L427.794 187.316C427.711 187.321 427.667 187.213 427.728 187.152L427.844 187.038C427.942 186.94 428.07 186.881 428.204 186.871" fill="#DC0811"/>
<path d="M427.686 187.513L428.112 187.454C428.193 187.443 428.245 187.547 428.189 187.611L428.082 187.734C427.991 187.838 427.868 187.906 427.734 187.924L427.308 187.985C427.226 187.996 427.175 187.891 427.23 187.826L427.338 187.704C427.429 187.599 427.553 187.531 427.686 187.513Z" fill="#DC0811"/>
<path d="M427.214 188.189L427.634 188.1C427.715 188.083 427.774 188.184 427.723 188.251L427.624 188.381C427.541 188.491 427.423 188.567 427.29 188.595L426.87 188.684C426.79 188.702 426.731 188.6 426.782 188.533L426.881 188.403C426.965 188.292 427.083 188.216 427.215 188.188" fill="#DC0811"/>
<path d="M426.79 188.896L427.203 188.777C427.283 188.755 427.349 188.852 427.302 188.922L427.213 189.059C427.137 189.176 427.025 189.26 426.894 189.297L426.481 189.415C426.403 189.438 426.336 189.341 426.382 189.27L426.471 189.133C426.547 189.017 426.66 188.933 426.789 188.896" fill="#DC0811"/>
<path d="M426.416 189.631L426.819 189.485C426.897 189.456 426.969 189.549 426.927 189.623L426.848 189.765C426.78 189.887 426.674 189.979 426.547 190.023L426.143 190.171C426.066 190.199 425.993 190.107 426.034 190.033L426.115 189.891C426.183 189.769 426.289 189.678 426.416 189.631Z" fill="#DC0811"/>
<path d="M426.095 190.39L426.488 190.216C426.563 190.183 426.641 190.269 426.606 190.346L426.536 190.494C426.478 190.62 426.377 190.718 426.254 190.773L425.861 190.948C425.786 190.981 425.708 190.894 425.744 190.818L425.814 190.67C425.873 190.545 425.973 190.445 426.096 190.39" fill="#DC0811"/>
<path d="M425.827 191.171L426.207 190.969C426.28 190.931 426.365 191.012 426.334 191.09L426.275 191.243C426.224 191.372 426.132 191.477 426.012 191.54L425.633 191.742C425.56 191.781 425.475 191.7 425.507 191.621L425.566 191.469C425.616 191.34 425.709 191.234 425.828 191.17" fill="#DC0811"/>
<path d="M425.614 191.967L425.978 191.739C426.047 191.696 426.138 191.771 426.113 191.851L426.065 192.008C426.023 192.141 425.939 192.252 425.825 192.324L425.46 192.551C425.39 192.596 425.3 192.521 425.325 192.439L425.373 192.283C425.413 192.15 425.499 192.039 425.613 191.967" fill="#DC0811"/>
<path d="M425.458 192.776L425.806 192.524C425.873 192.475 425.968 192.545 425.948 192.626L425.911 192.785C425.879 192.921 425.803 193.038 425.692 193.117L425.345 193.37C425.278 193.418 425.183 193.35 425.203 193.267L425.239 193.108C425.271 192.973 425.348 192.856 425.457 192.776" fill="#DC0811"/>
<path d="M425.357 193.595L425.687 193.319C425.75 193.266 425.85 193.329 425.836 193.412L425.81 193.573C425.789 193.71 425.72 193.832 425.616 193.919L425.287 194.195C425.224 194.247 425.124 194.186 425.138 194.103L425.163 193.942C425.185 193.804 425.253 193.683 425.357 193.596" fill="#DC0811"/>
<path d="M425.315 194.42L425.624 194.121C425.684 194.064 425.787 194.119 425.78 194.203L425.765 194.366C425.753 194.503 425.692 194.63 425.595 194.725L425.286 195.024C425.227 195.081 425.122 195.026 425.131 194.942L425.145 194.78C425.158 194.642 425.217 194.515 425.315 194.422" fill="#DC0811"/>
<path d="M425.331 195.243L425.619 194.925C425.674 194.864 425.781 194.91 425.78 194.995L425.776 195.158C425.774 195.296 425.723 195.427 425.632 195.528L425.344 195.848C425.289 195.909 425.182 195.861 425.184 195.777L425.187 195.614C425.19 195.475 425.24 195.345 425.331 195.244" fill="#DC0811"/>
<path d="M425.403 196.065L425.668 195.726C425.72 195.661 425.829 195.701 425.834 195.786L425.842 195.95C425.849 196.088 425.807 196.222 425.724 196.328L425.46 196.667C425.409 196.732 425.299 196.692 425.294 196.607L425.287 196.444C425.28 196.305 425.322 196.171 425.405 196.065" fill="#DC0811"/>
<path d="M425.534 196.879L425.774 196.522C425.82 196.453 425.933 196.485 425.943 196.57L425.963 196.732C425.979 196.87 425.947 197.005 425.872 197.118L425.632 197.474C425.585 197.542 425.473 197.51 425.463 197.427L425.443 197.265C425.427 197.127 425.459 196.991 425.535 196.879" fill="#DC0811"/>
<path d="M425.72 197.683L425.935 197.31C425.977 197.239 426.092 197.263 426.107 197.346L426.138 197.506C426.163 197.643 426.141 197.781 426.073 197.898L425.859 198.27C425.817 198.342 425.702 198.318 425.687 198.234L425.656 198.074C425.629 197.937 425.653 197.799 425.72 197.683Z" fill="#DC0811"/>
<path d="M425.961 198.47L426.15 198.083C426.186 198.01 426.302 198.026 426.323 198.107L426.365 198.265C426.401 198.399 426.388 198.538 426.329 198.661L426.14 199.047C426.105 199.121 425.988 199.104 425.966 199.022L425.924 198.865C425.889 198.73 425.901 198.59 425.96 198.469" fill="#DC0811"/>
<path d="M426.258 199.24L426.419 198.841C426.45 198.765 426.567 198.772 426.594 198.854L426.647 199.008C426.693 199.14 426.689 199.279 426.639 199.405L426.478 199.803C426.447 199.879 426.33 199.871 426.302 199.791L426.249 199.637C426.205 199.504 426.207 199.365 426.258 199.24Z" fill="#DC0811"/>
<path d="M426.608 199.986L426.741 199.578C426.767 199.499 426.883 199.499 426.917 199.578L426.98 199.729C427.035 199.856 427.041 199.997 426.999 200.125L426.867 200.534C426.842 200.612 426.724 200.612 426.692 200.534L426.629 200.383C426.575 200.255 426.568 200.115 426.609 199.987" fill="#DC0811"/>
<path d="M427.008 200.707L427.111 200.291C427.131 200.21 427.249 200.202 427.287 200.277L427.361 200.423C427.422 200.547 427.439 200.686 427.407 200.818L427.302 201.234C427.282 201.314 427.166 201.323 427.127 201.247L427.053 201.101C426.99 200.978 426.974 200.837 427.006 200.707" fill="#DC0811"/>
<path d="M427.458 201.398L427.533 200.974C427.547 200.893 427.663 200.876 427.707 200.949L427.791 201.089C427.862 201.208 427.888 201.346 427.865 201.478L427.791 201.902C427.776 201.983 427.661 202 427.617 201.927L427.533 201.787C427.462 201.668 427.436 201.53 427.459 201.397" fill="#DC0811"/>
<path d="M427.955 202.056L428 201.629C428.009 201.548 428.123 201.522 428.172 201.592L428.265 201.725C428.345 201.84 428.38 201.975 428.367 202.109L428.321 202.537C428.313 202.618 428.198 202.644 428.149 202.573L428.056 202.439C427.976 202.325 427.941 202.189 427.954 202.055" fill="#DC0811"/>
<path d="M428.498 202.678L428.513 202.248C428.515 202.166 428.628 202.133 428.682 202.199L428.785 202.326C428.872 202.434 428.917 202.567 428.911 202.702L428.897 203.131C428.895 203.214 428.782 203.246 428.728 203.18L428.626 203.053C428.539 202.945 428.493 202.812 428.498 202.678Z" fill="#DC0811"/>
<path d="M429.081 203.261L429.067 202.831C429.064 202.749 429.174 202.709 429.231 202.771L429.342 202.89C429.437 202.991 429.491 203.121 429.496 203.256L429.51 203.685C429.513 203.767 429.403 203.808 429.345 203.745L429.234 203.626C429.139 203.524 429.085 203.395 429.08 203.261" fill="#DC0811"/>
<path d="M429.704 203.801L429.659 203.373C429.65 203.291 429.757 203.243 429.819 203.301L429.938 203.412C430.039 203.507 430.102 203.632 430.117 203.767L430.162 204.195C430.171 204.277 430.064 204.324 430.002 204.267L429.882 204.155C429.78 204.06 429.717 203.935 429.703 203.801" fill="#DC0811"/>
<path d="M430.364 204.296L430.289 203.872C430.274 203.791 430.378 203.735 430.444 203.789L430.571 203.892C430.679 203.98 430.75 204.1 430.773 204.234L430.848 204.657C430.862 204.739 430.758 204.793 430.693 204.74L430.567 204.637C430.46 204.549 430.387 204.43 430.364 204.296Z" fill="#DC0811"/>
<path d="M431.056 204.744L430.953 204.328C430.933 204.248 431.032 204.185 431.101 204.234L431.235 204.328C431.348 204.407 431.429 204.523 431.461 204.654L431.566 205.071C431.585 205.151 431.486 205.213 431.417 205.164L431.283 205.071C431.17 204.99 431.089 204.876 431.057 204.744" fill="#DC0811"/>
<path d="M431.777 205.144L431.644 204.735C431.619 204.656 431.712 204.587 431.785 204.631L431.925 204.715C432.043 204.786 432.131 204.896 432.173 205.024L432.306 205.433C432.331 205.51 432.236 205.579 432.163 205.536L432.024 205.451C431.905 205.38 431.818 205.271 431.776 205.141" fill="#DC0811"/>
<path d="M432.525 205.491L432.364 205.093C432.333 205.017 432.422 204.941 432.498 204.979L432.643 205.053C432.768 205.117 432.862 205.22 432.913 205.345L433.074 205.744C433.106 205.82 433.016 205.896 432.941 205.857L432.795 205.782C432.672 205.719 432.577 205.616 432.526 205.49" fill="#DC0811"/>
<path d="M433.296 205.785L433.107 205.4C433.071 205.326 433.155 205.244 433.233 205.277L433.383 205.342C433.511 205.397 433.613 205.493 433.672 205.615L433.86 206.001C433.896 206.074 433.813 206.156 433.735 206.123L433.585 206.059C433.457 206.004 433.354 205.908 433.296 205.787" fill="#DC0811"/>
<path d="M434.085 206.026L433.87 205.654C433.828 205.583 433.907 205.495 433.987 205.524L434.14 205.577C434.273 205.622 434.381 205.712 434.448 205.829L434.663 206.2C434.705 206.272 434.627 206.359 434.546 206.331L434.393 206.278C434.261 206.233 434.153 206.144 434.085 206.027" fill="#DC0811"/>
<path d="M434.888 206.21L434.648 205.855C434.601 205.785 434.674 205.694 434.756 205.716L434.912 205.759C435.047 205.795 435.162 205.877 435.238 205.988L435.478 206.345C435.524 206.413 435.453 206.506 435.37 206.484L435.212 206.44C435.078 206.404 434.963 206.324 434.888 206.211" fill="#DC0811"/>
<path d="M435.703 206.339L435.439 206.002C435.388 205.936 435.454 205.838 435.537 205.856L435.696 205.888C435.833 205.914 435.953 205.987 436.036 206.094L436.301 206.433C436.351 206.498 436.286 206.595 436.203 206.578L436.043 206.546C435.906 206.52 435.786 206.447 435.703 206.34" fill="#DC0811"/>
<path d="M436.525 206.411L436.237 206.092C436.182 206.03 436.24 205.929 436.324 205.94L436.485 205.96C436.623 205.976 436.747 206.041 436.838 206.142L437.126 206.46C437.18 206.522 437.122 206.623 437.037 206.612L436.875 206.592C436.738 206.574 436.613 206.51 436.522 206.41" fill="#DC0811"/>
<path d="M437.35 206.424L437.041 206.125C436.981 206.068 437.032 205.963 437.118 205.967L437.28 205.977C437.419 205.985 437.548 206.04 437.645 206.133L437.954 206.432C438.013 206.489 437.963 206.594 437.878 206.589L437.715 206.581C437.574 206.573 437.447 206.518 437.35 206.424Z" fill="#DC0811"/>
<path d="M438.173 206.38L437.845 206.103C437.782 206.05 437.825 205.942 437.91 205.941L438.073 205.939C438.212 205.936 438.344 205.983 438.448 206.07L438.778 206.346C438.84 206.399 438.797 206.508 438.711 206.509L438.548 206.511C438.408 206.513 438.277 206.467 438.173 206.381" fill="#DC0811"/>
<path d="M438.992 206.278L438.644 206.026C438.578 205.977 438.614 205.866 438.698 205.858L438.861 205.845C438.999 205.833 439.135 205.869 439.244 205.95L439.592 206.202C439.659 206.251 439.623 206.362 439.538 206.369L439.375 206.383C439.236 206.394 439.102 206.358 438.992 206.278Z" fill="#DC0811"/>
<path d="M439.802 206.121L439.438 205.892C439.367 205.849 439.395 205.736 439.48 205.723L439.641 205.697C439.778 205.676 439.915 205.703 440.03 205.776L440.394 206.003C440.465 206.047 440.436 206.16 440.352 206.174L440.191 206.199C440.053 206.22 439.917 206.192 439.802 206.122" fill="#DC0811"/>
<path d="M440.599 205.906L440.22 205.705C440.147 205.665 440.167 205.551 440.25 205.532L440.409 205.495C440.545 205.465 440.684 205.482 440.803 205.545L441.183 205.747C441.255 205.785 441.236 205.901 441.153 205.92L440.993 205.956C440.857 205.987 440.718 205.971 440.599 205.907" fill="#DC0811"/>
<path d="M441.378 205.637L440.985 205.461C440.91 205.428 440.921 205.311 441.003 205.287L441.159 205.24C441.293 205.2 441.432 205.208 441.555 205.262L441.948 205.436C442.023 205.47 442.012 205.586 441.93 205.611L441.774 205.659C441.64 205.698 441.5 205.691 441.378 205.637Z" fill="#DC0811"/>
<path d="M442.137 205.313L441.734 205.166C441.656 205.138 441.66 205.021 441.738 204.99L441.892 204.932C442.022 204.882 442.162 204.88 442.288 204.928L442.692 205.074C442.769 205.102 442.766 205.22 442.688 205.25L442.534 205.308C442.404 205.358 442.264 205.36 442.137 205.313Z" fill="#DC0811"/>
<path d="M442.872 204.939L442.458 204.819C442.38 204.797 442.375 204.679 442.452 204.644L442.601 204.576C442.727 204.517 442.866 204.506 442.997 204.543L443.41 204.662C443.488 204.685 443.494 204.802 443.417 204.837L443.268 204.905C443.142 204.964 443.002 204.975 442.873 204.939" fill="#DC0811"/>
<path d="M443.578 204.513L443.158 204.424C443.077 204.406 443.064 204.29 443.139 204.248L443.281 204.17C443.402 204.103 443.541 204.082 443.674 204.11L444.094 204.2C444.174 204.217 444.187 204.333 444.113 204.375L443.969 204.453C443.848 204.521 443.709 204.54 443.577 204.513" fill="#DC0811"/>
<path d="M444.254 204.04L443.827 203.979C443.744 203.968 443.724 203.853 443.796 203.807L443.933 203.719C444.05 203.643 444.186 203.612 444.32 203.631L444.745 203.691C444.827 203.703 444.848 203.818 444.776 203.863L444.638 203.953C444.522 204.029 444.385 204.06 444.251 204.041" fill="#DC0811"/>
<path d="M444.893 203.52L444.464 203.491C444.383 203.485 444.353 203.372 444.421 203.321L444.551 203.223C444.662 203.14 444.796 203.099 444.931 203.109L445.36 203.139C445.442 203.144 445.471 203.258 445.403 203.31L445.271 203.408C445.161 203.491 445.027 203.531 444.892 203.522" fill="#DC0811"/>
<path d="M436.118 185.143L436.745 184.692L436.503 183.951L437.126 184.409L437.755 183.949L437.513 184.683L438.145 185.14L437.371 185.137L437.133 185.879L436.897 185.142L436.118 185.143Z" fill="#DC0811"/>
<path d="M432.571 186.253L432.978 185.595L432.471 185.003L433.222 185.187L433.628 184.521L433.684 185.293L434.443 185.473L433.727 185.765L433.79 186.543L433.29 185.953L432.571 186.253Z" fill="#DC0811"/>
<path d="M429.72 188.633L429.843 187.87L429.148 187.519L429.913 187.402L430.033 186.631L430.38 187.321L431.15 187.198L430.601 187.742L430.956 188.436L430.269 188.081L429.72 188.633Z" fill="#DC0811"/>
<path d="M427.995 191.925L427.818 191.173L427.041 191.114L427.703 190.713L427.519 189.956L428.104 190.461L428.768 190.052L428.468 190.764L429.062 191.269L428.292 191.205L427.995 191.925Z" fill="#DC0811"/>
<path d="M427.662 195.626L427.211 194.998L426.47 195.241L426.927 194.618L426.468 193.988L427.202 194.231L427.658 193.599L427.655 194.372L428.397 194.611L427.661 194.847L427.662 195.626Z" fill="#DC0811"/>
<path d="M428.771 199.172L428.114 198.765L427.522 199.274L427.706 198.523L427.04 198.117L427.812 198.06L427.992 197.301L428.284 198.017L429.061 197.954L428.471 198.453L428.771 199.172Z" fill="#DC0811"/>
<path d="M431.152 202.025L430.389 201.9L430.037 202.596L429.92 201.832L429.149 201.712L429.84 201.363L429.716 200.594L430.261 201.144L430.955 200.788L430.6 201.475L431.152 202.025Z" fill="#DC0811"/>
<path d="M434.444 203.749L433.692 203.926L433.632 204.703L433.232 204.042L432.474 204.226L432.979 203.641L432.57 202.977L433.282 203.276L433.787 202.681L433.724 203.452L434.444 203.749Z" fill="#DC0811"/>
<path d="M438.145 204.082L437.517 204.533L437.76 205.274L437.137 204.816L436.507 205.276L436.75 204.542L436.118 204.085L436.891 204.089L437.13 203.347L437.366 204.084L438.145 204.082Z" fill="#DC0811"/>
<path d="M441.691 202.973L441.284 203.631L441.792 204.222L441.041 204.038L440.636 204.704L440.578 203.933L439.82 203.752L440.535 203.46L440.472 202.682L440.972 203.273L441.691 202.973Z" fill="#DC0811"/>
<path d="M444.544 200.592L444.419 201.355L445.115 201.706L444.351 201.824L444.231 202.594L443.882 201.904L443.114 202.027L443.663 201.484L443.307 200.79L443.994 201.144L444.544 200.592Z" fill="#DC0811"/>
<path d="M446.267 197.3L446.445 198.053L447.221 198.112L446.56 198.513L446.745 199.271L446.159 198.765L445.495 199.175L445.794 198.461L445.2 197.956L445.971 198.021L446.267 197.3Z" fill="#DC0811"/>
<path d="M446.6 193.599L447.051 194.227L447.792 193.984L447.335 194.608L447.795 195.237L447.06 194.994L446.604 195.626L446.608 194.853L445.866 194.614L446.603 194.379L446.6 193.599Z" fill="#DC0811"/>
<path d="M445.492 190.053L446.149 190.46L446.74 189.952L446.556 190.703L447.222 191.109L446.451 191.165L446.271 191.924L445.978 191.208L445.201 191.271L445.792 190.772L445.492 190.053Z" fill="#DC0811"/>
<path d="M443.11 187.201L443.873 187.324L444.225 186.63L444.343 187.394L445.113 187.514L444.422 187.862L444.546 188.631L444.002 188.082L443.309 188.437L443.663 187.75L443.11 187.201Z" fill="#DC0811"/>
<path d="M439.818 185.476L440.572 185.3L440.63 184.522L441.031 185.184L441.789 185L441.284 185.586L441.693 186.249L440.98 185.949L440.476 186.544L440.54 185.773L439.818 185.476Z" fill="#DC0811"/>
<path fill-rule="evenodd" clip-rule="evenodd" d="M437.134 188.474C440.525 188.474 443.274 191.223 443.274 194.614C443.274 198.004 440.525 200.754 437.134 200.754C433.744 200.754 430.994 198.004 430.994 194.614C430.994 191.223 433.744 188.474 437.134 188.474ZM437.134 188.652C440.426 188.652 443.095 191.321 443.095 194.612C443.095 197.904 440.426 200.573 437.134 200.573C433.843 200.573 431.174 197.904 431.174 194.612C431.174 191.321 433.843 188.652 437.134 188.652Z" fill="#E3000F"/>
<path fill-rule="evenodd" clip-rule="evenodd" d="M437.134 186.336C441.705 186.336 445.411 190.042 445.411 194.612C445.411 199.183 441.705 202.889 437.134 202.889C432.564 202.889 428.858 199.183 428.858 194.612C428.858 190.042 432.564 186.336 437.134 186.336ZM437.134 186.571C441.576 186.571 445.177 190.172 445.177 194.614C445.177 199.055 441.576 202.656 437.134 202.656C432.693 202.656 429.092 199.055 429.092 194.614C429.092 190.172 432.693 186.571 437.134 186.571Z" fill="#E3000F"/>
<path fill-rule="evenodd" clip-rule="evenodd" d="M439.009 193.952C439.205 193.954 439.317 193.978 439.486 193.977C439.853 193.975 440.083 194.03 440.439 194.03V194.004C440.168 194.004 439.081 193.792 438.375 193.792C437.927 193.792 437.809 193.899 437.475 193.977C437.475 193.558 437.409 193.626 437.572 193.36C437.674 193.193 437.796 193.192 438.074 192.988C438.321 192.806 438.428 192.468 438.428 192.151C438.428 191.97 438.269 191.973 438.269 191.86V191.595H436.019C436.019 192.083 436.027 191.809 435.834 192.098C435.834 192.437 435.961 192.672 436.135 192.909C436.178 192.967 436.182 192.963 436.231 192.998C436.486 193.181 436.53 193.158 436.654 193.29C436.867 193.52 436.813 193.683 436.813 194.004C436.193 193.675 435.448 193.846 434.776 193.872C434.452 193.884 434.121 194.004 433.796 194.004V194.03C434.073 194.03 434.251 193.976 434.511 193.977C434.917 193.98 435.582 193.886 435.97 193.949C436.175 193.982 436.392 194.035 436.55 194.11C436.479 194.206 436.563 194.121 436.457 194.176C435.871 194.484 435.536 195.15 435.697 195.81C435.724 195.918 435.749 195.973 435.786 196.066C435.846 196.219 435.986 196.361 436.074 196.493C435.926 196.493 435.889 196.474 435.782 196.466L434.426 196.62C434.114 196.668 433.799 196.678 433.479 196.678C433.488 196.573 433.499 196.622 433.505 196.519C433.51 196.461 433.501 196.391 433.505 196.333C433.513 196.228 433.525 196.28 433.533 196.175C433.536 196.127 433.531 196.065 433.532 196.015C433.534 195.816 433.587 195.566 433.586 195.355L433.692 194.031C433.598 194.057 433.509 194.145 433.474 194.238C433.438 194.336 433.372 195.659 433.348 195.99C433.34 196.091 433.323 196.057 433.32 196.174C433.318 196.245 433.327 196.311 433.316 196.381C433.299 196.486 433.224 196.863 433.348 196.863C433.7 196.863 434.098 196.868 434.435 196.813L435.36 196.679C436.44 196.554 436.558 196.886 436.866 196.968V197.153C436.718 197.075 436.608 196.98 436.44 196.918C435.61 196.612 434.72 197.021 433.876 197.021L433.108 196.994C433.108 196.784 433.163 196.548 433.161 196.333C433.16 196.176 433.188 196.151 433.189 196.016C433.193 195.532 433.295 194.95 433.288 194.395L433.108 194.56L433.008 195.862C432.971 196.095 433.008 196.277 432.966 196.508L432.924 197.153L433.292 197.182C433.784 197.237 434.316 197.175 434.792 197.089C434.868 197.076 434.95 197.072 435.026 197.058C435.487 196.979 436.019 196.934 436.453 197.118L436.672 197.243C436.752 197.291 436.788 197.322 436.869 197.365V197.55C436.575 197.395 436.373 197.153 435.995 197.153C434.933 197.153 434.447 197.365 433.746 197.365C433.554 197.365 433.467 197.337 433.296 197.339C433.178 197.34 433.153 197.33 433.078 197.318C432.887 197.287 432.765 197.407 432.765 197.154C432.765 196.942 432.805 196.722 432.82 196.518L432.953 194.771C432.866 194.795 432.889 194.793 432.827 194.857C432.705 194.982 432.759 195.006 432.74 195.167L432.662 196.042C432.657 196.1 432.667 196.167 432.661 196.226L432.609 196.756C432.582 197.54 432.409 197.42 432.88 197.493C433.124 197.53 433.374 197.497 433.614 197.527C434.21 197.6 435.024 197.34 435.653 197.34C436.283 197.34 436.358 197.445 436.871 197.79C436.871 198.02 436.898 198.171 436.897 198.372C436.894 198.706 437.219 198.792 437.366 198.575C437.414 198.503 437.401 198.4 437.4 198.291C437.4 197.986 437.341 197.817 437.57 197.667C437.616 197.637 437.627 197.629 437.665 197.603C437.729 197.56 437.782 197.519 437.859 197.48C438.554 197.116 439.591 197.513 440.339 197.523C440.523 197.525 440.476 197.548 440.658 197.525C440.897 197.495 441.147 197.529 441.392 197.491C441.464 197.48 441.473 197.474 441.584 197.471C441.764 197.466 441.694 197.415 441.688 197.259C441.685 197.201 441.693 197.13 441.689 197.073C441.681 196.971 441.664 197.005 441.661 196.889L441.556 195.485C441.552 195.426 441.561 195.357 441.556 195.298C441.549 195.194 441.536 195.246 441.529 195.141C441.524 195.087 441.529 195.012 441.529 194.956C441.506 194.879 441.388 194.789 441.317 194.77C441.326 194.871 441.343 194.857 441.345 194.981C441.345 195.085 441.342 195.109 441.36 195.204L441.477 196.754C441.476 197.085 441.611 197.309 441.372 197.312C440.921 197.319 440.47 197.402 440.01 197.321C439.847 197.292 439.695 197.281 439.545 197.257C439.25 197.211 438.957 197.151 438.619 197.151C438.002 197.151 437.943 197.176 437.428 197.522V197.336C437.622 197.206 437.933 196.992 438.248 196.992C439.211 196.992 439.918 197.204 440.445 197.204L441.184 197.175C441.265 197.166 441.232 197.153 441.345 197.151C441.345 196.967 441.321 196.64 441.297 196.484L441.154 194.563L440.974 194.399L441.012 195.076C441.047 195.264 441.039 195.52 441.053 195.722C441.061 195.828 441.073 195.775 441.081 195.88L441.16 196.991L440.393 197.018C439.481 197.018 438.466 196.53 437.605 197.009C437.528 197.052 437.522 197.076 437.429 197.097V196.938C437.629 196.804 437.944 196.647 438.276 196.647C438.662 196.647 439.006 196.674 439.376 196.738C439.546 196.766 439.687 196.783 439.857 196.813C439.999 196.837 440.158 196.859 440.34 196.859C440.885 196.859 441.006 196.925 440.983 196.75L440.949 196.356C440.944 196.29 440.954 196.21 440.949 196.143C440.941 196.042 440.924 196.076 440.921 195.959L440.822 194.603C440.787 194.381 440.845 194.098 440.578 194.026C440.587 194.131 440.598 194.082 440.605 194.185L440.656 195.033C440.656 195.166 440.684 195.194 440.683 195.349L440.738 196.194C440.747 196.273 440.76 196.245 440.763 196.354L440.789 196.672C440.255 196.672 439.814 196.622 439.291 196.529C439.102 196.496 438.89 196.51 438.709 196.476C438.506 196.439 438.364 196.487 438.142 196.487C438.27 196.295 438.409 196.132 438.483 195.902C438.632 195.442 438.525 194.903 438.215 194.535C438.108 194.409 437.868 194.199 437.692 194.158V194.105C438.175 193.993 438.152 193.896 438.779 193.919C438.895 193.923 438.884 193.945 439.015 193.948M436.231 191.807H438.057V191.966H436.231V191.807ZM436.866 193.078C436.611 193.078 436.355 192.863 436.211 192.674C436.119 192.552 436.059 192.365 436.046 192.204H438.243C438.185 192.324 438.259 192.303 438.147 192.532C438.094 192.638 438.05 192.703 437.972 192.781C437.599 193.151 437.448 193.079 436.867 193.079L436.866 193.078ZM436.893 193.369C436.864 193.315 436.856 193.306 436.84 193.236H437.449C437.427 193.283 437.418 193.322 437.396 193.369H436.893ZM437.052 193.527C437.052 193.434 437.103 193.448 437.21 193.448C437.21 194.141 437.282 194.03 437.052 194.03V193.527ZM435.834 195.407C435.834 195.04 436.029 194.737 436.219 194.547C436.682 194.082 437.499 194.062 437.985 194.553C438.121 194.692 438.152 194.723 438.243 194.904C438.411 195.241 438.429 195.701 438.251 196.025C438.221 196.083 438.217 196.076 438.19 196.122C438.111 196.256 438.119 196.258 437.998 196.38C437.702 196.676 437.274 196.803 436.849 196.721C436.647 196.682 436.564 196.634 436.4 196.535C436.016 196.303 435.834 195.874 435.834 195.407ZM437.025 197.074V196.915H437.237V198.477C436.982 198.537 437.052 198.477 437.052 197.788L437.031 197.238C437.045 197.108 437.025 197.197 437.025 197.074Z" fill="#E3000F"/>
<path fill-rule="evenodd" clip-rule="evenodd" d="M436.84 189.61C436.84 190.214 437.131 189.962 437.131 190.59C437.131 190.754 437.016 190.933 436.939 191.032C436.837 191.163 436.762 191.262 436.762 191.488H437.079C437.172 191.093 437.688 191.179 437.688 190.536C437.688 190.221 437.291 190.007 437.291 189.848C437.291 189.797 437.327 189.762 437.344 189.689C437.224 189.716 437.213 189.727 437.185 189.848C437.1 189.786 436.966 189.603 437.069 189.414C437.113 189.334 437.108 189.379 437.132 189.292C436.987 189.326 436.841 189.437 436.841 189.609" fill="#E3000F"/>
<path fill-rule="evenodd" clip-rule="evenodd" d="M436.708 190.166C436.708 190.372 436.506 190.417 436.321 190.732C436.202 190.935 436.182 191.274 436.284 191.49H436.681C436.681 191.094 436.951 191.004 437.036 190.707C437.082 190.547 437.085 190.4 437.009 190.262C436.926 190.112 436.821 190.081 436.681 190.007C436.69 190.117 436.708 190.067 436.708 190.166ZM436.496 191.013C436.542 190.815 436.659 190.783 436.74 190.675L436.814 190.563C436.785 190.688 436.743 190.729 436.661 190.808C436.558 190.909 436.583 190.914 436.496 191.013Z" fill="#E3000F"/>
<path fill-rule="evenodd" clip-rule="evenodd" d="M437.157 191.49C437.237 191.49 437.316 191.49 437.397 191.49C437.549 191.49 437.517 191.496 437.607 191.436L437.951 191.488C438.129 191.153 438.039 190.639 437.766 190.456C437.766 190.615 437.781 190.692 437.73 190.817C437.664 190.981 437.582 191.064 437.459 191.154C437.36 191.227 437.188 191.37 437.157 191.487M437.607 191.437C437.64 191.314 437.655 191.389 437.785 191.191C437.819 191.138 437.796 191.173 437.819 191.146C437.787 191.283 437.709 191.368 437.607 191.437Z" fill="#E3000F"/>
<path fill-rule="evenodd" clip-rule="evenodd" d="M436.84 201.705C436.84 202.146 437.422 202.073 437.422 201.758C437.422 201.27 436.84 201.359 436.84 201.705Z" fill="#E3000F"/>
<path fill-rule="evenodd" clip-rule="evenodd" d="M437.428 195.499L437.636 195.432L437.637 195.205L437.765 195.391L437.972 195.324L437.847 195.504L437.978 195.687L437.768 195.615L437.636 195.8L437.638 195.571L437.428 195.499Z" fill="#E3000F"/>
<path fill-rule="evenodd" clip-rule="evenodd" d="M437.459 195.862C437.459 195.862 437.455 195.87 437.453 195.874C437.427 195.915 437.396 195.952 437.359 195.989C437.229 196.119 437.072 196.184 436.886 196.184C436.701 196.184 436.547 196.119 436.417 195.99C436.286 195.86 436.221 195.703 436.221 195.52C436.221 195.337 436.285 195.178 436.414 195.048C436.543 194.918 436.7 194.853 436.885 194.853C437.071 194.853 437.229 194.918 437.359 195.048C437.394 195.082 437.422 195.119 437.449 195.156C437.449 195.156 437.449 195.158 437.449 195.159L437.445 195.157C437.44 195.151 437.433 195.144 437.427 195.137C437.323 195.034 437.196 194.982 437.047 194.982C436.899 194.982 436.773 195.034 436.669 195.137C436.565 195.241 436.514 195.368 436.514 195.516C436.514 195.663 436.565 195.79 436.669 195.894C436.773 195.998 436.9 196.05 437.047 196.05C437.195 196.05 437.322 195.999 437.426 195.894C437.434 195.885 437.443 195.875 437.453 195.865L437.458 195.861L437.459 195.862Z" fill="#E3000F"/>
<path fill-rule="evenodd" clip-rule="evenodd" d="M443.606 190.292C443.659 190.292 443.703 190.335 443.703 190.389C443.703 190.443 443.66 190.486 443.606 190.486C443.552 190.486 443.509 190.443 443.509 190.389C443.509 190.335 443.552 190.292 443.606 190.292ZM444.411 191.982C444.464 191.982 444.508 192.025 444.508 192.079C444.508 192.134 444.465 192.177 444.411 192.177C444.357 192.177 444.314 192.134 444.314 192.079C444.314 192.025 444.357 191.982 444.411 191.982ZM438.244 186.865C438.297 186.865 438.341 186.908 438.341 186.962C438.341 187.016 438.298 187.059 438.244 187.059C438.19 187.059 438.147 187.016 438.147 186.962C438.147 186.908 438.19 186.865 438.244 186.865ZM435.656 186.913C435.709 186.913 435.753 186.956 435.753 187.01C435.753 187.064 435.71 187.107 435.656 187.107C435.602 187.107 435.559 187.064 435.559 187.01C435.559 186.956 435.602 186.913 435.656 186.913ZM431.879 188.839C431.932 188.839 431.976 188.882 431.976 188.936C431.976 188.99 431.933 189.033 431.879 189.033C431.825 189.033 431.782 188.99 431.782 188.936C431.782 188.882 431.825 188.839 431.879 188.839ZM430.993 199.227C431.046 199.227 431.09 199.27 431.09 199.324C431.09 199.379 431.047 199.422 430.993 199.422C430.939 199.422 430.896 199.379 430.896 199.324C430.896 199.27 430.939 199.227 430.993 199.227ZM433.563 201.378C433.616 201.378 433.66 201.421 433.66 201.475C433.66 201.529 433.617 201.572 433.563 201.572C433.509 201.572 433.466 201.529 433.466 201.475C433.466 201.421 433.509 201.378 433.563 201.378ZM433.863 201.534C433.915 201.534 433.96 201.577 433.96 201.631C433.96 201.685 433.917 201.728 433.863 201.728C433.809 201.728 433.765 201.685 433.765 201.631C433.765 201.577 433.809 201.534 433.863 201.534ZM439.029 200.788L439.37 201.796L439.618 201.712L439.277 200.704L439.029 200.788ZM440.267 201.81L440.412 201.745C440.393 201.693 440.428 201.66 440.461 201.646C440.496 201.63 440.543 201.626 440.569 201.674L440.714 201.609C440.637 201.451 440.499 201.449 440.394 201.497C440.289 201.544 440.199 201.649 440.267 201.812V201.81ZM439.728 201.036L439.789 201.17L440.169 200.998L440.079 200.8L439.935 200.865L439.929 200.852C439.912 200.815 439.903 200.771 439.919 200.732C439.93 200.698 439.957 200.669 440.008 200.646C440.052 200.626 440.092 200.629 440.121 200.644C440.156 200.663 440.185 200.691 440.264 200.868C440.344 201.046 440.346 201.084 440.337 201.123C440.329 201.154 440.306 201.188 440.262 201.208C440.18 201.244 440.126 201.227 440.073 201.162L439.834 201.27C439.929 201.419 440.108 201.533 440.358 201.42C440.475 201.367 440.54 201.293 440.578 201.193C440.632 201.048 440.577 200.925 440.503 200.76C440.429 200.597 440.373 200.472 440.229 200.418C440.128 200.38 440.029 200.381 439.912 200.434C439.806 200.482 439.724 200.547 439.679 200.67C439.64 200.778 439.656 200.88 439.727 201.037L439.728 201.036ZM440.513 200.115L441.088 201.012L441.308 200.871L440.734 199.974L440.513 200.115ZM440.937 199.835L441.081 200.018L441.433 199.741L441.947 200.395L442.153 200.233L441.495 199.396L440.938 199.834L440.937 199.835ZM441.718 199.18L442.523 199.877L442.694 199.68L442.29 199.329L442.917 199.422L443.067 199.248L442.262 198.551L442.091 198.749L442.496 199.1L441.868 199.007L441.718 199.18ZM442.912 198.261L443.012 198.105L443.199 198.339L442.912 198.26V198.261ZM442.382 198.388L443.487 198.636L443.596 198.467L442.909 197.566L442.762 197.796L442.866 197.926L442.69 198.202L442.53 198.158L442.382 198.388ZM442.96 197.44L443.688 197.323L443.955 197.819L444.072 197.521L443.835 197.097L444.185 197.235L444.28 196.994L443.29 196.604L443.195 196.844L443.505 196.967L443.568 197.088L443.072 197.156L442.96 197.44ZM443.8 196.111L443.842 195.93L444.098 196.087L443.802 196.11L443.8 196.111ZM443.346 196.409L444.471 196.271L444.516 196.075L443.566 195.458L443.504 195.725L443.646 195.812L443.572 196.131L443.407 196.143L443.345 196.41L443.346 196.409ZM444.324 195.028C444.282 195.028 444.238 195.004 444.24 194.932L444.245 194.769L444.418 194.773L444.414 194.937C444.411 195.008 444.366 195.029 444.324 195.028ZM443.91 195.033C443.864 195.032 443.816 195.006 443.818 194.934L443.822 194.758L444.009 194.762L444.004 194.939C444.002 195.011 443.954 195.034 443.91 195.033ZM443.888 195.294C444.038 195.297 444.095 195.211 444.122 195.168C444.144 195.201 444.21 195.287 444.33 195.291C444.514 195.295 444.641 195.18 444.646 194.959L444.657 194.518L443.593 194.491L443.581 194.954C443.577 195.144 443.684 195.288 443.886 195.294H443.888ZM443.556 193.849L444.603 193.662L444.558 193.408L444.054 193.255L444.474 192.937L444.429 192.684L443.381 192.871L443.428 193.129L443.929 193.04L443.697 193.235L443.727 193.399L444.012 193.502L443.51 193.591L443.557 193.849H443.556ZM443.262 192.581L444.27 192.24L444.186 191.992L443.178 192.333L443.262 192.581ZM443.839 191.719L444.046 191.613L443.688 190.914L443.481 191.02L443.6 191.252L442.86 191.632L442.979 191.864L443.719 191.485L443.838 191.718L443.839 191.719ZM442.608 191.191L443.505 190.616L443.364 190.396L442.467 190.97L442.608 191.191ZM443.257 189.696L443.153 189.576C443.108 189.609 443.068 189.585 443.043 189.556C443.019 189.528 443 189.485 443.04 189.445L442.936 189.325C442.806 189.444 442.843 189.577 442.919 189.663C442.994 189.75 443.121 189.807 443.257 189.695V189.696ZM442.669 190.433L442.78 190.336L442.507 190.021L442.341 190.164L442.444 190.283L442.433 190.293C442.402 190.32 442.362 190.34 442.321 190.337C442.285 190.336 442.249 190.318 442.212 190.276C442.182 190.24 442.173 190.2 442.179 190.17C442.187 190.131 442.206 190.096 442.353 189.968C442.499 189.841 442.537 189.829 442.575 189.825C442.607 189.823 442.647 189.837 442.678 189.873C442.736 189.94 442.734 189.998 442.688 190.067L442.86 190.265C442.976 190.132 443.034 189.927 442.854 189.721C442.77 189.624 442.681 189.582 442.573 189.574C442.419 189.563 442.316 189.652 442.18 189.769C442.045 189.887 441.942 189.975 441.931 190.13C441.924 190.238 441.952 190.332 442.036 190.429C442.112 190.517 442.198 190.578 442.329 190.584C442.444 190.592 442.538 190.547 442.668 190.433H442.669ZM441.604 189.945L441.757 189.768L441.407 189.466L441.53 189.325L441.829 189.583L441.981 189.406L441.682 189.148L441.799 189.014L442.149 189.316L442.301 189.14L441.754 188.665L441.057 189.47L441.604 189.945ZM441.254 188.187L441.211 187.854L441.042 187.757L440.733 187.887L440.89 187.977L441.055 187.929L441.095 188.095L441.253 188.186L441.254 188.187ZM440.522 189.114L441.052 188.191L440.825 188.061L440.295 188.984L440.522 189.114ZM440.081 188.861L440.177 188.648L439.77 188.464L440.113 187.706L439.875 187.598L439.436 188.568L440.082 188.861H440.081ZM439.201 188.489L439.265 188.265L438.835 188.143L439.062 187.343L438.811 187.272L438.519 188.296L439.201 188.49V188.489ZM438.213 188.243L438.347 187.187L438.088 187.154L437.954 188.21L438.213 188.243ZM437.645 188.169L437.671 187.105L437.414 187.098L437.163 187.562L436.936 187.086L436.679 187.08L436.652 188.144L436.914 188.15L436.927 187.641L437.072 187.908L437.239 187.912L437.397 187.653L437.384 188.163L437.645 188.169ZM436.017 188.255L435.83 187.208L435.572 187.254L435.759 188.301L436.017 188.255ZM435.249 187.557L435.174 187.337L434.43 187.588L434.505 187.809L434.754 187.725L435.02 188.512L435.269 188.428L435.002 187.641L435.25 187.557H435.249ZM434.567 188.674L434.461 188.467L434.05 188.678L433.965 188.511L434.317 188.331L434.211 188.124L433.859 188.304L433.778 188.145L434.189 187.934L434.083 187.727L433.439 188.057L433.924 189.004L434.568 188.674H434.567ZM433.128 188.234L432.895 188.4L432.981 188.808L432.623 188.593L432.39 188.758L433.018 189.086L433.269 189.438L433.482 189.287L433.231 188.934L433.127 188.234H433.128ZM432.861 189.768L432.127 188.997L431.937 189.178L432.672 189.949L432.861 189.768ZM431.747 189.87C431.789 189.906 431.802 189.972 431.754 190.026L431.657 190.138L431.494 189.996L431.591 189.885C431.638 189.831 431.704 189.833 431.746 189.87H431.747ZM432.502 190.101L432.015 189.984C432.039 189.894 432.029 189.766 431.918 189.671C431.786 189.556 431.577 189.543 431.422 189.722L431.146 190.041L431.951 190.737L432.122 190.54L431.822 190.281L431.88 190.215L432.302 190.332L432.501 190.102L432.502 190.101ZM431.454 190.789L430.855 190.445L430.725 190.672L431.319 191.014C431.405 191.064 431.425 191.141 431.381 191.216C431.338 191.291 431.262 191.31 431.176 191.26L430.583 190.918L430.453 191.145L431.052 191.49C431.253 191.605 431.474 191.524 431.584 191.332C431.695 191.14 431.657 190.906 431.454 190.789ZM431.248 191.938L430.258 191.548L430.162 191.792L430.543 191.942L430.441 192.201L430.059 192.051L429.963 192.295L430.954 192.685L431.049 192.441L430.657 192.287L430.759 192.028L431.152 192.182L431.248 191.938ZM430.866 192.984L429.819 192.796L429.774 193.05L430.194 193.367L429.69 193.521L429.645 193.774L430.692 193.962L430.738 193.704L430.237 193.614L430.522 193.512L430.552 193.347L430.319 193.151L430.821 193.241L430.867 192.983L430.866 192.984ZM430.294 194.265L429.604 194.283L429.61 194.544L430.295 194.526C430.393 194.524 430.452 194.579 430.454 194.666C430.456 194.754 430.401 194.809 430.302 194.811L429.617 194.829L429.624 195.09L430.314 195.072C430.547 195.067 430.692 194.882 430.687 194.661C430.681 194.439 430.527 194.26 430.294 194.265ZM430.362 195.337L430.409 195.599C430.471 195.605 430.529 195.628 430.544 195.713C430.553 195.76 430.54 195.799 430.518 195.822C430.491 195.851 430.457 195.874 430.267 195.908C430.075 195.942 430.035 195.932 430.001 195.915C429.972 195.9 429.947 195.868 429.939 195.821C429.924 195.736 429.971 195.694 430.027 195.667L429.981 195.404C429.757 195.484 429.674 195.662 429.71 195.861C429.733 195.989 429.788 196.07 429.876 196.132C430.003 196.22 430.136 196.196 430.313 196.165C430.489 196.133 430.624 196.11 430.712 195.983C430.774 195.895 430.798 195.799 430.775 195.671C430.74 195.473 430.601 195.334 430.362 195.336V195.337ZM430.989 196.63L430.772 196.716L430.941 197.147L430.767 197.215L430.623 196.848L430.405 196.934L430.55 197.301L430.384 197.366L430.215 196.936L429.997 197.022L430.263 197.696L431.253 197.305L430.988 196.632L430.989 196.63ZM430.418 198.019L430.56 198.267L430.974 198.22L430.726 198.556L430.869 198.804L431.256 198.211L431.632 197.995L431.502 197.767L431.126 197.984L430.419 198.02L430.418 198.019ZM431.923 198.429L431.086 199.087L431.248 199.294L432.085 198.635L431.923 198.429ZM432.205 198.797L432.006 199.506L431.443 199.541L431.664 199.772L432.149 199.735L431.877 199.995L432.055 200.182L432.826 199.448L432.647 199.261L432.406 199.491L432.269 199.498L432.416 199.019L432.205 198.798V198.797ZM432.843 200.369C432.874 200.324 432.94 200.305 432.998 200.347L433.118 200.433L432.994 200.608L432.873 200.522C432.815 200.48 432.812 200.414 432.844 200.369H432.843ZM433.001 199.596L432.932 200.091C432.839 200.077 432.713 200.099 432.63 200.217C432.528 200.359 432.535 200.569 432.728 200.706L433.072 200.951L433.688 200.083L433.475 199.932L433.246 200.255L433.174 200.204L433.251 199.772L433.004 199.596H433.001ZM433.77 200.564L433.455 201.179L433.687 201.298L433.999 200.689C434.044 200.6 434.121 200.576 434.198 200.616C434.275 200.655 434.297 200.73 434.252 200.819L433.94 201.428L434.172 201.548L434.488 200.932C434.594 200.725 434.501 200.509 434.305 200.408C434.107 200.307 433.876 200.357 433.77 200.564ZM434.648 201.484L434.584 201.707L435.339 201.921L435.403 201.698L435.152 201.626L435.379 200.826L435.127 200.755L434.9 201.554L434.649 201.483L434.648 201.484Z" fill="#E3000F"/>
</g>
<path d="M458.891 199.613C458.784 199.613 458.694 199.581 458.619 199.517C458.555 199.442 458.523 199.351 458.523 199.245V188.797C458.523 188.679 458.555 188.589 458.619 188.525C458.694 188.45 458.784 188.413 458.891 188.413H459.691C459.819 188.413 459.915 188.445 459.979 188.509C460.043 188.573 460.08 188.626 460.091 188.669L463.483 195.133L466.891 188.669C466.912 188.626 466.95 188.573 467.003 188.509C467.067 188.445 467.163 188.413 467.291 188.413H468.075C468.192 188.413 468.283 188.45 468.347 188.525C468.422 188.589 468.459 188.679 468.459 188.797V199.245C468.459 199.351 468.422 199.442 468.347 199.517C468.283 199.581 468.192 199.613 468.075 199.613H467.291C467.184 199.613 467.094 199.581 467.019 199.517C466.955 199.442 466.923 199.351 466.923 199.245V191.373L464.251 196.589C464.208 196.695 464.144 196.781 464.059 196.845C463.974 196.898 463.867 196.925 463.739 196.925H463.243C463.104 196.925 462.992 196.898 462.907 196.845C462.832 196.781 462.768 196.695 462.715 196.589L460.043 191.373V199.245C460.043 199.351 460.006 199.442 459.931 199.517C459.867 199.581 459.782 199.613 459.675 199.613H458.891ZM474.33 199.773C473.232 199.773 472.357 199.437 471.706 198.765C471.056 198.082 470.698 197.154 470.634 195.981C470.624 195.842 470.618 195.666 470.618 195.453C470.618 195.229 470.624 195.047 470.634 194.909C470.677 194.151 470.853 193.49 471.162 192.925C471.472 192.349 471.893 191.906 472.426 191.597C472.97 191.287 473.605 191.133 474.33 191.133C475.141 191.133 475.818 191.303 476.362 191.645C476.917 191.986 477.338 192.471 477.626 193.101C477.914 193.73 478.058 194.466 478.058 195.309V195.581C478.058 195.698 478.021 195.789 477.946 195.853C477.882 195.917 477.797 195.949 477.69 195.949H472.154C472.154 195.959 472.154 195.981 472.154 196.013C472.154 196.045 472.154 196.071 472.154 196.093C472.176 196.53 472.272 196.941 472.442 197.325C472.613 197.698 472.858 198.002 473.178 198.237C473.498 198.471 473.882 198.589 474.33 198.589C474.714 198.589 475.034 198.53 475.29 198.413C475.546 198.295 475.754 198.167 475.914 198.029C476.074 197.879 476.181 197.767 476.234 197.693C476.33 197.554 476.405 197.474 476.458 197.453C476.512 197.421 476.597 197.405 476.714 197.405H477.482C477.589 197.405 477.674 197.437 477.738 197.501C477.813 197.554 477.845 197.634 477.834 197.741C477.824 197.901 477.738 198.098 477.578 198.333C477.418 198.557 477.189 198.781 476.89 199.005C476.592 199.229 476.229 199.415 475.802 199.565C475.376 199.703 474.885 199.773 474.33 199.773ZM472.154 194.845H476.538V194.797C476.538 194.317 476.448 193.89 476.266 193.517C476.096 193.143 475.845 192.85 475.514 192.637C475.184 192.413 474.789 192.301 474.33 192.301C473.872 192.301 473.477 192.413 473.146 192.637C472.826 192.85 472.581 193.143 472.41 193.517C472.24 193.89 472.154 194.317 472.154 194.797V194.845ZM484.083 199.773C483.443 199.773 482.91 199.661 482.483 199.437C482.057 199.202 481.715 198.914 481.459 198.573V199.245C481.459 199.351 481.422 199.442 481.347 199.517C481.283 199.581 481.198 199.613 481.091 199.613H480.355C480.249 199.613 480.158 199.581 480.083 199.517C480.019 199.442 479.987 199.351 479.987 199.245V188.621C479.987 188.514 480.019 188.429 480.083 188.365C480.158 188.29 480.249 188.253 480.355 188.253H481.123C481.241 188.253 481.331 188.29 481.395 188.365C481.459 188.429 481.491 188.514 481.491 188.621V192.301C481.758 191.97 482.099 191.693 482.515 191.469C482.942 191.245 483.465 191.133 484.083 191.133C484.681 191.133 485.187 191.239 485.603 191.453C486.03 191.655 486.377 191.938 486.643 192.301C486.921 192.663 487.129 193.074 487.267 193.533C487.406 193.991 487.481 194.471 487.491 194.973C487.502 195.143 487.507 195.303 487.507 195.453C487.507 195.602 487.502 195.762 487.491 195.933C487.481 196.445 487.406 196.93 487.267 197.389C487.129 197.847 486.921 198.258 486.643 198.621C486.377 198.973 486.03 199.255 485.603 199.469C485.187 199.671 484.681 199.773 484.083 199.773ZM483.747 198.477C484.302 198.477 484.734 198.359 485.043 198.125C485.363 197.879 485.593 197.565 485.731 197.181C485.87 196.786 485.95 196.365 485.971 195.917C485.982 195.607 485.982 195.298 485.971 194.989C485.95 194.541 485.87 194.125 485.731 193.741C485.593 193.346 485.363 193.031 485.043 192.797C484.734 192.551 484.302 192.429 483.747 192.429C483.246 192.429 482.83 192.546 482.499 192.781C482.169 193.015 481.918 193.314 481.747 193.677C481.587 194.039 481.502 194.407 481.491 194.781C481.481 194.951 481.475 195.159 481.475 195.405C481.475 195.639 481.481 195.842 481.491 196.013C481.513 196.407 481.598 196.797 481.747 197.181C481.907 197.554 482.147 197.863 482.467 198.109C482.798 198.354 483.225 198.477 483.747 198.477ZM493.599 199.773C492.959 199.773 492.426 199.661 491.999 199.437C491.572 199.202 491.231 198.914 490.975 198.573V199.245C490.975 199.351 490.938 199.442 490.863 199.517C490.799 199.581 490.714 199.613 490.607 199.613H489.871C489.764 199.613 489.674 199.581 489.599 199.517C489.535 199.442 489.503 199.351 489.503 199.245V188.621C489.503 188.514 489.535 188.429 489.599 188.365C489.674 188.29 489.764 188.253 489.871 188.253H490.639C490.756 188.253 490.847 188.29 490.911 188.365C490.975 188.429 491.007 188.514 491.007 188.621V192.301C491.274 191.97 491.615 191.693 492.031 191.469C492.458 191.245 492.98 191.133 493.599 191.133C494.196 191.133 494.703 191.239 495.119 191.453C495.546 191.655 495.892 191.938 496.159 192.301C496.436 192.663 496.644 193.074 496.783 193.533C496.922 193.991 496.996 194.471 497.007 194.973C497.018 195.143 497.023 195.303 497.023 195.453C497.023 195.602 497.018 195.762 497.007 195.933C496.996 196.445 496.922 196.93 496.783 197.389C496.644 197.847 496.436 198.258 496.159 198.621C495.892 198.973 495.546 199.255 495.119 199.469C494.703 199.671 494.196 199.773 493.599 199.773ZM493.263 198.477C493.818 198.477 494.25 198.359 494.559 198.125C494.879 197.879 495.108 197.565 495.247 197.181C495.386 196.786 495.466 196.365 495.487 195.917C495.498 195.607 495.498 195.298 495.487 194.989C495.466 194.541 495.386 194.125 495.247 193.741C495.108 193.346 494.879 193.031 494.559 192.797C494.25 192.551 493.818 192.429 493.263 192.429C492.762 192.429 492.346 192.546 492.015 192.781C491.684 193.015 491.434 193.314 491.263 193.677C491.103 194.039 491.018 194.407 491.007 194.781C490.996 194.951 490.991 195.159 490.991 195.405C490.991 195.639 490.996 195.842 491.007 196.013C491.028 196.407 491.114 196.797 491.263 197.181C491.423 197.554 491.663 197.863 491.983 198.109C492.314 198.354 492.74 198.477 493.263 198.477ZM499.371 199.613C499.264 199.613 499.173 199.581 499.099 199.517C499.035 199.442 499.003 199.351 499.003 199.245V191.661C499.003 191.554 499.035 191.469 499.099 191.405C499.173 191.33 499.264 191.293 499.371 191.293H500.139C500.245 191.293 500.331 191.33 500.395 191.405C500.459 191.469 500.491 191.554 500.491 191.661V199.245C500.491 199.351 500.459 199.442 500.395 199.517C500.331 199.581 500.245 199.613 500.139 199.613H499.371ZM499.243 189.741C499.136 189.741 499.045 189.709 498.971 189.645C498.907 189.57 498.875 189.479 498.875 189.373V188.509C498.875 188.402 498.907 188.317 498.971 188.253C499.045 188.178 499.136 188.141 499.243 188.141H500.251C500.357 188.141 500.443 188.178 500.507 188.253C500.581 188.317 500.619 188.402 500.619 188.509V189.373C500.619 189.479 500.581 189.57 500.507 189.645C500.443 189.709 500.357 189.741 500.251 189.741H499.243ZM505.758 199.773C505.16 199.773 504.648 199.698 504.222 199.549C503.795 199.399 503.448 199.218 503.182 199.005C502.915 198.791 502.712 198.578 502.574 198.365C502.446 198.151 502.376 197.981 502.366 197.853C502.355 197.735 502.392 197.645 502.478 197.581C502.563 197.517 502.648 197.485 502.734 197.485H503.438C503.502 197.485 503.55 197.495 503.582 197.517C503.624 197.527 503.678 197.57 503.742 197.645C503.88 197.794 504.035 197.943 504.206 198.093C504.376 198.242 504.584 198.365 504.83 198.461C505.086 198.557 505.4 198.605 505.774 198.605C506.318 198.605 506.766 198.503 507.118 198.301C507.47 198.087 507.646 197.778 507.646 197.373C507.646 197.106 507.571 196.893 507.422 196.733C507.283 196.573 507.027 196.429 506.654 196.301C506.291 196.173 505.79 196.039 505.15 195.901C504.51 195.751 504.003 195.57 503.63 195.357C503.256 195.133 502.99 194.871 502.83 194.573C502.67 194.263 502.59 193.917 502.59 193.533C502.59 193.138 502.707 192.759 502.942 192.397C503.176 192.023 503.518 191.719 503.966 191.485C504.424 191.25 504.995 191.133 505.678 191.133C506.232 191.133 506.707 191.202 507.102 191.341C507.496 191.479 507.822 191.655 508.078 191.869C508.334 192.071 508.526 192.274 508.654 192.477C508.782 192.679 508.851 192.85 508.862 192.989C508.872 193.095 508.84 193.186 508.766 193.261C508.691 193.325 508.606 193.357 508.51 193.357H507.838C507.763 193.357 507.699 193.341 507.646 193.309C507.603 193.277 507.56 193.239 507.518 193.197C507.411 193.058 507.283 192.919 507.134 192.781C506.995 192.642 506.808 192.53 506.574 192.445C506.35 192.349 506.051 192.301 505.678 192.301C505.144 192.301 504.744 192.413 504.478 192.637C504.211 192.861 504.078 193.143 504.078 193.485C504.078 193.687 504.136 193.869 504.254 194.029C504.371 194.189 504.595 194.333 504.926 194.461C505.256 194.589 505.747 194.727 506.398 194.877C507.102 195.015 507.656 195.202 508.062 195.437C508.467 195.671 508.755 195.943 508.926 196.253C509.096 196.562 509.182 196.919 509.182 197.325C509.182 197.773 509.048 198.183 508.782 198.557C508.526 198.93 508.142 199.229 507.63 199.453C507.128 199.666 506.504 199.773 505.758 199.773Z" fill="#040308"/>
</g>
<defs>
<filter id="filter0_di_40002539_2231" x="220.532" y="-0.00012207" width="118.681" height="92.6127" filterUnits="userSpaceOnUse" color-interpolation-filters="sRGB">
<feFlood flood-opacity="0" result="BackgroundImageFix"/>
<feColorMatrix in="SourceAlpha" type="matrix" values="0 0 0 0 0 0 0 0 0 0 0 0 0 0 0 0 0 0 127 0" result="hardAlpha"/>
<feMorphology radius="4" operator="dilate" in="SourceAlpha" result="effect1_dropShadow_40002539_2231"/>
<feOffset/>
<feComposite in2="hardAlpha" operator="out"/>
<feColorMatrix type="matrix" values="0 0 0 0 0 0 0 0 0 0.2 0 0 0 0 0.701961 0 0 0 0.16 0"/>
<feBlend mode="normal" in2="BackgroundImageFix" result="effect1_dropShadow_40002539_2231"/>
<feBlend mode="normal" in="SourceGraphic" in2="effect1_dropShadow_40002539_2231" result="shape"/>
<feColorMatrix in="SourceAlpha" type="matrix" values="0 0 0 0 0 0 0 0 0 0 0 0 0 0 0 0 0 0 127 0" result="hardAlpha"/>
<feMorphology radius="5" operator="erode" in="SourceAlpha" result="effect2_innerShadow_40002539_2231"/>
<feOffset/>
<feGaussianBlur stdDeviation="12"/>
<feComposite in2="hardAlpha" operator="arithmetic" k2="-1" k3="1"/>
<feColorMatrix type="matrix" values="0 0 0 0 0.713726 0 0 0 0 0.772549 0 0 0 0 0.913725 0 0 0 1 0"/>
<feBlend mode="normal" in2="shape" result="effect2_innerShadow_40002539_2231"/>
</filter>
<filter id="filter1_d_40002539_2231" x="0" y="164.613" width="156.744" height="68" filterUnits="userSpaceOnUse" color-interpolation-filters="sRGB">
<feFlood flood-opacity="0" result="BackgroundImageFix"/>
<feColorMatrix in="SourceAlpha" type="matrix" values="0 0 0 0 0 0 0 0 0 0 0 0 0 0 0 0 0 0 127 0" result="hardAlpha"/>
<feOffset dy="4"/>
<feGaussianBlur stdDeviation="5"/>
<feColorMatrix type="matrix" values="0 0 0 0 0 0 0 0 0 0.2 0 0 0 0 0.701961 0 0 0 0.16 0"/>
<feBlend mode="normal" in2="BackgroundImageFix" result="effect1_dropShadow_40002539_2231"/>
<feBlend mode="normal" in="SourceGraphic" in2="effect1_dropShadow_40002539_2231" result="shape"/>
</filter>
<filter id="filter2_d_40002539_2231" x="205.744" y="164.613" width="148.387" height="68" filterUnits="userSpaceOnUse" color-interpolation-filters="sRGB">
<feFlood flood-opacity="0" result="BackgroundImageFix"/>
<feColorMatrix in="SourceAlpha" type="matrix" values="0 0 0 0 0 0 0 0 0 0 0 0 0 0 0 0 0 0 127 0" result="hardAlpha"/>
<feOffset dy="4"/>
<feGaussianBlur stdDeviation="5"/>
<feColorMatrix type="matrix" values="0 0 0 0 0 0 0 0 0 0.2 0 0 0 0 0.701961 0 0 0 0.16 0"/>
<feBlend mode="normal" in2="BackgroundImageFix" result="effect1_dropShadow_40002539_2231"/>
<feBlend mode="normal" in="SourceGraphic" in2="effect1_dropShadow_40002539_2231" result="shape"/>
</filter>
<filter id="filter3_d_40002539_2231" x="403.131" y="164.613" width="129" height="68" filterUnits="userSpaceOnUse" color-interpolation-filters="sRGB">
<feFlood flood-opacity="0" result="BackgroundImageFix"/>
<feColorMatrix in="SourceAlpha" type="matrix" values="0 0 0 0 0 0 0 0 0 0 0 0 0 0 0 0 0 0 127 0" result="hardAlpha"/>
<feOffset dy="4"/>
<feGaussianBlur stdDeviation="5"/>
<feColorMatrix type="matrix" values="0 0 0 0 0 0 0 0 0 0.2 0 0 0 0 0.701961 0 0 0 0.16 0"/>
<feBlend mode="normal" in2="BackgroundImageFix" result="effect1_dropShadow_40002539_2231"/>
<feBlend mode="normal" in="SourceGraphic" in2="effect1_dropShadow_40002539_2231" result="shape"/>
</filter>
<clipPath id="clip0_40002539_2231">
<rect width="112.744" height="24" fill="white" transform="translate(22 182.613)"/>
</clipPath>
<clipPath id="clip1_40002539_2231">
<rect width="31.3868" height="24" fill="white" transform="translate(227.744 182.613)"/>
</clipPath>
<clipPath id="clip2_40002539_2231">
<rect width="24" height="24" fill="white" transform="translate(425.131 182.613)"/>
</clipPath>
</defs>
</svg>
