<svg width="16" height="16" viewBox="0 0 16 16" fill="none" xmlns="http://www.w3.org/2000/svg">
<g id="Icons">
<path id="Vector (Stroke)" d="M8.86198 3.52865C9.10606 3.28458 9.49206 3.26951 9.75391 3.48308L9.80469 3.52865L13.8047 7.52865C14.065 7.789 14.065 8.21101 13.8047 8.47136L9.80469 12.4714C9.54434 12.7317 9.12233 12.7317 8.86198 12.4714C8.60163 12.211 8.60163 11.789 8.86198 11.5287L11.724 8.66667H2.66667C2.29848 8.66667 2 8.3682 2 8.00001C2 7.63182 2.29848 7.33334 2.66667 7.33334H11.724L8.86198 4.47136L8.81641 4.42058C8.60284 4.15873 8.6179 3.77273 8.86198 3.52865Z" fill="#0033B3"/>
</g>
</svg>
