<svg width="16" height="16" viewBox="0 0 16 16" fill="none" xmlns="http://www.w3.org/2000/svg">
<g id="mail" clip-path="url(#clip0_0_317)">
<path id="Vector (Stroke)" d="M8.00004 4.66621C8.75057 4.66621 9.44287 4.91493 10 5.33353V5.33288C10.0002 4.9648 10.2986 4.66622 10.6667 4.66621C11.0348 4.66621 11.3332 4.9648 11.3334 5.33288V8.66621C11.3334 9.01979 11.4739 9.35952 11.724 9.60957C11.974 9.8595 12.3132 9.99954 12.6667 9.99955C13.0202 9.99955 13.3594 9.85949 13.6094 9.60957C13.8595 9.35952 14 9.01979 14 8.66621V7.99955C13.9999 6.64548 13.5416 5.33109 12.6999 4.27038C11.8581 3.2097 10.682 2.46483 9.36332 2.1571C8.04467 1.84943 6.6605 1.99716 5.43624 2.57572C4.21203 3.15432 3.21927 4.12979 2.61983 5.34395C2.02038 6.55815 1.84975 7.93944 2.1348 9.26322C2.41991 10.587 3.14403 11.7758 4.19014 12.6356L4.38936 12.7925C5.39988 13.5539 6.62776 13.9777 7.89717 13.9995C9.25097 14.0228 10.5728 13.5871 11.6478 12.7639C11.9401 12.54 12.3588 12.5954 12.5827 12.8876C12.8065 13.1798 12.7512 13.5986 12.459 13.8225C11.145 14.8287 9.52857 15.3607 7.87374 15.3322C6.21895 15.3037 4.62241 14.7164 3.34379 13.6656C2.06525 12.6147 1.17994 11.1623 0.831419 9.54447C0.482956 7.92652 0.691898 6.23815 1.42452 4.7541C2.15719 3.27007 3.37023 2.07717 4.86657 1.36999C6.36301 0.662814 8.05491 0.482773 9.66671 0.858922C11.2784 1.23506 12.7154 2.14526 13.7442 3.4416C14.7729 4.73803 15.3332 6.34448 15.3334 7.99955V8.66621C15.3334 9.37344 15.0522 10.0522 14.5521 10.5523C14.0521 11.0522 13.3738 11.3329 12.6667 11.3329C11.9595 11.3329 11.2813 11.0522 10.7813 10.5523C10.6751 10.4461 10.5793 10.3313 10.4935 10.2105C9.88289 10.8987 8.99247 11.3329 8.00004 11.3329C6.15909 11.3329 4.66671 9.84046 4.66671 7.99955C4.66684 6.15871 6.15917 4.66622 8.00004 4.66621ZM6.00004 7.99955C6.00004 9.10409 6.89548 9.99954 8.00004 9.99955C9.10458 9.99955 10 9.10409 10 7.99955C9.99991 6.89508 9.1045 5.99955 8.00004 5.99955C6.89556 5.99955 6.00017 6.89508 6.00004 7.99955Z" fill="#B6C5E9"/>
</g>
<defs>
<clipPath id="clip0_0_317">
<rect width="16" height="16" fill="white"/>
</clipPath>
</defs>
</svg>
