<svg width="1440" height="9229" viewBox="0 0 1440 9229" fill="none" xmlns="http://www.w3.org/2000/svg">
<path d="M0 1015.38C240 1002.05 480 1002.05 720 1015.38C960 1028.72 1200 1028.72 1440 1015.38M0 996.764C240 983.43 480 983.43 720 996.764C960 1010.1 1200 1010.1 1440 996.764M0 978.145C240 964.812 480 964.812 720 978.145C960 991.479 1200 991.479 1440 978.145M0 959.527C240 946.194 480 946.194 720 959.527C960 972.861 1200 972.861 1440 959.527M0 940.909C240 927.576 480 927.576 720 940.909C960 954.242 1200 954.242 1440 940.909M0 922.291C240 908.958 480 908.958 720 922.291C960 935.624 1200 935.624 1440 922.291M0 903.673C240 890.339 480 890.339 720 903.673C960 917.006 1200 917.006 1440 903.673M0 885.055C240 871.721 480 871.721 720 885.055C960 898.388 1200 898.388 1440 885.055M0 866.436C240 853.103 480 853.103 720 866.436C960 879.77 1200 879.77 1440 866.436M0 847.818C240 834.485 480 834.485 720 847.818C960 861.152 1200 861.152 1440 847.818M0 829.2C240 815.867 480 815.867 720 829.2C960 842.533 1200 842.533 1440 829.2M0 810.582C240 797.248 480 797.248 720 810.582C960 823.915 1200 823.915 1440 810.582M0 791.964C240 778.63 480 778.63 720 791.964C960 805.297 1200 805.297 1440 791.964M0 773.345C240 760.012 480 760.012 720 773.345C960 786.679 1200 786.679 1440 773.345M0 754.727C240 741.394 480 741.394 720 754.727C960 768.061 1200 768.061 1440 754.727M0 736.109C240 722.776 480 722.776 720 736.109C960 749.442 1200 749.442 1440 736.109M0 717.491C240 704.158 480 704.158 720 717.491C960 730.824 1200 730.824 1440 717.491M0 698.873C240 685.539 480 685.539 720 698.873C960 712.206 1200 712.206 1440 698.873M0 680.255C240 666.921 480 666.921 720 680.255C960 693.588 1200 693.588 1440 680.255M0 661.636C240 648.303 480 648.303 720 661.636C960 674.97 1200 674.97 1440 661.636M0 643.018C240 629.685 480 629.685 720 643.018C960 656.352 1200 656.352 1440 643.018M0 624.4C240 611.067 480 611.067 720 624.4C960 637.733 1200 637.733 1440 624.4M0 605.782C240 592.448 480 592.448 720 605.782C960 619.115 1200 619.115 1440 605.782M0 587.164C240 573.83 480 573.83 720 587.164C960 600.497 1200 600.497 1440 587.164M0 568.545C240 555.212 480 555.212 720 568.545C960 581.879 1200 581.879 1440 568.545M0 549.927C240 536.594 480 536.594 720 549.927C960 563.261 1200 563.261 1440 549.927M0 531.309C240 517.976 480 517.976 720 531.309C960 544.642 1200 544.642 1440 531.309M0 512.691C240 499.358 480 499.358 720 512.691C960 526.024 1200 526.024 1440 512.691M0 494.073C240 480.739 480 480.739 720 494.073C960 507.406 1200 507.406 1440 494.073M0 475.455C240 462.121 480 462.121 720 475.455C960 488.788 1200 488.788 1440 475.455M0 456.836C240 443.503 480 443.503 720 456.836C960 470.17 1200 470.17 1440 456.836M0 438.218C240 424.885 480 424.885 720 438.218C960 451.552 1200 451.552 1440 438.218M0 419.6C240 406.267 480 406.267 720 419.6C960 432.933 1200 432.933 1440 419.6M0 400.982C240 387.648 480 387.648 720 400.982C960 414.315 1200 414.315 1440 400.982M0 382.364C240 369.03 480 369.03 720 382.364C960 395.697 1200 395.697 1440 382.364M0 363.745C240 350.412 480 350.412 720 363.745C960 377.079 1200 377.079 1440 363.745M0 345.127C240 331.794 480 331.794 720 345.127C960 358.461 1200 358.461 1440 345.127M0 326.509C240 313.176 480 313.176 720 326.509C960 339.842 1200 339.842 1440 326.509M0 307.891C240 294.558 480 294.558 720 307.891C960 321.224 1200 321.224 1440 307.891M0 289.273C240 275.939 480 275.939 720 289.273C960 302.606 1200 302.606 1440 289.273M0 270.655C240 257.321 480 257.321 720 270.655C960 283.988 1200 283.988 1440 270.655M0 252.036C240 238.703 480 238.703 720 252.036C960 265.37 1200 265.37 1440 252.036M0 233.418C240 220.085 480 220.085 720 233.418C960 246.752 1200 246.752 1440 233.418M0 214.8C240 201.467 480 201.467 720 214.8C960 228.133 1200 228.133 1440 214.8M0 196.182C240 182.848 480 182.848 720 196.182C960 209.515 1200 209.515 1440 196.182M0 177.564C240 164.23 480 164.23 720 177.564C960 190.897 1200 190.897 1440 177.564M0 158.945C240 145.612 480 145.612 720 158.945C960 172.279 1200 172.279 1440 158.945M0 140.327C240 126.994 480 126.994 720 140.327C960 153.661 1200 153.661 1440 140.327M0 121.709C240 108.376 480 108.376 720 121.709C960 135.042 1200 135.042 1440 121.709M0 103.091C240 89.7576 480 89.7576 720 103.091C960 116.424 1200 116.424 1440 103.091M0 84.4727C240 71.1394 480 71.1394 720 84.4727C960 97.8061 1200 97.8061 1440 84.4727M0 65.8546C240 52.5212 480 52.5212 720 65.8546C960 79.1879 1200 79.1879 1440 65.8546M0 47.2364C240 33.9031 480 33.9031 720 47.2364C960 60.5697 1200 60.5697 1440 47.2364M0 28.6182C240 15.2849 480 15.2849 720 28.6182C960 41.9516 1200 41.9516 1440 28.6182M0 10C240 -3.33333 480 -3.33333 720 10C960 23.3333 1200 23.3333 1440 10" stroke="url(#paint0_linear_40003111_8933)"/>
<path d="M0 1035.38C240 1048.72 480 1048.72 720 1035.38C960 1022.05 1200 1022.05 1440 1035.38M0 1054C240 1067.33 480 1067.33 720 1054C960 1040.67 1200 1040.67 1440 1054M0 1072.62C240 1085.95 480 1085.95 720 1072.62C960 1059.28 1200 1059.28 1440 1072.62M0 1091.24C240 1104.57 480 1104.57 720 1091.24C960 1077.9 1200 1077.9 1440 1091.24M0 1109.85C240 1123.19 480 1123.19 720 1109.85C960 1096.52 1200 1096.52 1440 1109.85M0 1128.47C240 1141.81 480 1141.81 720 1128.47C960 1115.14 1200 1115.14 1440 1128.47M0 1147.09C240 1160.42 480 1160.42 720 1147.09C960 1133.76 1200 1133.76 1440 1147.09M0 1165.71C240 1179.04 480 1179.04 720 1165.71C960 1152.38 1200 1152.38 1440 1165.71M0 1184.33C240 1197.66 480 1197.66 720 1184.33C960 1170.99 1200 1170.99 1440 1184.33M0 1202.95C240 1216.28 480 1216.28 720 1202.95C960 1189.61 1200 1189.61 1440 1202.95M0 1221.56C240 1234.9 480 1234.9 720 1221.56C960 1208.23 1200 1208.23 1440 1221.56M0 1240.18C240 1253.52 480 1253.52 720 1240.18C960 1226.85 1200 1226.85 1440 1240.18M0 1258.8C240 1272.13 480 1272.13 720 1258.8C960 1245.47 1200 1245.47 1440 1258.8M0 1277.42C240 1290.75 480 1290.75 720 1277.42C960 1264.08 1200 1264.08 1440 1277.42M0 1296.04C240 1309.37 480 1309.37 720 1296.04C960 1282.7 1200 1282.7 1440 1296.04M0 1314.65C240 1327.99 480 1327.99 720 1314.65C960 1301.32 1200 1301.32 1440 1314.65M0 1333.27C240 1346.61 480 1346.61 720 1333.27C960 1319.94 1200 1319.94 1440 1333.27M0 1351.89C240 1365.22 480 1365.22 720 1351.89C960 1338.56 1200 1338.56 1440 1351.89M0 1370.51C240 1383.84 480 1383.84 720 1370.51C960 1357.18 1200 1357.18 1440 1370.51M0 1389.13C240 1402.46 480 1402.46 720 1389.13C960 1375.79 1200 1375.79 1440 1389.13M0 1407.75C240 1421.08 480 1421.08 720 1407.75C960 1394.41 1200 1394.41 1440 1407.75M0 1426.36C240 1439.7 480 1439.7 720 1426.36C960 1413.03 1200 1413.03 1440 1426.36M0 1444.98C240 1458.32 480 1458.32 720 1444.98C960 1431.65 1200 1431.65 1440 1444.98M0 1463.6C240 1476.93 480 1476.93 720 1463.6C960 1450.27 1200 1450.27 1440 1463.6M0 1482.22C240 1495.55 480 1495.55 720 1482.22C960 1468.88 1200 1468.88 1440 1482.22M0 1500.84C240 1514.17 480 1514.17 720 1500.84C960 1487.5 1200 1487.5 1440 1500.84M0 1519.45C240 1532.79 480 1532.79 720 1519.45C960 1506.12 1200 1506.12 1440 1519.45M0 1538.07C240 1551.41 480 1551.41 720 1538.07C960 1524.74 1200 1524.74 1440 1538.07M0 1556.69C240 1570.02 480 1570.02 720 1556.69C960 1543.36 1200 1543.36 1440 1556.69M0 1575.31C240 1588.64 480 1588.64 720 1575.31C960 1561.98 1200 1561.98 1440 1575.31M0 1593.93C240 1607.26 480 1607.26 720 1593.93C960 1580.59 1200 1580.59 1440 1593.93M0 1612.55C240 1625.88 480 1625.88 720 1612.55C960 1599.21 1200 1599.21 1440 1612.55M0 1631.16C240 1644.5 480 1644.5 720 1631.16C960 1617.83 1200 1617.83 1440 1631.16M0 1649.78C240 1663.12 480 1663.12 720 1649.78C960 1636.45 1200 1636.45 1440 1649.78M0 1668.4C240 1681.73 480 1681.73 720 1668.4C960 1655.07 1200 1655.07 1440 1668.4M0 1687.02C240 1700.35 480 1700.35 720 1687.02C960 1673.68 1200 1673.68 1440 1687.02M0 1705.64C240 1718.97 480 1718.97 720 1705.64C960 1692.3 1200 1692.3 1440 1705.64M0 1724.25C240 1737.59 480 1737.59 720 1724.25C960 1710.92 1200 1710.92 1440 1724.25M0 1742.87C240 1756.21 480 1756.21 720 1742.87C960 1729.54 1200 1729.54 1440 1742.87M0 1761.49C240 1774.82 480 1774.82 720 1761.49C960 1748.16 1200 1748.16 1440 1761.49M0 1780.11C240 1793.44 480 1793.44 720 1780.11C960 1766.78 1200 1766.78 1440 1780.11M0 1798.73C240 1812.06 480 1812.06 720 1798.73C960 1785.39 1200 1785.39 1440 1798.73M0 1817.35C240 1830.68 480 1830.68 720 1817.35C960 1804.01 1200 1804.01 1440 1817.35M0 1835.96C240 1849.3 480 1849.3 720 1835.96C960 1822.63 1200 1822.63 1440 1835.96M0 1854.58C240 1867.92 480 1867.92 720 1854.58C960 1841.25 1200 1841.25 1440 1854.58M0 1873.2C240 1886.53 480 1886.53 720 1873.2C960 1859.87 1200 1859.87 1440 1873.2M0 1891.82C240 1905.15 480 1905.15 720 1891.82C960 1878.48 1200 1878.48 1440 1891.82M0 1910.44C240 1923.77 480 1923.77 720 1910.44C960 1897.1 1200 1897.1 1440 1910.44M0 1929.05C240 1942.39 480 1942.39 720 1929.05C960 1915.72 1200 1915.72 1440 1929.05M0 1947.67C240 1961.01 480 1961.01 720 1947.67C960 1934.34 1200 1934.34 1440 1947.67M0 1966.29C240 1979.62 480 1979.62 720 1966.29C960 1952.96 1200 1952.96 1440 1966.29M0 1984.91C240 1998.24 480 1998.24 720 1984.91C960 1971.58 1200 1971.58 1440 1984.91M0 2003.53C240 2016.86 480 2016.86 720 2003.53C960 1990.19 1200 1990.19 1440 2003.53M0 2022.15C240 2035.48 480 2035.48 720 2022.15C960 2008.81 1200 2008.81 1440 2022.15M0 2040.76C240 2054.1 480 2054.1 720 2040.76C960 2027.43 1200 2027.43 1440 2040.76" stroke="url(#paint1_linear_40003111_8933)"/>
<path d="M0 2060.76C240 2074.1 480 2074.1 720 2060.76C960 2047.43 1200 2047.43 1440 2060.76M0 2079.38C240 2092.72 480 2092.72 720 2079.38C960 2066.05 1200 2066.05 1440 2079.38M0 2098C240 2111.33 480 2111.33 720 2098C960 2084.67 1200 2084.67 1440 2098M0 2116.62C240 2129.95 480 2129.95 720 2116.62C960 2103.28 1200 2103.28 1440 2116.62M0 2135.24C240 2148.57 480 2148.57 720 2135.24C960 2121.9 1200 2121.9 1440 2135.24M0 2153.85C240 2167.19 480 2167.19 720 2153.85C960 2140.52 1200 2140.52 1440 2153.85M0 2172.47C240 2185.81 480 2185.81 720 2172.47C960 2159.14 1200 2159.14 1440 2172.47M0 2191.09C240 2204.42 480 2204.42 720 2191.09C960 2177.76 1200 2177.76 1440 2191.09M0 2209.71C240 2223.04 480 2223.04 720 2209.71C960 2196.38 1200 2196.38 1440 2209.71M0 2228.33C240 2241.66 480 2241.66 720 2228.33C960 2214.99 1200 2214.99 1440 2228.33M0 2246.95C240 2260.28 480 2260.28 720 2246.95C960 2233.61 1200 2233.61 1440 2246.95M0 2265.56C240 2278.9 480 2278.9 720 2265.56C960 2252.23 1200 2252.23 1440 2265.56M0 2284.18C240 2297.52 480 2297.52 720 2284.18C960 2270.85 1200 2270.85 1440 2284.18M0 2302.8C240 2316.13 480 2316.13 720 2302.8C960 2289.47 1200 2289.47 1440 2302.8M0 2321.42C240 2334.75 480 2334.75 720 2321.42C960 2308.08 1200 2308.08 1440 2321.42M0 2340.04C240 2353.37 480 2353.37 720 2340.04C960 2326.7 1200 2326.7 1440 2340.04M0 2358.65C240 2371.99 480 2371.99 720 2358.65C960 2345.32 1200 2345.32 1440 2358.65M0 2377.27C240 2390.61 480 2390.61 720 2377.27C960 2363.94 1200 2363.94 1440 2377.27M0 2395.89C240 2409.22 480 2409.22 720 2395.89C960 2382.56 1200 2382.56 1440 2395.89M0 2414.51C240 2427.84 480 2427.84 720 2414.51C960 2401.18 1200 2401.18 1440 2414.51M0 2433.13C240 2446.46 480 2446.46 720 2433.13C960 2419.79 1200 2419.79 1440 2433.13M0 2451.75C240 2465.08 480 2465.08 720 2451.75C960 2438.41 1200 2438.41 1440 2451.75M0 2470.36C240 2483.7 480 2483.7 720 2470.36C960 2457.03 1200 2457.03 1440 2470.36M0 2488.98C240 2502.32 480 2502.32 720 2488.98C960 2475.65 1200 2475.65 1440 2488.98M0 2507.6C240 2520.93 480 2520.93 720 2507.6C960 2494.27 1200 2494.27 1440 2507.6M0 2526.22C240 2539.55 480 2539.55 720 2526.22C960 2512.88 1200 2512.88 1440 2526.22M0 2544.84C240 2558.17 480 2558.17 720 2544.84C960 2531.5 1200 2531.5 1440 2544.84M0 2563.45C240 2576.79 480 2576.79 720 2563.45C960 2550.12 1200 2550.12 1440 2563.45M0 2582.07C240 2595.41 480 2595.41 720 2582.07C960 2568.74 1200 2568.74 1440 2582.07M0 2600.69C240 2614.02 480 2614.02 720 2600.69C960 2587.36 1200 2587.36 1440 2600.69M0 2619.31C240 2632.64 480 2632.64 720 2619.31C960 2605.98 1200 2605.98 1440 2619.31M0 2637.93C240 2651.26 480 2651.26 720 2637.93C960 2624.59 1200 2624.59 1440 2637.93M0 2656.55C240 2669.88 480 2669.88 720 2656.55C960 2643.21 1200 2643.21 1440 2656.55M0 2675.16C240 2688.5 480 2688.5 720 2675.16C960 2661.83 1200 2661.83 1440 2675.16M0 2693.78C240 2707.12 480 2707.12 720 2693.78C960 2680.45 1200 2680.45 1440 2693.78M0 2712.4C240 2725.73 480 2725.73 720 2712.4C960 2699.07 1200 2699.07 1440 2712.4M0 2731.02C240 2744.35 480 2744.35 720 2731.02C960 2717.68 1200 2717.68 1440 2731.02M0 2749.64C240 2762.97 480 2762.97 720 2749.64C960 2736.3 1200 2736.3 1440 2749.64M0 2768.25C240 2781.59 480 2781.59 720 2768.25C960 2754.92 1200 2754.92 1440 2768.25M0 2786.87C240 2800.21 480 2800.21 720 2786.87C960 2773.54 1200 2773.54 1440 2786.87M0 2805.49C240 2818.82 480 2818.82 720 2805.49C960 2792.16 1200 2792.16 1440 2805.49M0 2824.11C240 2837.44 480 2837.44 720 2824.11C960 2810.78 1200 2810.78 1440 2824.11M0 2842.73C240 2856.06 480 2856.06 720 2842.73C960 2829.39 1200 2829.39 1440 2842.73M0 2861.35C240 2874.68 480 2874.68 720 2861.35C960 2848.01 1200 2848.01 1440 2861.35M0 2879.96C240 2893.3 480 2893.3 720 2879.96C960 2866.63 1200 2866.63 1440 2879.96M0 2898.58C240 2911.92 480 2911.92 720 2898.58C960 2885.25 1200 2885.25 1440 2898.58M0 2917.2C240 2930.53 480 2930.53 720 2917.2C960 2903.87 1200 2903.87 1440 2917.2M0 2935.82C240 2949.15 480 2949.15 720 2935.82C960 2922.48 1200 2922.48 1440 2935.82M0 2954.44C240 2967.77 480 2967.77 720 2954.44C960 2941.1 1200 2941.1 1440 2954.44M0 2973.05C240 2986.39 480 2986.39 720 2973.05C960 2959.72 1200 2959.72 1440 2973.05M0 2991.67C240 3005.01 480 3005.01 720 2991.67C960 2978.34 1200 2978.34 1440 2991.67M0 3010.29C240 3023.62 480 3023.62 720 3010.29C960 2996.96 1200 2996.96 1440 3010.29M0 3028.91C240 3042.24 480 3042.24 720 3028.91C960 3015.58 1200 3015.58 1440 3028.91M0 3047.53C240 3060.86 480 3060.86 720 3047.53C960 3034.19 1200 3034.19 1440 3047.53M0 3066.15C240 3079.48 480 3079.48 720 3066.15C960 3052.81 1200 3052.81 1440 3066.15" stroke="url(#paint2_linear_40003111_8933)"/>
<path d="M0 3086.15C240 3099.48 480 3099.48 720 3086.15C960 3072.81 1200 3072.81 1440 3086.15M0 3104.76C240 3118.1 480 3118.1 720 3104.76C960 3091.43 1200 3091.43 1440 3104.76M0 3123.38C240 3136.72 480 3136.72 720 3123.38C960 3110.05 1200 3110.05 1440 3123.38M0 3142C240 3155.33 480 3155.33 720 3142C960 3128.67 1200 3128.67 1440 3142M0 3160.62C240 3173.95 480 3173.95 720 3160.62C960 3147.28 1200 3147.28 1440 3160.62M0 3179.24C240 3192.57 480 3192.57 720 3179.24C960 3165.9 1200 3165.9 1440 3179.24M0 3197.85C240 3211.19 480 3211.19 720 3197.85C960 3184.52 1200 3184.52 1440 3197.85M0 3216.47C240 3229.81 480 3229.81 720 3216.47C960 3203.14 1200 3203.14 1440 3216.47M0 3235.09C240 3248.42 480 3248.42 720 3235.09C960 3221.76 1200 3221.76 1440 3235.09M0 3253.71C240 3267.04 480 3267.04 720 3253.71C960 3240.38 1200 3240.38 1440 3253.71M0 3272.33C240 3285.66 480 3285.66 720 3272.33C960 3258.99 1200 3258.99 1440 3272.33M0 3290.95C240 3304.28 480 3304.28 720 3290.95C960 3277.61 1200 3277.61 1440 3290.95M0 3309.56C240 3322.9 480 3322.9 720 3309.56C960 3296.23 1200 3296.23 1440 3309.56M0 3328.18C240 3341.52 480 3341.52 720 3328.18C960 3314.85 1200 3314.85 1440 3328.18M0 3346.8C240 3360.13 480 3360.13 720 3346.8C960 3333.47 1200 3333.47 1440 3346.8M0 3365.42C240 3378.75 480 3378.75 720 3365.42C960 3352.08 1200 3352.08 1440 3365.42M0 3384.04C240 3397.37 480 3397.37 720 3384.04C960 3370.7 1200 3370.7 1440 3384.04M0 3402.65C240 3415.99 480 3415.99 720 3402.65C960 3389.32 1200 3389.32 1440 3402.65M0 3421.27C240 3434.61 480 3434.61 720 3421.27C960 3407.94 1200 3407.94 1440 3421.27M0 3439.89C240 3453.22 480 3453.22 720 3439.89C960 3426.56 1200 3426.56 1440 3439.89M0 3458.51C240 3471.84 480 3471.84 720 3458.51C960 3445.18 1200 3445.18 1440 3458.51M0 3477.13C240 3490.46 480 3490.46 720 3477.13C960 3463.79 1200 3463.79 1440 3477.13M0 3495.75C240 3509.08 480 3509.08 720 3495.75C960 3482.41 1200 3482.41 1440 3495.75M0 3514.36C240 3527.7 480 3527.7 720 3514.36C960 3501.03 1200 3501.03 1440 3514.36M0 3532.98C240 3546.32 480 3546.32 720 3532.98C960 3519.65 1200 3519.65 1440 3532.98M0 3551.6C240 3564.93 480 3564.93 720 3551.6C960 3538.27 1200 3538.27 1440 3551.6M0 3570.22C240 3583.55 480 3583.55 720 3570.22C960 3556.88 1200 3556.88 1440 3570.22M0 3588.84C240 3602.17 480 3602.17 720 3588.84C960 3575.5 1200 3575.5 1440 3588.84M0 3607.45C240 3620.79 480 3620.79 720 3607.45C960 3594.12 1200 3594.12 1440 3607.45M0 3626.07C240 3639.41 480 3639.41 720 3626.07C960 3612.74 1200 3612.74 1440 3626.07M0 3644.69C240 3658.02 480 3658.02 720 3644.69C960 3631.36 1200 3631.36 1440 3644.69M0 3663.31C240 3676.64 480 3676.64 720 3663.31C960 3649.98 1200 3649.98 1440 3663.31M0 3681.93C240 3695.26 480 3695.26 720 3681.93C960 3668.59 1200 3668.59 1440 3681.93M0 3700.55C240 3713.88 480 3713.88 720 3700.55C960 3687.21 1200 3687.21 1440 3700.55M0 3719.16C240 3732.5 480 3732.5 720 3719.16C960 3705.83 1200 3705.83 1440 3719.16M0 3737.78C240 3751.12 480 3751.12 720 3737.78C960 3724.45 1200 3724.45 1440 3737.78M0 3756.4C240 3769.73 480 3769.73 720 3756.4C960 3743.07 1200 3743.07 1440 3756.4M0 3775.02C240 3788.35 480 3788.35 720 3775.02C960 3761.68 1200 3761.68 1440 3775.02M0 3793.64C240 3806.97 480 3806.97 720 3793.64C960 3780.3 1200 3780.3 1440 3793.64M0 3812.25C240 3825.59 480 3825.59 720 3812.25C960 3798.92 1200 3798.92 1440 3812.25M0 3830.87C240 3844.21 480 3844.21 720 3830.87C960 3817.54 1200 3817.54 1440 3830.87M0 3849.49C240 3862.82 480 3862.82 720 3849.49C960 3836.16 1200 3836.16 1440 3849.49M0 3868.11C240 3881.44 480 3881.44 720 3868.11C960 3854.78 1200 3854.78 1440 3868.11M0 3886.73C240 3900.06 480 3900.06 720 3886.73C960 3873.39 1200 3873.39 1440 3886.73M0 3905.35C240 3918.68 480 3918.68 720 3905.35C960 3892.01 1200 3892.01 1440 3905.35M0 3923.96C240 3937.3 480 3937.3 720 3923.96C960 3910.63 1200 3910.63 1440 3923.96M0 3942.58C240 3955.92 480 3955.92 720 3942.58C960 3929.25 1200 3929.25 1440 3942.58M0 3961.2C240 3974.53 480 3974.53 720 3961.2C960 3947.87 1200 3947.87 1440 3961.2M0 3979.82C240 3993.15 480 3993.15 720 3979.82C960 3966.48 1200 3966.48 1440 3979.82M0 3998.44C240 4011.77 480 4011.77 720 3998.44C960 3985.1 1200 3985.1 1440 3998.44M0 4017.05C240 4030.39 480 4030.39 720 4017.05C960 4003.72 1200 4003.72 1440 4017.05M0 4035.67C240 4049.01 480 4049.01 720 4035.67C960 4022.34 1200 4022.34 1440 4035.67M0 4054.29C240 4067.62 480 4067.62 720 4054.29C960 4040.96 1200 4040.96 1440 4054.29M0 4072.91C240 4086.24 480 4086.24 720 4072.91C960 4059.58 1200 4059.58 1440 4072.91M0 4091.53C240 4104.86 480 4104.86 720 4091.53C960 4078.19 1200 4078.19 1440 4091.53" stroke="url(#paint3_linear_40003111_8933)"/>
<path d="M0 7167.67C240 7154.34 480 7154.34 720 7167.67C960 7181.01 1200 7181.01 1440 7167.67M0 7149.05C240 7135.72 480 7135.72 720 7149.05C960 7162.39 1200 7162.39 1440 7149.05M0 7130.44C240 7117.1 480 7117.1 720 7130.44C960 7143.77 1200 7143.77 1440 7130.44M0 7111.82C240 7098.48 480 7098.48 720 7111.82C960 7125.15 1200 7125.15 1440 7111.82M0 7093.2C240 7079.87 480 7079.87 720 7093.2C960 7106.53 1200 7106.53 1440 7093.2M0 7074.58C240 7061.25 480 7061.25 720 7074.58C960 7087.92 1200 7087.92 1440 7074.58M0 7055.96C240 7042.63 480 7042.63 720 7055.96C960 7069.3 1200 7069.3 1440 7055.96M0 7037.35C240 7024.01 480 7024.01 720 7037.35C960 7050.68 1200 7050.68 1440 7037.35M0 7018.73C240 7005.39 480 7005.39 720 7018.73C960 7032.06 1200 7032.06 1440 7018.73M0 7000.11C240 6986.78 480 6986.78 720 7000.11C960 7013.44 1200 7013.44 1440 7000.11M0 6981.49C240 6968.16 480 6968.16 720 6981.49C960 6994.82 1200 6994.82 1440 6981.49M0 6962.87C240 6949.54 480 6949.54 720 6962.87C960 6976.21 1200 6976.21 1440 6962.87M0 6944.25C240 6930.92 480 6930.92 720 6944.25C960 6957.59 1200 6957.59 1440 6944.25M0 6925.64C240 6912.3 480 6912.3 720 6925.64C960 6938.97 1200 6938.97 1440 6925.64M0 6907.02C240 6893.68 480 6893.68 720 6907.02C960 6920.35 1200 6920.35 1440 6907.02M0 6888.4C240 6875.07 480 6875.07 720 6888.4C960 6901.73 1200 6901.73 1440 6888.4M0 6869.78C240 6856.45 480 6856.45 720 6869.78C960 6883.12 1200 6883.12 1440 6869.78M0 6851.16C240 6837.83 480 6837.83 720 6851.16C960 6864.5 1200 6864.5 1440 6851.16M0 6832.55C240 6819.21 480 6819.21 720 6832.55C960 6845.88 1200 6845.88 1440 6832.55M0 6813.93C240 6800.59 480 6800.59 720 6813.93C960 6827.26 1200 6827.26 1440 6813.93M0 6795.31C240 6781.98 480 6781.98 720 6795.31C960 6808.64 1200 6808.64 1440 6795.31M0 6776.69C240 6763.36 480 6763.36 720 6776.69C960 6790.02 1200 6790.02 1440 6776.69M0 6758.07C240 6744.74 480 6744.74 720 6758.07C960 6771.41 1200 6771.41 1440 6758.07M0 6739.45C240 6726.12 480 6726.12 720 6739.45C960 6752.79 1200 6752.79 1440 6739.45M0 6720.84C240 6707.5 480 6707.5 720 6720.84C960 6734.17 1200 6734.17 1440 6720.84M0 6702.22C240 6688.88 480 6688.88 720 6702.22C960 6715.55 1200 6715.55 1440 6702.22M0 6683.6C240 6670.27 480 6670.27 720 6683.6C960 6696.93 1200 6696.93 1440 6683.6M0 6664.98C240 6651.65 480 6651.65 720 6664.98C960 6678.32 1200 6678.32 1440 6664.98M0 6646.36C240 6633.03 480 6633.03 720 6646.36C960 6659.7 1200 6659.7 1440 6646.36M0 6627.75C240 6614.41 480 6614.41 720 6627.75C960 6641.08 1200 6641.08 1440 6627.75M0 6609.13C240 6595.79 480 6595.79 720 6609.13C960 6622.46 1200 6622.46 1440 6609.13M0 6590.51C240 6577.18 480 6577.18 720 6590.51C960 6603.84 1200 6603.84 1440 6590.51M0 6571.89C240 6558.56 480 6558.56 720 6571.89C960 6585.22 1200 6585.22 1440 6571.89M0 6553.27C240 6539.94 480 6539.94 720 6553.27C960 6566.61 1200 6566.61 1440 6553.27M0 6534.65C240 6521.32 480 6521.32 720 6534.65C960 6547.99 1200 6547.99 1440 6534.65M0 6516.04C240 6502.7 480 6502.7 720 6516.04C960 6529.37 1200 6529.37 1440 6516.04M0 6497.42C240 6484.09 480 6484.09 720 6497.42C960 6510.75 1200 6510.75 1440 6497.42M0 6478.8C240 6465.47 480 6465.47 720 6478.8C960 6492.13 1200 6492.13 1440 6478.8M0 6460.18C240 6446.85 480 6446.85 720 6460.18C960 6473.52 1200 6473.52 1440 6460.18M0 6441.56C240 6428.23 480 6428.23 720 6441.56C960 6454.9 1200 6454.9 1440 6441.56M0 6422.95C240 6409.61 480 6409.61 720 6422.95C960 6436.28 1200 6436.28 1440 6422.95M0 6404.33C240 6390.99 480 6390.99 720 6404.33C960 6417.66 1200 6417.66 1440 6404.33M0 6385.71C240 6372.38 480 6372.38 720 6385.71C960 6399.04 1200 6399.04 1440 6385.71M0 6367.09C240 6353.76 480 6353.76 720 6367.09C960 6380.42 1200 6380.42 1440 6367.09M0 6348.47C240 6335.14 480 6335.14 720 6348.47C960 6361.81 1200 6361.81 1440 6348.47M0 6329.85C240 6316.52 480 6316.52 720 6329.85C960 6343.19 1200 6343.19 1440 6329.85M0 6311.24C240 6297.9 480 6297.9 720 6311.24C960 6324.57 1200 6324.57 1440 6311.24M0 6292.62C240 6279.28 480 6279.28 720 6292.62C960 6305.95 1200 6305.95 1440 6292.62M0 6274C240 6260.67 480 6260.67 720 6274C960 6287.33 1200 6287.33 1440 6274M0 6255.38C240 6242.05 480 6242.05 720 6255.38C960 6268.72 1200 6268.72 1440 6255.38M0 6236.76C240 6223.43 480 6223.43 720 6236.76C960 6250.1 1200 6250.1 1440 6236.76M0 6218.15C240 6204.81 480 6204.81 720 6218.15C960 6231.48 1200 6231.48 1440 6218.15M0 6199.53C240 6186.19 480 6186.19 720 6199.53C960 6212.86 1200 6212.86 1440 6199.53M0 6180.91C240 6167.58 480 6167.58 720 6180.91C960 6194.24 1200 6194.24 1440 6180.91M0 6162.29C240 6148.96 480 6148.96 720 6162.29C960 6175.62 1200 6175.62 1440 6162.29" stroke="url(#paint4_linear_40003111_8933)"/>
<path d="M0 7187.67C240 7201.01 480 7201.01 720 7187.67C960 7174.34 1200 7174.34 1440 7187.67M0 7206.29C240 7219.62 480 7219.62 720 7206.29C960 7192.96 1200 7192.96 1440 7206.29M0 7224.91C240 7238.24 480 7238.24 720 7224.91C960 7211.58 1200 7211.58 1440 7224.91M0 7243.53C240 7256.86 480 7256.86 720 7243.53C960 7230.19 1200 7230.19 1440 7243.53M0 7262.15C240 7275.48 480 7275.48 720 7262.15C960 7248.81 1200 7248.81 1440 7262.15M0 7280.76C240 7294.1 480 7294.1 720 7280.76C960 7267.43 1200 7267.43 1440 7280.76M0 7299.38C240 7312.72 480 7312.72 720 7299.38C960 7286.05 1200 7286.05 1440 7299.38M0 7318C240 7331.33 480 7331.33 720 7318C960 7304.67 1200 7304.67 1440 7318M0 7336.62C240 7349.95 480 7349.95 720 7336.62C960 7323.28 1200 7323.28 1440 7336.62M0 7355.24C240 7368.57 480 7368.57 720 7355.24C960 7341.9 1200 7341.9 1440 7355.24M0 7373.85C240 7387.19 480 7387.19 720 7373.85C960 7360.52 1200 7360.52 1440 7373.85M0 7392.47C240 7405.81 480 7405.81 720 7392.47C960 7379.14 1200 7379.14 1440 7392.47M0 7411.09C240 7424.42 480 7424.42 720 7411.09C960 7397.76 1200 7397.76 1440 7411.09M0 7429.71C240 7443.04 480 7443.04 720 7429.71C960 7416.38 1200 7416.38 1440 7429.71M0 7448.33C240 7461.66 480 7461.66 720 7448.33C960 7434.99 1200 7434.99 1440 7448.33M0 7466.95C240 7480.28 480 7480.28 720 7466.95C960 7453.61 1200 7453.61 1440 7466.95M0 7485.56C240 7498.9 480 7498.9 720 7485.56C960 7472.23 1200 7472.23 1440 7485.56M0 7504.18C240 7517.52 480 7517.52 720 7504.18C960 7490.85 1200 7490.85 1440 7504.18M0 7522.8C240 7536.13 480 7536.13 720 7522.8C960 7509.47 1200 7509.47 1440 7522.8M0 7541.42C240 7554.75 480 7554.75 720 7541.42C960 7528.08 1200 7528.08 1440 7541.42M0 7560.04C240 7573.37 480 7573.37 720 7560.04C960 7546.7 1200 7546.7 1440 7560.04M0 7578.65C240 7591.99 480 7591.99 720 7578.65C960 7565.32 1200 7565.32 1440 7578.65M0 7597.27C240 7610.61 480 7610.61 720 7597.27C960 7583.94 1200 7583.94 1440 7597.27M0 7615.89C240 7629.22 480 7629.22 720 7615.89C960 7602.56 1200 7602.56 1440 7615.89M0 7634.51C240 7647.84 480 7647.84 720 7634.51C960 7621.18 1200 7621.18 1440 7634.51M0 7653.13C240 7666.46 480 7666.46 720 7653.13C960 7639.79 1200 7639.79 1440 7653.13M0 7671.75C240 7685.08 480 7685.08 720 7671.75C960 7658.41 1200 7658.41 1440 7671.75M0 7690.36C240 7703.7 480 7703.7 720 7690.36C960 7677.03 1200 7677.03 1440 7690.36M0 7708.98C240 7722.32 480 7722.32 720 7708.98C960 7695.65 1200 7695.65 1440 7708.98M0 7727.6C240 7740.93 480 7740.93 720 7727.6C960 7714.27 1200 7714.27 1440 7727.6M0 7746.22C240 7759.55 480 7759.55 720 7746.22C960 7732.88 1200 7732.88 1440 7746.22M0 7764.84C240 7778.17 480 7778.17 720 7764.84C960 7751.5 1200 7751.5 1440 7764.84M0 7783.45C240 7796.79 480 7796.79 720 7783.45C960 7770.12 1200 7770.12 1440 7783.45M0 7802.07C240 7815.41 480 7815.41 720 7802.07C960 7788.74 1200 7788.74 1440 7802.07M0 7820.69C240 7834.02 480 7834.02 720 7820.69C960 7807.36 1200 7807.36 1440 7820.69M0 7839.31C240 7852.64 480 7852.64 720 7839.31C960 7825.98 1200 7825.98 1440 7839.31M0 7857.93C240 7871.26 480 7871.26 720 7857.93C960 7844.59 1200 7844.59 1440 7857.93M0 7876.55C240 7889.88 480 7889.88 720 7876.55C960 7863.21 1200 7863.21 1440 7876.55M0 7895.16C240 7908.5 480 7908.5 720 7895.16C960 7881.83 1200 7881.83 1440 7895.16M0 7913.78C240 7927.12 480 7927.12 720 7913.78C960 7900.45 1200 7900.45 1440 7913.78M0 7932.4C240 7945.73 480 7945.73 720 7932.4C960 7919.07 1200 7919.07 1440 7932.4M0 7951.02C240 7964.35 480 7964.35 720 7951.02C960 7937.68 1200 7937.68 1440 7951.02M0 7969.64C240 7982.97 480 7982.97 720 7969.64C960 7956.3 1200 7956.3 1440 7969.64M0 7988.25C240 8001.59 480 8001.59 720 7988.25C960 7974.92 1200 7974.92 1440 7988.25M0 8006.87C240 8020.21 480 8020.21 720 8006.87C960 7993.54 1200 7993.54 1440 8006.87M0 8025.49C240 8038.82 480 8038.82 720 8025.49C960 8012.16 1200 8012.16 1440 8025.49M0 8044.11C240 8057.44 480 8057.44 720 8044.11C960 8030.78 1200 8030.78 1440 8044.11M0 8062.73C240 8076.06 480 8076.06 720 8062.73C960 8049.39 1200 8049.39 1440 8062.73M0 8081.35C240 8094.68 480 8094.68 720 8081.35C960 8068.01 1200 8068.01 1440 8081.35M0 8099.96C240 8113.3 480 8113.3 720 8099.96C960 8086.63 1200 8086.63 1440 8099.96M0 8118.58C240 8131.92 480 8131.92 720 8118.58C960 8105.25 1200 8105.25 1440 8118.58M0 8137.2C240 8150.53 480 8150.53 720 8137.2C960 8123.87 1200 8123.87 1440 8137.2M0 8155.82C240 8169.15 480 8169.15 720 8155.82C960 8142.48 1200 8142.48 1440 8155.82M0 8174.44C240 8187.77 480 8187.77 720 8174.44C960 8161.1 1200 8161.1 1440 8174.44M0 8193.05C240 8206.39 480 8206.39 720 8193.05C960 8179.72 1200 8179.72 1440 8193.05" stroke="url(#paint5_linear_40003111_8933)"/>
<path d="M0 8213.05C240 8226.39 480 8226.39 720 8213.05C960 8199.72 1200 8199.72 1440 8213.05M0 8231.67C240 8245.01 480 8245.01 720 8231.67C960 8218.34 1200 8218.34 1440 8231.67M0 8250.29C240 8263.62 480 8263.62 720 8250.29C960 8236.96 1200 8236.96 1440 8250.29M0 8268.91C240 8282.24 480 8282.24 720 8268.91C960 8255.58 1200 8255.58 1440 8268.91M0 8287.53C240 8300.86 480 8300.86 720 8287.53C960 8274.19 1200 8274.19 1440 8287.53M0 8306.15C240 8319.48 480 8319.48 720 8306.15C960 8292.81 1200 8292.81 1440 8306.15M0 8324.76C240 8338.1 480 8338.1 720 8324.76C960 8311.43 1200 8311.43 1440 8324.76M0 8343.38C240 8356.72 480 8356.72 720 8343.38C960 8330.05 1200 8330.05 1440 8343.38M0 8362C240 8375.33 480 8375.33 720 8362C960 8348.67 1200 8348.67 1440 8362M0 8380.62C240 8393.95 480 8393.95 720 8380.62C960 8367.28 1200 8367.28 1440 8380.62M0 8399.24C240 8412.57 480 8412.57 720 8399.24C960 8385.9 1200 8385.9 1440 8399.24M0 8417.85C240 8431.19 480 8431.19 720 8417.85C960 8404.52 1200 8404.52 1440 8417.85M0 8436.47C240 8449.81 480 8449.81 720 8436.47C960 8423.14 1200 8423.14 1440 8436.47M0 8455.09C240 8468.42 480 8468.42 720 8455.09C960 8441.76 1200 8441.76 1440 8455.09M0 8473.71C240 8487.04 480 8487.04 720 8473.71C960 8460.38 1200 8460.38 1440 8473.71M0 8492.33C240 8505.66 480 8505.66 720 8492.33C960 8478.99 1200 8478.99 1440 8492.33M0 8510.95C240 8524.28 480 8524.28 720 8510.95C960 8497.61 1200 8497.61 1440 8510.95M0 8529.56C240 8542.9 480 8542.9 720 8529.56C960 8516.23 1200 8516.23 1440 8529.56M0 8548.18C240 8561.52 480 8561.52 720 8548.18C960 8534.85 1200 8534.85 1440 8548.18M0 8566.8C240 8580.13 480 8580.13 720 8566.8C960 8553.47 1200 8553.47 1440 8566.8M0 8585.42C240 8598.75 480 8598.75 720 8585.42C960 8572.09 1200 8572.09 1440 8585.42M0 8604.04C240 8617.37 480 8617.37 720 8604.04C960 8590.7 1200 8590.7 1440 8604.04M0 8622.65C240 8635.99 480 8635.99 720 8622.65C960 8609.32 1200 8609.32 1440 8622.65M0 8641.27C240 8654.61 480 8654.61 720 8641.27C960 8627.94 1200 8627.94 1440 8641.27M0 8659.89C240 8673.22 480 8673.22 720 8659.89C960 8646.56 1200 8646.56 1440 8659.89M0 8678.51C240 8691.84 480 8691.84 720 8678.51C960 8665.18 1200 8665.18 1440 8678.51M0 8697.13C240 8710.46 480 8710.46 720 8697.13C960 8683.79 1200 8683.79 1440 8697.13M0 8715.75C240 8729.08 480 8729.08 720 8715.75C960 8702.41 1200 8702.41 1440 8715.75M0 8734.36C240 8747.7 480 8747.7 720 8734.36C960 8721.03 1200 8721.03 1440 8734.36M0 8752.98C240 8766.32 480 8766.32 720 8752.98C960 8739.65 1200 8739.65 1440 8752.98M0 8771.6C240 8784.93 480 8784.93 720 8771.6C960 8758.27 1200 8758.27 1440 8771.6M0 8790.22C240 8803.55 480 8803.55 720 8790.22C960 8776.88 1200 8776.88 1440 8790.22M0 8808.84C240 8822.17 480 8822.17 720 8808.84C960 8795.5 1200 8795.5 1440 8808.84M0 8827.45C240 8840.79 480 8840.79 720 8827.45C960 8814.12 1200 8814.12 1440 8827.45M0 8846.07C240 8859.41 480 8859.41 720 8846.07C960 8832.74 1200 8832.74 1440 8846.07M0 8864.69C240 8878.02 480 8878.02 720 8864.69C960 8851.36 1200 8851.36 1440 8864.69M0 8883.31C240 8896.64 480 8896.64 720 8883.31C960 8869.98 1200 8869.98 1440 8883.31M0 8901.93C240 8915.26 480 8915.26 720 8901.93C960 8888.59 1200 8888.59 1440 8901.93M0 8920.55C240 8933.88 480 8933.88 720 8920.55C960 8907.21 1200 8907.21 1440 8920.55M0 8939.16C240 8952.5 480 8952.5 720 8939.16C960 8925.83 1200 8925.83 1440 8939.16M0 8957.78C240 8971.12 480 8971.12 720 8957.78C960 8944.45 1200 8944.45 1440 8957.78M0 8976.4C240 8989.73 480 8989.73 720 8976.4C960 8963.07 1200 8963.07 1440 8976.4M0 8995.02C240 9008.35 480 9008.35 720 8995.02C960 8981.68 1200 8981.68 1440 8995.02M0 9013.64C240 9026.97 480 9026.97 720 9013.64C960 9000.3 1200 9000.3 1440 9013.64M0 9032.25C240 9045.59 480 9045.59 720 9032.25C960 9018.92 1200 9018.92 1440 9032.25M0 9050.87C240 9064.21 480 9064.21 720 9050.87C960 9037.54 1200 9037.54 1440 9050.87M0 9069.49C240 9082.82 480 9082.82 720 9069.49C960 9056.16 1200 9056.16 1440 9069.49M0 9088.11C240 9101.44 480 9101.44 720 9088.11C960 9074.78 1200 9074.78 1440 9088.11M0 9106.73C240 9120.06 480 9120.06 720 9106.73C960 9093.39 1200 9093.39 1440 9106.73M0 9125.35C240 9138.68 480 9138.68 720 9125.35C960 9112.01 1200 9112.01 1440 9125.35M0 9143.96C240 9157.3 480 9157.3 720 9143.96C960 9130.63 1200 9130.63 1440 9143.96M0 9162.58C240 9175.92 480 9175.92 720 9162.58C960 9149.25 1200 9149.25 1440 9162.58M0 9181.2C240 9194.53 480 9194.53 720 9181.2C960 9167.87 1200 9167.87 1440 9181.2M0 9199.82C240 9213.15 480 9213.15 720 9199.82C960 9186.48 1200 9186.48 1440 9199.82M0 9218.44C240 9231.77 480 9231.77 720 9218.44C960 9205.1 1200 9205.1 1440 9218.44" stroke="url(#paint6_linear_40003111_8933)"/>
<defs>
<linearGradient id="paint0_linear_40003111_8933" x1="720" y1="1025.38" x2="720" y2="0" gradientUnits="userSpaceOnUse">
<stop stop-color="white" stop-opacity="0"/>
<stop offset="0.307692" stop-color="#F7F6F8"/>
<stop offset="1" stop-color="white" stop-opacity="0"/>
</linearGradient>
<linearGradient id="paint1_linear_40003111_8933" x1="720" y1="1025.38" x2="720" y2="2050.76" gradientUnits="userSpaceOnUse">
<stop stop-color="white" stop-opacity="0"/>
<stop offset="0.307692" stop-color="#F7F6F8"/>
<stop offset="1" stop-color="white" stop-opacity="0"/>
</linearGradient>
<linearGradient id="paint2_linear_40003111_8933" x1="720" y1="2050.76" x2="720" y2="3076.15" gradientUnits="userSpaceOnUse">
<stop stop-color="white" stop-opacity="0"/>
<stop offset="0.307692" stop-color="#F7F6F8"/>
<stop offset="1" stop-color="white" stop-opacity="0"/>
</linearGradient>
<linearGradient id="paint3_linear_40003111_8933" x1="720" y1="3076.15" x2="720" y2="4101.53" gradientUnits="userSpaceOnUse">
<stop stop-color="white" stop-opacity="0"/>
<stop offset="0.307692" stop-color="#F7F6F8"/>
<stop offset="1" stop-color="white" stop-opacity="0"/>
</linearGradient>
<linearGradient id="paint4_linear_40003111_8933" x1="720" y1="7177.67" x2="720" y2="6152.29" gradientUnits="userSpaceOnUse">
<stop stop-color="white" stop-opacity="0"/>
<stop offset="0.307692" stop-color="#F7F6F8"/>
<stop offset="1" stop-color="white" stop-opacity="0"/>
</linearGradient>
<linearGradient id="paint5_linear_40003111_8933" x1="720" y1="7177.67" x2="720" y2="8203.05" gradientUnits="userSpaceOnUse">
<stop stop-color="white" stop-opacity="0"/>
<stop offset="0.307692" stop-color="#F7F6F8"/>
<stop offset="1" stop-color="white" stop-opacity="0"/>
</linearGradient>
<linearGradient id="paint6_linear_40003111_8933" x1="720" y1="8203.05" x2="720" y2="9228.44" gradientUnits="userSpaceOnUse">
<stop stop-color="white" stop-opacity="0"/>
<stop offset="0.307692" stop-color="#F7F6F8"/>
<stop offset="1" stop-color="white" stop-opacity="0"/>
</linearGradient>
</defs>
</svg>
