<svg width="24" height="24" viewBox="0 0 24 24" fill="none" xmlns="http://www.w3.org/2000/svg">
<g id="neler sunuyor icons">
<path id="Vector (Stroke)" d="M14.208 16.7275C14.3584 16.1961 14.9119 15.8877 15.4433 16.0381C15.9745 16.1886 16.2831 16.7412 16.1328 17.2725C15.7372 18.6705 15.2128 20.0154 14.5732 21.292C14.3257 21.7855 13.7251 21.9846 13.2314 21.7373C12.7376 21.4899 12.5378 20.8893 12.7851 20.3955C13.3689 19.2302 13.847 18.0032 14.208 16.7275ZM11 11C11 10.4477 11.4477 10 12 10C12.5522 10.0001 13 10.4477 13 11C13 14.711 11.935 18.1764 10.0937 21.1035C9.79971 21.5709 9.18226 21.7118 8.71482 21.418C8.24745 21.124 8.10657 20.5065 8.40036 20.0391C10.047 17.4215 11 14.3233 11 11ZM19 11C19 7.134 15.866 4 12 4C10.7235 4 9.52946 4.34066 8.50095 4.93555C8.02302 5.21202 7.41139 5.04905 7.13474 4.57129C6.85826 4.09335 7.02122 3.48172 7.49899 3.20508C8.82379 2.43872 10.3624 2 12 2C16.9706 2 21 6.02944 21 11C21 13.5665 20.6417 16.051 19.9717 18.4053C19.8205 18.9364 19.2674 19.2447 18.7363 19.0938C18.2052 18.9426 17.8967 18.3895 18.0478 17.8584C18.6677 15.6803 19 13.3797 19 11ZM2.99997 11C2.99997 9.36237 3.4387 7.82382 4.20505 6.49902C4.4817 6.02125 5.09332 5.85829 5.57126 6.13477C6.04902 6.41142 6.21199 7.02305 5.93552 7.50098C5.34063 8.52949 4.99997 9.72347 4.99997 11C4.99997 12.7191 4.6047 14.3489 3.89939 15.8008C3.65811 16.2974 3.06013 16.5047 2.56345 16.2637C2.06669 16.0223 1.85922 15.4235 2.10056 14.9268C2.6764 13.7414 2.99997 12.4098 2.99997 11ZM15 11C15 9.34318 13.6567 8.00005 12 8C10.3431 8 8.99997 9.34314 8.99997 11C8.99997 13.9355 8.1598 16.6656 6.70798 18.9736L6.707 18.9727C6.69224 18.9962 6.67948 19.0189 6.66696 19.04C6.38547 19.5151 5.77199 19.6721 5.29685 19.3906C4.82194 19.1091 4.66488 18.4956 4.94626 18.0205C4.96904 17.9821 4.99241 17.9456 5.01462 17.9102V17.9092C6.27172 15.9108 6.99997 13.548 6.99997 11C6.99997 8.23858 9.23855 6 12 6C14.7613 6.00005 17 8.2386 17 11C17 12.0624 16.9273 13.1096 16.7871 14.1357C16.7121 14.6827 16.2082 15.066 15.6611 14.9912C15.1139 14.9164 14.7309 14.4114 14.8056 13.8643C14.9336 12.9277 15 11.9715 15 11Z" fill="#0033B3"/>
</g>
</svg>
