<svg width="24" height="24" viewBox="0 0 24 24" fill="none" xmlns="http://www.w3.org/2000/svg">
<path d="M7.03006 0.0840165C5.75326 0.144216 4.88137 0.348016 4.11907 0.647415C3.33027 0.954914 2.66157 1.36741 1.99628 2.03511C1.33108 2.70281 0.921279 3.37191 0.61608 4.1621C0.320681 4.9259 0.120481 5.7986 0.0640814 7.0761C0.00768156 8.35359 -0.0048184 8.76429 0.00148158 12.0231C0.00768157 15.2817 0.0220815 15.6902 0.0839814 16.9704C0.144981 18.2469 0.347981 19.1186 0.64748 19.8811C0.955479 20.67 1.36748 21.3384 2.03548 22.0039C2.70337 22.6694 3.37197 23.0782 4.16397 23.3839C4.92717 23.6788 5.80007 23.8799 7.07736 23.9358C8.35466 23.9918 8.76576 24.0048 12.0235 23.9985C15.2813 23.9923 15.6915 23.9778 16.9713 23.9171C18.2513 23.8564 19.1183 23.652 19.8811 23.3539C20.67 23.0453 21.3389 22.6339 22.0039 21.9658C22.6689 21.2976 23.0784 20.628 23.3834 19.8374C23.6791 19.0742 23.88 18.2014 23.9354 16.925C23.9914 15.6441 24.0046 15.2352 23.9984 11.977C23.9921 8.71869 23.9774 8.31019 23.9167 7.0305C23.856 5.7508 23.6527 4.8818 23.3534 4.1188C23.045 3.32991 22.6334 2.66201 21.9658 1.99601C21.2981 1.33001 20.6279 0.920814 19.8377 0.616515C19.0739 0.321016 18.2016 0.119716 16.9243 0.0645166C15.647 0.00931676 15.2359 -0.0049832 11.9769 0.00141679C8.71796 0.00761677 8.30996 0.0216167 7.03006 0.0840165ZM7.17026 21.7771C6.00026 21.7262 5.36497 21.5318 4.94157 21.3691C4.38097 21.1531 3.98157 20.892 3.55967 20.4741C3.13767 20.0563 2.87857 19.6555 2.65967 19.0961C2.49527 18.6727 2.29728 18.0381 2.24258 16.8681C2.18308 15.6036 2.17058 15.2239 2.16358 12.0201C2.15658 8.81639 2.16888 8.43709 2.22428 7.1721C2.27428 6.0031 2.46987 5.3671 2.63227 4.9439C2.84827 4.3826 3.10847 3.98391 3.52727 3.56231C3.94607 3.14061 4.34567 2.88091 4.90557 2.66201C5.32857 2.49691 5.96306 2.30061 7.13256 2.24491C8.39806 2.18491 8.77726 2.17291 11.9805 2.16591C15.1838 2.15891 15.564 2.17091 16.83 2.22671C17.999 2.27751 18.6353 2.47121 19.058 2.63471C19.6188 2.85071 20.018 3.11011 20.4396 3.52971C20.8613 3.94911 21.1212 4.3473 21.3401 4.9084C21.5054 5.3301 21.7018 5.9644 21.757 7.1347C21.8172 8.40019 21.8309 8.77969 21.8366 11.9827C21.8424 15.1857 21.8311 15.5661 21.7756 16.8307C21.7246 18.0007 21.5306 18.6362 21.3676 19.0601C21.1516 19.6205 20.8913 20.0201 20.4722 20.4415C20.0532 20.863 19.6541 21.1226 19.0939 21.3415C18.6715 21.5064 18.0362 21.7032 16.8677 21.7589C15.6021 21.8184 15.2229 21.8309 12.0184 21.8379C8.81396 21.8449 8.43576 21.8319 7.17026 21.7771ZM16.9529 5.5864C16.9534 5.87123 17.0383 6.14952 17.197 6.38608C17.3556 6.62263 17.5809 6.80682 17.8442 6.91536C18.1076 7.02389 18.3972 7.05189 18.6764 6.99581C18.9557 6.93973 19.212 6.8021 19.4131 6.60032C19.6141 6.39853 19.7508 6.14167 19.8058 5.86221C19.8608 5.58274 19.8317 5.29324 19.7222 5.0303C19.6127 4.76737 19.4277 4.54282 19.1905 4.38506C18.9534 4.2273 18.6748 4.14341 18.3899 4.144C18.0081 4.1448 17.6423 4.29719 17.3728 4.56768C17.1033 4.83816 16.9523 5.20459 16.9529 5.5864ZM5.83846 12.012C5.84516 15.4152 8.60906 18.1677 12.0114 18.1613C15.414 18.1548 18.1684 15.3912 18.162 11.988C18.1555 8.58479 15.391 5.8315 11.988 5.8382C8.58506 5.8449 5.83206 8.60919 5.83846 12.012ZM7.99996 12.0077C7.9984 11.2166 8.23146 10.4428 8.66968 9.78409C9.10791 9.12544 9.7316 8.61152 10.4619 8.30732C11.1922 8.00313 11.9963 7.92232 12.7725 8.07512C13.5487 8.22792 14.2622 8.60746 14.8227 9.16576C15.3832 9.72405 15.7656 10.436 15.9215 11.2116C16.0774 11.9872 15.9998 12.7916 15.6985 13.5231C15.3972 14.2546 14.8858 14.8804 14.2289 15.3212C13.5719 15.762 12.7991 15.9982 12.0079 15.9998C11.4826 16.0009 10.9623 15.8985 10.4765 15.6985C9.99079 15.4984 9.54922 15.2047 9.17703 14.8339C8.80484 14.4632 8.50933 14.0228 8.30736 13.5379C8.1054 13.053 8.00094 12.533 7.99996 12.0077Z" fill="#DFE6F5"/>
</svg>
