<svg width="24" height="24" viewBox="0 0 24 24" fill="none" xmlns="http://www.w3.org/2000/svg">
<g id="neler sunuyor icons">
<path id="Vector (Stroke)" d="M11 19.5006C11 18.9483 11.4477 18.5006 12 18.5006C12.5523 18.5006 13 18.9483 13 19.5006V20.2994L13.7646 19.8756C14.2473 19.6078 14.8558 19.7818 15.124 20.2643C15.3922 20.7471 15.2181 21.3564 14.7354 21.6246L13.2627 22.443C13.1003 22.5332 12.9017 22.6469 12.6797 22.7311C12.5011 22.8972 12.2631 23.0006 12 23.0006C11.7364 23.0006 11.497 22.8978 11.3184 22.7311C11.2524 22.706 11.1883 22.6792 11.127 22.65L10.7373 22.443L9.26465 21.6246C8.78186 21.3564 8.60777 20.7471 8.87598 20.2643C9.14419 19.7818 9.75273 19.6078 10.2354 19.8756L11 20.2994V19.5006ZM2 14.5006C2 13.9483 2.44772 13.5006 3 13.5006C3.55228 13.5006 4 13.9483 4 14.5006V16.0592L4.00488 16.403C4.00498 16.4045 4.00479 16.4063 4.00488 16.4078C4.00654 16.4089 4.00793 16.4106 4.00977 16.4117C4.06704 16.4482 4.14862 16.4947 4.30859 16.5836L5.73535 17.3756C6.21813 17.6438 6.39224 18.2532 6.12402 18.736C5.85583 19.2185 5.24734 19.3926 4.76465 19.1246L3.33691 18.3317C3.1276 18.2154 2.8529 18.0731 2.62402 17.8619L2.5293 17.7672C2.33623 17.5578 2.18987 17.3098 2.10059 17.0397C2.01581 16.7831 2.0019 16.5132 2 16.2789V14.5006ZM20 16.0592V14.5006C20 13.9483 20.4477 13.5006 21 13.5006C21.5523 13.5006 22 13.9483 22 14.5006V16.2789C21.9981 16.5132 21.9842 16.783 21.8994 17.0397C21.81 17.3103 21.6632 17.5583 21.4707 17.7672C21.2266 18.032 20.9017 18.1976 20.6621 18.3307L20.6631 18.3317L19.2354 19.1246C18.7527 19.3926 18.1442 19.2185 17.876 18.736C17.6078 18.2532 17.7819 17.6438 18.2646 17.3756L19.6914 16.5836L19.9902 16.4117C19.9918 16.4107 19.9927 16.4088 19.9941 16.4078C19.9942 16.4063 19.995 16.4046 19.9951 16.403C19.9992 16.3352 20 16.2417 20 16.0592ZM11 14.5006V12.5885L9.26465 11.6246C8.78186 11.3564 8.60776 10.7471 8.87598 10.2643C9.14419 9.78185 9.75273 9.60778 10.2354 9.87561L12 10.8551L13.7646 9.87561C14.2473 9.60778 14.8558 9.78185 15.124 10.2643C15.3922 10.7471 15.2181 11.3564 14.7354 11.6246L13 12.5885V14.5006C12.9998 15.0527 12.5522 15.5006 12 15.5006C11.4478 15.5006 11.0002 15.0527 11 14.5006ZM2 9.50061V7.72131C2.00119 7.5751 2.00917 7.41549 2.03418 7.25354C1.97105 7.01301 1.99567 6.74882 2.12598 6.51428C2.26507 6.26408 2.49584 6.0975 2.75293 6.03186C2.95105 5.87814 3.16532 5.7639 3.33691 5.66858L4.76465 4.87561C5.24727 4.60777 5.85581 4.78184 6.12402 5.26428C6.39224 5.74706 6.21814 6.35642 5.73535 6.62463L5.05957 6.99963L5.73535 7.37561C6.21814 7.64382 6.39224 8.25317 6.12402 8.73596C5.85583 9.21852 5.24733 9.39255 4.76465 9.12463L4 8.69983V9.50061C3.99978 10.0527 3.55215 10.5006 3 10.5006C2.44785 10.5006 2.00022 10.0527 2 9.50061ZM20 9.50061V8.69983L19.2354 9.12463C18.7527 9.39255 18.1442 9.21852 17.876 8.73596C17.6078 8.25317 17.7819 7.64382 18.2646 7.37561L18.9395 6.99963L18.2646 6.62463C17.7819 6.35641 17.6078 5.74706 17.876 5.26428C18.1442 4.78183 18.7527 4.60777 19.2354 4.87561L20.6631 5.66858H20.6621C20.834 5.76405 21.0489 5.87814 21.2471 6.03186C21.5042 6.0975 21.7349 6.26408 21.874 6.51428C22.0043 6.74882 22.0289 7.01301 21.9658 7.25354C21.9908 7.41549 21.9988 7.57511 22 7.72131V9.50061C21.9998 10.0527 21.5521 10.5006 21 10.5006C20.4479 10.5006 20.0002 10.0527 20 9.50061ZM11.5977 1.18518C11.8632 1.13063 12.1369 1.13068 12.4023 1.18518H12.4033C12.7387 1.25426 13.0349 1.43218 13.2617 1.55822L13.2627 1.55725L14.7354 2.37561C15.2181 2.64381 15.3922 3.25317 15.124 3.73596C14.8558 4.21852 14.2473 4.39255 13.7646 4.12463L12.291 3.30627C12.1396 3.22214 12.0626 3.17883 12.0049 3.151C12.0031 3.15014 12.0016 3.14884 12 3.14807C11.9984 3.14884 11.9969 3.15014 11.9951 3.151C11.9374 3.17882 11.8604 3.22214 11.709 3.30627L10.2354 4.12463C9.75267 4.39255 9.14417 4.21852 8.87598 3.73596C8.60777 3.25317 8.78186 2.64381 9.26465 2.37561L10.7373 1.55725V1.55822C10.9642 1.43217 11.2609 1.25433 11.5967 1.18518H11.5977Z" fill="#0033B3"/>
</g>
</svg>
