<svg width="110" height="64" viewBox="0 0 110 64" fill="none" xmlns="http://www.w3.org/2000/svg">
<g id="Vector">
<path d="M104.443 0H103.349C100.518 0 98.2236 2.2948 98.2236 5.12558C98.2236 7.95636 100.518 10.2512 103.349 10.2512H104.443C107.273 10.2512 109.568 7.95636 109.568 5.12558C109.568 2.2948 107.273 0 104.443 0Z" fill="#F5F5F5"/>
<path d="M104.536 58.5636C96.0572 60.5394 78.3977 64.0115 54.8108 64C31.3314 63.9885 13.7564 60.5356 5.28151 58.5636V49.2141C12.755 51.2014 30.5603 55.3333 55.0219 55.3218C79.353 55.3103 97.0585 51.2052 104.536 49.2141V58.5636Z" fill="#F5F5F5"/>
<path d="M0 14.0967V45.721L10.5427 45.7287L10.5581 32.3201L13.3012 37.86C14.034 39.3447 15.5455 40.2847 17.1991 40.2962C18.8756 40.3077 20.4064 39.3601 21.1507 37.8562L23.8823 32.3316L23.9206 45.7287H34.4557V14.158L24.3503 14.1887L21.8451 19.3335C19.9882 23.147 14.5596 23.1662 12.6758 19.3642L10.0977 14.1504C6.73307 14.1312 3.36846 14.112 0.00383651 14.0928L0 14.0967Z" fill="#F5F5F5"/>
<path d="M38.3804 14.1121V45.7288H62.9609V39.9318C62.9609 38.8269 62.067 37.933 60.9621 37.933H50.9181C49.8132 37.9368 48.9155 37.0391 48.9155 35.9342C48.9155 34.8331 49.8094 33.9392 50.9105 33.9392L55.6716 33.9046C56.9606 33.897 58.173 33.2179 58.806 32.0938C58.8405 32.0286 58.8751 31.9634 58.9096 31.8981C58.9902 31.7409 59.8725 29.8801 58.9096 27.9427C58.8789 27.8813 58.8482 27.8199 58.8137 27.7624C58.1768 26.6191 56.9338 25.94 55.6255 25.9516L50.9066 25.9861C49.8017 25.9861 48.9078 25.0922 48.9078 23.9873V23.9067C48.9078 22.8018 49.8017 21.9079 50.9066 21.9079H60.9621C62.067 21.9079 62.9609 21.0101 62.9609 19.9091V14.1543L38.3766 14.1159L38.3804 14.1121Z" fill="#F5F5F5"/>
<path d="M93.8832 32.3124C92.8282 30.6282 91.2399 29.93 90.603 29.6921C91.3243 29.132 92.5136 28.2035 93.0929 26.6306C94.1441 23.7647 94.1365 19.3911 91.4279 16.6556C88.5428 13.7437 84.6257 14.0929 84.0848 14.1504H65.6696V45.7249L84.5682 45.7287C84.9058 45.7364 90.8255 45.7709 93.4766 41.474C94.7234 39.4522 94.8002 37.2002 94.8117 36.6093C94.8385 35.4622 94.8731 33.8969 93.8832 32.3163V32.3124ZM81.0348 38.5276H78.3876C76.8913 38.5276 75.6752 37.3114 75.6752 35.8152C75.6752 34.3189 76.8913 33.1028 78.3876 33.1028H81.0348C82.531 33.1028 83.7472 34.3189 83.7472 35.8152C83.7472 37.3114 82.531 38.5276 81.0348 38.5276ZM83.7472 23.9604C83.7472 25.3722 82.6039 26.5193 81.1882 26.5193H78.2303C76.8185 26.5193 75.6713 25.376 75.6713 23.9604C75.6713 22.5485 76.8146 21.4014 78.2303 21.4014H81.1882C82.6001 21.4014 83.7472 22.5447 83.7472 23.9604Z" fill="#F5F5F5"/>
<path d="M101.034 13.7361H106.053C107.986 13.7361 109.736 15.3129 109.555 17.2388C108.669 26.6996 108.224 36.3254 107.699 45.7287C104.445 45.7287 102.466 45.7287 99.2122 45.7287C98.675 36.1221 98.1533 26.7457 97.5356 17.2388C97.409 15.309 99.1047 13.7361 101.038 13.7361H101.034Z" fill="#F5F5F5"/>
</g>
</svg>
