<svg width="16" height="16" viewBox="0 0 16 16" fill="none" xmlns="http://www.w3.org/2000/svg">
<g id="Icons/user-03">
<path id="Vector (Stroke)" d="M7.99993 10.0002C10.4507 10.0002 12.6716 11.0361 14.3268 12.7118L14.485 12.8765L14.5292 12.9279C14.7351 13.1959 14.7082 13.5817 14.457 13.8185C14.2059 14.0551 13.8198 14.0591 13.5644 13.8381L13.5149 13.7905L13.2382 13.5106C11.8272 12.1472 9.99432 11.3335 7.99993 11.3335C5.87253 11.3335 3.92876 12.2593 2.48495 13.7905C2.23242 14.0584 1.8108 14.071 1.5429 13.8185C1.27505 13.566 1.26246 13.1444 1.5149 12.8765C3.18547 11.1046 5.47008 10.0002 7.99993 10.0002ZM10.3333 5.00016C10.3333 3.7115 9.2886 2.66683 7.99993 2.66683C6.71127 2.66683 5.6666 3.7115 5.6666 5.00016C5.6666 6.28883 6.71127 7.3335 7.99993 7.3335C9.2886 7.3335 10.3333 6.28883 10.3333 5.00016ZM11.6666 5.00016C11.6666 7.0252 10.025 8.66683 7.99993 8.66683C5.97489 8.66683 4.33326 7.02521 4.33326 5.00016C4.33326 2.97512 5.97489 1.3335 7.99993 1.3335C10.025 1.3335 11.6666 2.97512 11.6666 5.00016Z" fill="#B6C5E9"/>
</g>
</svg>
