<svg width="35" height="24" viewBox="0 0 35 24" fill="none" xmlns="http://www.w3.org/2000/svg">
<path d="M34.2567 5.17333C34.2567 5.17333 33.9235 2.82667 32.8972 1.78667C31.6044 0.426667 30.1516 0.426667 29.4719 0.346667C24.7146 0 17.5572 0 17.5572 0H17.5439C17.5439 0 10.3867 0 5.60189 0.346667C4.93549 0.426667 3.48269 0.426667 2.17655 1.78667C1.16362 2.82667 0.83042 5.17333 0.83042 5.17333C0.83042 5.17333 0.483887 7.94667 0.483887 10.7067V13.2933C0.483887 16.0533 0.83042 18.8133 0.83042 18.8133C0.83042 18.8133 1.16362 21.16 2.18989 22.2C3.48269 23.56 5.18869 23.52 5.94842 23.6533C8.68069 23.92 17.5439 24 17.5439 24C17.5439 24 24.7144 23.9867 29.4859 23.64C30.1523 23.56 31.6051 23.56 32.9112 22.2C33.9375 21.16 34.2707 18.8133 34.2707 18.8133C34.2707 18.8133 34.616 16.0533 34.616 13.2933V10.7067C34.6027 7.94667 34.2562 5.17333 34.2562 5.17333H34.2567ZM14.0247 16.4267V6.84L23.2476 11.6533L14.0247 16.4267Z" fill="#DFE6F5"/>
</svg>
